<mxfile host="app.diagrams.net" modified="2024-07-10T07:18:53.139Z" agent="Mozilla/5.0 (Windows NT 10.0; Win64; x64) AppleWebKit/537.36 (KHTML, like Gecko) Chrome/126.0.0.0 Safari/537.36" etag="YJ1JkouXZ8hRTGsW-56R" version="24.6.4" type="github">
  <diagram name="Page-1" id="3KBGiyl1ro5OKqX2cGh4">
    <mxGraphModel dx="1434" dy="780" grid="1" gridSize="10" guides="1" tooltips="1" connect="1" arrows="1" fold="1" page="1" pageScale="1" pageWidth="1100" pageHeight="1700" math="0" shadow="0">
      <root>
        <mxCell id="0" />
        <mxCell id="1" parent="0" />
        <mxCell id="0lMjlkx2c2jUyEddDLRM-1" value="" style="shape=image;verticalLabelPosition=bottom;labelBackgroundColor=default;verticalAlign=top;aspect=fixed;imageAspect=0;image=data:image/png,iVBORw0KGgoAAAANSUhEUgAABGIAAAJfCAYAAAA0B3DWAAAAAXNSR0IArs4c6QAAAARnQU1BAACxjwv8YQUAAAAJcEhZcwAADsMAAA7DAcdvqGQAAP+lSURBVHhe7J0HgFTV1cf/07f33lh26b1JUUAQRREFO1hjTeyfJhqjxhKNxhZ7xa6IIorSe++9t+299zp9vnPuzCzDuiAqEhPPj33MzHu3nnvfffecd4sGj2xxQRAEQRAEQRAEQRAEQfjV0Xo+BUEQBEEQBEEQBEEQhF8ZMcQIgiAIgiAIgiAIgiCcJsQQIwiCIAiCIAiCIAiCcJoQQ4wgCIIgCIIgCIIgCMJp4scNMXZnx4cs8SsIgiAIgiAIgiAIgvCTOP6uSS46rdGhW7w/Evz1MOmO2l5sVjuOVLSipMXJIQj/bTioJLl89TIgShAEQRAEQRAEQRBOJzqMuu1Jz/ejsJIOLYYO64Sl16ZidJQWDQ4t0iJMSA414U9jEhFvbcKyPAuFcBKWGKX4e7476XCRn1NlA/CG+1MMQk5PenzTxWn6NY1KHA/Hq77/wrg4HJYjo8J1f4XmJAIlv8nJobgs1R+lFWY0n4yfjuA64iu/nxWOJx8qD57vjArzF8rox/BN+8+Ni9PM4TD84XB//XmyOAk4vl8r7J8L1wPO+28tXYIgCIIgCIIgCL9ROh4RQwpx32GpWHBRDJL1Trwz/zDuXFYHGEjZIsXz4Rv7ILakFPet8pw7Hh4F7axBCXh8UAhcNgf0Rj2c9fX444IS5DWSg19ikCHvBr0OoUagptXRpscfF1KUU+Ki8eyFEQinnwGBegSY7ai0A3pLK26eX4ySRnJ0qgeKOCllYUF45NxkXBSpRXV1PW5bWIqyVsrAT9VfbS4kJUfiyXNj0NXohNlFibWY8f7yInxTavtxwxiVwYTz0vFuTz2ufjMTG0/GkPYDuNz88dcLkzEpXo+mumY8PrsQW+0/IT8OkklqBF4bFYPueg0C/PUwupyosjihsVnw3spczC2hwH6NQTskswmjO+GRnv4wU7l/vDYHM7IoLp3n+slAye9+Ziq+GByAqiY7BalDiNOK1xbl4+tSqlA/Jawfg8RqNBiQHKJBcb0NZq/x57eAXosIoxY1LZRnQRAEQRAEQRAE4UfpWM3VanBL/1DUl9Thg60VWFJsAQL0UPOT/HSke2mUjeWEKAes8KZh1nlh2LC7BNfPzMStS0rxbXYjWmyOo+vNWPnTEyIr6PybD1+F0+uODxsdfMnqwrCeKZg7ORwRDlIEvSMS+LrXLf21QckvrKzETZ8dwcRv8jDHYIR9aymu/OQwLvqmEKWk5Ko4VRz0yXEcE68nPfzBcfjGw+68+J7n7xYXzkwOwx1dtPjrNxm4ZXkF6rx+vO54tAPDn75he/PEOJ2ITY7GN9ckI6G2Gvd+m4WrZuXj+1oj/j01DRfHGtzpZ79eOXaQD5cnrjabia/MveVwonRYHTB2D8fNPYz48NsMXLO4DDvZfUfhMCoc+s3nvenRUdUrqsdfZmbggo8LsL1RBzPl6aJPjuCSmfmYX+IJry1++t1RWTB83hu+ukaH9/IxfuigMLWuYDw6NBjbdmZj4qwirGaDDxvLvO68efXG7w2jnQEkOCIAnez1uG/WYVwxqxDLNQF44eIk9DOQW3bqKw9fvywr73klGzr4Mo8u4fvC65R/e/yGBgXhpsERiPajtKr8eg6+Tn9tbr2HN4yOZOMrE/7uRcXvc+1EYfA1qx2xPeLw1RWJgJnSzWXum2ffMARBEARBEARBEARFxyNiNBq8cWNPFG3NwfNbmqAJ0EOn15A+Rk7peOyaXogoKsH9JxoRQ8qjf2QgZt3eC62LD+PKLfWAkReaYWXNBb8gEx4bF4fCRgeGJgbBUVmBB9bWIa1PIh7qGQA/0uAOZpbhmW0NaLabMHFYLP7Q3V8N+LA0tuCVFYXYHh+HhROScVagGRsLWvHhtjLMyrTi7vEpODdaB6fdhpkbSjEz33zsSBFOg78J9/yxF65Yno1xe+ph12txxzlJCHfaERIRjFRnI55fXYM+/eNxSZIRGq0G1WW1eH5tObK0fpgyJg7dW13oFGNCuEmLipJavLimHNkw4NrRyZgcZ4CW5Giua8K/arR4a2AkBkcCK7Ma8Nb6EiwtseO2cSmYEK2H02HDvPVl+DS7GQP6RuOmdBMO2f1wQawOK3fm4vUDpORqKc1WAx68ujtuCG3A6PfzUKvhYRd0XmfEv+/pjYEHCnAelcn55yWhb40NKZ2CEGNtxu0rKnHWwATc2MkEu8WK2gB/nGe04rp3eUSMDn0pjw/3DkQAxZGVXYEnNtYiNiUC9/ULxN5WAy5MNGLn/nz8c6eFotMgjeT+ytQYnBOsw47cOny/vBivVjoxeVQibkw2wkX6d35hNZ5eX40aqmL3nZsMg9WGuOhgxFsb8K81pdhXp/WYATlf/nju+m4YZCvF+K/L6ZwOQ3rE47o0M4q0ITgrQovlm4tRGh+LKZQHzrWloRGPLytDdrMRt46LRw+9BX4RQUgwatFUW49HV5aj0KLHRcPicUOan4qqpbEZCzMbMLhPZ/yxtx5HShqwYn81Ht7YhCtHJ2JKihEGSvyyHcV4c38LAnvE4h+djKhq1mJoVxPW7yjH6/saqK6w4QYYfGFPzE1pwNmfFyCrzgX94FRknx+MRz8/gOmlegw5Ix4P9HDX5UOqLjeiiYoypnMUnh4RiRidC0V1rSh3aFG6oxRLNUY8NjISf19UhIoWB/z8w/DixDDMWF+MQ+YQ/GO0H55fXo7w2Bjc1t2KAk0QRlH9Wbk2H582GvHA6AT0DaI619yKt5eWYF29HZePTMKoUJJXoD+6B+pQVVKD70n2k7uEIsoIZOdW48V11WCph0QE4N5RCRgcooWl1YwPlpVgebUWU8+Ox9BAK7RhQUihus6yf2xFOeqNofjgmhSMCQOW5jZj35FizKJ0PtwvGAFU97UuqtcUxscVJzmFURAEQRAEQRAE4XdAxyNivBhI5XU6kZYWgQXXpiCCNWweLXCSOlW8fySG61vxepHZvTAs+9PSf6SU6fTA2IFxeHFIELbsLsY/tjYitnsCvhoXgawDxXhyfysmjk3HY739KA12GPVO7D5UiSdXVCKkWyyeGhINbVY1ZtTYUVtahb8szMP3mRZcOyEN93bT4cOVxZhfa8DrV3bCyAjOByn8J4KuD+gWgX+OioaxrBJ/W12DHIsTflonVmwvxTMb6zBkWDL+nB6sDFXde8biscEmLN1ehL9vqsPIYUm4pU8wIrsn4rkhfli0Lh/3ravC1ppWlOytwIf7LGhoasKDiwuxstiGy85LxyPdDJi+shDf1+jxzNROGBOqRVSYCbeMSsaNEWY8v6wYs4tJ5iw3Tn+YP3rEmJBbWIVap8eQwfK02/D9ARv6djMiLEyDlPRoPHd+FCpzKvD3NZVIG5CCaSOCsH13IZ7Y3YxUUrjDDDzQwYWw9Fh8SW7LM0vx911NGD0qDU/180dEkB5Xn5WE+5OceHNlET7LtXvKDsgpL8fn+xsoP6Twzy3E21V2XED+Phjij0UbC/DU5joMJ1m9Moo0dIsLg3tG4l8jI2EpqMDDa2tRaPHUhePh1CAhPAh3nd0Zl5rMeGZVEWaVOdGscWLHgXL8fXUtErom4t8j/SkTegyncrtjcDiO7CvGXzfUILFbEl4Z5IduqSF4ZUw4Vm8sxAMry7CZ0pmX04QXl9eivNWCmVvy8Heqd+NGdMIrZ/hh3qZivJMLPDSxM65L0cEaFIjbxyTi6i5avLukEDOpHtt9DQr01Un3h4tHg2gMuCAlADBbkFnlQkzPeMygupx9sARP7G/BBK7LPY1AeAhenZSCAZY6PEZyPaINwhOjo9HbT4fQQCMu7BWKQDZuulww6P0wqXcoUgJ0CAwIxPUDQhFuoDoSGoA7zk7F1EAr/rWiEN9RPX9kchdM8KM6s7gYuSFhmHZlIuIojK6dQ3D3GVFoyijDg9vr0GNoKqafHYrVO+ie29GKy0clYQqni9J/30VdcGWoDf9eXISDphC8MyURSRot+qaG4+7hUag4Uoo/U33yS0nAh6ODUF1VjcU5jSitacZdc3LxfpYJ705IQHNRBe6eX4wlea3I4Hp7orIWBEEQBEEQBEH4nXFCQ4yDjRPDk/DPs2MxMCkUL09KxrBEIyy+005OgEFjhBFOWD2/fXG5+I25C3PWleD9vQ0oqrXhioHhKM+sxEtbG7B7eyW+zHbhwsGkzOsc+G5dIZ7dVoN9hTV4sdCMbkFGRFocqLY6YbM7UFpnhS0gBNd3C8CCTfmYl92Ij7cUYZlfEP4YbCKN2RPxCdCSxrhzfyWeX1eFvFoL6ltseH9pHt4+2IAduVV4r9qBIf4GFZZW48DGLcWYmdGCg5nlWFLjxJkhfohscMCmM2B4ehACKqvw+poq1NbYUWdxwu5woqTBBrs9CHd288PsLYWYnd2E6dvKsN4ViJu76NUskNbGFjy/oASbSltQVO9RZFnk/hr4+QEtFtuxJUd+LDl2WCibbCvRalzIPFCMZ7bV4ki1FVN7BmLvvgq8vqsJh/ZX4OO9dWilQHk2zpQh4WjJr8azG+qwf3cVPj3kwPkkc5aFvdWKVxcWYWVBCwrqfARot6OqlfPjQmWdDVaK9NbBgfh6fQmmHWnF7iNluGd3M87tGYGhQS41k2XL7gq8tLEa+STXOguF8SPKOc/kaWxqxn1LyrC9yIKKJiuWrMzHC9vrcDirHoszLYiPCyGXLmjI8ar9VXhjdxOyDtVh9l4bUlO1sNM1M3QY2DkYgY1NeHtVGTabnahtcsBKdbuWwnRodLhkaAh2rSvC54cbsXhNIXZajRjaJRQ2Ki+ruQkvri3E0mIzihuoJvuk20nxhsdE4PFJXfD+td3xbIoWzy8txRazBjcPDUN5RiVe3FKPPdur8GWWC+MGhKB/kj+GB9jw2OIK7C9oxvQ1RdjZ4iJ5u5StzeGdukW46F8r/bbTfcKDuFrt7nNOpwYtLa24f0kptuabYdWF49o4G/65phSbCxrw9JZq6GNCcXE86N4A9mfVYtq2BmRm1+G7Sify8yrwZUYjdu8vxe4GDeIiAqAxReDGRCdeWFOC9QWN+NeWSpgjQnF5ogZWyuf2jGo8v70ReZn1mLnNgoROPC7JgXqq1yynCqrXlXS/ULVAl4QQdPG34r3VJdhQw3VVLDGCIAiCIAiCIAheTmiI4ak1B3PrMDenCU1mK77cV4vDdXYEmnTwI2X/mHVAOsDussHi0sDEWmR7SDczkEK/hBR8p4ZHSGiQqNegc5dofHRLT8y7ORWXxgEF9eQ2wB93TuqGrXf1xqJbe+CJLv6kjJLy6tHv1AfHEaGDyV+HSUM7Ye6feuK7Szuhu9WCKrYE/JguyOlxOrG93oZyHm1Cv43hwfjn1T2x9c5emPuHrrgljg0l3rw4UVdMjijd0GrVdBn2U5JVgptW1KNH7yQsvbMvPjgnAjodKc/KD8FygxFGvR4Xj0jC97f3wpxLktDNaUMpuWMDSGOLFUuaKTAefUF/Cv5sJsW8FQgJNB5rWKLIA3vooW8kpZ0HrmidKD5iVct1sJCS9C4cbnWgiQPROVFtd7Qt1ZJk0CA5NRLvscxvScO1yUBhvUZt7GSjMl/QyOH7pMOL9xT/R0cCxXmEtzNnyH12nQOaQB1CQgG93YlN9XbU8MLCJ6mUs1ibm604THo8h68L8scDV/bAxrt7Y+4f03FLLz+4eHQWQ2VfzxnndFL4XJ20VCY5ubX4w4JSdOoRjwW398H0STEI4MFRXm/8H/lJN+owYFAK5txMMrg1FV31DpS3OumSBk2tVlS3ehZB5kT5oKHfPN3p6/3VyDQYEeNqwdeZzRQ5yZXrclffuuxCQYMWoSRvg82OTZwvCtOqsaPW6moftBuqa5zG9pfYbUuzBYfZwkn50bHB09+Ehy5KwxyqTzNHhsPaYkMDVRM9yaaUyrtczx45SCfMbO3jctA6lLGKA9RynfQz4t4LOqswvh0bBQ3lvc5Al8lJI6XZwZWc5UCfPDiOaUsbhWG3NuGebwpQ7h+Kz27ojdXXJ6NPEEfqcSMIgiAIgiAIgiCc2BDDCp+1qgXLD9Xgjc2VWJ/XhHpSttcfqMSuFh1GdPaDvs0w8UPKzLXY6fDHXWkB7iEO7JTds2Lm8eZo0+RI2aNz+zMqcPXHR3Dx9AwMe203LvqyAuP6JOCJwf54e0U+Lvn4EF7JNbctGMxrt7ANRgXX5ITN6sCcTbmY9NERcnsYZzy3D38uO7k1KtiF0+vMpsMNI5JwYwrwxLwcTPo8A19XOmD0NSR48uBFQ/94XYw163Nx9uv7ceeWRpx7djKuiDCo0UVtaBxwOu2YvZHy8+ERTKY8DXpxDx7aZoPRk05H+5LheBtasKfMjM7JMUjkBWHZEMHDWowmXN3DgB1ZVtQ2UxrYb1tGSBEnd/EUrpbLgAQerte1Le3TSOk6klOF6z8hmVMez3xjDyZ8WUJl73ZgP2EN8UDB5to1GBigJaWd43AhLUwHV4sDjQ2UdArDt5xPFiUx9kdZTB/ZCY8lavHpwmwq2xx8lmVR6xZ58abXC//WOBzYub0Y49/ehysX1WPogAQ80IPS4jXgsBeKpNLlxPYtBZhE9eXiT4+g14t71VS0ICOXKDs7Nmwv6v4wW5Wx8t3lxcgMjcQ/+gepcmkkOew/crQuD399Dy77pgzNlBcryb8rG0ZI9kaXHmFUGFw9OBYuZoPnHtEG6OFP5abk0I422RBOitDW2opn5mdRXcrApPcPoPerhzCzQEP+3W588c0Nf+fDxWFYzHh5cTYm070z6YMD6PPyQXyaC/hzHfD15APLQJW5p35nZlfguvf3Ycw3xWhKisNzAwMpcMqMIAiCIAiCIAiCoDiumq0j7TnMTw+/MBMcTWa8u70OfgFGRIUYsG53BfbYTPjs+u54bFAwAjx+joEUyOaaJry0vhYjz+2MN86NQrdwA5LTIjC1TxCijC6otWZ9UvD5gWYM6BmDJ88IRWiQEaMGx+KSHgaYyKHBZkN+vQ29uyfgyXSK0aWBjhT+5nIbIuNCcVZsACJszVhaYMWlZ6XismQ/xIcE4pYzY5EYTBH56oJezZbyqPfRMPWsHCtDCzvQIVCng8tiRV6jE+cPSMQ9CUY1dUh5UX4Zd2A6g1aNIonoFouHzolGl3AtqpvsajMZf3Kio3D9SeHmsQdw1WNWiR3XDO+EKV1NiAv3xzVnxmEYac0aDclF35HyTYEbbPh8bSkK/ULx9ZXJGJdoQEp8GJ6+LB3ntjbipZ11HJEaDeIZAKGS99mBFozqF4v7+gUgjeR7U98wtQkW2zG+ONiMtPQoPDs8HOFBBgwfGIurehtJDC5olaFDhfIDtJQfDeVH2Y2sDny4qwnjRyTg5h7B6Jkei9cHBGLNkVpsadIgwMAeOg7Hi5HSY/IYoRiWF1W/tth1JpKJ3U51wIkzB0djSnc/+LEBgFywX14H2o1GlamOlP/UhGD8dVw8Bgbq0NJMZUFlZ/e44s2HqMh4qAfm7yD5jEvCjT0DERwWiEnDYjEmibLl1JI7kudxks5y9qfDYNKioaQGb+9vxmXjEjEqAvhwXzP6kaz/cUaYqssjB8Viam8DdhS1YqfZiNf5fkjwx1VnJWIQ2yoovJJWBwo1JjzYLxip0UG469xIdOLlW9ioRGlwy4MNbd66xAnToNpchWWNAfjH2EQMjdEhPTEEtwyLRirLh2XKh6dC6Sk/fj4Z4jqvoetOSxUW1ZnwKGX8rHg9OscF4+YR0UgjN5p2ZcPy9SPZcTBlJNRwqr+Xdg1Et9gwPHBeEsYl+aPVbEcTj0TTU8RHvQqCIAiCIAiCIPzu0WHUbU96vh+FlbZgf0xMD8WknuG4mI7LetNnj3BcRMclvSNwYZcQ9IsNwMAwDdbl1CO/iTz9wKzjQk5eA/a3ajG6axguoGNC5yBE21uxrtiChPAAbCe/eQ08n0aDytJGbLQaMJHiu7RHGEbGGlFZVouZBa3QBwVhap8InBGtxcrDzaiobcHKombkNJnhFxGKq3qGoqG+Ge9trIIuMgSX9gnHBd1D0CvQhaU5TWqNFqXNetFpERdlgragAcvrbMqI0jk6AKXlTdhWZqXrDhxusiE+KgRT+oaji78TKzKaUVrRhGW1diTFmNBKaV/D2+BQ2lOi/NFU2oCNNj2uHRCJi7uH4ewYA1ZtLsIbOa0IDvFDhM6KuUeaYHc5sSu3Hi2hQbisZwQmkFz6BgNbj9Sj2s+IOJ0L8440HGM7UlD6zY2tmJ/ZgsROEbiEZHR+ejCCmxvx8PwCrK0hHwYtpdkEl8qXHS4dUFrWiEK/AJJJJMbHG9TIptLqVqzJIflRfle36HE+lzGV7eh4E6rL67GnUYsUfx3mU5rYmHSMMk1FHRzshwSNA8spneV0Lbe0GXlGf1xFcj8/1R8Zh8vx0NpatJBsusQEIK+kCbsqSK4+RoA2XFokRvmhqb4JKwssKp+hwSa3vDKa1DQqc6kNwQnBmNg3AoMDHdhc3Iwjla1YmW9Bpxg/lFc2YkMJLz6jRXSEPzSWemys0uOi/jGY3CsM53UyYtveMry0qxU2nQk9Y4HNOQ3IbnThYFETSgz+uJTCntw1hOq0FnsL6pDpMKG3nx0rMxtQYqF0t5NBYJg/Em0tWJDTgkZei6XMji6JgQhotGD+niqstxlVXb6M63KcERXljdiS24L1VXYM7haJyVR20Xo7bH4mVB6pwbcUTlYLMI7urwldgmGqrce6Sju20j1UZtWhS5gLiw43wGEwItbIdakRVqq4TqsV6wuaEZsYhit7ReA8CjfOZcOqzCb4RwbATnVmVT4FrNciNtIPruoGLC5yz/lKp7LJ57KhY0NBE8LiwnAVhTGe7u8krR2rjzTDj8qmxVs25Cc81B9BmiYsyrEhs8IOf/p9ea9QxDms8I8JUW3GRWmBaCqqxEMb61FnbSc7QRAEQRAEQRCE3zEdb1/N8NAPtgR0pEDZnOjdPw6vjwzBiwsLsbiE19DwXOsIXqzE16rAyjgfHIeOX617zjM8fcYzzUHB19uvR8NpYqOKetPvc83r1jsNyot3x6b28Bt7DsNrHODf/N379p/TwWF54dPetKu3/T7hetfdYHz9eMPzTDdRw1AYdqKG13ih8zxfSMVJP/n78fhBusitSpfnd/t8MRyXjxeVbk4/05HM2fGJ0qHyQ4c3DMY3Dm/5sPf2cu0ItaCNjxsVPn22yYt+t1+TyBsmx+uNj+GweD0aXTs/7EaFR+c8a7QombET5Yc+vXC+eEoNz6liP+ytPape0wWvjLxp9NbpjuTK5/mc51pgeAC+u7sXsmcdwR2ZTe54KFgFp5fDVDKmTw5bpYv90ynfsvGG6cWbV2/+vXLksuBFdPTun8eUzfHCaF82x+Sb3HMc7I3D8c0vX1b3pPunIAiCIAiCIAiCwCrS8QwxJ4J8GI06BGudqGlxwuVV0ARBOHmcLgSFB2DePb2R9eVB3Ha4+cQGOEEQBEEQBEEQBOG/Hn7V/tMhXdFqdaDa7BIjjCD8XPg+stjx1YZSLK79kVFlgiAIgiAIgiAIwv8EP29EjCAIpwaeZqSmuel+rllUEARBEARBEARB+C9CVD9B+E/C67Dwlk9yJwqCIAiCIAiCIPwuEPVPEARBEARBEARBEAThNCGGGEEQBEEQBEEQBEEQhNOEGGIEQRAEQRAEQRAEQRBOE2KIEQRBEARBEARBEARBOE2IIUYQBEEQBEEQBEEQBOE0IYYYQRAEQfhvg7e+tzsBJ3164e98jq95cdBvh8/vUwXHweFyfL9G+P8tcNbtIof/OKoc2tV94Vi8MvJtM45HW1vi+S0IgiCccnQYdduTnu+CIAjCbwFW6Gwexc57cMeY/tSW5/R3DOTUrQjSwUqh8kPn2NTO7tvDYVk9nWxdB9eF3zZUboEmHfrEB0Cv1aChlQtbg4RQE7rH+qORytZK9cCg16BnTACigw2obLL/sN78XKj+BBp16EZxdYn2R1iAHpUtFP7vDZJDGJVD97gApEf5IYC+17T+DuXwn4bKISrQgJ50P5ip3pu57ZRm7ViozQj202FAYqB6RDRbTiAjkmdymAlpVKcbrQ7Y2IPIUxAE4ZSjwSNbuCsuCIIg/BagTvCwTsGY2D0UOo2mze7SbHMho6oV8w7WopUVDVLAFQ6nUsDHk/vkEBMCjBplj+EO9Lf7a5BVZTm2E+1woW9CAKb2j8ShilZM31X9++pkk3zVodP+9+abyv+GoTH49Io0fL2vBlO+ygIsDjw+IQWPjknABZ8cwaojdYiPMGHBDd1J8XJh6Bv7T43RjcIKMurw9Pgk3DksFkYKM7fWgp6v7oOF6pxbthRPRwbA/yUon6zYvj05FdcNiFKnthQ24ZwPD6OFjZy/p3vqdMI9Vm7gvHWMfvPHW5NSccewGDy0pBAvrCwG9L/jAd9KRvQfi8D7nKA2Y2z3MKy8pQf+srAAL68t7bg94PvbpMP313XDOekhuHxGJr7bTc8IgwygFwRBONVIyyoIgvBbgjrQIzsF4bGxiXhwdDzuHhGLe+j4x7hEfDmlC766ugviQo1uhZcUkgFJQVh8c3d8fFkaHj6b3A+PxYOj4vDc+GRM6hHudteOqf0i8cjZCXiW3AyMD3CPpvk9QKK4blAUZpKSkRTmkeF/I6Q/lTXZkFtjQXaN2Z0POmejTycpUnwwfJq/21gpO1VQWMNSgnDfmXH4Zn8Nery6DxM/zYDF4sDlfSMx49qu6B8f+N8r25OFsnf9wChlhHmBlNoer+zFDd/kwCKjB349qE71ifPH9zd2x+DEILexgWTtovNHqlpR3GBFSYPNbZn5vUIiiQ8xYPrV6ep+VCMrGRIJtwV8Vzo87UPHaNBsdeJQZSsyq8yobj6FI+kEQRCEYxBDjCAIwm8Mr+L818WFCHl0K0Kf3omR0w5hzqFaTOoZjifOSVQd7rAgA2ZMSUePaH88saII3UgZDH5iOymF+3DfgnzsL289tpUnhSUh1Igp/SKwt6wFyfT9zNRguvA76WlTNm8YGI1LeoXDn9+Yn0gf+S1DaV+aUYe0l/bgkSWFnrfep6kMdVpc2D1MfX2K6tyRoiYcorrExrzzuoTgit4RCDL+F8v2ZKEsXtAtTN2rn++sJDk0I4PutxMrucIvgkQ7oWsoJlMbGO6vO2rso/r/2voyJD23G9N3VZ6akV//rZBMRiQH4doBUUj+OcZmEh1X4Xvm5qH7y3uxNq/h9z26SBAE4VdEWldBEITfNDzVyIVN2fXKMFPeZGtThIcmBaFntD/e3lKBp5YUoajWopQSHinx2tpSLD1SR959lBLqYPdPCER6hB9eXFeqppTcOChKTbE4acWZjUT0x2uT8LQUA32qGDznvWgpXnajHjKUfp4JxO75nIZ7+u0VBP7N7iiw47njrPB5jkdDB3/n6VsKcsfudXTOmy5v3Aw74/Ma8sxvhvWUZY0nHgU7ozxwGHxOpUG5d5/3heNQ6aOw2Tt/1/IXbxj0wfFzGPR3XPiawevGNwpPGjhIX/gnn1cyZ/myX+0peox7ZM3lxmlqSxe/UPfKkA4dndR70mUkBU1j0kHP0xZUWtwXWBYsW+9vBcmFU+qVi7rE4frk2ytXPs+XOQ1KznzRk4bjwW7Yv6oP3rg8/pWEuAzbB+Hjjg+OuqM0qXzQef7g8NQ5cs91iTGwokr3kNYrGA6DDnLirovHhH00cE5qW/roNH/ng+EP9Z388Jk2WbB3T/i+eXSfp+PHYHecbwrUm29v/tThgePkcOmycs+fbXGxA5anLx2Eq9x1GCZ9o/P8qcLjC+yM80Q/2G/7OqLc0DmVVoLrPv/m+sRo6bu6Xz2/26A08RlvveP4vOd94XBVWkiGyr3HLafHNw9t+aSPtnvcG+aJ8Phjlxyu15/y2T4tdFKlk+Ll9sgrTxWNb1o6gtwp2RCqOtJ/7Jdp88lfKByOn6+p8uBz3rpJP7ldcbd/br++6fem52TyzflQ7jgv9NvrV8mV8+2JUsF5oz89XfPeNyqG9nnm35x+ushuVDop7exWlaHblRv26i0vDpOuq/utfZiCIAj/AWSNGEEQhN8SNifuHR2P1y7qhPsXFuDVVSWkzVHXkTqOof56fHddV/SPC0DkUzswrlsolt/cAzP2VOPGr7Jg49ace6fHgxwsua0HesX6Y/R7B3HdwCg8dW4SBry5H3uKm93a34mg8Pkt6+PnJKq30oGULu7P7ilrwd8WF2B9TqM7frsTt42IxVPjktSaDVEBevxlVBzC/fRosjowfXc1nl1dgirvsHcKJIwU2ftHxeOmwdGIIPe82CyPAHpqZTFyq82qM31uzzAsvKEbRrx3CPefGave+s4+UIvLPzqMXslBePb8JAyjz0CDVnX+Nxc24cFFhdiZ24CJ/SLxxVXpKs2seDTbHKpT/tbmcvyF3HD4A5IC8ejYBJyTFgITKdc2yscmCuNvS4qwt5TkoxQWF2ZM6YI+JMO/LS2iPCZicGIgXttYhvu+y8OQzsF47vxkOhdAyoQWjRYHXt1Qhucov8fIl/LcOdIP8yk/GZS/S6dnepQSFxJDjdhxZx/sLm3BZTMy3WuOUFom9YvAVxQ3rwmTV2vBPPL7yc4qPLmY0k9+Hx6fhMcp/bxGzJqMesSG8xox3WChvJ319oHj1w3KUwDJ7EqS0YMj45ASZlLyq2qx43Mqq39T2mubrBjdLQzTSYZxwQYlOy5Ldvfh9kpc3jsCUYF6pQjx1Aa2TbyzpQJ/npMHDf0Y0SlITa9j46GJ4jpS2YqXSS7Td1SpdaW5Hnx3bVc1Suvvy4tw35nxODMlUIW3pbAZf16Yj11FVAYd5YFkmUj18uupXVDaZKM6U4I3L+6EAfEBKn0sx6epHi3JqIPLo3TSaYymcuby60/uuLz3Uz1mA+XXdD+xO17smOXHsnluTSlevjAFSZS+dXmN6EP3YDTVU05fK5UNy3jKl1lYdrAWkZSW/6P6edOgaDVyg4u1oM6Kp+le/mZftXsmIKX5TKorX1/dhepghZpWxmlpoPqS/tIe3HpGNB6iduDcj47gGSpXrpNcb/meuHdevroP36A89o0NUHlZROXNhtp8nqrGJzqC4uDRSpf2iVTTGDkv7LTaU84vU95r+J4k+F6YfU1XfLG3GiuzG5Q81QgLYjXd53xfbqd7QwVAGTRRuUzq7R6tl0LhqvuvoAlPrSrGmqwGVb5JVB/5/j1Q0Yq5h+rwOrVxfD9e+3U2vjtQg5dIvpd56pFRq1XT7p5dU4IvqI73pHxy/UiLMCmFuoXaSZbrXirbMR8cwlV9I/DqxBRc93UOFh+uc9cTcjCE8vHMee52gZX7VmpXVubU4wFqW/Nr3IZrvvffvawzxqQFq/aC25ULuobCj8p/T2krHl5aiJWZ9SpMVuJHpgbjsXMScEZikEpLM90Hf11chE+2lLN1RsnoB1CZn50egr+R3M9MCVL1hhcVXkzhPrGiGFl0P3D7wtWT83Exta83zMrGvVSPJtB9x4YLHuH4EJXx6kzKH99gvlDZ8qLZC//QHYOoPeLyMFNFo6yhiOrehE+PIJbu2w1/7EV5LFA2u4e4TaZnSm2rAx/vrKSyKoHZ09Y8T2VzOZXnpV9kYl9JizIynpkSrGTZj+4XzibX1X+Sn7ep/h5r/fBAaVpD8dWZ7XhubWnb/c/lkElt3iMk1wVUD1QZkNv0KH88S3Wdy8GfIuAgd1LcXFbbqC65y9SFEJMOd42Iw5+GxiAmSA8Lpffb/bWoaLbhQXqG8OjRLdTmUyUE331XcLtG53tE+yk5bqV2hNO9PIvKtKN0C4IgnCZk1yRBEITfEtQh5cV6ufO9hDrpm0npUx1Q6lHzziB3DI+lzr8W/95QirImOy4kd+NJaTAYdcioMqOBFFHVueQevS8Ubrc4f2V4mXOwDp9trYCOwrmelEVWOObsq3HHczzIPytD82/ojnGkUHxByuoH2yvUgr/npoeS4hijFN5Mng5FnNU5BBd2D1XTpgYnBCqlfP6ROkRTHq7uH4lUUsq+ISWP0xpAythrk1LVuiOs5L2ysVR1qm8jZZT9f0lpc1H+eUcgnloUG2RAd+q0v0fxLyUZHaY03DOSOuAkt09JafualF2eesUK1RBSSr4lxYx3s+ERQOmkyIWR8vHMalKKSflbnduIIlIKxpIMeYFKDnfatgpM31NF7q1qqg0bGbYUN6OQRxwRfxgchc7hfpjYIwz5pOS8T+lYRspmBKVr0Y3d1bSnVzeW4TtSyl2UP1byF7Jy6Fsm9L2uwYoLKIyzSbFbndOAYoqPuYHCv6pvJML89JhG5dRCih4bM+4/K04pWXd8n0dKlRG3kyLC+Vx2hBQKYhSVy9mk3LOhK7/agiDK57Uka1bGPtpW2bGCzko0hf0PqhcvTkhBbp0Fr20sx4IMKqsAA24aFIVUktl8UvQbSXHMp+shVNfSI/2UMjOLymYNKT1ssIqjNCWFGPHy+jJ8SWW7Pr8JBaTsjukSilnXdFHlxnL5/lAt+sYF4I6hsdhPCuhBntpEabt1SDS6kbJ0UfcwHKpqxbuU9yZS9ib3CicFLhAzqFzZQPcD5YlOcZneQHW5M9UrvncOV5qpflaSMm/BBArvUlIq11J6ilj5JvcXkqL71VQ2zOnwyoYyLKC6eQYpiX+keryNyjqL/PObdpZxTJCR/Edge0kzPiGFlesMG2PSKK4oytPzpGRyndtU0Ay9QYOZU7sqg+JSUvTYyLKlqAl9YgJwF9279WaHkhVrwp2j/Kh8otAp3IgRyVR3d1WpdKzPa8LYtBBc0isCgxICUNxgU8auED+dmlbHBqaryR+PjntjUznfmmq6YSLJfjbd26SrdigjNho8c0EKXrggWcnldfLLhgBWxm+m9KZQflZSPTSTzNlocgOVPZfnRVRH2dAzg+oVp/+KPhHKMPQ91ekGtUuURrVL713Smdokqyr/LaTscjlM6Ruh6k5VoxVhgXqlPIcH6HEZlQfXg5kkN5YlG+fendyZ6lMtZtC9x7IbTffFlXQfLKPvmZTeUgqb1fPe1A68ublclcUqSu9+and43aIrKV18Tx+pMKv8TiL5zbm+qzKYvU11acbeKmVouoZkx3VsCaXLa3iaQvfJwPhA1ZayYYrDL6q3Ud5DVfs2c38Nmuh8H2rLFt/YQxk6uNwXkfz89DpUUFlsonrRYRtqd+IqCv/rq9OVkZnvAU5nBcX9B5LxeXR/rKB8VFObxyPdLqN8nNkpSC2WW9PsUO5LG224mMqBjUDzKc463qXsmDZeo9qacgqj0eykuhyojNRsIGYZbaPy4LLkdY0S6JPXIXuf2oQlJNs+1K5zvcqh58duNngQl1C5DaH7gdv5MpL98NQQzKH2kUe7cfkupDaHjUlWh5PCp3x3BJXB3WfGqnj5HuY6x23rPnpGnEMyvYHa552lrcisoPvfAdw6LAbnU535dEcVZpG8uQ1ggz8/b6ZTOizU/vAz69nzk/H3sQmq7WMj9yZKM5c1t318P3O9UG013Qg3Uxvz4WVpaLI6lVFvDdU1Xjvt8j7hdK9xvaTnZUftoiAIwmlADDGCIAi/JXwMMYtJUdmS5VbgjaSE3UZKzDXUoWel6BtSgO2klG4racHQZLcSwp3LsEAD9lW0opUVJO6oe/uYNhfuIkWe1/F4iRSIA+Svhjq2o6jzOpCUi5kHSdHgbZCP6dwfy/uXdlaKwBUzsvHy2hLsJMV2dXYDVuY3KsMBv3WeR0pCIykDQ0gxYkWyjsK87utszKbO9XbqMC/IakCvGH/V8d9Kim1WWSsmkpLLo0imkWLwx29zsI069vxW258UxOsGROIg5ecgKbNdSXln4wpvzjPx8wzMJcWQjTD8enZ/eQs+pDgW76nBLlJk11InO5BkwQrqV3urkUH53VnYrN7adwoz4e7ZuVhOSmtRvRWRoUa8S0pkJ1I+J03PwIebKrCL0rqC8rKeFJg7hsWiGynNn+2sVnK4kpQUzisri9d/lY1VVE75pPxdc0Y0LqM83zc/H++sKsVOUugXkWK9jsJqZWtIe+hUWpS/mmq2PLMBB0ihZP42JkFtH8uGADZu8RosoVT+/56YomTxwfYqxAcbcAMpVWwcWP5LDDGkSJ3TNQxvTuqEeYfrMYnkup7SsoNkOIfKgA0NrJAfrDRjCyl0e0mGfRMDcRbV0Tu+zcUyUvYKGmzYT2U2nOIeQHXprwsLMG93DQpItlw2069KQzSFc9kXmfhiayWVbwM2U3mwcsZ14UNP2rhsebQXGx3u/j4P2ylMVjrTI004n9K4i/wc5JFJ7fNB+QuhvF7dLxI9KTw2TvxlXr6qn8vIfy4p1KyAsrGGDSY8lWrm1V2UMn0x5febHdXYSmnaTbLlERlsJJy+oxI6vVb54xEzPGLkT9/kYAPJ5iApknsKm5QRrSuV332U1qWkODbaHFR2ibh5SDQeXVaEBxfkYxsp5xtJ+ZuxvxbjSeG+hMJfSvdvGSmKKZF+qgzZ4HbL7By8Q/flVja80n09ityyAro8uxG3zMxS5bGI7rULuoWSkh6sDCY3zcqh9qEBq6l+sXxY+X59c3nHxipqV0aT8vve5FTMpXK9ckYm1lC92U4y+uZgrVoA/A+Ulh0sY6q38SSD6wdGKuPO/QsK8coqut8LmjHXM92RjTG8e9tK+p1M+fhySroyBF/4SQZWUvjrMupQSvc+t1cOpxNLKI5QqgM3DopWxtAnV5bg71RPNlP+as0OWCh9rPTP3kXtRFYjtmfXYyfVOTbwFJOyvIJkdoDiTyS/vDbP44sLMZvug0PkhvPG7Q0bRr/aW6PW6kmk++fzq9LVyBzeyWrW7irsorxy25lRa8btpKBz3f6O7l028nK7MCIlGPMp7TfNysZmkiu75VGIbMhjo+w2KpubqQ1mg8gVM7Iwk+rZdpLVd+RnL7VjFr7FO5B7Z6ojH12RptbN5ftrJtWtnVRmi8hfRo1F7T7GBprZlH+e0seGL25f2AB17ZdZ2E51iNsRLhMeqcNtANftY4w+9JU3kzpC96dWp8XV1G5+sKUC71G58fPAbncildqwW6hu8oLSl3xB9Z5kvYnuscw6K67rHwU2Sc2hcnNYnbiA7k0ebfU5uWFDzPie4cqAfulnGfh6awW2U7s4j9zy6BLeMrxD6PRNFB/fP2yA+b+5+eqeXk35yqU2g9tRNgLOpHuDjUiHqf58uqsSC6kMd5K7VVRnTAEGXEHueNQll/+ItGA1OouNS5MpLRuonPj++upAjXoGRlOb/xHJt5DSHEd1ZebULsirs6j6vojC5XLdQ/HwiwMTyWn+4doTPvMEQRB+TY4zhlIQBEH4TzOSFLGbzk7AX8YmYP713dWbbB6qzUPlFdQR30kK4Zj3D+IRUvxY6eCpAev/2BNTBka7R69zH5mUgTBSqNgIk08KBY9MgUGHhgYrdYob1FSCi0m5cc+Z6AAKg5UWflvMozwWUedVuTTplKLNCg53aLnDncLTFyg+b9/2052kdPAwcV5ck9xXUaeYlWG+zgolwyMh2GDzPOWhhUf0sKJNnftlpCRxPKxgcpheWCkpos60N36mkpT+RvLbnzrqEwdF4fJh0eTF7UetgcDOjFoKmr5z2tgf/ebvXUmRZMPCt/tqsJqUUxdf47Cpo76F8jaH8szD8iMD9W55ejL3/OoSNLLBixRpFraaQkScR7KMj/NX+eCpEDXNlKeOoOtfkSw4mQMSKY8UbRIpSz1j/dWwed4FhpUyFkJ0sEEZkPhNscNi/4G+97PgvFC6L+kVpt5uP7asEC1sjGO5+OlU3t7cVKYUN576oRQ/uuZdgwIG92/vec4PX9FzxfPIlqdhsFL51pZybDhASg9HqtViHylP35ACNjAhAFEhBnWa/fIUn3dIweVpYZwGO8l0IymtDBtIVJqPA4/4yCIF7NX1ZUqWMLnTtIqUelaYeVQNy5KnPrDB50VytzuTpye407Q5s0GNBOKpZsFU371Vjhfg/deqYpU2TpO37qi1cNiBkoNOjVpi5ZLf/H+6vVK9wXfXUbrXqG7yNDiegtc9huoGQ8HxFAxW+JewMY3CUO4pOO/98xUp5yoZ5K+K6sMej7Fuxs4qNLdQvaL7qorC5vsvmPxytjuEwrtlcLRab+qfK4pQyyMBuIxIRpzOp5YXq/xO6kn1jc7x/jp+lJ8lJJOZe6rceWZ5UpbmHqxRo3F4pBv/5jrKo/X+uqQQ5eXu9LHcv6Q0HqxsxeCkIJUvDp9Oo7jRilfWlsBF95eSJ5WbzeZCUaUZKSSbCwZF4rIRccq4YidPbHT8Qd3Tu3+773/POS9UXt0oHJ6K8ibVJTYsqbgoDazwLzpUp+oDG7p42hmj2gXiPaqnPPJFpYvC4dEWnO6ukVT3KK88Oolh42ki1SGG5degjNjq57FQneH61I3amOkkj508asZbziQMNsrxyDE2cLOxXZW1hxfWlFKdo0g5LRT2SmoTmAh/bod8XfpA+dGzbBhfGdFXPssHj2DbV9is6iWnY8nhOhyuakXvGD81Cu6YRHjgqXPM9YOjEE1y5YB4ahW32yeCn0k8xZGnILIxSOWF4vyGR5blNKi2vS+1dxxnDdXJGno+DeI2nOK5nOpAJ3qeOCluntbKlZvlziP4Hl9WjCZuez35q6b2n0eTtcGjkPpEqLrz1royHM4huXPlo2MvPTP5PhpL8QiCIPwncT+BTgfchnND7j34IcLnhP88XA5SNm4479zZ5g6D92CZCMJpxFvjeFrMR5el4aUJKeif4K/e9E3+PEMNIVedSoYUkwazA8+RIsVrJfxjZbFa++HTKzqrN7mq/lKd7h/nj7NSgrEqp16tr+BPHVgjdej5ba6Vro/vFgqT6uC7gz0GCoOVLlZaeN0Vs5k6wN74GfrOb8MZVt4YVlFZ6eNtltmg0QYpPPwGlaNRShAFw8Ybf1JmP766C5bc2RtL/9QTi+nzuQs7UT9bo9Z88U0XjwY4Jn4Kj6cMfHdjdyymg9/Of3ZlOu4aEetxcAIoXF6ngoPjtSuOzRdgpbyy8YvXNeBpTtxGsC5YS0pAE7cPXvc8JWVfjTJyXT8gEhv+1Av/npSKbqxkkLMOIVkU11lxmJRVHiHkZ9JjBCkmcUEGNaJiFykLPA2D42Rll3foOcRTvzg8n2T+EtgQMIRkV0PKUgmPYPEpKs6bMiS12pAYSgraT4XKn6fRsJFnat8ILLqLy7YXlt7eEwvv6IWLSelnI9kAVmjJLYuSp3io0UNeudKH9417ABs8fOpBRxRTHlp86yd9WCnsJqvDXd9IlsqAQNw6OPqYNC2gg5VzHinDawCxEYAVdN4S2UzfTyxzt/GRR5DwYtkNbITxpoGh7+vy3AYlZRDyGBQ42Gy6d5w8zMvHOX/l+DfyNCbv/UMneYoFrztUx+694VM9LKhzT5s7EWmRRjXtpukHaYMKs7rFphb/5kWYvY9CXotIDeXwOqfPZoqP1+XgKYVcHsM4P8Sz5yVh8d191P279PZeWHhLd7UwOE9J42lP3B5wMIVU510cvzdMCp4XDH+X7tkVt/RUoxg+vzINT45LVHXHa1A9aagg2PjHrMh2r0/TBl3jsuQyYqMDGwoY/uB7uoGNqT4LYLPxjeMPYuMJuVnAhuiMOjwwKg4rbu2Bl3kkXYTp2Dh8Ib9sfGPYKMWGzzaoDrBBjKd3xgbq0ZeNtywjSiOvs8Sj9VSlYuizwUJpI7xt7M/lh+2c+z7ntVdMXiOOLxQfjyzjfPPUvbW39cJLkzqp6WuqAp8AruZch6qpfnUUJ7e9apc1qk/9qR59+YduWPSH7vhKteFpamoao3Yjo/uA6xrfy0X1VC/bhVdHz8E2yDmvtcXcNTIOi+91P1eWUL2ceUM39Ijyc9ffDrIrCIJwuvhlrfnJQg01Pzh429Q0avxSI/0QSQ9A1Yb+xOercIqRsjkKyYIXoEyL9sO5pPRc2i8SQzoFI5I6kapHKnVVOE14+4Z/W1II7aPbEPyPHUh9cQ/+ODu3bWekY6BOuos60FnUwX6S/Ez5Mlv1jx8Zk+C+Tgro1P6Rqk9/y5AYOJ8ZipZ/DIHl6TOw485eysjAo126RbkVgY7wdtBdrBS79YEfhYNiZbI9nHwOzatgsbLLb1zrWcGkzjQfvBBkTq0ZX++vUYu1ehVXJosX7/VCQcSEGvDttV2Vgs1D6S/6LEPJ7IKPj3gcnRhvyGyQ6gjvWTUigmD3bMzybjOuoDzUNttw2fRMXD0zW60dwwu2bruzN64aGNWxXCkgXlCTRxl1p/aX1wDhRWBrWhxqKtb+smb1RrgnKR9nJgcrRe4AT8XwkcUvhUNiZfTHmjjnSZZ5e7wjDVhePAXFW76saG4pbMLHO6tQxKMMyBk7ZWW9fVTe3J4ofV5sPILA68EDK7Zs8Dk6Qkp9qAWbvenhg0c08Xoln+2uRhkpyKqe0sGKHwd7MrDNhOu8i+Nqlw5v+tUoB4auc35bqA6oiNrBQbS2M9BwmrgqHVNV+XoH/tujI4csA48YOoTDVpcpOM6Dun/bhc2y5HLlkQrszmvMYCNRrdneJk/+Pe9wLb6he5jXlmE/XBZs9PEtTA3J7KPLO+OmwVGqTlw/KwdJz+/GgDf2qzWC3Mu2/jR43SvGybI9Dj5JULBMOUu+eGNWoVA+ayg9PP2K01hF9+k9I2Kx464+1L5GtCuUo3jFd0x70Q6O17f9sav6c2y+2/38WXAM1g5kwkHztaMp8IHyXdZgxeTPM3Hrd7mopHaO16vac08fTOaRcu2F5gOXN8f3g+cA/WQFhG8FbgOjI0yYMSUdE7uH4aOdlbjki0yEPr1DLdLNYlHKCiWSjScclFp0uz3tKrb3Pm+ke8jb9vAzhtfm4Sl2vL6VO+eCIAj/GX59Qwy1mOnUweR5+jzPnIfG3kyfPPeYO/7KEn6CRrwNdtN2dHSODu85z1eF9zw30G1u+Tcdbb/p4N9e2K1vg678er63p324vnAQ3nPHuPMc3vO+cZ1OKA0/XjYet8eD89FR3ujv2HPs2POd/trw+vWe8/XjPXc6oPhSqCPwzPnJWHJjdzp6YDYpdrwjzexru6iF61hZPWGaOC/tO1revHhR+fV85/Ps3vdof47de8P1HoxXbl58w2X4Gp/zxTfs9teE3yQ8JcRFHUdWRlpJqVHF76uEe+uGKm/6zVogXd5Bygy/9UwINio3AXqtWvsir86qdjH6v/kFuG+B+7iHvvOiqMFGnVr7oEMoWB6dwVHxW0s9v+H1rX/0nYfec2eblVZOBI954akiETyk3NctBRLFI2+IQvXGF0pJY8X8nm9zMOXjw7jqswx1TKVjyidH8PmOymPfJPv2nakTf3mfCLWGyzNrSvBXUhTW5jSoEQY8Vao9Hp3RLS+GfvOuN0xPHnJ/TL4AI6Wfp8+wIWFrUVNbAPy/bzIUdIKn1HxFisTYaQdx0+xcpVzxbiHHhcp4eWY9ReVSixPzyJjFvCsKxbM2r0kt/MtrqXSh/G3Ob0JpVbu32b8QNi7xaKbIAD3iQ3hamecCQ7LwpzIM9zcgmw2AJwFLr02CpCyV8BQY4pvd1bjm/UNtZXslHdfQ8aevs3CYp7NQnnyK5GfDa9Goe8QbGNX/UHqW8U5Q3mklyvBDfLq1Eld3kKa7vslWO3XxaAzm5NLjTn9Fk10Zz4K5vvrWJUoHL5DK8KK+XO4nFe5xtO+TS9OxlDba1bQWbg/a1/Mgk05NL+IpOza6Fzl8zr+SJ//wOnc6EU/neMFdb9kW1Lk/n6K25eoPj96/fLA8eS2YelJ+fQfGtUH1j9cJ4sV/vybF+OovMjB3fw1qSfHnFyOcLvf4OTdt4vBJ/g8gWXM+mBGdg491S9f8KNzO9LwvoTh8DQQc9I/KVbl3Yfr2Cpz/wSFMnp6p+ga80HgUT6HylatCowxSDBtbj7HoUd7DyE8Pyj/Lcl/p0Xv7R9NxAjxBdJAWDz8ncBI8t20fbi7HOLpnrpuVo0aOPXlOolpo+XjlwYbGhFATwngalDfrXAb0DEmie5IX/+b1d3jaIdeDv9Az6eG5+Wp9LjvVmSCqqyxfFTyFxaOpeOQOH8fWYReSQkyeHwTlkZ8rzPubyuk+P1ovp9BxLR28o9svErQgCMIvpKPH4qmDGt3e1BHmOdPdqYPLHUpuh/khwaMu1KKPdC2AG9TjNOLcYPO16HA/dKVGumu0PzW27J46h8EmdKbffK4zdXx43mhUKHeA3H54/jY/GHlOsX+Qe8QHu02PMMCoJ//UaPNCid3oXKxBA43nIaH1MyCaOis6z2/ejSQ6SP/D9ppOtIVLaUsN18PA6WXoQ69jf1ol5CB/E7qQG37486iTriQPSjI0pmPjOm20K5sAo16VCytO3Bk7WjbHf8Dymw4eLeJPyl4alwHlKzmCyiPGD3HU8Q2j87xIHcsmLUIP3lmAFwRUw8s96IwGNRpHvb2ieLzl3CXKdFLD0E8J9ADvHGnCh5emqS0Ou1A+vB0ZXiBzdGoIPr0iDbcPi3Hrgh2lic4FBZqoXE0I0nkcUF0IJcWmC3UwAvgUHYF+JqSEcr40iI8IxBnUMefhyP2TgzA4kepEqAFpcQFqbvwZdHQKJrn5G9EjIRBDyO3AWD8EkkKoCTCS3KjT5wk3wGQkRYO31nTHbaK6HeNdz4KhDl9IqB8GUhgcbmevX+G3DdfD9ocXKlNecPD2EbGqnVN1VnU8NegZz+2cSe0UxO54lx+uD9O2luMFUpZeX12M11a5j7dWFuPfq0vVlAVeOFSrKnk76F7nHX3W5jbgmn6RmNAj3H3eQvFRfexL9feinuFq4cacGh6xQ9XLU78up3Ykie5plTY6OlF9v25QlEob75DCTN9dpaYvXEXpNLCRhjvYdJjo2RBL9+MxxqcOUEZSgqfZKBmRkhtOMrm3/dQkShQvdMnPIuWHFST6462FeScPXoxyZNcQZdxReSOlaVBSIC7tGYYVWQ1o9kwN6BBKMi/sGcBTGEjm7H/pgRo1LJ/bkeNCBVdACuGRSjNupPzzVA5WSJn1+Y1qWsx1A7j8DNjEhqAfkcVPgoJyUDo5Pq4/bDBiBUnJhc77Uft/B8mQ2+fPdlZ52ozjxE91pKbVoRTlcDbis/zIA69dcqTKjBuorvbpGuYOQ4UDau+MCKejrcH9hbBS3S82ADcPieHhBSoNGgp7ItVNNo7wyAyOi3eTYWMMb7HepTOVtzdNnHZSDnk9JZWRn4iL4uddiHjB4OuHRMPA9xLLge6RgAA97h4eq8ozS00t9Hg6XVD+vtxbpaYdPULKcwgbWLic6eA1Rf5O5/ieXZhRp+o/Ty1kI+KF3UIxjg20fP9SXkx+elzaJ0JNF+SRXFwf+f7lEW1/oTDC+H5lWVLQqg9G7VAQP4tOAI/K5b6HEjnf+yQvA4XPW8kz3raEWU73IZPEHSi+T5WRw8eBQqN2Uiqi++rBUQnoFh8IjfeeJqfndgtT0wznHalTBuDj1ukO4J3RVDtD6WymNnMh3eOFFA9PSWOj0Q+SQvnixZ3Z0MIL1/ZjY5ynbnIY47qEYBSd46k/3G784juBZM47zzHct1JwHjmbPwNvdsIDdPDjto3SbKP7nLdp5zxFU9lyOR8PvidTqaxGp9N9xqFxvql9vm4QySLWX+02V1Nz1Ojpp/qHdFCak+k6b6nfBtWLL/a428a/jo5XdVnVSyrbLtRvuriXz4sEnVbd5zzahkckxtIzUbXL9MdR8XOF1+QRBEH4T/Lr7ZpET844ejCxos8PJ26MeThrSVUzKl1a6qi5h0JHU+eS54jyVpMdQi1mau8Y3E0PqrgQUlJJYQ7TOXCowoB7zonHuSE6hJCim2RwIdvgj7+PT0CqpQVbS20IigjAw2fHqJXYBw5LwtWxBoSQApsWrEVeixN3nJOMM0J1CI0JwHkJ/qilB3cZNfS9hiTgmT4BOFTYgEqzC+lpEfjzwCCszGnmHfbc8NNJr8PYMcm4Js5AijBvmRmOKKOTOvT85lCD9PR4vDQmEBlZLdAFB+PcroEY0z8ao6KMCDFp0NjYjLBeCXjWG5edng7uZ9GvS7uy4XJobWjF5qIWZDQ71JtRKh5EBZygbCgME8nygbFxaKIy6k/Kw4ReEbg4zQCTkY5GOy4YmYSzo/UIDTQhxd+B8pZg/GtyLAxVLdhXw2/QXOjRPwFvjwzDgdImOOLD8FDvMMSSMpMapkdhnQUNvA3BrykTCp4Xlvzn+GS1zSbjNLdg/pYKTM9qQrVTi94RbiMfd9w2kaLJu5H8QHGgh/2F49KwlPJXWlSDHZXU67Eb8NhVPfDRkEBs2FSJXK0BU87rjm/HGzB7Ywu6d4sixTMcd5yXhDOps5pkciCvUxg+GZ+EOKMeZyQGwNrUgvjeiZh5QQx1UPQYMyIGZ1dT/e4Wh3eHBmHmLt7BQo/LzumGuRf4YeHWelSQ7t3v4q54INaFBUdIceOkxgXjg8s64yLqmKVRuDqrBXsqeD2I01HhhJ8EtZXDU4PVziC8NXPb9tXtIXdj0kPx+sWd1KKE3dnITAogd/YfPydJvTHkdUb2kBLw3AUpSKD284U1ZWoLZ3CHmjuxnoPXm+ARJbyNKu+GkdF+DQGClcx9FWZc3CNcGXbYcMKLrE6iuF+5MEVVs9u+y8UR3oqY2vqh1GbzFry8Uw3vFqOltmRwSpDaIpm3CX5iRRGWkJLO8fACwrz97K2kQLOROpjaoAHJQfi/kXFqCPw0uh/5XmUjLe+sw9vu1pISpNJIf7wGyFTqsI+gMPQUT0/qlD93QbJqpnmrVt6NqZRH35BjXnSYRwfxVsshQXp6Juixl+/rOqvq9HM7EEgd9CS6J6/sT3GRfPmNLQ/J5+1lGd6RhMP9eEfV0XTYHHjg7AT87ex4tVtRz4QA/OGMGEzsHo7vSFn7npXWjpR78svrRPSn9oXlz+tCvE35VeFSBs4gOfD5JosTf15UiBZSYvg8K6JsONtR0ty2ffXZpOyM5l2TdlUjv8aCYEoH71pD4mnbmegHUBXgOHldITZE8QKWRqoffZMC8cjYRLXr0hubK/D+tgp6VrBENWrnHpY1b/Fb3eTJP0XC5TOpZ7gySJn8dQijZ0g21b86Uqp4t5aJ3UMRQIo8T/88r3sY1YVkes7osYqVa5IN79rDz5+PSK6NrGCxvCjcQSQDDnd1bgPWsNv29wMli3dNmtovQsV9ducQRFDdjA8z4e4RcXh0TAJ4baMHFhaokU1WOswOd5p4Fxp/Km9+UXJhzzC1HhNPw9uQ2wgdxcPbOrPi/dH2KrVLkG8ZXkP1oCvdN7zFOK9tw+wqbsEoiv/GQVFqFFMgpWcMlcsrEzuhb3wA7pibR4oylReFw2uLsJGNDW5reS0Tb77ooTyaynwMhcPbrLcZIkgWF/UOV9sN885YRbwuDMue3A9OCVYj2p7jBV65jrQTEceXU21Wu3Hx7lKjqI3xozaCR7j9ncr5apLdv9eXqTrN/bUEcsf3Aj/7JnQNg96kRTfqK7Fb3nJ55t5qtX05defU+kIsd84z1z/Ocw+6B3nL5ufpPmRD56GSFuoLuLfJrmqxqfSrNFK6eLoI3ycTqF5F0n3FRtSH6F7i7ej9DDq1sKpaiJWy5U+/+aVIv7hA2CnvXJcOVFnUtu6c/5l7a5ThjxeR5alDXP95oelAkx4p1H+8+YxoPEPPXN6i/P/m5aGB3HA6eMtoXrT7s91VKOcRU546zWs8cdvCaZi3rwZv0XP0GiozXjy7V0Ig7jwzlupQGL6keL/0LqzsK3sKp5zKiafFXD8wGpdQPdbT/cX17Q9U/7ht3pjfhDvn5aOZ2mF+wcV1vU+cv2rnmtlwwXWOAua6xvWFt09fwwv3cvvdATwK5UaS85DEILWAdCfyl0ttDLfZLP8l/FzhBbA5jx7uGB6j1lD6ZCe1aeR2oqeefUq/y6l8uY2/ZXAMwigMzvdNQ2NUu8RbmvM25D+obwyl+Y/kjg1tbHDil3VRVL43URk8Qu0kL6z9IN2TbMDltorlPI7CtFO2OA7eUp+3o2cjDe9Qt6OwGTUkI153ikdB8ovVAGpnJlN7/hLVM15LKorqmNo1iWReSW0TlzvnmbcC52dDD5LrZX0j8d4lqWoh6nJ+LvjIQRAE4XTScSt+SiDlnBrLUFb06aGg1TpQVFBLD7Mm9ZDzzhvnjh0//NSiWuTuGOh3SEgEbk/TY/HOEryxthRvrS7FtwfdDxCHzYaVdO7dVaX4ZHc96ig3TdQZSksPR/cwF/eL1ShQDlXntGPRnipMW1lCnfoa1JGCr7FZMXdnGT5YVIECUwBGhLJ13A8j/UgxsOiQEsfDSN3zqTkPHcHhLj1QjQ/XleCfa+vQPTUcY+Iobxot5d+FslYnRqYYkFdWjWnryrG42oqNGdV4b30F9tb4Y2yABoU+cZ0U7O4XHkfLhpLqsKoHYRgpJcbGFhTW2klmbCg7Qdl44Jcs1qI6TF9bgqWFLcgqqcI7pOwtbaDOOclm2d4KTFtRTA/GRpAuA8q+2p2EX2axrEdFGuhh6YRTq0U8dSTzimrw6spivL2xCoV0/kdrKKeLO8c/96DOUT/qyPlOyWisqoc1NAgjYg3I2l2Cw55NIKIDDUopOd5D22F3otGmxfikMIRy5UsKQXqIFlV2h1t8pPidGdOCXAcpk92BZdvzcc/sfMwvN+PdFXm47/tSHKjRorKkBndOz8Afv8jC1wdaQP0THMiswL2fHsGji1px9qBIpJFio4ZU05+eRzDFmZFtN+GKdC4riouv8SfjdELTOQLxulZc+2UG7piRjU8PHLvmhvAbgoqFFSlW+o63ZolCp1VKw9+XFak58DcPjsJrF3VSI9l4nYWLPs/Ap6TQD+8UhN7U6V9Oit4aUvh+0Hmn+Jyk5C/LqFdvD3laomon2kP1hbdj5nB5Rx+ezjjt0s5qFNnO0mZc/NkRbOBFdD3h8xt15pnVxWoUyr9JwX1rUqraqvfe+fl4hdputSgm3U+85sDUr7LUtsVsgOJOMhtAWBFjxcALJU+h7idv9SX/vNX0Hd/noarZjifGJeElUho4Tu/uUl4DArcn3x+oxXukOE8mpfstioOVCU7zwsN1uPCTI9hf3ooHRsarvPH6D3NJyZhA5zPovPfe52libBhR6fBCzzQ25rDy8gaF+87kVGW0ep7axgcWUTo8z7wOoXD2lraq8OZQfNne6Uf0m/PP0fD2rVWN1IB6gmFZcLmrhWw95/g7r7/BpxgOr5nqkfut/3GgdPHUt/upTP62tEht4f0yyY+3iOWdhf5Ecn10cYF7ByBPHriesEiPWTeGZDiDFNFPd1UppecDkt94Hl1E7r6kczfMylaLoT45LkHJ5mFSxMpJUZq13z0qiuE1Wjgt7Rdn5bU1+JoyMJwAnsqyherCXxYVUFsdpYzPrIR/f7BGbaFexYY0lisdH26pxC1q6pgT/yTFnNP0Zyp3NlR+d5AN3O4wWXZc1r7TY7xwmnih7LbbhcItpTK6hO6RD6gun0/30rRLU/Gv85NVe831aybJwitHPsfl1VG++N5Xa6kcg0btVMMyOrZPoiEZuRfQPa6EKEpuU/5vbh4eozaDd+Dicn6d2gxemPiueXl4fHkRuXEr/pxCI7UxX+6txmubyvG3sxPwHpUpP79596c75+Z71ohxrxXDuy49QvWHDXovklL89qROyhjAOwKt4Z2CqP1g55x2llsbFFELyfCP3+eqXXRuIz9cdzic2+fQPd1iU/VNQfLNJQX7oSVFiAzQqTZCjVSlsFmGvJitd3cfdsuGkctnZKky+SvVN04/G3J5DZIpX2SiiDslnucgy6ZNru5T6tPuKQdlhCP2lraoBWP/PbET3prcSS2izcayx6itcagOlXJ2LHRvfET14XKKk0eRPD0uEe9SG8dbo79NsuRt3SsajhoEeKokGyLVOkM+cN5YFlxnjwsFwWuy3De/QG1j/izVvYdGxyPCX6fOq/rWQfvOddx977l/t9rc+Va/KZz9FWa1w9FrE1PwLt0rPFKK68uD1DYcv9K570luix+kNpAN8nyf8S55a/Ma1T2ZSeHyGma8YPldVDe5DX1ufLKqmzxl8lmSLRuouFpyWVWR/G6ktuRzevZxv43v8duHxqj7jcv7GCjuJ1cU4f4FBeq5w/XlbYr/DqozPHKNp0Wd9pFpgiAIPmjwyJYTNKG/AAqVLey8dZy3YedeW2lNPSrt/hiU4N6RgOGF3rizu40e2Mcoh3Q9uX8i7jO14OmNNbCHBWJQnB6tTRbsLdHjzvHR0BfWYjM9JBrrW7HbPwgP9Q7AJtIFJpub8UK2BfeMisJ7myvQfXA8etU0Yke1DbYWMw41uXDvOUkoz6/FzlYt+sUbMW9TBcITInBjigtf5ACXRtnx6o4axHWLwZ1d9HhkeQWs3rzwp0GHC8YmwnW4AkvyqONM5y4bk4yE+hq8mWfC0/10eHe/FVP7GvH+2ko06HQ4a0wi4guq8A0pwj16xODaJAdm5GhUXG/uqUMDr1p3Alg6POyZ3xB4k/JT4Wf7OWnB6s2Bt2z4w2TQoL64FlmuAPSJM0FDDnkU09zDHZQNXTMFmvC3MbGYv6UUO0osOHdYAs401eGpjWZoTHrcf14ybBX12Fljh7nWjAJLMO49MwjBFOmqnYVYEhqOx/uZ0OowYOmOUmQHROCR7lqsI2VxR0ErCproyevpmHQIhdOLFIUzEgOPdr5+ItwhGZ0ajHuGx3r7xhSug5SuJuyhA/U6nDE0Dqn+7kvcMej56t6jddoLddIuG5+GB3sZUGG14K8zipA2OB2PRvKbYVLsPs5GTv8ueCelCX/ONuDvPey45dsy2KIC8Ng1adizOAdzM5qhHdkJ64YG4s31VdQ/cGJbZjW6DkvH0121eGZ9DYK7RyIstwJv+4VhVqoTkz/PR+c+6XgrrQX/d0SHJ/o4cP2sMvSb2gO3N9TgjsUV1AmkjFG9/uTceOgay/HZjhYsz2uGq71CLvxm4DaR73E7tZkn6nN7KyKP6vIumOldYNNJHWm+Z1lJ4YOVBLVYZFtFPxY+zYoX+z+hAYiuaalO8VQCNqizU96W1MlfvG0E3Q93j4pXnelbvqFO844q+JEiwG97+V61s1LDTn3Twv4pDzxtlPPCKWAlSG156skbx8fxsiLC7dgxULg8xULv2fFEGQ4II3Xyj3HP0dAHT33gUDk9Svni6/TJeWM5cNLYgMPKjEqbN2+EexqFW/ltnw4lb7rG/rkcOK/KiScPx8ObNy4nzrJKHH+QZ84Dp9H7zGQ4fE6n73lvveFyZmMGB2HgMqV/J1ooVEFhsHs9xcXtPuNNv0q7+5SC4+C4flAOHCf55SkD7MVGslOLjrIbCktHYXOzw3ll5V2lk9POjok2uZIAfIM9ej94yqo9dI53cOHdVspI6T7vvUMwUH1jPx3Fo/CkifPLaeJ4O3LrnfbG59vH7L0HfiAHljX5b6vL9JPdOLkucbieZHjLvKN8efPMxhVfuH5x+XDd8/VyPPc/QHmieOl5z344U0fLmS/ROUo/T49delN3fEwK7l/m5MEYoFfuOZ1criq/7lvNjSdaFS6FoYJhtyw3duw5p+oj/ebzx0C/fe89Nho46JzJSHWc0+h1z0HRYTDyVFz3CyMOi4tJT35V+anEsVv6pHTpKE0Gahc4XBYPtyk8wq/9Pd1RWbKIOM3e+4x9eOu/OzyKn9taThg7Ph7shNzyPcDGCfbLYaqFc/maj193GbMMjq1zJ6ov7eGp9npPWbBTzhdHwXnpyL+q5+TW26ZxHnnKkfc3p85b9zjt7nx7Ct0n7cdAbnbe2xctVgcmfZqhRsbxaDMuHxu/q2NLrtcvJ4fO6+hm5Dzyd67LXMb8fDsmzfTJUw697YySY6sD73imkA9+az928ogfvrE9ftR97kk7u1d1mC8cJ+mCIAinA9/H6ClHzaP1QUcPAG+b69v2cVtpomsd4mlH+dBrtAiLD8XtQyLRmRppB7WoPMyZF58L9sRlgAPbd9aiPDoc5yS7R+O40SDQqFMLR/LCfRw/P1KDAgy4dUAEWgrrUd0KdE4IQucoP1zc3R89uwahV4BOPTROCuodBNNDhjsPPdNMSIoLpHBC0Dc6AKNi6Lo3HP7Q8yiYQLWGijeuntRxPOapexy82/397MOkVSvP+0bFuktrczMO1bgQG2oAL4/HUDKPXzY/BpWPV+YhJBfuROiazMiqsSM1NQQjg0yozmtUb2/pMqoOV+C1bc2ksPnjT2fFoFOoZ62I40GXeChtXLBBDbn9OQcbCjuHmdTDuQ363tRkQV69DY3UmzHbqcfggesad9g7goex55VZsaU6EJfGB+HsTg58f6ARjQ6SH6X13CEBSO8ehQf6R+DctBCcG0udkPYvPFkWJG/evjY2SA/6UyXBshszMBZ/T3Titc3VqoOvoCDGDQlEWrdIPED1+JzOoTg/ljowvuHyTVdcjXu+KsCqCgP+PD4Zdw0JVx1f4bcJt1tsSHC0rx/t4bKlg5UUds8Hd97VbcN1hP64A2umDrB6o3icustw8+T1f0KonnP4FlI+eGQIT/NQ3XHuPHeEp9E3e9zbOXw+1z4t7J/+OH52x2nmtHv9M9wWcxo7bJJZDpQQHjHAh4u88fED93SO08vn2V3bM4Kj8eSNz7vz5rnWLm+s7HG+O0oH58/rX3X2Of0+eTge3rxxHlRaPHjzoGThA8etzvvcx/zs4XPeZxb/z4oep+NHoTRyWtmtV4YqbE+5+MJp4Xh+kH8qUz7F11RZex2wfwrHnT53+fIIBlVvfGTTJlfPby9H74f2VzqAg6Mml/NxvHgUnjRxHr11syO3bJTko6OYOb0dysEjs7a6TG5U8bWTpbfMO8qXN8/t8d7r7arDcd3/AM6bRz58jx1bzj6J88Lu6bw3L/zJdfIHvUf+7Q2Xwmxzy9c84bKcuHxZbj+A4uc8ef0qJxQ31xffOs7y4+lQfG+yW29Y/OGWi69bckzhOkgs3nCVkY+Tw/n14XhlyWni89408P/s9mh4dEbl/djwfoAnTi5rX/moNLbz6y7jH9a5E9WX9rCMvGWhjD2ENy9tbZ4PnBbfNo3T4PubP3zL1p3vH6a9I5QLcsc7WLFfzpsqJ1+//JV+K/mQG74nuY/Oj62O0uxiGZntaG21w2p2ICnShIt6hqlF6nnB7Law+ZMO33a5rQ77RC8IgvCfgB8fvxo8ZPfH4HaQG0Wet90RDQWtsEf7o1e0BnWVdZh7uBGVVm5EyafDjh27KjFneyXW5fK6BPSn0cLe2oK3sxowomcUyJvqWOlcDmzNrMW8bRVYltkCs1OjphWtPVyDZzY2oFcqKckRJgwIMOO9TRX4gJTdZaV6jE4zqieQehhxGvk4Jlt0gR9yFif8/cLQKxDIrQXGBOkwe00Z5hwqxxvFTnRL5AUg3Y2/ep4E+GFQIMW10R3X8jI9zlZxHfuwaQ9f5dEpG3MbselnHptzGlFFDyqN5ymkRGk2I7/Ehs7pEUgJOlotTlQ2P4aG5Ls9qwbztlZgVbEZrRSRUefEmuJmhKVE4OwYYEmp3SNOLjwHpaEWX26rxmGdP84P5x0I1MWOoU7N9oImPL+8CK+sKv5Zx5vLijB9Z+Wx0Wh0GNQ1Bg+OSoKuuQbL1Jo/bnjxv2M6er5w/qjurS1oxPXj4tC3rhVLc61wUZ6DgiJxIax4fEYO/rkhB89UGzGsU6iqO76h8Vu2yspGvLKwAC8vKcHOchdMOqCkvB73fJaPuS0mPNrPBLvqyFCqAyNwsdaKJ2bk4hkK98lKA4Z1DlULE7q498kWGep4cAYbm+rw0cJ8/CXDget6hyLuJDpzwn8Qvj3dt+iP43V7PD/HO9+ek3XHeN2eavc/5u5k/XvpyL3XTUfXmB+7zpyM3xP574jj+TleOO3dd+S/o3Mnwuv+x/z92LWOrnvPH+86c6Lzx7vWEV73P+bH192Pue2IE/k5mXBPdP1Une8Ib7ze48c4Wbe+7jpye7L+vRzPfXt3zPHcMl73P+amI9r78/5uf/5kOFm/x7v2Y/588br1dX88vx25a+/We66jaz9Ge7/H89/Rde936rP0JH1g3h+6496RcegWG4CudFw9OBoLb+qBxGAjXt1QhiK1YHy7CHzDbXdJEAThP8WvaIhxb4npHeLshYek+hq2+U1/AymLRQ0dzNWka/V1dfikWoPrRiXgxuGxuLZ3CKJ5fREKw2A0YOSwWFxzZiyuoPOk1qpRCRq9Bk1Z1ViWr0V6mE4p2S6dDmN6RWLKWXG4emAYQnhYKzXURvosLq1Dji4EjwxPhH+9BdsKLKhpaMby8hYkJIWjM2UhODQA1wyJxvVnROPsJEqoRxl36fQY3S0cl58Rh8fHRiAjvw65xkD0DLBgVXUrSmstyDnUgC6xwegSzGlxD42MTQ5TcW0vdMe1zBNXsgr1R+A3Ob/oADKquWwoLEoMr5Wz4UAttrYAe4rqsSSLFymGGpp63LLxYFAjXdzfWZ48usmLzmDA6J5RmHpWPK7sG4hwE50jBy0lddjj0CHBZkZFs13tLMEy6d0jEtdTed44IhoD7WasrTo6Z/q4cCaMlKGfe/jrsZcym8sPbg9FOeX4+/JiPLqsFLsdAbiIV9v3sCyrXr2J6QidVosQPw3WH2hCQ0ggShrqsNephcGmx9SRkQhuqcGs8lYUFDRh244GXNUrAmEBWjg4DyqbLvDYm7jEMPzjss549tJOuLCbH/U9NPAz6akT0oQXd7TiT2M7Y0yUHg12HS45KwoRllrMLGtBQWEztm+rx2U9I5AWpMeQHlF4dFIqnjo3DpcNjcGDE1Lx5OWd8XJvI1burkWZqgCC8OvAo+l4pJ2a/iAIvzL86OGqxlNQhF8Oy5L7bzyNRhB+Lu5pWNRP9Pz+pbTYHGohel4P7fD9/XDkz/0wY0q6WvOQ1znidcbcnVtBEITfPr/qGjFh/jpcOyAS8cFGNZSZm0arzQ6ryz09ht1wn2lNTqN7S8KO2k42eFCPnrd8juKtfCic5lY7cqvtiIg0IjZQx3YF2Mw2ZDY4ERGoRUktj1rgKTVGpEbw4m5W+AX7oYu/VsXnpIb8UI0VkYEG1Ddb0Wh2ISzYhORwHapqLShtdrjTYtCTQqtFa4sDQaEmhBroJP3VNrYgu44Tr0FomB/SPeHaLDYcLLeq3YSiDHYUNLqH7LOBIjXC5F6Mzd8AE7lrIsU6ktJR4hNXerAONTUWHF268FfCt2xCjHBYHShrtqHRMxSWH5oJlN8QA9Q2iMcrG84XL6hX02hFk9UJ3vIzWONAIZUDP3UTwv0Q60flQ+7sNguyal2I8tOgrN4GTZgR0RRvcasT8eFG1DdZ1fbK8X7uelFTZ0Zeox1O8vurQ/Hx1p1Pn5uoftZVN2JDlUONXkqMDcJAniJFZFabcen0TBzgXWHap4vqaVS4P2J0DhyscKBrgh8szU0oaPZD70g9D/aB1dmKDK43FKGfnx59ok3YW2lBTJgJLZRfXjAZVE+Hx/ghgg2F5DSvsglFDh0SDS61M4ROY8TAZCOKSd6BVroX6F4Kc5lxqE6ZG9UuGL3Jfy5Vtf7BBvjz9BQ7ydnsVFvGs3jNrVZsz2lGg3d6kyCcaqju8q5CvF0/3zcVjbYO2xBBOCVQfeO1J3rH+qtpRPvLWqW+/RJIntxH44Wny5tsyK0xc8fAc1EQTh7e4Yj747xgb/vplT8HroU8HT2eOqiBBu7987Qzl1rUOb/SDGfbiy1BEITfPr+eIYahRjeRlMxLeoUhkTrl3AizOUajcZGergEvssZbpfK2hCdsn/laewfc2PI572lueLmjwOe81nA24rB+ejy3fJ0/+bf3On/3Ktl8XZ2j377x829SaBW+4TIcl/Ln44bhURQcrjdO/mTax3U6DA8Mpdu3bFhM3nzwqBbuzG47mbLhi74y5C8dyobPe35zHtv788qErzN8/nTJguKMCNDjufOT1C4GvNVie1iZ/OviQrXjikpbR6j8E5xunhbECy9znh10jlcXZMF4g+a8cp3g9XfUJ/nhcDkMbzhMW/2gQ9Vr+mKng+XFHC9c3zrGeLy6oR9ihBF+bbx1mevw6bqXhd8v3L55t3H6ueuaCUdhearnGN273j6VIPxUeOo+V59TeU+27ycxUk8FQfgv5Nc1xDDUWMYEGXBGchDSI01q4VbepYK3E9xT1or9pS3urfSk/Tz9SNkchbIZ4qdTW51eMyASQxIC1aLIebVWrM5tUNt17i5pcRusBEEQBEEQBEEQBOFn8usbYhhS7tV6LHreJtK9qwJvpae2/GMlX4ww/zmkbI6irCwu+Jt0CDLq1Et8NkQ1mh1w8FsdPiF1VRAEQRAEQRAEQfgFnB5DjJf2MYlS+9tBysaNVw7HTOsRA4wgCIIgCIIgCIJwaji9E6lZmfU9hN8OUjZuvPnn0S/eg38LgiAIgiAIgiAIwilAVrQTBEEQBEEQBEEQBEE4TYghRhAEQRAEQRAEQRAE4TQhhhhBEARBEARBEARBEITThBhiBEEQBEEQBEEQBEEQThNiiBEEQRAEQRAEQRAEQThNiCFGEARBEARBEARBEAThNCGGGEEQBEEQBEEQBEEQhNOEGGIEQRAEQRAEQRAEQRBOE2KIEQRBEARBEARBEARBOE1o8MAml+e7IAiCIAiCIAiCIAiC8CuiuWtOjhhiBEEQBEEQBEEQBEEQTgMal8shhhhBEARBEARBEARBEITTgMZqtYohRhAEQRAEQRAEQRAE4TQgi/UKgiAIgiAIgiAIgiCcJsQQIwiCIAiCIAiCIAiCcJr4VaYmaTQaaDzfO8LlckHmQwmCIAiCIAiCIAiC8HvjlBtitFotHFYLqlocsDp/GLSGrocHGhGg04gxRhAEQRAEQRAEQRCE3xWn1BCj1engrC7B3z5ejyW2UPSODQB8jDEaDdDQ0ISx/Xrj/vM6ATaHGGM6QKfXAy4nHC4NDLqjs8ecDhscTs+PdmjZj9MBZwfGr1OGRgsdpcfpcFB8VNZ2O1wnjE5D7nUqXY4TOxQEQRAEQRAEQRCE3wWnzBDDI10c1aV48vO1eG6LDY/ccw6eGZVMVzj4oxOVCg9vx7J9gbjiyh4ItNnBdgWHwwmHUto1cNF3PscGCC35tTpc9FsDk97929fOoKZAuZwwkxs9KfwGLYVFnrVaFyw28kVp8qMw7eRJp9XAZnfCTv78KCwXB0TnXE6nisNo0EHncql06MlNq52+kX8T+ecwdRoKk/y7PGE6yL+W/DvonI2CMpF/SjzlxQW7J42cPj254U9Ou0oTpdNETtl/R+gNBuxb8SLWBFyFe9Kq8X9PvoXqRgtMgWH402OvYmg8YGvn16BxYNvuDSgK7I9Le4SrfJ5ytHoYGrLw5q4GXNcrBDO3H8b4sy5ApxC3LH6IBgaDGVunbUHQhCHonhD4QyMRG3a0TljMVsq4H8mF5K/ckAypbvA3jVZHZesxRpF7DRt0qCwcdjvsJGud0aBkTNUAOio4K4Xl1BjgR5XBQWWrvLEFkPxQ4QFOmyoHvd5A6eO0u8vGZrVQAHxOp9LJNdZO55waPUwUh8t51GiowqNa6XIdrdeMlhLgsJqpvmng52eAU1UcLZwWK9UJTqsf1S2q321GKYqb7xv2Q6kw+RnhonrnovCpioHuTVX39RSuitIDy8DusFPaqeyNRo5CpZmD5XruG76OUu1gv95TgiAIgiAIgiAIwimD9VXWPdvUsA7QkhsNuSEV1v3b/fFLYWXRiv27D2N5iQE9BsSjV4QfnaeIbK3IyyvDwcom9dtuJ4WRFEOvXsnGj+++3YxLp63AmKcXYMI7a3H1J7tR3lSDp79cjnPeXIsr316Ch+fnoNqiZduJQhk3WhrwBrm5gP18th3ZFicM2hasWbQOU15bg6vfX4/VlTalXGfvPYxb31mKc99ejVe2lpHOrYerrhCvfbwGk19bgXu+P4RypxYGlx1z56/Dpe+uxLnvb8T2SjOF6cCa5Rsx8b01uPCNdVhU0qSU+KrCg/jzyytxCaXvrY3V0OjtWL9kG654by2mfLAOF7+6EPd9lwOLoxUrFq7DVW+txs2fbcbeGgfJy0ez9qIl5b16A2ZvMGB01wSYq7JwIGEsnnjiSfxpYjo+e/Qe7G/Qw6AnBdvARgMDdGx9gAOFuQewt7SFBUPKPblR1/VKXmxW0CrDg+cclfqx5wzKIKAUd885Nmy5U8gGMjqnLAPVWLMvE+bgFHQtnYcZG/dQdBz/D9Ho9bDlb8C04u1wmQI6qGgaGGDFivefw+VXX40r7v071lW2UNx2zH/+Wky+6mpcfd0f8Mx3e9kqBw3JRtu4E+9+PBdFebvx0mN3Y+rUy3HbfS/gQLGd/GlwcN6nuPa6qbj01nvx5cFCkhP5o3Q4Svfiy+mzkV1SiDdfegBTp0zFrbe/is0lDnLTii2fPoVbLr4cN99+PzYdsVJ0VhxY8gLuvYXC+sOf8NqKnXCyMYRSzYay2oxvccsDj+NIvdvAp3JDaWzcPRsPTb0WUy+7DS99nQknua3P2YBXbvgDpl4zBX94dTrqrWyYU16oDLUo3vEp/nzxFFxz7ZX4clkRRaCHXuPE7jUv4o83TsIdj7+GzHqqlyx/8mjQWjH7g8dxzuQpuOGaS3H/Y++iqInKuyULD952OR6Zm02y0HHo9FmDN+/4A+6ke8FF5e6JVhAEQRAEQRAEQfiF8CCLltJSrMgog430Yq3v2/M2NKTiadFYVYjVB8vVb+YUGWIYJ5rMejx+wxgcemQ8ru0ZwadIiXei4PAB3PXOOiwta/6BAcJBib1q6mgsvbcfbgwz4dkbzsHc24ciWetEBSnwb944GovuH4O+VYfx+b66NsWXDQcHtu7GzoA0rLv/PNyV2Iyv1xWjsjgDM/ID8MkD4/Hi0GAs3pCF2oYafLu5EJdfPg6bbuyG5gOZOFJVj3nrD8Ga1hvLHzoHZ7SWYklOIyoPHsDcmiDMuO98fDnMiFnrCtCQm433sjX49O7x+PqicMxdnIlmRw2+nlOIMdeMwrI/DYbryG6sLNFi3MUjsPCeczD/7jF4fGgoukf7oTL/EJa1xuL7B87Hi2cEYMnGw6iya9qMSm54GhJwYM5iGJN6oFeUAXZSpv1S0tG1axcMHXsJuvUqQ3EdOXU0YOEnz+HuBx7HNztK2QTHFgIeDkEXtajcuhjP3nMP/vXOp6i0G2DUmrF+zoe47//+D0+98Snym+mc3or18z7Cn++/D39+6g1szG9URpCVs9/F3Xf/DZ/OzlCGBIPBgX0LPsFf730cX5OS7wg2wQETzho7EfsXHESVk8dstIcqm8aJgyTfHmHp6BRj8Ix0OQobSOoPTMfnhxLw6Zy5mHZrAr5/ZS1a0QR7+Si8MmsO5syehaevGqimsPEMp6wlq2GmyFz+0bjhr9Mwb94i/KWvFRvX74K1fAPeW16CR6fNxZznxmPre4tRYnapdBzYvQe55ZEI0DUg5ZInMG/+XNw7NhDzp61F8ZEtWLI7AM+uWIxXbhyFtYvmo6S2Hs6YPvjX9HlY8vqN2LZ+LvZUWJRxymWuwfYNewB7J5icNm9moLcV4s33V+HcZz7B3NlPw7zxHeystqC+xIZL3v0Uc7+fjasNK/HaxhK6EXXQ6gxwNWVj1ls7cekX3+P7d55CxfLp2FOnQV3manxNaXry4+X49MWH0D3cSSJg+VHm7WZURXbB7S9Px7dUV66My8PMFTuoTtjgTOuBmp0bUeHQUnXQwpy5FocS/BHt4HE4giAIgiAIgiAIwimDVDR/gw1ffLsODy44gjqr0/0C3YNGoyV9Gijcuxf/9+5WbKln1d19/RQaYtxv+u08XwIt2LxyGy57bQUufGc73sizILegFHdO34k8MynVx1og4CRl3kmKJk/JUEN66FDw8B12qwlG5wg/tNos7vMqrlbkl1hxfk+e/uRA/+7xSGpoxO7sFpi7RCGSFPf0zklI0TTiYGkJAjThGBjrD4RHYHAIUF7SgH3NOnTqHED+/XBZ7wgUlZUhq7QewzslINilRVK/eKTVVmNjYR2GpaUghiQdmZ6AsTAjp6AO642BGB5vIu/R6J2mx3pyp3RlSr6juRr7chwYOjABLXVm1EcFqSlPSZ3ikNNYi8IGK3S+FjP1vQaH94YgOaoLeEwDn7FUFCIvLx/7t+9AVeEI9Ih3YcviWVhr7YVrLhyAdUv/hbW5rTDp3SNhnJVbMWfVMgy49Fqk1mXiq0/XoMWuQ1h0J0y+5gp0by3BqpkbUXpwI5Z9eQQjJl+FSecORWqEAdlLv8eWnWG48uqxyNk+E3P2VaF86yx8M2s3hk26AKbS7cjfkq2MIqZOPTA8MwM5DU41jeYYVMLrsKW8Gv6DRiEIVKbuKx7cU2/yDh/EsHO7IoLkFdPrcgzXHEFeSxNqMqwoL8xEbk4eWtmtVgeNvRwrSpyI7T4MnRNTEYEKFOXsx4aqUIRQOVfmH0Za/2h0prL1SxqP80OrkV1rpcJoQW7maiSddwaSE/vhkh4RlBYnySMG3QJMKK8sRVW3c5BCqYod0B/14WaU2yIw8IyLEcr5MEYhKiYNRv6u1eLwytkoix+FoV3D2qaAaSgzruJsHOw+GL2TqT4FpOKy8/ywK6MRaaPHoWsol7wecdHpCKc4YWtGZVklWktzsC1uLAbH0m0Y0QXJI8KxM7sMRXl70HvgJQgoz0ZReSPFy7XhKFzOPLSN5ZjcDag311CFc6E+ri/OTi7F9mwLXbFh56omDI/uh5CgU3ibC4IgCIIgCIIgCGr5Cl1MMv593VAEHNmLWz/aggM1VjUzg9dK1bmasXLhetz2bQ76jh6Ke4fHKnsHc+o1NF6/An44Y8wQfH33GHx78yDc0y0ASVER+Puk3kj205/cwq0aUsCbmjBjQyY+XLkD6y2BmNgrSimlPL1Go1GrZyA+3KOkkqJc3WyFw6LFsEjSxkndZhvO/sYmVLRaEOTvjyCj26HBZUFRjR2dA/2R4k+KMeEkSWyqroHdoUdUmHsKlJOVb0szSuuBpAiD21bi0KKV/FdXk44fE4gwlRUXHFYHqutb6DtP5XEhf3cG9oQnY1iYHqmp8UjLyMRTqzLwwcr9yK10wU/PgbXHCatdC42eDvrFa5+ULPkMjzxyF+66cyOu+Ndf0UlbjI3fT4OlphoFRSVo2WtH7sEyOA1U0FqKd+cGvL9Hg4ryXFS2lOFA8Ua06PxhMjmRfSADuWWVKLc3QB8djx4jjSjLKYTDloTkMAM2bHgBh53VKC0sgDm3CKVbMrCVMm+57A5cfu6ZmHz9BCR2jST3LrioYulhgd2mRH8MbPlrqM6DpSUJk86KVeue/BAHHPYeiAuNUlPV4LKhxX8T6sqpnIYU47Nn/4V/PHoX3nx/MRpcWrQU5cHVaMaQQYnkuBWZ87/CU/96CwXRceibEAC7JR7RQWk8s0dhD9qEyhqSaP0h7Mg6E+f3DIWTEstrwmhaS7B4UxaCr+qPQC3Voy7h7jxo9BRPHWpbWtk6SPJ3YtuWRegUEYFusX6wFy/EwuV6jB/TBzpeqNgn41YKe2BMGAJ4qpjLiXpbIHZWVNAVJ5w6A8ylC7B+Ywgu6hsDc+UhLPhiFspadHD2jUIwj3ah+mers6G6qg5lBWuwf85MvPDEE3jm8U+xI7NJTWNSaPXQ1xZg+Vcf4fMP38YXC6Jwdp8hlHY79KZgxCd1Q+2+fVRv63Ew2IWIgd1h5LS6fQuCIAiCIAiCIAinCKdTi7CUVDx3x1hcHtWIe99Ygc8P1cBaXYLXPl6Jf+624C+3nIcHzk6GH+mPXlPIqTfEkBLOCvr29bvw+KIsOIx6xMR0wtN/HI0bu0WoxXhPVit0UVhGgx2H9xUjKLULBkbasGz5Flzx9np8vK+KoiKFl20fBKnXCPEjxZbOHWkiRdpDir8fgkmJbbFYYWmzBxgREaRFidmCKisv38sramjQNTiQvtnR2Oxe+FRD4tHrTQj2d6KmyZNukpgfKdtBAS446i1odWvw0Bp18A8wKAdaey0W727ClUNToHE4EBjRCZPPS0c4XQ0KjMTELmEIMRh9FlUl1Fc/hAeaYW9sVlNJeFHezjc8gRkz5uGxm0yYtTkX0BthMnRGUBBddwVi1PkTcVafKNht7sy5DDr4hYfA4LAhJG0kLps4CVVrZuO5D/fBFUjpUzsYOREY0xvX3fRHdA9qwaLF3+KbfeUICTQhIsQfdqsevSaMx9gxqdBYWIn3pJPyqtG4f7G8tfo4BFM62tvVeJHj6oz1aOgxGsl6R9vixcfCBrR81LU0un9qDPBHGoxhcbj2mVfwyScf4ZOP3kFY+QJsKXSitCwXVYmXo2cQyd1hRP8/3I9p77+DqVHZeHL+Bpgd1WhoLWf7CQcGg6sbQsP9ULpjDoKuHINEo1Mt4mtwVeLb56bDv+skXJYWCnMz1YuqZpUEzp82MggBRiN90aFg81f48HAcJl58Efxttfhs9T4kXD0CCS4zWq1WWM02VU4Mj27KqmuiMqFyoHrLRr/OwWwQ1MJZsQvPfzUPXe6agi6BTuhihuCWB+9EaoAF5uJGWNjq5yKJBhvhH+wPJ1Xf9ItuwsufTce9E6Oxf/MOmFUNZdzSZy8OZzBG33YtxvWjmkX1zO4yoGtqPI6U78a63fvh5+yEoSkBsKlRaoIgCIIgCIIgCMKphTeSIR3bLwLXXXU2nj0nEt/OWo3z39qAPYYkfHDX2RifHKhmU/iu1nGKDTG8NogZ61ZuxrWzMtGod2HtwRrka4wIN+rg3iPpJCHt3hkYgCtH9MGLV/XAjv2HkN9gxLAhPfGvy/rg4vQEREVqcSCnihzrUF5Zi0b/QHRL9kddYQ2slJbK2npotUHoFh0HCxqRx+ur2FpxxAIkxAYhUutEQbVZRbe7qBF9YhKQEh2AA2UNaqcZS0kt8oLDMCQ5GJlFFbCR9utoqMVhiwkpqSEY2tCEQ60sTTOqK+wYHMemFhfKD5WgOCwGgzxro9hIzD26dMY9Y9PR2dAIsz0QEf68u42K2gMbOILQfYQVmeYyKLOK0w5XCxsJNBh+zVhY3ngGq3MC0WvsUDiMoeicloZOA1IRGxMAjcWqdmxK6tILlzkbEBLbFZ07d0P3xES02irQEKBH365dERQZglqLA7amKmxZfRB+MYnoFAnoKZr0nrfA3uKP+K7p6NSjK2ISKQ/J4fD79h18vWgDFixZidqKahhMJIeszVgxJB7Jflp3WtvQQuuswqbVNThzWDJcam2T9vDkICCucwiy9xSokUfWqt3IKRmE5BCemubxo2HDFiVM04qSzatxxgXdqPyssJDceQQT0zUuGX4OO8ISwlCRX4wmNsyZD+JAVg8q9wosXZKM8WmxKj4N6rFt2mJo+0zETdf3ot9AbHAU4vfsQTV7Ky1ErEuP5PAAVGVtwtv7g/G3P16HnsEUmaUW1fvW4otnn8Q1t/wZX8ychpdf/gYlNj20VFf1USnwq8hDQQtPn2vG/gO5GEzxorkAn63dim4XPInJPeNIPGxEcZtUtJFJGLJ/FzJ44RtbPcwFNeiXHIuYlDPhz5YWwqZ1wExHG04H7OHJOGfKzbjxtusxpl8Cb9alcDkcCErriq45pfhm+ixo+w1HsJN3XhIEQRAEQRAEQRB+NVxO2Jx+GHb2UHxwTR/cOv4MvH7dQHQO1nf4Ylz32GOPPen5/gvg6TgO5GeUwBIUiPLcIszKsSIpPgRNpBlnljfCTEp1vyT6XVGK3CojeveKgoHXg/H412oasXVDOWL7pyM1gBRfazMWZFSSYhqPpLhQxBXm4PVMLS4cFIc4fwNMeh3iokzYte0Q3s+oxrIjjTjn3J4YnhIG/9xcvLepAvMOFaPz4N44Ny0SemsV3t+Yie92l8IZnoBLhySjd6QTe9fl4cs9uVhdp8cVo9LRMyEUmRmH8PG+UszYWYNzRvTCyB4RsOfm4IW9lZizsRQJZ3bF+Z0SkezfiM8WZ2PBgSzUmVJx3fA4BDhbMGvDfgR17o7RKUHK2KKxWDBv1W68uTUb+2oDcPE56ejsr23busqL06VFdKdOWLToCxT698GwlHDogqLRKyYYfqHJCIsMQ4M2FOedOwyWg8uwaNUOZNTb0aVHb8SF+iM8PBbpqb3QOdqJ5XPnYUdGMSn76Rh5Vl+SyXIs2FqAhFETMXVkCgzWWqz+6jusyyhAdJezMXlCX6R06w6/um1YsGg9lVkLEtJ6oGffQYgyVmPpkvUwpo3FpePHobtfE6Z9OR1dxkzGyJRoSrdPxdJooLE1oFqfikHdY9HhDCyCvYQl9kLLmg14dcH3WLh2Gzrfej3GBtfhi9fewPR5C7Fs/mb4d74WFw6oxrTFsbjmsp7wd9qx+fv38K/pc7Fp1UKs21GAyy6Yin4D+iEwIx+vfvMV5i9eBf3ll2KC7ghm2xw4b8gwBBs1yF3+Nu55ajZao5qwcdkiLF56APFnjUG8dh4+/XQRlizfhb4jb8CI5DI8fN99OFxmQcW+dVQeS7HXmob/u+dBXD/1Clxx+UjYmuPwh3umII237+YbKyAGfU0H8P2r32D+/CXI9puCmy7phE3/ug+PzCtEQk0GlixaiMWHq5AQ4cDG2UsRMuh89EjYiM+mfYMlc+dAE3MZLjk/HREaPyz+5BN8t3YhNm63YsBFE9E33qRG++hcZmw5sB/a8G4YGGdyr1Oj1UHXXISvD9bh3EFnIFmzEi8v1+P+OybAVJuBTQeBM89Kh84zH1EQBEEQBEEQBEE41biUzhYQEYX+yWHQqd8dDUwgtdlqtXZ85SehgcFgweq529CS2hcX9tPj26+2YZ1fIp6/pCfcq7C4KTq8HUv3B+KKK3og0HZ0jIwGdlRVmeEfHoRAPf122FHYaEFEUAAC9Do4rc04UuNAl7hgGFzu6TE6rRY1dbXYXU7uwkMwKC4AdsqovaUJewqb4QoMwOCkUGhI69dTeAdKalBs06M3nUswkVi0TlSX1GFvnR2d4sORHso7FWmhaW7AxmK3/2GJQdC7tHBZm7CpoAlOox9GpIQqoWo1TuTlVyPHqkW/lChEG3najBNFdc0IDAlCpIGUdDbEOBzIobgLrBp0S4pEcoAW9g5HipBbnRaNhQdQbEhBrzhKu4by41ljhbeb1vKICMq/Tq/3DGei6xQ+eaR8OtSoGN7SWuddQZfdk0z0nsVTlOQojU6XhsLwDCsh+fBwKl51R4Xr8eogmSnln8JTu1tzkumavaUWmaVNSEyKR4COQvxBVnhKl47CtCkvx0NDaXZYyrF122Foo7pgaK9kaO0NyN5zAKXNFmiNUeg3rDeCzdU4YjGgG08d07pQW5aHA5nFFK8LEclp6NklBRq7k2JtxPate9FijMWQft2hN5eiyaZFSEi0KquW6nwcyC+Hw8z1jtLtDECXAf0Qo63F3n0H4AhOQN++PclfLfIzDqO8wa7WM+J4AuK7on9aDMmYRWBFVWUTgsJDYfLKkGVHsijYthW5Zj/0HdIXkQFOVBzORmF1DZqpDLgeOoOj0TMlEvXFlYjp3gehulZk7t2KUrM/+p0xBKGUPxILivMP40h2FaKTuqNX9ziA7hWWJY8/qqprgMYvBJH+dF8oAWtIbi3Ib7AhPjwMemst8ho0SI0JhdPSiKp6IDommOI/UWkIgiAIgiAIgiAIp4NTaIixY9vizZhR6ofk1DAYnA5YWDnmERLeqRiks1aUFCEspDPundwFOpvDR1EnZZJ3n+FRMh7lkndX4tEW6jevPUNKansDBm9jzRvIsBv3jk3klOJT20J5zrmDo3MUHieFjSVewxTvPsNO2VLl3WKZd2pitxwox+f2r1XbSx8TplK+Pet1+ISpozA5H97fDJ9TQdJJNoycCK1O7zaq/Ii7/xycbx3lxX5MHn8ObIzhfdUpMGVwcnHYbcYgnm/HRhMqezZIeSLTaMkPFzrBcnY4PPWI64ie11I56o/D4V253JeP+vPC7lzkjo1SbKiwq0V4PWnwuGF4RWxv/XLnn+pmW131QucNbn9uIxaFzEYxd2bcsNGLz9M5Nn75xsWGK688vf5cHiOZbzRc5zmcY2VP4XCYlCZeLJmzyXWS11niRZzZQCcIgiAIgiAIgiD85zlFhhhWcoHWmjqszKpFlYOURR/dsw2KyUUK5pC0GPSJ8vsNGxoEQRAEQRAEQRAEQRBOPafMEMPwbjntRxx0hNPxWx7tIQiCIAiCIAiCIAiC8OtwSg0xgiAIgiAIgiAIgiAIwvH58eErgiAIgiAIgiAIgiAIwilBDDGCIAiCIAiCIAiCIAinCY3dbpepSYIgCIIgCIIgCIIgCKcBTXl5uRhiBEEQBEEQBEEQBEEQTgOawsJCMcQIgiAIgiAIgiAIgiCcBmRqkiAIgiAIgiAIgiAIwmlCtq8WBEEQBEEQBEEQBEE4TciuSYIgCIIgCIIgCIIgCKcJMcQIgiAIgiAIgiAIgiCcJsQQIwiCIAiCIAiCIAiCcJoQQ4wgCIIgCIIgCIIgCMJpQgwxgiAIgiAIgiAIgiAIpwkxxAiCIAiCIAiCIAiCIJwmxBAjCIIgCIIgCIIgCIJwmhBDjCAIgiAIgiAIgiAIwmlCDDGCIAiCIAiCIAiCIAinCTHECIIgCIIgCIIgCIIgnCbEECMIgiAIgiD896PReL6cYihcjecQBEEQhFOBGGIEQRAEQRCE/3p0cNBxatFSgHqXDaBDAyd0WjHGCIIgCL8cjdVqdXm+C4IgCIIgCMJ/FTxSxWWpwdtfH0DCWX1xZddw2OxOz9WfAYWnpUOn0yBrxx68t7cW/vTbqtVj3Fl9cF56GBwOB5xO6UILgiAIPw8ZESMIgiAIgiD8F6MBHBbsOViGzDqrMqT8Ipx2WMxmtFTkYOnBBkwd2xt/mtAHf+gfjPzd2cirb4bNYsEvMPUIgiAIv3N+2ogYerDpdfofPN+cDjscv9JbAY1WC51Ox5HA7vi5jzx+q6GDVquBy+WkoBw42eRy/FqNCw7Hz8ufRqODjvzbnfK4FgRBEARBONVoNFqgpRS3P7cR6ZeNwsNDYmGzOTxXfyJa6rdV5uCOOYdRVNGMYqsBqVEm6oe6YIQTGZUtCA72Q9/URDw4cTBSA6l/Kl28X4Qa0eSS0UWCIPy+OOkRMdxIOs1NyD64Ezt378HBg4dwYO9u7Ny5FwXljXD90rcPHaChh6GjtQpH9u5CZnEtXPzG46fCD1SdA+UFGdizexcOZRWhxa6FXvfjYXGWWmoqUFDcSOH8jLipY2BrrURxXQP/cJ8TBEEQBEEQfhFa6t8ZDHp16PU66A10UFfLSN+5e+u9ZqDfP6kH5nJCGxKFkcE2HHRG4m8XdkEvpwGTB0bBTxOCly7ujMaaJkTHJSHWz4Wf+Z7uF6HRU575JeWvCPf79QYDyfDo8Wutj+OSsUWCIPwO0T322GNPer6fEK3eAHNlFmZM+zfmL12Dt95+HUt3ZiNrz2HYw7qgX894aOnhxQ23aqb5s+1QQbjx/PBeO4qvezqvoQeqvQyznnsdX65YhWJNJ4zokwy2n7T36/2qzru/uuEwrBVY8ulHmLVkJdatW4sDB/Zj66FqJPfsiUh/LVwuDqtdmJ7v/GDf+eU7ePw7Gy6d2B16HtXiudbmlvF8d59XXxU66gAULPsbblhchxtGDqFOg9sA5Gv194bl68/9/dh42typXx6859qfFwRBEARB+B9Fp3WhsqQIX28rwbq8KmynY2tOBVYcqUYV9bXq6xqxOacSm7IrUdDoQKfoYJg0LlL4Tw6dyR+oLsDi+jD8dUwibKUtGDosCmVlwPXDIvDN3gqcO2IwBke78LMHa/9MuC9ZkbEJ64u06BIfAg31Kb19xVMFvwh1tpZh1Zz3MWveOqzfvA2ZZS2ITU5FmJ/mR0aVc7/U8/W4aKDT66lPr4GtNgsLvjiC+KGd4E8By7gYQRB+L5z0iBin3Qb/uB74ywuf4eMP/o1LLp2AWx5/Ax9/+gZumdgTsNrV/Ny62lqYHYDLbkFTQx2qa+vQaqcGV1nRqYHl8ZsuOxpqa1DX0EqNtU49QHR6wNLSgOqaGjQ0tcLucKD+yDp8WhiLB1+dhkemjoCRUuu0taKW3bTYoNXxWw4XuaWMaJxorKtBk4XSocwSGhj0Tuz99m3MywjAHX//N96d9hFeeu5RDDPswnMzlsNKcaspTyQGu7mJ0t4IBxtv6AyHVd/YTE9jI/12P1E4PoetxRO/XU134itOSoCG8tfaWIfaZqty60U9jOgaPyhLdi3A83O3o5HzR08anZ7itTShhsJrMrsoPC4OJ+WHcmVvRR2db2y1QW/QwtJcj5raelhdblnyQxJWdlON2voGmGVcrCAIgiAIvwO0WhcKMw/jkc+24P9mbMXdX2zBPbMOY2OTHXPWHsTtn2/GPXT+vs8246U1eWhw8TRzj+eTgfpsPNKFX5zZ6Qv32fjTSb9t6pO6vP+hKec8Eihvyyx8uOyI+q7T6KF18gggg7tTTx1P70gWfqHoRcejhuhwj24hPxotnfuhO4an5TtrjuD9uV+j0T8BnZPioa/aiZf+/hjW5Viof+1WH7TUeXeHZ1AvSilB0Bk0sGvccSiRUzxHR9bwOSoLXRPWf/wWthTaoGkpxNo5h9BM7niKWZtbPaeRAxAEQfjf5KRHxHhxUhOqM9di6Zr1COp6JoYkBcNRswP//MccFJdtwLRp0xE5ZCICclfgjddex3szv8OOg3XoN3QIQvXV+Oofj2BdUSXmvvsmps9ejtrQZAzunoTStfPI/Wt49+u52J3bgLgoK7544XF8u2EXdh8uRdqgMxDbnI3pb72Mdz+egcXbDsM/oQe6xzXj/RdnYG/2bsz84C2UBPfDGd3iwNOYdOZ8vDFtA/rdcAvOTguGzWaDSxuAHj3DsOrJZYi/dByCc77DVHpgazd9j/e/y8eAkelY9fG/8eK7H2LZ9lxYqhvgh84Yc0E6zLm7Mf2dV/HeJ19h2Y4jCErqga7xwdj03r+w8EA+Vn3xHr6tjsLFg9Pp6e1Uhpu6zIWYW9MJV3fR4cUHbsA7X6/CrmInho06A9qcLfjgzVfxwfRvsXpvLmK6DUAn/wK88MjHyCzegc/enYbZq3ehnh72e+Z9iNfe/QKbcw0YNLQP/Bv248N3X8W0Dz/GovX7gZg+6JMaStHKuwRBEARBEP53cTo1iEnqhNsn9MFDF/TB3yb0w9/GRKF0dxkumToGi24djr+M74WHJvbFjUMSqP/JrwJPHn7hVZqXgznl/pjSNwxF2XWITwvAwVwLzkr3w/TtpRjYuwcGRP3Y6JBTD4+IKT64GhstPTB1aABmv/wc3vt4I5oC/BGXnIRggxkHN63Cms370KgNR1JsCFw2M6rKDqG+thmb1y3H4QoX4uOjULZ/DZat2w2zMQqxUYHKAMXwyz5XXSZmZ5Xg+lufxIThfdB/8DBEV+3EtNkHMOSc4Qgz6dBaloVVq1ZgX24dIlJSEGipwKIPnsEDX+1CgMGE2MQ4mKw1OLhjI9Zv2omSZhMSEiPUC04XmhEUm4YgSwHWLKzH8GsHI8zahN3rl5Pb/ShtdiIsIoLCYbeCIAj/e5z0iJgToYUdJauXo7HTlfjws88wLtWAyF5j8ejLH2H+rM8xRj8b3++pglbvQknpJlSHDMfL02fiq39NxvLlK1HUWo0NX65G1PhHMP+bmXjlwRvRv98oPP6vZ3HGtQ/j2w+ewsgEYM43H6K2202YPusbvHNjZ7zz3iyU2LSw7F6DvdWd8c+PZ+Gu83uo0TtqmGZLIypDXAgLNlEq3Yu2uRxOOEOj0Rk7UVwB6C1NyJy3GwlXPYoP37sH2k0f4PucSDz/2Xf45N93IqghG3n0BDDQA2Pud5+htd+f8MWsWXjt6ni8/va3KKXcW5t3YeX+etz8/Kf44LYxFAePyjmKy26FX1wfTL6yH4Y//Bq+e+X/0FVXis8oH9EXPIKvZs3Ek+Nc+OdbC9Gs06Bu+xbYe0zF+19+g4fP8ce376zBWXe9jtlz3kDa9tlYfqARVfsXYI29F6Z9PQ8zpj2PyYPiKN8yKkYQBEEQhP99+GVXsJ8BId7DpIOB+n5+Rh38TUfPBxq945p/Ojzxm0c8c2dZS/95Bn387PBOLZQKaxP279qG1bl5yM8pg01rxY6vP8H3a/ahqDAH82a+jVl7K2HQtuC7127Fv6evQ0FRLlZ88QKeefIpLNqaifwjO/HR63/HypxWGNqvn+i0w26zuj9degw4dxRshgxkVFphL92Gj2d8jX3ZxcjZuQJvv7IIFRYz9m9fiJzcI8jIL4fVpYWtrgI5mZkoKirA8hnPYObWfOh0Tmz/9gVsLbbDPbhGAx2c2DHnKcxYtR8Fudk4ciQLNa3ubcQFQRD+Fzklhhin04WI8NEYPyYNWrsDdnsL9q7/Bk/edyMunXA5Xl6cjRZevd7pRERMLEYP7aP8GSI7wWgKQG1rEMb+cTzKF72AJ17/HFtya9TzxW6xUdtvhZWnOlmrcWjDLEx/52FcfNFETH34M5Tvb0Yr7NA5+2LCxKEIcTnUkNE2eIikVfuDtxVahxMWTRSMRsAGPTqPPg9ndgmlK02U7noM6D0ciWy70UZh4PAzYKXEOFyVOLjha3z6+oO4eOJEXPvYV6g6xPGDHigunHPRRUgMcnW8Sr/nGeKwO+HiBxrRWpePgxu/xptP34mLJl6E215YAnN2C5o1TgT6n4nhA+LJFck1ti/GpfZCXDj7CkKSXwWaq+uQMGwKznPtxF8efAbfLNuLFs1PHHYrCIIgCILwXwxPFTp6uM+5B3X4nm/XCTxZyJvDbkNLkxmtNjuam6g/Sp+NzVa1U+jPDfaU4XICfmkYPmwczhh7Kx64fRLiKzbhn8sPI3XoWFx08YUYYGrCgleWo1FnQLPBiJSRE3DrHQ/hiZtHYlO9Fude80c88Ng/cHa6A99ty6N+7/EWNqazlF+dIRBGVwDsrgZsmr4QR4qjMPbCizHh/CFo2PgU1len4tzzOqPXlDvx0M0XIdakQUBsKoaPvQAXTpyEs7sZ8eWObArPPYXp2H6rE2V5+xDQcyz++Of7cdcfLkF6uBb20z3kSBAE4TRxSgwxasFb+NNBDwW9DiVrPsY7M/dg6hMf47tF8/HEVV2gcblHiRzT6Dod1K67142JGTQB/3znLVw/2A+zXrsf3+6r8dnZyAWNU4/gnsPxf699iXnz52POopXYsu5RpBuccMBPbRHt21S7eO5ueDwG6a3IySyhM7x9NTf8WjQd3o7dsYPQO5Eespz2QO/bEh38Ankr7qPrvPDW3Py01YDi7z0KD7w5E/MWzMfcxauwadXfkEZ55nEofrwI7488LJwUFz/kGJ3WiJAhF+LZj2Zj/oK5mL9sNZbPvhkxVhuFx27cBh02cnHG3CFTXvnJ76JrAZ1xy2Nv4bm7L0Tdmvfx4qtrYNX//Lc+giAIgiAI/61wL9Bpo37lKVLcQ8L80ZSRjZvf34QXduXjzg/34rNdWbj03V3IaNAhLpR6XKcmql8A9QttVtic3HcE6ipzUV26E0u/+givvPwaluU4MPScVGgsNoRHRiA9IVL5MgaEIaBrF8RQH5pHuxhNQXBaLXTleL1IyihdcljrqZ/fjDCtE7nl+di5dzU+evMVvD5tDpx9LkCnYKDVTP1iq1n50tobsfCbj/Dy2x/ivddfx5fLDqGlg/eVHL6T+tnnXf8i4vPn46UXX8Rb05ejykr9dunYCoLwP8rPNMTQ444bbM/oEw0csMGqHgKM0+VASJAJGlsDCvYsxozlhTA72Ljggt3qu8I8faGHptZpQWleFrLzqhDRfTiGRVpQU8VjTei61Q61y1BQLIZ1H4adX3yBgwVlKCvKxb4jZRQkL6JmdRsofKE0ODRRuOKGs5A76wN8t+kwyisrUXxgNZ5/Zy2G3TYByXqKgR5AsFAc6p8/Bo3vg53bl2LN4VJUlOzD6qXrEKBxQqtJxIj0/tgy40scLuT4cyj+EvLDb0w4G+3i96DWcrM5lbuoyB5ozc1BUWU9dNE9MCIiDstmzkZOSQVKCrJwILtaPeisLnqgeoKj3NFvTp/7F5uueEHhlooCHMnIQGtAJ5w5shdKKiphIc/yvBIEQRAE4feE6icaQ3HHdWfgsrQQOH/hVkY8CiO5R1988aehuPfi/vjHdUNw/+SBePG6wbidPj+45SycFaMhdx4P/1Ec0Ojc06fCojojsfskPPTK63j7nXcx7f3Xcc91ZyLAaVOjeNTLPYbkxS8svcnnUUMd9iC1eugNRvenxoLti1bB39UX3ZKikBKTislT/g+vv/EW3n3vPbz+rycxLEEDm93F412Ud3PJVsxdtRHn3/U0XnrrDTx8fV/4ad1GmvZwavQxfXH7Q0/h4T9ORs2+OXh/YxFFfexCwoIgCP8r/OTFetlSoHNZUVxVj4Qu/dE1OgAOWzPKCzToOaYLAqmRj0jpCVPDfrz66vvI1/fBlRedgZC4nugRpUN1RTFieo5BbCCFZGtFTq0LQ/p1RuPB5XjzxVcwc/FGhI66E7dc2Bd6Sx0ymwIwql8n6J0apPbqjyjLXrzz0huYt2E3HHF9MaxbBCpym5EwuCtiQwz8bGmD34r4J/TFqEER2DD7I7z/6RfYXuDC+OvuwJQRacqtvbUWhY5IjO6dwEviIyi5L/oGluKTt17G4gMOnDtpInr5RyN5cAK69uqHsMadePulN7Fg414gqT/O6BKDpspsGJKGIi060N0Z8KDR6WCtL0CxIRVju6cjMqkr7Os/x4ffZKHL6FE4Z9QgOHNW4I2X38GyXVkISh+CfkkmlOVY6Xo3RBi1sDTUocUSjK5npMFPY0dtdj6C+49GJ2Mhvpz2Bt76aDYybV1w34NXI4melb+JPoEgCIIgCMLpRGtEUnw4Ik36H76c+xlo9f7olBRJ/bJI9Emkgz5702ffpCh0iwmEjvqYvzyWnw7vlFS4ewE2NXTFlLPSgdo8bFu5DhV+OiT0OQvdKpfjyyW7UVGcjQP7stCoCUMC9b+3bZgD/55T0StaB1vZbsw8YsUVwwfCX+/EwU1zkWUYhIsHJcDpdKrFeh0N+fh+9leorjGhMu8gtq6Yh6UH7Ljh/ruQHmZEXJIBy5bPxp6ccmQfPoCs/EqEp6QhzFaDeQu2QmMPRFxKNPKzNiMvrxG15dnYsHgDDoYMx81npWD/0i/h7HMNevnlY+G8apx1XT+UrV6MRRs2I6OgDKWNtegyYBT6xQccNSAJgiD8D6GxWq0/o3XTQGfQw2W3u+fe8nZzOi2c/Nt73bvtnMsJJy+05XTA4YDaIo8Xs1UDSMgfb9nM2z/zomvatnlLLthtdrjoQaCncw4K151IDpfceRfu4jVh7C4VFw9LOd6DV8OWfJ+xjU6VFo/Jgq9pKT7eA1uhUdZ3nScOnoLL5g0HJd5F5/S8ZfUx8TspDzwlyKG2NmyPO1+g/FD4lF+Dx7LPeeKg9ezXGxwvhuagOMgNLzjM13l7b17IjLfzVjtBcfwucgc6T7Lz5srhIPeeLAmCIAiCIAj/e/A0+/KsLdjbmozzBiTB1VKHzctnY0e5ERddfi3Sw1qxc+V8rN2TC0NkV4w+Zxx6xetxeN9q+HUaj7RwA6zVmVha5MS43l3gp3Ui5+AWFBq64eweUdQ/daq+p7O1DGsXz8TOHDtg8kdil0EYd85QxPpRn5RHvRgMMJfsx7yFq5DXqEHXfiMwbvRAhLgoPfO/wfbSaFx640QEV+7FnHmr0BQ7EBcP74yDrQEY3y0COduWwJV+AVIN5di6rhH9LuqGut1rsXjdNtQ4w3DG2RMwql8Sd3A9ORcEQfjf4mcaYgRBEARBEARBON1o9HroXC71ko7f5unVGoEu9ULUQd/cv914Xz7qDXq17qF6aad1v0Dll56Mlt27+KXj0Td6/NKRX3R6w2Ecyv9RtUGro3R4X6JSetRLxnYvHTkuHb+R5PQpr+zO4X6J6uSXqPxi0f3SldPhfdnq4vSQO1FSBEH4X0UMMYIgCIIgCIIgCIIgCKeJn7lYryAIgiAIgiAIgiAIgvBTEUOMIAiCIAiCIAiCIAjCaUIMMYIgCIIgCIIgCIIgCKeJn7RGjFq4Syf7+QuCIAiCIAhCR7h44VrZ7UcQBEE4ASdtiGEjTFNTE3JyctR3QRAE4T+Ptz3mjr8gCILwn4Xb4uDgYKSlpcGptigSBEEQhB9y0oYYHglTVFSEPXv2IDY29rf/cHEZ6ZDRO8L/MFoz/SfK9+8Zr4HcbDYjOjpaOv2CIAj/YXgkDLfL5513noyKEQRBEI7LTzLEFBcXIzMzE4mJib/tDr9LD3vgDjhNRWKMEf5H0fw/e2cBYEd19fHf8/fWfTcr2WST3bi7ECeE4KF4cSlQipSWGrSlFKngXtwCBAJxd3eXzSbrmnXfff6dO2832eDwYS3zh8nOm7lz5dw7555z5txzsdZNChgcdWPMTxZGo5GamhpaWlo0vqwL/Tp06NDxw0Lx4ePHjzNx4kSdJ+v43qE+0JjN5rZfOnTo+C6hPCCVTeSb2kW+tiEmKyvrR2+IMfiCaEi5A2f4PFFXdWak438N8sr6zURmrcbgjZTfuhfETxXKEFNbW0tzczOJiYm6R4wOHTp0/MBQxpfy8nLdEKPje4eSCerq6nj33Xf1mJ46dAg8Ho/2wfK7WM1jtVpJTk6mZ8+eREZG4nA4vnaYgP9ZQ0xjym9xhs/FgKPtqg4d/ysIGGIishZh8EbIb135/qlCN8To0KFDx48LuiFGxw8FpasVFBQwb948Lr/8cpxOZ9sdHTp+elAycnV1NevXr+fCCy/E5XK13fl2oOTvjRs34na7mTFjBnFxcV9bDv/JGGI+aRf+oqmxPRTxZxFG7fetrn8e0T7vvrquq0g6vh3I6NINMToEuiFGhw4dOn5c0A0xOn4otBtiVq1axXXXXafFj9Oh46eKdkPM2rVrueiii751Q4xaBqiMMG+99RYDBgxg9OjR2u+vA2Uf+J+H0k0Kc31kH/Jx9ICPiuP+TxlmOsIr6T2fQUdloKmv9dPS9HlmGGhs8NMkR8d9pVzCB6sr/OibmujQoUOHDh06dOjQoeO7gFIO27dPVx9n9EM/9OO7OdQ7ppYn9evXj9LS0rY38Ovhf94QowwuFcU+bh3bxNv/cPLBk07+fUsL+7d5TxhjlNGk3XBikWP20y6O7fOeIE77fZv8+9rfnKz+0KOl62hsUVDRaOa/7GbO825UCFUFlW7/Jg8PXt2C2/lpzxwdOnTo0KFDhw4dOnTo0KFDx38XQkNDtVg03wQ/CY8Yjwu6DzTx55eC+OdLwZx+oYX1cz3a8iFFgKZ6Pw11arlHYJHH5kUeGmoC7isGudBQ66e1OWBEMcgDKv5VY7MfZ+unCWhos9oY5D+/F+qb/HiVd02b1abVKb+/WV/p0KFDhw4dOnTo0KFDhw4dOv7L8ZMwxCh09F4xmpTbHprXypqPPfxhRjN/kuPlvzrZttLDkZ1e5r3kpjTfx+sPO/nzJS3cd3Ezx+t8WG0GVs9286sJzdxzTpO25OiTnjHKGKPMPM/c08ofJd+Pn3dpxhu1VHjxGx7yD/v0vZx06NChQ4cOHTp06NChQ4eOT8GAyWwRHfqTmvZ3C4PRiM1qJshmxiF/zcbvrvyfhCFG+pDs/T7+cXsL993ezNqFbiZdZKa22c+K99z89Y0gnlwUzI6VHtJ6mhh4momr/mil+JiP3IM+nl0axOmXWHjj707NI6ahBh5dEET3viY2LfR8yqiijC57t3hpqkOeDWbUmWaUx5JJEv7sJgvd+xnRnWJ06NChQ4cOHTp06NDx/UAUW5MRy5ceyq9fh44fEMqrwdtC1o51HCmuB+P3Y7KwmI24qsqYvWwfv/1wN/9cnklWVat2/bt4J34ShhifF2ITDZzxcwvn3GjRDC2bF3iwBxm48QEbtbU+5r7moqrYry05UouS/H4D2Qd99Bpq0nZYmniphRvut+Fq9XPW1RYS4oyExRq0ZU+f7BijCfIO+xgg5SgCD5lkJjzagF8FAZbfavmTDh06dOjQoUOHDh06fiwwaDutaGEG/hfhd1FWXk/m8XqOfMFxtKKZL9pfxiCKjs0RRFCQHA4bJlF21EoDo8WqXXPYrEJJuWAwYrMH0ikPA+2a6Fdmq127ZrdZAtcEJovtRH4nHRDk+bZyrKIIazEkjOZAOu1wBK6ryyZrW36fgEHqardz0qlCyrfZ2/JTP41Y29vSdihjlNFs0ZTvdqg6n3hGQZ6za885tPQnoJUXoMkJSP1MVtunnre20cZ+Cm3a6CB5fJ4jhskcoHPgsH+nHhvtMFkCfeZQ/dN2TWtrGw2s0mCtJ+Wa6iODtM90Sr3k3TIF9OIvhqQz+yg/vJPFcz5i1vvv8P7sucxfMP8zj3nz5rJi7WFa1HvblsM3g9BeKnds736u/s82/rYpnyWZpbyzMZPLX9rAa/sqA7yhLfW3BdN9993317bzL4QqvKGhgaqqKsLCwrSI3J8FowwONZjM8jJaLWoQWzCbzdIZ0kE+nwxEGcgWc9s1Az6vTxvcFqMfr+9knmqQ2YQiXrWF0deEwW/BFb4cr/2IdLiF2mo/O1d7+fmvbSQnGUlONzLzMRfDp5p5+xEXu9Z46drHRM5BH2PPtbBzpYfBE0xUl0JLEwwea6K+3s/hHV4KjviIkTwyBpjYvsaDI9RA7yEBY40aXPu3yJn0UpBcdzX76TfUTEmJj11S/vjzhR4W7X3UoeP/CZkAqq6QsW6X8x9mRGmTUtu7bDT48cn7qxbqWWUSsclAV9fN8i545b1XUo1ZJlmrNXDdiE9737X08tsg/KS9FSaTcgOU/GRCUi6JypJqMFlkYrMKPwnwDb/fF5j0FZ9oy9NsNuH3StpPXJOKSV5tmXeAQSYKuwgLKp3yYvMLr1HJDPLDLLxHtactobRV5d3Oi4Sr2KTOku+JOgu/Uwy8/RmVh3KlNKhJSitD8cIArZRFVrk9GoUmJrOiiVxvo5dJCCZXpQTVfi0rLW9Fr89iuWp3BLU9pdouTwUL+2y+bJD62qQvTuWxqj+k+4THtl/r0K42QULx7/Z6B+okgoMIMJa2fjdIW6Q1Ha4pQqp0ctUkgoihQ72V4CbPqEjzGtQk3dY/OnTo0KGgyX4n5omTPEvx0I58UfFvYcsn7qvfmszYgb+o3Sw0HtX2jFHmFpWHsW2OaudjSolRjxkVT5P/bIpfduR9Mo8Z5K+ai7SstLwDc0Jb1qdA8eGmpia6du36OTxZx48Syvri99DcoIJCyrx7ynIIkWHaxoKvQ5+a5JpK9m32s5rXPxsiHSgFV8kDbVc+CaWr1dfXk5OTw8CBA7VdXdqhFGN/az53/XUtt646yvPr5Fj7GcfqI7y9q44Zk7sQK899siyjyC3+xmxmv/I0Hy5cw+qjx0nsmk6n8CAqDiziuRde41CFh249ehPqLmPe+6/w5qxV1PhjSO+WIPKCl5yFs3n+9Znku+xkdO8msiQUb/uIF16dycrMRjJ6pRNqERnBUMeKJ5/hzWUrsab0JzU6BNfxg1LGqyxfuZqVG3fSFNaFnqmR1B/ZxOpNRSR064zVeJIPGFuLWTl7BZbU3oRbpR+DfGTN/YjDnlhS40PxNZey+K0neW/hejasX8/6TesxJ/XAkn2E3EqISQgTOdXC4S1vs6suju4JISLGibzkr2TOc8/x7qI9hHTtQVKE0MUg48FZwsKVyzBGdSfaIXxCybIiquevXEheazjxsaGKiljc1Sz54GVef38FFe4oMtITha94yF38MS8LbZYXNsu1dMKVGNyhE5S8Wrx7Fa+/MpNl61ezZk0JnfpkEB2sympLdAqULNp2+iko2VwV8PljSsEsheZv+ZAnXvmAnfvrSR/Si2AZawhtF77zGG8u2Yc/pQ89ouy4G8swCE1b3VDVbCA02KLVy2jyUVNSgssWiv2TS0k+Ab/PQHBsEhkZXQixmcgYejoTRg0UemTQI6NH4OjRi969esrfHqSlxkp/fLoF6l1qaWkhPz+fPn36nPI+fBJGkb8b8nP43QdHaE5K4fFLhvDXM3tyWY8wKC/n+e0VpHaJo2eU9RSxVb1zlZWV2tG3b9+TMu5XxJcbpr4GjKIs5W56mn25hcx89gGuufY6rr3+Oq677lp+8/Bz5Da0sOK5O7juhhu54bpruP+p16nxmFn18l08OnMLHmXEkcFiFa62b8lT3PXkbOq9Mvl+7gD6alB5OluEjsf9VDX42brCS3SigcIsH3VVfu5+1kFcslE7V94zweEGaiv99BxuZO8Gj2ZIUbshbV8WMLK0B0ZWQXh9n1hjpALxuluh9wgTmxd7yS3wseo9Yez1AUWzqcmvedHo0PHfC2UqcLP8tZu55vobue7qX/HUG3tosVkJ8lTy2lN/5cprr+emG67njucW0WCwyKTYyqp37uT662/g2lt+xTObcjSBO8hbxcx5i9lV1iyMXiYmmTx3b1rCezvLMcpktmn1a1R4gyjd8hG/ufJaef4afvvPlyioFT5hM5Oz6kV+ddM13HjjTdxy+93sqYLclc/yS+3ajdxy2x1szG0RAepUK7Yy8DQcW8ctt/yCG6Sev77nQ4rcyqBgpGzbOpbO2oVLCf7CYN21x1j82EIq/Oq3CbOniFkPv8GBGp9mYLaYXWx+9RHeWZiJUSY0o8VAxZ7dbJqbTe6e97npxhu48YZruE7qc4PwvmX78tmzaQv7j+Yy75lfcb3ih1dfyw033cDdd7zGO3PfYuHBck1JsJi9bPjgXyzPqtNchb82DCYsvgpmPngv/16eJ8qHYvlq4vWx8c2/8eATG2kVOholndldyPsPvcGhehFcyndLXW6Vel/H1dJnNwgPf3TuNurL9vH4766StvyC6+XaW2uy8NRl8sz9Vwivv4Hrrvobi3ZXYHIEc3zXS6zLKtFoZhDBzV28nn+8M5MKpwhX0tfu+hI2LFhGle//z+N16NDxXw5RmCxmH7vm/ZNbbryOG66/nueW7MEtfNjqd7Fm9fssyK4XAV74kyijpfvm8dSmPO0rrNFspyHrY/4+awkumZ2UUcZff5Rnnn+ATSUt2tdqkyjYh7fMZfvxKtY+fC83Sv7XXXO9xuNueOA1skpy2bbhLfKP7uHO224O8L4bFO++gcdmzuKjf71AdrNNU1osdYd49JH5FIgM+K0K0Tp+OCiDncuLt6WMnDnP0VAtQ1LGnabbydg0+2pY+sbLvL+jTMZpYB41yXjdu+h13v7oIC6LjDsto1MR+OjS9uMrwCcKQkuzlNv2+wREkTF6mzi0fwO5dX7tw883guRjkPdBhJcvPAyfI28YjBY8x9fz97sfpNCaRu+e6XRPTiDUbqMiczEvzV5KeGpfOneKJcjfwpqta9nWGsPI3rGsfPVD5u2tpmb/PN5cuonknt3I/uBDFm8uozF/OesOHZRrw4msnscfP1iC32pi+zt/Z1mFgz7JJub87RWONJhoLtrBB/miZ/XMoHu3LsSFO6g7uoHnf/ckM3cfpNEtNG+rr8VqIWvDXF6b/TjH6i3YrS7J8x1eff4VFmXXaR8LMdlEB+xO9+7p9OzTidIVRyiqbiRv7XI2bMmX2yb2L/gHT741l81bi9XaFayOFtY++nd2VoTSN6GFR//yHtkuGROucua9dA/PvbeDkormgDFP5Curs5wNK17j1x8e0OhvFRl60/Y1rG+MYqSUueHt2czeepzaY7vZerCYlP6DcOTP5cW5qyRlR6uFQeRkFwd376awMVTq25/O5iM8+J+F1Pqk34T32R0OHHIo3qiVrRppshPU5i2kPmA6lGeLzSZ8sZ61b71NvsehebUEvJZOhcqzpWAzT+xtoF+fXlhKtvL3xzbis3tZOec/LC6NICO2mflvP0FOg49NH87i40VFlB9ezay5y8mr9WiydfnhDcz6eBGZpU3Cwz9ZyqfhdbXS7DLTd8xZ9E2y09zYpBlVAkcrTbWF7Ny5n6KKBlyuwAY83xjyXli9Ttbuy2ObKYpHZvRnaKdg3KLTByck86sLBjDBWM+H+yto9n69d/rL8K16xChDTP62VymKmMb08aOZMiSNvdXVnH7pnVx1+jAirS0c2niUsbf8jsumT2LYoL6adfLY+v+wutLBkD5DiApSy33q2P7qo+yL6M+Yfr0Js3b4qvoV0NEjRoasZrnastjDzpVe1s0NBMu9+SEbvfqJIpfp5b3HXFil3J6DTaRkGImIMbBxgYexZ1uISTTy6v1OzUBz1xN2jhf56ZRqIDnNSOVxv2bQSemuvler1wMteG9opIHhY0S5sfl540En4TFGkroZ6TfazIqZHmwOA7FxyqatQ8c3xQ/oEaMsm+5Gsg4sY9Clj3LDeb05MPtDsvxdGZnaysysZq78+fVcfNbpjB2YTpS8Bytf/weL3aP40+03MG1MP44sf5RDru4MT7EyZ8V2Irr0onu0HaPfy8Gd6znoSmZsikyYO1YTlzGFmpx9+Dqfzh13XU5i3hpe3VrHuNE9KVi7iYgJV3DDpecxftxYkmOt5KzeSszpV3HDJeczspuFD556B2/noXTrZBde4Mcgk6gzawUPP7WZab+8k2tnTKO79RiPzd5NvzGD8OzfzJ4sP71Py8Aq6d0NuayfdYjUs0YSbRU+eHANi/dspdwxkJHdw2Qia2b7ksXM/GAHPc87ndQgOH7wIJlZPgbNmMjEMVNIcC6nsc+N/OG6n5GRaGfftt04Q9KYePoZnDYmjcqFZZz+5z9w8ZmDSPIeZfnWbLoPGIE1ez7P7bZz3sTBBBtPeg2140s9YpSBxVPGkpW7aDpSSY/TRxKqBLH6g7yzeDu+glgGn9eTIFFe6g+sYvG+7VQGDWBE3xQGj5zIqMRGlvp78NDtN4mwkEpr4VFKWxP4+W23Mn3yBPp0T8FdtpOcZjOX3fhXzh7m4+2HlxI/aQzmo++T6e8jAlQMVqObvUd2svb5zaSMH0VKpANXXSm7Nh8gYchQwo1tX5p16NDxE4RIamY/uxb/h5fzIrjntl9xzrSxVG4SZelILBMGxrB50yLKQwYyKikIj/Cr44eXsLCqE+f27oTJ0MTaHTvY99ZOuk6bQLxDlMWGQpbOfID1x/ozdWJ3zF4XWXuWczxkBFOmjGLCaekULG9kym9u4edThhHlr2DXrrXEDLiCsyafxpCYSpabB/PP269jVN/ulJbtFqXLzJjeSaxb8Ca18T0Y27uL5nHzSegeMf9lkHnS4C4n5+2XKNpbSPOxHRjqGsjbvBNrz+GEOETi8lSzZUcWzuIGOg/thUPNo405LNssekZZFOljOiOiDmaRL0wmk6ao+SWNy9VEs9tKsMMUkD+MJhnrKo1RxoaMHYP6MKGWbJi1j1H1BZnsPVhLfFoCNtG7lJepSmuQvA2eZrKy9uOP7EliqOgdnzG0vtgjxoDfU8OCVSXsa1daPgsyZu32EK6d2IUY9TNwVWBAdHi2vvRXykbcyW+vnE7//v3o370z4aLQz185C+PY33HLWaPolhwvepOH2E7dmTBsGP0H9ydk/y5qLSGU7z1Mfer5/Oq6sxmaXMkrmU2cPmwMvfufxlBJNyrVxn9W13OB6GT/ebSQ8/52G2eNn0hQ62pWtvRiqKOANSFjuP/S0+nfR2gRbiN/7w4SxgykVdrUO6MPYRYfBqsZ94HtPL69mcFdc4jtdTnJVFFYXUvvodGUmtMZkxaJz+igc49BDBrQj96hHja4jZwx/TScm3dQHpTG0F4GdleH0L9rKi3NEQwdkoq1bC9/WlfFVbffyrRJE4itfJzDtqn0NmSRGTKc7jKmYlLTSIkNkuFlomzHSvY1eemaWUvExOHEWCA6vhsThg4X2gwg/MheSlrCGDxuED3l2lC5NiK2gRf3NzFtYN+THj7SByaDm6xjpXQddi4zzhzBoAw3H7+ax8jzhxHeWMBHcxexY+cenFFdSbHWsfCNR3jo44O0Gs107ZxIQ/ZOFsxbwoGSGqI7xZC9cCF5Rti1dj0VjUEkdY4RubYDX5NzY3Aspw0cwrDBg8hI9nHsgyOkTo1h66sfMfU3j3H++H449+RT3uihMPddIibdw8geEdQf28KGQ5WY3SWsWL2b+CFnMLZPguT/RXwxsDSp4sg+Nm/bRVZONtkynnNzc08eeXnkHt7JwoVrKWp24m4yk9AlDusn8v3KHjGSzuRyMX9LFnXxqdwyKE57XxXUah6L1UF1aR5La2xc2DuWIOX8rd0NvHM/Go8YVSnhMVIpE8Eh4URFhmMPCyEkMpKI0GAZPGo5QxBh4WGEh4UTGhSMweckKCWafo54iktL8BsttJQfZpf1bIZ3MeL5LE7zNaDIoeKzPDU/mH9/GMSjcvzjvSASUow4pcY33WfnucXBXHmXlat/Y6VbbyOTLrDwp+eDZIAaGH+OWXv2T887tOVHF1xvZfhks7Z28oxLLYw+w3wi8K66P/E8M5NnmGmVvFU+6tk7HrFp5diEmZ9/g4VuffVgvTr+u6GES4vNSkxMHPFduzEqPQGrTG5uvwgX9mBC5P0OD5dD3ntj1QHm5ydxzflnkhAeSkSnHlxxxnSOZssk1yz8T4QSkUVOQvldtpmb1al2JrN/WFQMMVFJDBo3hNogNy63V/iNjdCwMI2nhIWGy2Ql6eVaWESklB9G8uCzuezMZI5s30CTX3ncicBvcrJr5X4yxkxlcv9kQkIjGHD6GYwPbxJBvFRb42w+pULKPVbqKM/avDUs3V9L2ujTiczdTrny5vC5MXQdz2UXhbHqtbXUm9TzIjwpd1SLg8ioKOF3VkKEHurcYREhTRi3OuwhEURFRYjQEEK48MmwEBspA6aT4s/h4JGDMikcY+TIYSQK1/96rP0k1LwUGduHTsPq2Hq0CbvDSPGBY8R070WqMCW/tM/mrWbJ/jq6j55CWM42KggmSmgYGRGKOTRMq3eoXe0zZ8IeFKIZ4xUPD1L+xFIzR0gosdExJIvgNzbMTUO9W/sSpH2QkfzdDSVkHshj4s19WKO8ZISW6o4SWAM9rUOHjp8q1JIJX0MxW3PyuGD6ZXRLEPkwIpEzz72C2LwFZNYasSj3+RNsOaDQKqFS/W0pyyS7tJUJ1yax/GC5FofB42pl8NQZ9PWs5+09RcJ3hedqCrLwXeFdkcJ3QyyhMldEERUWpHkYmEzCDWX+iFAyq8xVFuFzkXJuC4pi8pgBVGfvZf+hHewtMzBs5EjsuiT3vwG/SO+2OJKmTcZ0eA4Ny7ZRsOYAcaOmEx7iU3qoNo+GiWIb2aORzOJWGSsGKrKLiEjpQoI2NxpoLc9izjPP8OQLr7BClE9DfS4vPfc0jz/xFO+sOojXLPpN0S5efuFpnlXLUZwij7SWsz+3iO1LX+C9VbvxBcWRKDKJ3eQlZ9dKnnrqaV566wOya2VsilwUGMOqzn5NDvteoeQaTwG71mUwon9XfM4WmptbaHG6aWqpx1BUgnfdTK676Eaeee8gHodF3jurSA3ynrSUsMPoJ6FzLFWxJqwZMVobHJFxZBeW02S0ah4cXrmWfWA7PXskE97cRPaIFBIsfryiJNvCYzmcV4xP0qmyvXI0NTXTKuV3m3gxw1JC8XnalthIXY3uSuYufpfx/cbRJdSsKeHG4ChGnHEBKXbPyaXa0sFulZ+7mTVbdxEc05eMYGvgvs+LKyiZs8eNJSXUj0fqp8jf0lBDfGeRSUXo9KgPYTEZbJG62TuP5pLRaZJGeWhISpF1zL5mth3IpCHhRs68uol5eyqFRwkNLDY0DbK1jJ0+F1HSZodc15b04+bIpnJGR3TBZmuPotMGkwV73VFe+tuvuOa6a7j7uc2M/8M5dLWZqC/KJ7fsOJUVh5j34PvkNrgozjtMRUkBxbWN1Odv5r0Hn2JvXgXHyytw+wxUtRxi+a4jVBZk8dYHr7OysAWb5ip0EkquDjJL+70e8nMyqRo6kFhfPb7i8XSKUm01EdPspjyrUPT6nnTpJPK2I4nJ519IhieT2XO2EjHgLM4Z21P45qc/Kp4Kv/SjkfheQznrggs475xzOVeO8849T/sbOM7h3PMu4uc/v5xLZpzP6eN7EeT74uVVXwajjKuIYAtltc20SEYBOVXaLrK6we+kqsZDRJBd87D8/5TzSXTUNr5FBBiExiPk0M7lVMUDqC5exf2338h1193O02/swy0Dx+sPZmB/OwfyyvFLA/P3raX/1G443F/WWV8NKo8W+VcZR9qPdqVGOQCqe27tPGC4UVOrMtKo59S5Sq9+K7jlb7s9Td37pG1NXVOHQvuzKt92R0N17ZsqVDp0/FigGJOruY6De7axbd1G1goDjOmXjFWEYuO+Zdx7x83ccMMNPL/0EDW1RSSme4l12LX1+16PMLP4NBproVIm8TZe9wUQhd3bSnHWPnbs2srqJfsYHZlIkM0qjLKQ1x++m5tuvJG7fjuLMl/AZVATUOTweMzEpUXQaiuXyVqmRTUptjZzzB6GuXsSFq9bs167bUFkiMDgKiiTd/2z2aIS+BtLj1LdXMPYcafTJaaaw0cbha8ZZNJwkz78SmL8G1mwK0/7KqaguEh7XdQR4IUBXqCh/Zp2W/7KpN9qCOfCKSP48L3XKbYGMbxPT7nezlW+CSTzoBAybL3x7DogPKyewxU+uiV2FcFHxXIx0VByhJrWek4bN5nOUdKu7CaZlAJ1OlFHoYvF5mTHkuf41U1qmdjDrDxQg0WE0LrjIpzt3MHWlevY0bMbaXG2E+voDdIhVfmZlJUM4NwLfkaXdbvJF4arDPM6dOjQoSaBluZqgtxGUmPChG97Rf/xERQaRUOylZzyek4N+ngSRqOPvMM5GNxDOOP084lZvYUSvyiMBuHrwkvPuHIC1W+9xt5aiwjQgWcCbE3xp3b+FrgWQBu/a0ujDsXfrZ3HMDWugLdnLyEq9XQGJIh6eSK+lo7/aqgPL94mqrauoskZh7VLBFZXJVWZmTg9Mu60oSd9bQ+is7kznqw8+d1EXh0kxybI2FRSvSiB5mAGnHMRF08bSWveQnKdsfTp253EUZOYPLArpqpMPt5by5hzLmNKl0pmb9kvSkETi2e/S33cBCYMTMNbXUru3uOiO0BYbBoXXHYxEzJiOLZ8B00Gi8zC6gOHn6yNy1myqQQ1qL/XqVRkJqfPKjLOSeOAKt9kcLL/UAX1yUP5/e+v4PjhVSzYfhyTWsZjaWXDG4tosQ5i9NAY0YPURyolYASe9re4NAOHWjLTcnQl/9xn4pLThsg9Lwa7JbB8SJUisprP6cEiOex+5h7OFsX80htuZ12BWrwjsqV6adugurRk3zZqU85n2hmdsajuc6hl0KLDKf4iv0+hmzzgqitkz5pNDBs3GlO71qYSKUON13OKB5IqKkwZmdoEWFV2g0sEG78Xf7sxSIMBd3MpmVuWiqx0nKK8YIpfnEWhN/Cs1epiy7sLqfH047TR8XidXqGNnaqDHzOrvIyJE4Zi839C/hM50e2IZ9yFV3P7nb/msnFp7F+9iVKXn+jufZk2Scbb5DOIdB2hzCZjaNppTL32bn73s8mUHdnNvpE38I+//5G7rr+UziE+rPZ0rrn2Zn57/5+5bEwXqo6U4BO58FT4tT6rPryGOTPhwhsHYWxRH0Pt2gfTAKFcuKTtRuG7KqSW0eilIj+LomYLiQkhmqGnuKZV+vkrmB4kO1dLE3U1ddTXNXD82E5WrNlAQXkDDXV1cr2WepeVjN4ZhMo7VFPX/Cl9/GtBOswrsuyYtGjMBcW8vb9K6mAgyG7GbvBw9EAWswqNTMyIJNSq4lS2Pfct4DsyxHw21OCPSp7M/c+8yhtvPMvt1/bHIi+VUsxC04cSlr2e7IK97G8YxfjUaHkxdZOFDh0/Riivt5a6SjYu/ZjnXnqD6rRpnDsoFk9LC77+U3n4mZd47bXXuO3MfliNFho8ZpmoVFhXgTA3tQ7aZ0HuyRVhaIbAHXUzcN6Ry8kEaXI3cmT7ama+8AzLykM478LJWH2teH0pXPunx3nl1dd46rFLSBCBqONkqeZIj9uD2W/WviapbP1GI8FOA8ZmmVjbJlGDPOR0S8kquKNWoQ41UufyoDxGac5h1i84yAdvvsDs2WvYuHEnTpNNc0/3BidwydkDyJq3guwGRaP2HL4mvC7saWOYHCMTQaez6Brmkna23fuG8HisdO8XRpHvIPt35uJtCCYtI14EBpn0RagrOZbJhoUHmPXmf5j94So2bdqFy6Ro0RHqq5GNYWfexnOvvMnrb9zL5L6RIncYKM89xMqPXuOv7+5h0oxz6BpiausH9QUPcncvYnXJOl7+9xusPT6bJbuqsFiUSKlDhw4dir9a8Ft8miCv8QX5xycKh0UUZIdF7glDUd51AciZzAsG4Yui5pC5byErMlfw2nNvsbJ4HpsyG7Q4Hn5RGqO7TGXM+CgWrlotKT9jR5WvBL/Uy8SQ8dNo3ddI33EDNDf2DlONjv92iExi7TyW7vfcTcioIXT//Z+JSfDjE+W2HR6vhZRuQRz35pJ7rBR/q4NOyWoOVBO0UYvFUbBtHRu27KSowojP7CAuLoboTqkkRIVQIfpNXc4u9m7ZxP5jomDuqqRBZAdz99EMEoUyISpMMziaZG40y39eVzWb16xn2/4cqk0y3rSqqADWBjLGnsH0sUng/h6X9UpdfUEJdE3az+H8BqwnvHsNUicrvXp35qypY8kYMpJp9nCMuXUgbcl6dxarj4Vy7V2nEyzyVEhJK605tXjVc64GErolEG62Yazcz1/e3crkadcxKjUERDGO2lZOpfSB8gQyGFtI7tJJ+IKRQbc/yuJFC/nw9eeY0MUi72dHKpgw+0r54B/Ps3nbSh65915e/XA/L773EYVNaMG5Pwm141LJvlmUBF3CiM7KBPT5VFV37PYgjhTXUOtyYzJZMHtKGJOSwMnNDwIwSL7NBVs53JhBwfJ3WLLlMHn2PHbm1GNzGMme/SHL9li45p7pxArv8wkdfCVbeWDeRgbN+D2DpW2flv8knSWIzj36M7h/f4ZOmcaQQ0s4lFvCnP+8yz9efJXXXn2XXZUubSOc1laX5iEogxmRhrEmxEsebs2TSOVtN4cQYpYTdytGvxWbDLRPFqniHzoLd/HOPzcy9g+XMzzMhl/a7QneSHWtiivjpSkomoTUONyGnZTVeijdv4oPF+8keti5XHftRfS25ovcvIijFS1fKh8bDH7RMaooKsinsKiY7MM7WbR0OcfySigqLKRQO/LJyc4hL7+A0jIZTx3k9q8L9cHQ11jDlmON1AoveOijLdw1bz9Prcri4TlbufKDPNKHdufqPjEyOL7dd+57NcQoaLuI2O3ajhxqVyWNaJpbYDK9u9fxxCvLsSVEEBwUiLL8bUB9m7ZLSR0P5UjYDlGjtGvq72d1ohpiHUMlKaJ92XSu0isjoUql8v6m0//3gUB7vluo1nekoY7/bng9bsITu3PbXx7nsT9cSfjheWTXWTGrQW8URq92pbDJO24yEB7bTYTXOvaVNeAIDiYkyEpe5laSwm1ER0WRbDOKsC3viSMYm9krTL2S0GgRSNotKsIfXPZYTr/mHp5/+u+kxzezKatEWzutRpalrSx1BHh7YBcfR1AwQeY6Dm5qIMrRnxCHTC3CVDy2EHrYqynfuY9WUzDBUidLw3E2eRoJ69mZyMhgiHJJM+xyz4G7upwaRxwhphaKcnYw6rorGNyzD2edP4LChnwq6tza1xef20VY+tmMTslhzaFcHEly8Rua6H0i8HXt1ZuU2AjJ41Oz8NeGUkjsKf1Izalm4fKVZMX0IdHm1iZbv7uF4vxdjL72Cgb17Ms5M4aTX5dPZb20q81Q1RFqS0eNhwu9LdIHHpeTHmPO5q+Pv8gD06M4sn0Xre0cxSBvffMx9lRmcMv540nv258pw6fgXr+VGuHCKmiyCiwXpALLtXkR6dCh46cF5XXiCInF7bewI7sIe7AoBsJ7Kwsz8eck0jM5TPhEOB6niucnPNthoqLsGGlRkThrDpHbOowbzxlFxuARTO42gJpt+2g2KqlLlBCfmTHjxxK2+SCHZI76xgZynxdfeCwjg4YREepBd4b5H4Lfh98SRfyIUUQnJhE79mcEp6SSOvkMwoLlXntfez1Y47sRV1jLhh27KQ5PI8ailmWopQoiQ7w9B19iL3qmJRNqkXEmD6oP0IHFLEoyidK8gbt3T5O5cDQXnjcIh/pAFWLHLHLOSS9SE/WFu5m1vJKufXuS2inq0x6kkuYbj+VvDJ+8gyGMvf409r3wACv3l1FaXEhJeTVmeySO+EjmLN9OafY+llRl4+8WTs6it5i5sJLJN43DW5JNXomLoYOiaSlazOHcI3z4+haGRKcS3HiAu5+eTdKg0xkd4+TosRyOmzK4dEgmqzfvpjBzDYtmljO1VwIut1tZxaTbfJpHs0Y2RQrl3exR/aGMVSFMveMeZowbTL8BA+iSFEm3VClHxAyV3u9z41aylUZC5UFXyqo38xlyyWBCNOOW0gdVQnW/PXsvHo+SI6WMhP5cGJnFtq37KNq7nGc+jmZAemhbOA0p3614hOiOxnIWP7ePM//wL55+5hme+s+r3D0gkexNezm8cjZvf1DMxJsnYTieQ35pLc6Crdzzygd0H3I9o4LqyMopoLpZyWJaNTSomvlczZQX5ZNfUsLhVfOZI3wyyV7K+/trueGuP3H/3Vdhsxq1NvpknOzNPERJdSNxUSKDz3+LrVnHKSuvpFVkVI/IrqpZKhCRV8a48vQ7RfQTvd1Tu48Xb3+XuEvPIT28kZxj+biMiXSe1Il5K7eTvXcd6yv20nnUUHpGDaZ59R48Jiupw89m+ohuIo8nMO7sGQyNN9Dq+XKDido1KaJTKv0GDaRf/z6MmHg+t954LWOG9qFv//5abKJ+/frRf0B/BgwcQK8eSVp8mLbu+lpQRj5zayVvfLSbv+yqxRMZwb3jE2g4WsAjSw4x+2gLl00fwj/OTCfaKmzgmxTyBfhWDTHaQPVIp2odKodibuqFaR/IUlp9xUHmv/8O77z9NovXbKXJa9bsMCr4Wnr3wZRv2Yk1pRchRnlJ1Av1/2ywauCh3V5mv+Zi/kwXC951aedbVnu0e1bp7FXz3Xz4qotlH4liIvXvSBTVjMy9HnKPBr7SqHs1VX72bvv8uqk0hbl+CnN8tDbDog9c7N6s7JA/Pqi6VlX4ObRHJgHVb98BFN0aav0cOyQ0/JYHsI4fDh6XVwsKF54yhO7GFp6fv1rzojAW7GfeB+8yc+Y7zF6zl/qw3txxWTRL3/sHr858n3dnvsFre44zYsQkgoIiGdfPwp7lr/HWO+/y+n/epKQsgwsHdcIpk6HaoUwNS+VB09xQT4OpE9OHxLPz/Vmojy34Ktiw6EMpaybvf/gxRQ1yzXuc9Qs/5N333uW1J19kY42NkZMGYJE8FJt2O00M+NlF2Br38shTLzNr1vu8+sIinJEDGdU9kpj0HsJoj2leNjNnvs7MJevpe/NkgnNWMmf/GK742elMmTKV6ZdcwWkleRzIr5DJS23H7cPlMzH5smuxLJvL6jK/ZohSUHzFrSY3OVeHmuy09cfabREecJ3qyaPq2dqqfR3+/0Pyd7lEIYll9AQ3a9dsZ9SYNJnI3XiMRhrz1rHg4Fh+ftEUadfp0q6fM7YomwOF1fK+Kubcbk0yiODnJGfvKt5/R3j4O2+z7UiJXDbjbGmlur6VQWPOomL9Ej44XCL8TriL2cCxZfNoTujJmdPPYerU6Vx84Wk47bvJKm2iMn8bH707k7dlPli947DQ4dMR+3Xo0PE/jrYv7edPGceh5U/y4uvv8P77b/Pe8k1EzjifxCAzQ7qkYJ//Gv95Q+aQF/7Dx/tEkR2bzJ7Zs7AMHM9ZZ0xj6unncvkl/cirFyW52iMyjSgsXlFiIgZx4ZXxLH5rkXDDgCee3MEtClXHb5vt843GmDWm3ZH/yjVJ30Krxqt1PvW/Bj8+pa9YIkgZOYmQMOl+UaZPyPkyRt0eman9EfQb6Gb7tkz69I+XeVQUV5FVlDLvcpmpctXTVC+ybqNP5lcTYSL4l25fyqYjpUR26Y5dGRFramior6MhSBRAKUDJOloxaoiJHOGVceezSHnmSpz1jdTJOG5qCzKqZAclx1TmHOZQjghBpo4ay3cPv9QjYej13HntaN7/8x3cdffdPPzSLApd4Zx37tWE7n2ea299gqBe53Lu0GjyCzPZ1bSNJ+/7Lb/57T388d5XcA+9nBk9XTxwx23sjenH5Wf1pao0G1/BLra89Sh33XU3d//xr7yzuZTxv/oLCXtf4Je/f5Iu193I2E4mDGGpDEuNDMhQ7VAKTHAcvdK64DB58RpC6D1mAufPmMEFF1zAhZdcyMXjBhOhFGmfF3tcL/p0CtUeU7sYuYvzKD1jBhO7RWpxU8zY8Ihs47ep+ICSvRQVGpNCRlqURgOnL4gLfnE3lvnPcut9HzD5llsZHGUV2dEvPMVG14w0YsPtGGqqKBg2Vupro7VFuIfbyKDT04lLqCUn7wi7nDt55v57uFto8+e/vcyWwwUYdh5l4ysPcvvdQrM//YX3DtficASJvKwOB0ZrMKlRJnZ8+Di/vuOX/OHxbG5+7vf07j6Q355l5OXfXccNb+znwqvGEGvxkDzifEZueI2bn59DyKCfccnkSJ644yb+/OQr5NRb6TagH1Ey3nwiv8Z37krnTmGYjda28uRw2HAV57Dbms+cN//BPb/+Nb+5+yHm7W7k3ItvIGrfC9z84GwSz7qd4clhjLrgUk6fZCGux3imj8rAJnKkis9jCk5k3Jnn0Cu2Lf7OF0B5xDTXV1NSVKwdFU0QFhxEbXmRZvzbvXk1q7cfoLiklJLiEsrKa6W/vj5XVp4w7tpSnn1/F/ftacASE8mjFw3ll1OG8OKd08j8y1msvWsivxzVmWjb/z9u7WfB4HJ18Lv7AqigisXFxWRlZZGUlCQd9mkFQXm71BRspCl8CCkRNoSDsCe/iISkDDoJw1HRUjI3LWJ7doM87yUyOYMJ40bTXLwZU8JYog0VZB3LJi59JNH+Co6U1dMpsQshFrVOt62QrwCDvCCNKb/FGT5XWKOD/Vu8HNnpZccKD85WGH2WWdvFaNSZZt54yElxto+eQ00UHVVr5Qxc92cbNrtiywGvlsd/3cr25R7e2huivOzYscHLrCdd3P+e2h7spOFGscl2qrzyFyeTLjJTcszP/NfcXP4bK8NP00JWaWlU3u2GGXWtvSwFlV97Pu3n7aqQgnpOPaOGnHqm/VwdKq26r85VnuqeyqO9juq3ekb9bi9zwzIPK97z8Lvn7Dik3Sqmjbqn8vhkHT+rbJVXe93b03V8VtWpvs7Paw84ueROK/HJgdqoNB3bpeOrQijsNxORtQiDN0J+t4+W7xE+F6UFu7F1Gk1MkDCn2kOsK/IyPr0re7euZV/2cW0trjVlMOdO6EeoxUrB7g9YtbeRw1vfp2Xsgzxz5UCcTg9mq5n8bfNZtb8coyWZ0y+cSqJNuEVrrTDZbKJThuKqzKfeF0FqcjgmfxMH12QSMaw/9vIdrNyUKUKKEbPFzmln/YzQii0s35JFi8eANbgbZ/5sElEiPJ9i0zCaMTcV8P6CDbSUHuCDtQ4eff8+eppFqDJZMNVl8/GSDdQ0uek64kwm90+hseQg25sjGJcaq325UpN3dfYmGkJ6YGxoxBETT0y48quD4sN7KPGnMKRvjPAjg/DFTRy39KZXQpjcd1OYV4IpLI6E6CCZ1BvI2ZRP1Ig+RJoDFn1liKkslnaFZNA1QsXR0mr9KSi34NraWpqbm0lMTPwMvmzA6GsgM6uWlPQUgpzlrN/dwrBxXTA3VlF40ElUtyb2N0q7OsdoQoRqV9WxDdSHDaGzpZzNlSZGpyVpX9/c9UVsXrOavBrJWpSSjJHTGJIs7a2qo1NSb+wWA9UFazjo7csQey6Vtq7YiypoCYsnJTVcxo0fi7+VPUdLCI8No2rPSvYVuUX4dJPYaxjjhw/EapDfn9NeHTp0/O/CZLVQfWg1y3bmkbN5Pgd738zMW6dqH+UsIpsd37aRlbsO02xMZuI5k8noBLnrszCkpZEYa9f4hsXTyOasClI7OWitryQmaQBBZpE0/A0cXrOH0KGj6SzasV/44hFR9KIHdSXaYcHnrKGoJEfk0mGEWUU5rjrGttogxqQlyLMBrqzyyNtSTdzoVILl2uexKaV0lJeXM3HiRO1cx387DDKPN5Ff1EhCSjw2ZzV7j7rpNTABY1Md5XlO4vvGU5+/ly37C0Vp7krGoDiC7NGEU8XebVupDuvL+MFpGKqzWb3tsLaUJiRjGBM629hX4SQjPhqL2YCztobqCojPCCZv+zoOl4uu1K0vfWItBIVFUVtRgiUyGVfhYcr8ifTrGSWC98l5X+lqatnGihUruOaaa0TGcrbdkVYYjPhasrnpD9uZ6VYXAtc/BZEjwsLjWffQRHrKz88awSazFWvbVscqhp3T6RJJ1IhNlCdlG/J6nDhdXpHv7Frw7BMQpdzZ4hQR1oZdFCi1s5JWR6NFnlVx/9rSydulvG0VnSw2hxbfSS2v0ZYumswiJ/hwfvJDleigFpMBj+YVcyrMFpuILM4TspRB5DyLtMzV7nFsNGGTZ1V5Rmc+L9/7AJuqErjlvvsYnm7F45bWidxoMvlwtxtohZ5Wux2zyLqBurbXxyDlic4r775H5D+78kxxn4wxo+qvdEmf1FcF7T0BoY3ahMJsFTq0XVLIXv4mj760iDqbRYjgJnzaTTx2xSTs7UqWUN4lNPRI3c3KE13lKXR1SXWUp7bWL0HSL163FljZqLzIJY2KSeiSfkMt/XS5tH42S7+a/CXM/PXfWVzbJHqc9FdED264/Q6m9pCxdgLtbUbzkFZL3D1SB42eyutC45ffnPcZTX6q8nPILa7SgjOfhAGLyIg71y0hz9qDc0bKCJXxZwuKp0ffVOyf4MtKRq6urmbt2rVcdNFFuKSdHWGVeq9dvpZLFtdgiwnn0UuGM6N7mPDt9r4M4PN4vYLZbObw4cNkZmZyySWXaLuYfh18q4YYBaO8XAZR0gLWLrVmUpQI6fzA4JfBKS/pia/E2guolgDIC+J1aoNFRcb3utvOhYAqQvNXqmAHdDTEGHBoBoFgOXvnRRdNDX5u/I2UJ9cWfuxm6zIPdz5mJ9JhoFkG8cO3tNJruIkZN6pXNGBgePK3rbz7bxf3velgxpVWNm/w8MFTLh5434G31U/mPhWAFNL7GImKMLJppZusfV4u+qWNf93aQkikgZ//ziaKpV86SOoSYiA03KAZiOQ9pNdQeRltUFnqp1nqV17sp1tPIy0NUFrqo7vkGxmjVuDJYBCyl+X76NRVaCO8q6zQpxmV3JK38jqJiTOSl+XT8opNNNBV8qksVy+M5N0E3XsYKc72U5DnI6GzgYx0E+tXuVk/x8OZV1txSj69BxmxBxloavJzZHfA7W+A1NEvdSzK9pEoZSvDo3beRRiX1OPonsB46DXMhLyT2t7rB6R9itD9Rsg1K2xe4WXvRg+3/MUuY8mr0SKpi0wM2pM6vjqEqD+0IUbeJzURa++tDBCDFvE+8GXHKhOB2oZRwe910eoMvMNqByGHzUzT8e08/fcXiDzjTq44vbs2WEwyWdu0yVom15bWAL8QZm6SCUt5w6iAsmqkBIIjCiOWCUlF0ZcHsbUJA4ouzpYW/CaZZGSCV9f8atJvVXXUEpwKmVQddptMxk7Wvfdv3syK4Le/vJ6UYJk8hWs4RChQ41zxI6fU0SCCgmLazhMeIgF+p3ZNUtKD4ont292Z2nYKcKmZUPJQ6Uz+NldYdV9NlJI+wCcVX5R2ygTZsSeNIigY5ZlPyhod8eWGGAWhl8z66qudXxiO3SrCnuoToa8KuOdVBivjqUKNUYQWo/Sdx6+Ekw5tVsKK9G+7m7Q2Ecst1d9quZpqjWqrxe/CJZQ1+UX4UH0n/aC59AqUX5BaW66CcRql35VAouqo+tmpxV1oy1yHDh0/OSjeYxdFxNdyhBdvf4rGoT/nFzcMxNLiwSi8x6aiQCoFqk3xMGnKSZuHoQaROxW/k7lC8Uev5gmpeIrIlHZlcGlXxtQ8IvKpaBIBNiz8UJtvlPwpirdaYvsJfh/g1fJM25z2edANMf+LkL4XGUVbaiTzaEDXVecip6j5X/pZKfcB0cevyQJK0VW6jFpGreLIuSW9WnZ0Qj6S+2paVM+3jxNlLJFhK79Fqba0GTqUx5gMOKXYq22uteD9Io9IbWScnzrnf6khxlnEQ88dQkR+UWjbbnwCqu5hIVG8cssQUtXvwOWfCJTRrZXSvCK84VEkx337MUG+DpQM2lJbQUlZDR5lpRJ52xzVibTYMO38u4D6WFihlkTJ4FQfBX0iu3cS+TLcLmPvOyrzsxAY958uT437ytJC6o1RpMaHa3VUi50Uv/8kvswQo9SO/EOHeGhdDWdM7s+FPSJkOvl6/f2jM8T8GPBJQ4yCilgw6zkXTfVw7e9lkpffj9/ZSvogExdcbdEilNvk2LzCw8ZFXm79pyiTMt8rQ8xjd7Vq4z33gJf7XndwvNjPe4+5+OtMB7OedHJ0t08mdIiKN3DDA3befsRFel8j/SeYuOfsZoJDDUy53MrsZ6T8Oh+3PWrn0FYv+Ud8OIIgupNRnrPx50tapLRAPtn7fAyaaKIg00tsspFf/duu3VNGj8dvb+WmB20cz/fz0LXNPL4siOwDPq0eA8eZeOcfThK6GMna7eWupx1sWeJh1uMuBkl9Lv+tlZn/chEdb6S+xsdZ16k10/Dsb1uF6SsFEU6/zML0a608c7cILMKQywt8DJ5o5uxrLfz23BYenO3QnvnN9Gbue8vBvJfUF22oKPIRk2jgl/+y8+rfnNQcV8tAIDHNwNX32qgp9Ws0/+NrDo7t8Upf+DltWmArcB1fBzIYf3BDzDdHQBBRBoCTa6J/WCgBSwa+MhZ8Qqj5seOrGWJ06NCh478MyjCiBdz1fqkb+48NuiFGxw+FLzLEBBD4MKN0my+G+rDm+1oK6f8STJpM6JP394eXqZQBzdTRK0TkPM93KusZMJrVx882iJyulnN97+K64fNjySiaqDF60jCkzttOO+DLDDEKahdYzUNJ5plvsvTo/2uI6dCzPy2oqdFoNmieJu1kV9dC5bcyMnQc4+pcLV3qNdzMx/8RAstv4XUcL/SxdamXe55w8Kfngsg/4mf3ai8tjX6ikgwkhRkZPdXChJ+Z6TPUSGOtj9+/4tAMLYe2efn7Ow5++7SDkhyftnTKEQzTLrVwz6MOrcxRE838Rs5bGqG6XIUDQ/OcGTTOxLHdXgoyfZitBkpz/BzP99G1l5Hd67xc/Wsbf3vMQVKaicPbPHhk3PUZYeK3L9hZM9tNt34mbn7ExoBx0p7nXMrTDbek+cN/HNz0FzsHt/rYvdZLXZWP3/zDwSMfBLFhvpvCbJ/WbgVlpRV9WvPg2b/BI2UZ+NWjdqZdZWH/Ri9FR/1c9Qcr1/3Fyo4VXs3wFBJlIDTCQMERL8NGmxk7Tfki6PipQX0FCrhpft9c/fMgzFdegv82I4wOHTp0/M9ClCC1491/mxFGh44fN5RnvpfWLz1+ukYYBbWb74/BCKOgPEPUcqsTx3dqhFHw4+tYnvII+iEGgxSqDC2fdajwJurD48lrbc98A6i4TGpZ2XcR/+Wr4CdriFENNxr9tGhOKAGbm7rW2hAwvChDwwm09c0Vd1s5uMXL4V1ezXOkvEgtBTIQFa3WAELnbgaKsr3UV/m1++pVccvoUF4syn2/xxAT/YaZqK3w02ek2ooNTEGQ1tdIheTlUEuWJL8GGRCduhgISzbgkjRq2ZGzJVAJyZZOqUZyD/moKvXRd7SJ7INeSvP89B5l4oKbrWQd8fH4P1rZtToQE8cRAiOnmogKNVBfDbtWeXjkxhb2rPWQ1s8ozEaeHWEiJcOI3wIWaUtFsY8ufaRwh3KPhIwBJilPLUHRqqH9VXQKjzRoXjf7Nnn53fnNLH/XQ2WJT1s+9cKfnLx4r5NuUobNoZayQGiUQfOSUY69aiHD51k7dejQoUOHDh06dOjQoUOHjv9FtKnVPz0og4byctm3XgVr8hNY+AMbFniITTKglh13hNcNidFGJl9o5q2HXJohIiwyEIS2RZ5XK8qqyv1ExhoICjV8rnVOxXhyyP2iYz7NNdDgCsSGCVLL/eSeZgSS6+pv+4qTjlmpS3GpkkL+P7Tdy8SfWcg7JHVo8NNJ6vf03Wpto4/k7kZGnKnWOwfyU2ui1bPK2HPxzVaeeyOYq++20bVvIJaGKkR5BKl6q0Mtp6o9rh5Eq6eKB6OeVfes0vaqYhWYSepe5tcMOo+8EsTjc4M0z5f6Gj+Dxpv415tB2qEMPJHxBs3zRnnQKNqpgdfmXKNDhw4dOnTo0KFDhw4dOnT8V6GlpUVbBvVN8M2e+i+EMjao5TfqUFB/pl5swWT28+KfnWxe4+HtJ1zUVvg4+zrLKcaPduNEi1w9+xdWbWmRWu7TqYuRuGQj7z/rYs6bbs14MuA0s2ZoKD4WWEqkeX+o1Uxyz9Wizv30G23C2QzvveBiwdtu6ir9WsBeFTPF59VsIlpa5SWlylXnykij2qCMKUkpRvIPe7EHQd+RJm1ZkzKoKGOQitOS2tOoxYDZvkxt34jmFaPabZccBk808cFLLt6f6+Llh5yal4qqr0qjoJYzq3r0GWWiNN/HyjluXn/MRUSsQat3ZCy8+5SLF/7opKbcr8WEyd7v5c0XnGxa5SGmk4FJQtc8qd/bLzl59qFWOfdJfQw4G/w01fk1uhWV+MhvM0bp0KFDhw4dOnTo0KFDhw4d/w1Qxhe1NOrgwYNER0e3Xf16MN13331/bTv/QqjCGhoaqKqqIiwsTCv4xwqD34IrfDle+xEMWpjeAExympBqJC5FCCe/1TFyipnsgz6y9viw2gzc8Bc7wWGGdmcUDQYzmldHVLxRM650G2girrORHv1NpPc3cnC7l9pKPxf+wkq3VBPV1T7NiNF3jAmD1UBiNyOxSUZtWU5qT7W9GvQba2L7Mi8tTX6u/J2V6DgjJkmb2stISHhg16Iucq6MLUFSH2VcUVtrqzor40VwlJG+o0ykSFtsoTBwnFmeM2h127nSS0WJjyt+Z9OWDiV1N2q7LEUmGkiRc4sD9q7zMuosCxPPMeOXRkXGGTQvGpPJQHi0gd6DTfSQY9tyL80NcMOfbISFSp36KcOPj4k/M2vLoroLDYYIDVVMmaoyP1fcYyWxk9BmmEm7pnaTuumvNuxC28y9PvIO+TjzUgvHhObKkNM5Td816ZtBxkbVFTLWlS/Xj/dd1PHdwmAw0NraqgUHCw0N/VHzZR06dOj4KUDx4aamJrp27arzZB3fK5SuVldXR25uLkOGDNGCRSs5QT/046d4qPdBych5eXn069cPFVfms9J900PZRVQgYJX/uHHjvpF95Ceza5KCWo6kecZov07CIVfVdUWIVvn3kwSxyl0VtsrT9luZdtQTalNEZZixtT3vlN+KKmqL7Hf+4eK8my2kJJu0Z9WyH7URnXpGQT2nPFQU1HPqvipHebW0n6s4Kiq1Kk/VuWO9LNqzfs2zR+Wj4q2oslUb1bMqbccYLOqsfcNFVV+VTuXZ3gb1W+UVOA/UUxl8VFoFRRdVL1WX9rq100Cl+GRbPvWsVO4/9zoZf4GZPsMCy6E6Pq/j60D68b941yQd3x7UJKPvmqRDhw4dPx7ouybp+KGgdDU19p555hliYmJ0Q6COnzSUsUQtG1I7ifXs2fNb58cq//DwcAYNGkSXLl0ICQnRDTEKJw0xc0TJP2mI+b6gjBpbV3m0HY0GjVWGmJ82lHGnvMSvxY8Zd55QR13Q8f9AuyFmsW6I+YlDN8To0KFDx48LuiFGxw8NpQzq8oAOHQEog8l3YZRU+Sr7iPr7Td+3/11DTPLvcUbMw+D//g0xCmbpFAWPbo3WoGwvJqGJ2kVKx/8XbYaYozK+dUPMTxq6IUaHDh06flzQDTE6dOjQoeOr4GsbYo4ePfqjN8RIs/AbW+SPWnyjL3zR8b8JgzdY/Rv4oeMnCWWIqamp0VwvFV/WhX4dOnTo+GGh+PDx48d1Q4wOHTp06PhCfG1DzP79+4mNjf3Rf3kNRG3RlVQd/7sIRAXS8VOGcodUQSGdTicx0dG6R4wOHTp0/MBQxpem5mYmTZqkG2J06NChQ8fn4usZYoqKOJxXREKX7vj0yUWHDh06flAYjEYaqiqor28gqrPOl3Xo0KHjh4bX68FZcpRJE8brhhgd3zvUBxqzWUWr1KFDx/cF9SH0m/D7r2mIKeRIUQWJ3XuJwN++h5AOHTp06PghYDSaqKsopba2jpi03jpf1qFDh44fGF6Ph+bcvUyaME4Ec91LUcf3B2WEUR6yu3bt0o2AOnR8T1BGmLS0NDp37vy137tvYIgpJ7GbbojRoUPHfxsMGIWPGY3CNIVR+nxtrM9gwmxWFwPW7I4M0WAwanFYAvDj9/tOPKe8UdRG8Sfy+QGg6lZXUUZtXT0xXXW+rEOHDh0/NDRDTN4+3RCj43uH0tXKysqYM2cOo0ePxiNjUYcOHd8dlByuQrcoI+jZZ5+N263i0351/LgNMaIgOYLsGKVxMrXR2tSCV2prNFtxOGz43U5aWl34jWaCHHZRjAy4W5txuQPWKJPFjsNuwedulXRuTcEyWWxyzapZr5wtTWhzpJRjcwRhMfpwtTTj9PhEYbPINTumtjAzbmeL5OuRpFZsVuTZQH4noPKwWfC4WgN5CsxWGyY8OJ1CK6mjXeUndVQw+P24pK5uLFgNkkbKVDDZpL0+t3Rkm0VNFEGbPRiLySdta6FV0mk5qPxsRqmHtF9LGIBJaGNW+bnbJ38jliAHVpMRv9St2RkYIIo2dptZdEsPrc1S5w6ZGM1CI4cVr6RvPZHegdnvpFXqZZCyFb3MBukToVdHOcMgdLOY/bhlWNmCHdJ+ddGPx9mK0+XD6lBtkUsIrVtbA30lNFW0MUsfO6WNLqlMx+g+qj526TOjqmtLK54TCrQRs4xLn9eNQfW1tMfrlTo2f6Jv5JfBpNpkk2HkplXKbc9CjSWN3nLB3D42XC1Cp88e32artMknZbT3Qzv8BkxqDHqkfp5A5kaTWcautN3zGdbRtjFnNqq0aiy24NE6wYDFHoTNYtTGhxpzGITe0odqfDqbW3B37KxPwGS2aHRqp6FB6mA1yHNt4+vbhOpre5BNymu7IPA65f3xWbTxo4wUfr+blqZWIZyMH1y4VT2k3yxWRee2cWc0YTcbZMzKmFHjQMaqV97t1lanUMYoY0bGr1kGjddFS4tc+/zmfwHUFnPQVFVKeZ2H6PhEwoLMgbzcTZSL4OKxRZEQFykl+qTe8oQQUPGTJqF5oEgZb9YgQoJtGm3V++gxyti1Khfgb1Sp/zd0Q4wOHTp0/LigG2J0/FBQMoEyxGzdupUZM2Z8baVQhw4dXw9qGeCxY8e0zYymT5/+td8503333ffXtvMvhHq5G+rrqapvIjQqVvsy/F3CoAwKdZk8/tBDfPzhB6xecYykIUNICLNStmc+D/z1ETYWGhk0uBfWqr3888EHmTPrfVwx/clIicYk9T266gUe/sezbDsexJAh3bGLUpy9cRYPPfgYGzZtpdPAycQFm/DWH+H9p+7mpQ8340kdTL/EcOoLt/LWY3/hvQ8XsnzebJrCe9AzLYWmo8t44908ug9Pw9a2FbMyTNB4lA8/fh9jfD/iQqxYTF52zXuPzQUh9OidgKHiIK8++TDvvTubVYvms3jdRlzJQ4itXsvcfAv9EyOlMz3sm/0S+8qD6dolXvsab2gp4uPn7+KFmaup7zSAAYmh+IwWPMWbee21vaQM7U5Qm0XAJAps3s45LM+306dLJH6fKJ/GKlY+cL88/w6bGiMZ07uLXIPstS/zyD+fZd26IlJHDiXKIkqz5KGMB+V7PuDhv/2LIy2R9OvRVdpi4PD6p1jf0JUBSZG4ag7y3tO/ZdbCPaQMHE+0ve1ZUZbrjmxk1fIS4pMaefvPf2XWvDks+XgVNf40eqT7WPLUPbz85scsXim0TuhNz9RYnCUbee3RP/LGkn040geTHmVrM7YYtDxLtrzFU//6N3M25pPYs582BnzK8NFawa692zFHdKFw/Ws89PDT7D8URN/T0rF18GwwWoJoyv6YJx/6G6v2V9G19yAipc7KIHD84CIONSfRPc5G5pp3ePChx9lbH8WQfqmYTtlq2yBKuJ89C59mbX0iA5PC8Z64L3Wxuzjw+vMUOtJJinZgEJpVHd7B0bJmYuJjMXR4XwzSf97aA7z/3B958525LJt7gJBuvUmJD8ZsbGXj6/fx5PNv0xrVm/TOnTA3H2PmX//CG7M2Yk8bRJe4oM/0wlCGrEOHNnOoKZzuUQ580r6m4p3MyfbK+AoXmn36mc+D2m9fWXc/D0aLifrDq3nlvgf5cNliVi+ex+L5iyiwZJDqXcGTjzzKvDnzWL+uid5ThtC671W2VESQFh+Ft6mQ9Ytm4YsfTEyQCUPtUd5ck0+36AbefeZh3nz9bQ5Wmendpw8hhgpWPvso/3nlVZbtr6HXgL6E24yaoeTrQL0bhxY+xwP3PcqqNUtZuimTmF7D6RpSx8dP/J5/Pv8WaxaswhU7iP7pwt+UYU5e6+yVr/LwX/7CrNkfsfCjDykyZTBySDcsnlrmPnUfy3JDGT6oG6YfKHCy5obc3Eir00lQ5HfPl3Xo0KFDxxfD7/Phrj0uclyqNpfq0PF9QckEjY2NFBYWkpGRoSmF6sOzfuiHfnw3h+LxVVVV1NbWkp6erl37Omj3uf9RQXkptOas5OE7HyN2zMX8/MZfcPEV00QBt9F0eAlPvlzEtBtv5WdTBhPiO86atTkMO/PnXHPN2Rx+/hl2lvlpzfyIp99v5YLb7iCt6R1enJuFryGTHUccXPbLXzGlTxjz//0K1R43qz56kaLEi7nm/H4cmvOEKIHQUlKMN6gnM66/lcuv/wXDeqVQdXA2jy58m9LluTQbDSeIp7605+9ewuIF2TQ3uDQFbsfSv/Hi0p207C/DrdxCghOZeN5VXH7tjVx29ZV0bd2JwRZGXd5WNmRVYLf62CvK3qsfLCS/pUQ61iyKtZMNc5/mYOg5XHfZaRQs/Dc7Sw24i9bz5PznyV6cQ7NkHaiHQRhwM7tmLWHfzpVUuGxYbX5yVq3BO/gMrrr1FlKOvcjrm0swVuxidkUSV//iV0zq2crz9y+g3mrR8lFM/HjeLo53O4OzR/cSBdOPyVDCitm7OPbuGmqlsaagRE4791Z6OjaTX+vVDDtaDTwt7F/2CqaePaEml+PGflx8081cccPPGTE4AXdNFVXlVqZcdxdXnd2TNfOeYl9mLvOWrcQ25hauO7ML++e9RHalMiBJe0wWWks2c6i8iqnX3MvPBtby9Kx3qHEaMVuMlGfuZPOcQhoL1rJysZnL7ryNjJhM3lywCb9FeWQIbVQeBet4dt4q+pz7Ky46e5JmhPH6TRi8hSx+YiuGkCAqtnzIy3PdXPjL2zhnVAYm9XIFmqXBIPRxZ+1hyYotrM+pw9zuKqVgtGKqzmRT5jpelj4xSN2MQpT6vEyO5RTjM0pZbUkVlJdKy/FMGkwhnHP1HUKfc+nWKVjo7GH9rEfYbRzCVb/4JYO6J2AxV7P4H/+kuee5XHfJAOY+/gpHm4Tm0i6ztNEeEkJwcLBWH5PBS1HuAQ6VNmvGM2Voaq08woajlRo926F5LVmtOEJDCQqyajRyBKtzu5avv/Ywb819kZx6sFkkrc1BUEgowQ4b7dn4vT4cib2Z9otbmNwrEWdNTy689SYmDUylNmsN9j5TufKm2xnV9QjPvrwGk8XER2tz8ZtNeGoO8foD77EjtxJzUAjHD7xFQekRisvq6T7qcq6/6xekHFzPpq1ZlORVEN5vPFf88h6mJu1k5uqt+A3qhfp68Pu8hCRkcMlvHuLhxx5hsDuLlfJ+5u+YzYLtNVz/wH+449LuLPn4PY7WeTGq91vehfqigziTT+PeJ17mkaee4+qzB2KWgdFcsIPlH7zJ7LnzyK1xCe079rAOHTp06NChQ4cOHTp0fD5+hIYYgyg6zWxbv4eIaXdy5bmj6d13EL37ZxBhrWPD6hzOv/Mypo0eS9/0RFHKIpkw41wmjBlKn9FnMaR3DY0uN9m75jLg4qmMHTiY6efcRtKWHVRE9OeSa89mYL9BDJ4wkaSoHKqqi6ja1yppLmDklHMZHplB6cECfOYgYlN70W/wUAYMGUZipJE6UyqXnf0r+oTYNO8CTVE3WWku2sDObDOjxwwW5d4LrkrcyVdw19RJODwqnQ+soXTp0Y++g0fSI7aOpqCbGdnVhsdgQbRoPG4ntrhB3PqrEYQZXNqSDLerhJItVZx17oUMHzeNsamDOb4zkxpzNGef+RtGxoRobq+qHgaTnYajcyhOGU7fKD/ZudWiLBtInTCDKWeOp0//0Ywf1ZeC6jpM8YP5zYwz6DVgIEOnjKZf1XGafEY0XVK1y+IgMn0A3ZNjpHkmKrbNp3bARJL7ZrI/vxWrLYzOGUNJSxHFXEpvp0NL/ioW5Z/BqCExoviaiErrz5ARoxg6ciipicFqFRShsWn0GjiIkVPPZkx9J47sOYC1MZapkyYybNpljHSFkX0sD59Jcva6sMYNZ/LZtzNkYC/Gn3YmVncwzW43Rml3ds5KPNKP9vKtBP3sDE4bOJLpZ40kvnYVeTVGzfhg9LeSeWA/6UP/wIVnTqB3z24EKU3aZKPx8GIODBrCoNha1q4/ztV/vJKJQ0fSs2uctnTsBAxmjM48Ni5ZT99Bk7AHm4RObfcEZouXrLXbCOk5hSnlyzjWaNKWtBnNZm3p1EnI2LZY5JqH5oZg4pPOYMRpQxkyvB+xEcG4C9axxdOViy69iqEjRpAcHwnFh1kWMoBxZ4+j76RLuPqMYxzMacVbuZuDezfz/l/+yKOPPc7hSi8W1YHKk8zhwGZTS8/s2OwOuXbyNVdeVs2lO9i3bR1v3fs7XnptPZWl23jj33fz3GsfUt5qwBIUz4g+44izuCkszmTHird45v7f8uj7y6h1GzVjjOYxEhJLt8FD6NmtO4kxPegzWHnrhEnDfSRn9NPenfHnnkHntZupix/J8MOHKHIbqC0pwj7hNCLq99PqayJ7u49eKX1J7zuSMRNGMmzAEAzBzVS6W4nr3kfe1ckMGT2QVL+DmprPWOb1FaA8qFKGTGXypOEyFhMICnNgDbJQfDCXoE7jGDN0AEMnTSO27BhHCxtOGJyUZ5N6Pw1CQ6P0nTJMKa+lvRuXEHrGvVyYVMH6bdnaeNWhQ4cOHTp06NChQ4eOr4Ifn/Ygeo+KM1HVuo3EwWkYm1s11zoVP8NcX8YOo50ji37D1edO4Z9vLceDRXPH90pTPPl7WOUcS3oiNNd3pUt8OG6nih/ixx25hbpas4rSKYV4KTpwmJzYaXSyN2KoGUNkWAtOn4nQ5jqqi6vwCmWaa8spLsijsKCUuhYDaekDSU8OwtW+5lfF7vAWsvzZrXQaN414qxev1MVjimXMkF6itHXQ10Wx96q4IsYaNr+9i5TJfYmUMgI5SSpDED0nDyVM8lZKoyKE39cCVWOJiXDS6jUQLHSpzq8guvMg+qWF4zoR90OUZ1sT++bkkDZiMiMSY6koOopLi9DilyYrouZzaGEzEzOSNFoq11mD0CFv7zbyxw8h0eg5JU6MiruiQptY/FVsXFTH6aMm09MygJq9R3GLUur1uNpiwwQ0VqPRQmXOWoLGdiLMZxBl1cOBd+7l+vPO5OfX/YKPD9fisBpxt9RwvKiYY3s2sz24iC49u9NoLWfTzoMcP7KP9Ue2UtLil94M5Kug6mo0+DiyZw1pyZFEORxSvuSxEiYMSSE4IoO6Oes5VFpA1q6t7NjWLHSVykkWPo+Hhpq1VG18n9tOn8pfH/qIKo8o1NLve5eWMapHL4LrithsDmLPW1dzhdT3xfk7A8vN2mCR08y1y9iZ2J/+A6Lwuzt4yxhEQW8pZ2tJNTEDLyXjzGA27S3DogLhdISks/iqmfvkMyzZVYHJX8O6Z//OTedN5c4/PkJ+jZeqslqSGwuZ+evLuOKsO1iyvwKPp4XOSVGEmky4XS589s7sKaum6chKnn12O9FquZ63guUvb6U52IGjOpdZf7qaay6dwU2Xnc8df3oGFYannZrKG6d8x3xefP0wScOH0rz7Wf754kLi+40iKGcvG+btxeOqYPuOTdS7PGyZ9TbzdrXSe+QAPCuXs31XsQz7trap987tknHilVMvHnlPvdq4MlBfUUxxYQH7t2wgb0AvOkWl0GnADg4X1FK6azszzhvB7oJqGsuK2O1KIjwpBZutgW3/uJvLf/4LsrpcyNTB3WRcmShY82euPesS5uX05Prpg05Z5vV1oNwFDQY3uz5+kXX5wUyZMgBviwerI0raIkSyhhDmbqW5xal5himomEt5q97gjzf8nDuvv4F524vxN+azZsEWglK70CWunpXL11LjMp0w3ujQoUOHjv8+qCX4KkaZOjp6kerQoUOHDh3fBX6kn3HVMhvRfk9RuNQ1I41ZqzD2vZtHX3qdwXXvsGh/JVaLBZqPsfCxuYwaN5XkULOo4d5TY2Ko/AQmm4WqPfNY/1EFF15wGhaPW9IFgnMGoMoxYbG2sG/Fy/zrT3fx4O+fZ19eo9xSu6qcDCRrEeod2r0K9+kjmDYgVVtSZbfbMEk692cEaDWYLbiyN7FSHhzQp4vSDE/kpQwmHrfnpILfBuVN07EZarmEz+c5JQCcijliqMpiafFRDmxfz54D63j9ow1Utvo0wcJCK+vn/JPcUacxtnsEyn5jthop276IFQvCuOLSAfidn1FfUdrdpZlsrNrD1o0byDr6MfN3LqOuRXlFnCqkKMXV7W4mUspTPjJuv5mMc+7kweeEhg/+jSldw/Aa/JRmLuTpP9zGX55bxpCL7mbUwB5MHT2AQy//modeeB2faRgZEcFaHu0wCt3qM5fw8iE7E8dPINhiknGwhKxJP2NAJET2PZMhPXbz0B138/aOevoNCSFE+lnRTa1iqTxSQmviJP763suMtZeybvFBvNVH2ZGQQN9BPTF5PdQeWUP0hH/w+AtP0eno06zKdmJV9gbJoLXqIEcKg7nywvMJN/sx2u1YlZeJyl/a21R+lLwNK8nev5ydK46SPXseFV7rqYq5jDG3MZwp117F2IwwogZfyP0fz+Pxl17hyrQmXnhjPq1eN7uPupnyh8d58rFzWP/OEoqbZExoAyBAD5Wllq+MtV7nTWXqBRdxziU/I9F+kJpGZXBMYfpv/s2/nnqBB598kT/ffbUWHPkENSUvo8NBvwunM23GhZxx4Xn0Sj+HM2dcwqQJ/WWMVuL2mbHIO2WU8dma3Jl+Z1zA9POu5pIZfmpai2TsfcLI9AmoZT1r3vwnf7/ndt7LSuKOO88kWGoemXwahzevY3fBBPqPHcuogiL2H9hFaIqHLp2i8LRY6XfD73j04b+SXPwaLyzdLWPdS6dht/Pwi/9ibHweTzy+lGah+amj7ytAxqcMI47Mf5IXXtvOjN/9idHdwjSvGL+7Hq/fIO9AM3XS7mCHvY3maEGDe5/zK16at5KZc+dz1eTuFG1bwPbyFo4ufptFO2uo2zGHbcdqNOFdhw4dOnT898Hg91J5vIqDeZUczqsg+3iD9nHqa881OnTo0KFDx1fEj09zkInPbLPj8Gawf3suBAdhs1qxWkTBF0UnIWM6w/t3IyomkW4ZPSmvbxVFs5nt7z+Gd7wollMyMPvsBIXnk1tSi81uFQXLh6lquDxjpKV0M6sXrGbgPbfQP86m7QbkjdpAdZ2UafRSHxwqCmMkvlYHoy66l6dnzuGl9x9gTI9wUco6GD8Mogw6j7N23ut8+Mpb3POLG5n5zou89O83yGtU8TraEnaAxeBiz4FDRCYOJDXagvczAq6ehCjMxiAMsRuoqLESJLpvo9AltHM8VmWcaUulxASjxU/JoWLiPLHEOJqoc6QxuH4Th0oahXZmjmx/hyUto7jivLMItvqxyLXm3J2sfDubCfdeSo9QG59VYRWzpKCwiLjQbkT6q3HF9yFibwl55Y2fMsQor6TgkCTymlxSI1U7A5bgCKLj4oiJiSLYZsTt9JM6+EoefudjXn/uSc7LiKapqZXYPjN44O2lPHvfHXh7u7BEh2AW+qplPcrIZKw+yHOLjzL1rKsZkRqBydbEwQWVTMlIkpJ8uLEx8ReP8d68D/nl2J44S/oTGubVAg8bpMvieg2k//h+xEUl0rVPJGZ7Ffn7S+jcEEVyvA232Uzn3ucxpHcS0bGpdE7rRkVds+YNYbNbKFj9Mu8u/oin77iavzz4HNueepp5G0sw2pQXhIFqoaWzy3TCmsuwxcRSbqkip7RBM4KZJG+rGr9ymIxmgkLDcFjlOck7NCqKyMhk+k8cRV2IF6+0edionnRLTiCyRzpDS5x4bMGUlFRR7/VJX1rwNeUyMDFeBEQ/ZqsBT0tgNy+jWfpDyO5XOxCFhBEeEU5YRAShoY5AB3WEMWCUcDe34PFJ/Swm6RsnbilDLcE50bPKGKGW5Ri8OJv9QudA7JQvg/KKOf+ep3nxvTk8/ttLiJTnPQYTybFphK99nwMjuxBtiKXH5FrWb8zEURpPTJQy7pgIUnVO7MGFZ0+goLpMM5DYZBxFhCcx4vJzST1WSbnUs51xKc8li2YACSz7UtVTBsRTYvgIVLDerAXP8LcH3qPrxbcyPNFIUVEtyb170Fq7i91HC8navpSK6CS6JYZoTVeEUH+bG5qoraihrqaO+qoi1i/ZRp+LHuDFmR/J8R4XjzCxfPFmmv1ql6xAeV8VAYNjICaSDh06dOj4PqE+vCn+a6TueDHrsstpbG2Wo4n87AIOlDVr87hKo3Po7w/KE1btRKIO1Tc/Coh8puS5H1WdviGMIjdpcqmSmdquqXdBxR20ipxp1uURHTq+N3wn3ETteKQMIN/sVRaFzxDMaWechufwo7z90RK2blwnRya1ji5Mis1ky9y5bFw/myWzDtG7UxBLn7iRZRXdiY/3sGPVInbuPkjnsTfjXbCGhevW8OGcZymfMJzYmr28cP8fqE6fjr98F+tWLKOkPpxuUwawaM4HLJ3zLltqc0npk4LB5dS2Zm5ubqW5qcOWyaL4e+Q/5UXjNkVw8S9f4KE//5prbr6e0aMmMfm8CcTZJZUkD6QMeJoow42rpoCDu/bSe8RE7H6npoJpLhttX98VvZQTkLbtv5yYbUn0OnuE1G0Wyxd+wNr8/SQP7opJ29pa+fx41K7JGFtrWL9rKeFX3c/dd97FTbf/nmuvH8TiVQcpXPk0f55dyITEZLK3rmDt9gMUF23lxV8+j3tML9wF21m/cgN5JfWKO5/sMxE8fK2V7Fw+lwE3PMBtKt877ue6n9WydHuWpD1VMFFLmaJSR+IpKKNJFGGT30VF1k42r13NpjWbOJZfj1+aqrYH12ja0qJtGa1CqNQVHmTLkkW89OhMGs0ZZHQOo77wKNl5FRhrD/DXfzyHMSKF0MoDrF27kcxta1gVnkhScqIMYCGYr4WcHStYNvdlZr+5jNTp4whpLidn70EaDHZSYsay/413Wb16MfOWZNNqiiG7Yj91/SYS5W/CHdaDKSEbWP7hUjatfZ/18/NJ7xRBbck+DuWUkXT6H/jXg/dz9a23c8kFU8iYdibDe0Xh9wgNXMdY+HoV5/36N9z0q7u56d77+XlEM4d2HsFrcFJ4eDubZQxuXr+Wkspaio4cobRa2l90lB1r17B10xLmvPkxQx3xpPUZSllZBQuXLmXtm7NZ181MROfhXNqlkC3zFrNp7mu8sao//dJDcLvbtoJWveCTkeZu27Jb/iqXJ+XRoR2ewO+O8HvUs2pXJDXMZIy61ZId1YdyrnlyydiWfLQhr/Jr+yyoYvx82tHLIOV4cMtYbIdK1yJ93NLcRItT6iWP+7xGEnsmU1xTSxdjFBazm5hukylY+BGlPUcQ7a5l36p5LNuwge0b57Pg3Q1MTU2iYM8KVi1ax/ZN65kz522qzupKsrxLqhrKc6216ggH88qkYo0c3ruTqhY/jSWHOFxSI/fbR6j8lfG5acUcioUWOz78N3dffyl/fmYOtoEXcdmEYF657Ux+/2YOZ1x5A+mRkr9GPwiKSsZ5YD5/vvVKfn3LtTz9+ofkWLow5fRxhAebsYcnM/HM6QSXbKWy3t2hzC+HcqoqO3KA215Yz7rS5oCX1XcIk9VOUEgIQaEh2Gxm1XPyn9oePIjgkOATXl7KSKgCOQcHB2lBnzXvIKG1LShY0gWuacSRftCuSVq1db/2sEBt8a+COweprc3byKG2fdfKlsMRFCTXVdlqSaVdxkKg3JOQWpntmhH5BFT5HYJFqzq256cdWlnSFhEkT9jg5Bm19flJmVJKlHy1unXIS0FtkW+1BbZcPwFVplw7kU41Wcq1d6SNdlHVTdFB6NqxzqdA2upor2+oth1/h+K/Iwg9ggNlBrZYD6C9fx2KZupCW7sC11TfaMlOhQju9ra82tvQ3ueqv7Vg3/K8XaNhB7T1W0dDo9FiO7V8VQHJ3yZ5nKSrjv81qKDwFqtNFNmTwesVDzeLQqg8MD/FOuV9NptFKWw/1IeZ9lty79tQhtXcpZYv+5w1HM5toGeProzM6MSQjGTG9ginKK+UGjWHaZ7T+qj8PmCQuaGhqoTDhw5y4MBBiqrqhI2oDzWnQsXg+74+YKgPPgZnHbkyXx84cIC88nrtQ9+3D4Nm6Pkum2USWjaUH2XlipVs2rGXFmNg7rQYnRzbt4nla7dSVO8LzPM6dOj4zvGtb1+tlv40ZK5j3YYCErp3kZf7s9N9EVS8CVtMT4Z1NbB56WIOHDpKYYGZjOG96D5gMLWrF7F82wGSLvw15/YLZv+xSo4XlVKQdYijmYeoFmWs95gLRKEvZc578zH2uJKbLxiCtzKfbceaaCg+xrHMTDkOYojvy5Rxo2jYO5+V+xsYfdntjEyy4hSN0xYWTWx8NKZPttUXRFxv5ZliEKE8lsjYWKJjokUYjSatV3cigkya8qKC5dojoonpHK7il+JuqKCpfigjxnXC4PZjtgVTsf8tss0jmdQjNmDs8buxhncmLkoUfb+RpM4ZeI8uY+m2EgZd8msmpAUFYsMoHum2E9s7EdLgQkoAAP/0SURBVKuvGU9TI30HjcDiacbpdGEPSSSswikKq9wrLCQ/L0vaK/SpaiE2Koxqn9Cs4CjHjhzm6OFCbPEZpKVGaYJxWdYaDpoHcWa6hdq8JHqOTsPoasXZ6iY4tjOVLXZ6d+9E6d73cCVfSNdItVzKhzkyifB981iSH8LgvglU7NvAroNSpuRvDu9O94xImTjtxCQnYxeCKEXMZPJTtnc9Cz5egaHLudx6y0SCcVEp1w4UQVy8mdrcg1SVFEn9D3PsWC61plDGD+9Cl0SplzLEeOvZueh1Vm8vZcJdf2N87zBaqvPYuWwHQT0G0bN3Ks1VW1m0cBtJI87i/Ol9MTbm0qPvGIK12DgWkvoOoGjBh6w5kE/vq3/P5N6RFO6fx47jkfTvnUaEjPnomDjCw0WBSEpnQFJowL7RWEVOjAhv0n9+l1NobyEisZFmewyd4xxk793Cvv1Z5BzNIrJLT6oP7KNe9S/5rH73Y3YcOoS17zQuvmiqjIcIBiXC2gUfcSA3ist+cTGdI+wk9R5M5dKPWJHpZMavrqdPnA2f14slPJmkSIdmFDTZQohNTtSU0LDoRJLCLNInAcHRGBxHemxwwLCiSbt+7JGd6RRu1byygsJjiY8LkfEqYz4ilpiYCFHMHMTHdxIB2UxsTAKxwcqDy4ktshtxEWFaHgoqO/V62MLiSO4m40fFH/LL+ItOJzYs+EQ6BZMI4H5rZ9L7dychXIQYW5SM7yB6DjuNTiEGCo/tYsWS1WQfyiR8zGVceP54vDn7WLdYeEDWfsqiJ3PX5dMJMgSW8CkFsD5vBeuzDfRLsbBi0WJCug2D3OVsqQ1nQIriU4Hy1VhLH3k+F11+BWeeewHTL7iYyaP6ESbKZdqgyUyYNJXpMy5jdM94jbYKMqSJTB3K1PMv5azzL9SOYUMGMGrMJLolBOGVdCptWOcBDB0xlLCgz1AmvgBqYWJkZASxrSX8Z10pqalxpIQKnU+S7EuhDD9fvn21QfMqzN/+Ea+8+AabV66lrDGc1IzOhFLLivf/w3sfrcQjfZYmvKp23xo+eOoZFu/OxN65n4xBB4amAha8+TQfLdmJNbEnKbGhmJ1lzH/rP8z54AOqiSSta6om5LXmreKlZ55nY1YT6X16aF542WtfY+abH7Bx1TL2HjhCQs+RxDhc7F68kNzWaJJVMO/28WqyU3n4fVZl+ejWOU7mHgumhmwWfLiD0G6phNvMVB1ZxYvPvsTWdavYsmY527ObhH9FsPfgLvxBnYQHi3DZmse69xdg6dqfMKkD5iAasmbx+nMvsa7ATUaPDM3T0Gg1U3NgOdt2lhHfrau2DbwyIJhailmxaRdBMUmEWkUJ1JZEbuSjJ55i0c6DmFP60UXePxoLWfTOs3w0azl1xni6psVry/pOQIRcg6eOLXP+yYezlrF51WKy6+2ky/xoVi57n4Ev/AIvdVNC8hcqhlKm0Xec1Y89ykfLlpBj6czAztHyEhqpPrSKmU89z86sVroO7E2wzUDjkY188PiTbDqSQ0qfEYSaT27/r5QQb8Ve3n3peVYtX83O9avYsGwBpTIPpPXohbtwLbNeeoZli5aS02inR0aaRkO/9JvFWcKyD9djSEwhMkgUJ+EBFXuX8s7TL7I320PXAT1wiOLhrdnH/Ff/yZz1Rwjq2o8U4V9f7DGq478HBnmH/dSXHmH/nn3Uuq1ERIZpvMLbVE7mrh0UHG8mLCoam7nNCCfj19tcTUlBDmXHy6gsL6OuySPyVpi2ZNjVWC2yqMwzQfbPf0++BGpZcV1xEfMPFrM/r4rttV5czfXsy69kX0Elh6taOV5Zz8Hj9WSVVYncYaebzMdfZVjq21d/Qwjfs/hbWbV6Act2FeCpzuXw7mLCUtKJCTMLLQP9ZjL4yctcTY47luQwqza/q+uap7YkUoa6gPfuSdq3eza1I3AeeE47O3lLu9f+U+WFq4oVy95nx5EyqmUs5mYfpCIoifToECWBnhyDcnKiDPl7oswTY0Dybb8uv9RVlb+2rFmV428ga/Um3LFdCLebtHQa2vPUoOrW8fepUPmr7auLioro2bOnJqe0Q5XlqTnKGy9/yPq9u9i/djllLT0YMjSeg/M+5KFX5ouMvYPlxWUM7jeMSIvIKfrw1aHjC6He05qamm+8fbXB5XJ9pddMTZrFRYUcKSonsVsv7ev5J6EEtsbcdbzz15fJHzSJX998LbG2ti/rXxvqS5sdh90mzEMy8LtpaWoVpmfEEhQkk7FM1M5mWl2iPDrUVzQVm0RBBFSvi9aWFhGc7QTJ8z53Cy2tLk0wDAoSpUJLp2DAI3k43b62PJTHRhNOj/oiK0KjJPRo7ikdIUxTGKS3tc0D4QSUW58omsL02gVIg2ax90sZSrCX/40q9oxBW6JDSxGznrqNJRWD+NN9vyc9XClgoppJm9U2xCfLNWK1O7CKgOJulfaK9h+of8d6SNlWERCkne20DpSlvuybta+0ioQafCJsuDyi9Hf4Iiw3Pa0tQgevCMoWji68n189sZbTr/4jd157FqbWxhPKodEShKl2Fy/88/dsPOLilieWMjrRi1q1pSaAluoico4b6NGnC6EO6Tv1kMrfKfnLUDNLXbwu6QsttwBMFpsWW8fnaZF+C3hQGKU9FqPU1e3X+kZNvAGooMfKc8Mnf5VXkSpBfdUP1gQ0Z0sjbs2Dwyx0E5pKuzxqeYuiofSPxx0wKBktDvxS3smxqb4eSx6SnaKzUy33sco4M8hYkjHWDoPJIte8MkbaXjRRiuwWUYaFpoGsAuPWYvDg9hulXQ6hc+COS/INrAlyooJM20VZNEndVDtaW1u1tqilWA6HXV5sL61q6ZBGeFU3qYuMJadcU/GHDGab5OAJBI5WE7koOF63tEvyN/rV9QBl1DIdqyh7J+orMJqsmHBraUzKe0nFNFJeMdqYl76S6xZ53z3yjqv70jHasiXlpSBXteC8HaHKUAGNXa0yZuV5ZcRRHlEeVbcOUDVSS718Us9AuwIeEX4Zt2r8WKwO7cu9SueVfmptdWrjQI0NjYRep7zHzg59FijLpmglY9fucMg4bsJvcght3HLt1He3XeA6CX+bsUoEIyUIyfvXbrw6ASU0dRSC5LZfKtNuNGiHYsRfl/lqkL6zi+A5Z/563q4K55FLhpAWYtT65qtAlVtXUUZtXT0xXT+bL5ssVo588Dve2RjPaef3IUj4T0RKH/r0imHL6y+ztiqSUSOSSUkfREpwHZvem40ntT/eqq3sLrdz4w03s+eNp9ju6szItAqWZzXwixvupHHPCg6UQUp8C3tnbyP9+j8xtVsJD/1hNqlnjcVW+CEHQi/lvqtGsfJvd5LXbRo9oy2YHBH0GjyCY2t/yyvv+Dnj7GuZ/vP+GJrl3Zc5xNJaxNvP/JHDzhn8+f6fYSg/zMz597N3Zh9ueu8uekZYaTiezZ792fIeW/EVbWVZQRi3XT2Ftz5+l9Hn/oEJkYU8+8jHlLWuZtrdSxmR7MdVspnHX59N+sCJOI8uoKHrz7nu3NOo37eUfz38FvGT+nHFz/9EpLlR5g4LtftX8cQ/nmXEvc8xPSNelL9itrz/Aa7k/vjrd7KzyMu1199F7r65HCoPYmBYE0tnZzPs1huZ0j9aeE3gPdEMGTWHmP3qHzD1/A2pUXUcm/MeoWfex9mTekgC4dFq8pF3y9ni1HiE3+nGHOKQl8op77u8G3bhKZJECdUNR1fyn9x47pk+WHs3Pc7WT4wXGbNmL0fmvUWOK47IKDfbN8yn76XPMCn+CG/d8xTh516F5+AmCmOmcMvPE5j70P34+15CaNlGShnHJbdNI0jet8DrIXNrUykHDuZwfN8slmUbmTbpbJK79SA1tIbnXnyC+H4z6Bljp2T/XA6GXsjvr5oM8szcefew5s0uXP3MnQxJj6KldBPv3/cyMedfQdPejVQknyn91pN5L91PgWUoPez57Ktw8PNrbifO4dGNMf8DULJj+fa3eerfT1FtS8FbXcOga//BjWcn8+Ef72LBnhqZq6tIn/Ewd15/BlavW3sHmg9/xN2/eYiaVpmXRCjo1O8K7nrodrqFtrLuud/y7JZIHnjqL3QJFlngGwwTxTsrjh7jlZ1lFIiclB5iptXpkflMZCe8NHkNhNtMVDe6KJd3YNqQdGbIGFaevF8GJaM05+1j0oRxp8Tz0/ElkLnW4m1kwbZdhKeN5rQkO3nrXmEzQ7lwRF+57aSuqhFLSBgttUdpdKTRNUJme+G1Lc31tHjMRESH462tpsFlICIyQuQ+mb+Fl9XUNWiewMFyLcQq0pNLxVB0U1vVjDnIqsXOCxGhWPVuq5KlhG9bRQlQ4yRr8yyW1nSTMTucIMmuuXw3c94+wrhfXEy8sRGP0a4th/ZrsqnIT3aZl1TMOSnTY7IRFh6BwyRylpIxREapb3RiCA4lKiQIV20e6/ZV0zujC5GRNuqzCwhKS6f1+EH2F9sY1DsRh7TB5ggJyC8+p/B7RJYKbpPHTh2Pqr5lZWVs3ryZ888/X+R9V9sdgdDX01RFaa2NHt1jqT4wl2df28jlv7+bRU/dQvR573L50Abe+u2LBJ95OWeNSxR5/VR5T4cOHadCzXE5OTnk5uYyffp0bUXB18G36hGjFJ3KY4dJHNNfGKKXbt36EGLpGM/k60BYjl8UfFFa1W4x7hOBbEV5UssyREBtV/S8HlEqVRrtkOuaEUOYomZ0UIKsSqfyE0Z4Il0grYpnofJUuwCpPBRP0/QuTSn7rAlUyu+g1HaESn/C8K0gv31ahm2/5abaOUnlgSmYjGHnMP30KSQEixKtPRho86nlqmcC7VNCaXtWn6yHUsA6Ft1ell+un9JmGSAqAKpHo+HJo13gVV9yIruN4eKLLmJony6YRdDvmK/fJ89bIuk76jzOmnEVncOl7A4JLCFRJMaHfapcFeRYq/MnlHgF1U+Bfmtrj9ZVbQGJpR/U1t4d81L9q9rQgbAn+u9kXZShJlB3laqdhu1lqPw7tkvLQ2jSTmc1CLRlO5+U8KQ+pyoHynDRsb8Cfail+UTdlZKvuUGrxyWNR66p8RlYDtTWFjVGtXp0NGC2163NPVoNUFXGicEm+baNGdV/6rl2yny6vnJJjbG2NOo91owP2o+28w75qb/a7bYyP/MrvCpD0UArVP4Run1WOnXbK23tWB01btuLV+eK/oF3W2ii9UFgbGiHPHtqroGyAvSXflBjWxJo/dZW/1MgddI81U4cbdcFn/zdEac8o2rwGenUvW8G6VujlZ5do6g6lMn7+R7G9IjDoYw9bSm+CKpfvtAjRnmT1G7n5ddrufQvtzK6f286d08nLjaUppK97NxZyyW/v5kRvboRalGmAAfJA0aQ0bcfvZPC2HrsGOGhoRQcWcDoKx5i8oR+mJcdoToiif4jBtOnb1+69R+CrXg+paEDCDv+MUcc3bnyksvo2z+dyv9sI+SMfjTtPkzqudcydlAfEjunYnHmktXUjTG2EFzGaLoMSgh4CZrc7F81l0Z7kgiZiQwc3oWGinz8MSNJPdJI2ITeRNvNWEJjSMvoRXqvNOry5L5tIKMHBrPhgJTTayQhVZWEpnUTZX4rls4XkRrjJ3fFTCr8/bjwystEuI1n9zvH6DyxG7UHaug9KRqPs5aU9PEESR2MvmZ2bp1PUEwK5Q3h9O+ZKHOgnaT+w0mXNvdJiWbn0QOEpIxkWK/eDOgjdBjcA8u2ndSHJpOWHiODPdAX6iukt7mU49X5jP7ZXYxWCsXRlez3pTGkTyple+axbMky9u9tILFXKs6sdbx278NsL63CbE+gk2S1f+XrrFi+m+rmaGKDc/l4XxlReetYvT0Td1w3kkIsp7xXfp+ByK79yBjYj/T0/jIGtrLLO4D0urXMYjJ333g2GV3MlBUsx11vYsfhdK6+9xIGdY1jR/5uguP7kxCivG603DBYw+mc0Zt4yzHySeD8GdeQGh/Cjjl/ITvxdu684nSSU9PpObA3Za+8QPPAacT686kJGkrvYie2QekkxoVQuH0ui4Km8esbppOe4qWoYJ0o4RFkr97DlF/+mfHD0ylfk40vNplOcUHSjm/6Xun40UAxd5EZ0kb9jEuvv5EMyx7m7qgn3ZHH22vLuPXpN7lsTATz3lhMp5GnkxJuwm8w0Vq0maU7Tdzz0tvcfNP1TD59GOE2I56qI7z/2jPs3l1EpxFT6ds5rG3e+npQPDs0KgJD1XH2G8O4c0o6KWYXPXukMTHFRkRIJGcN7UxDSTHHI+O5eVCnkx+0vgS6R8w3hMxn6iNOVnGJ5rWbGmamPGsXlUFdia7JZtWOHRzYdARnaBL25gMUkUZnewkr3lzC3uJM1q/fSFZJEzWZO1i7Zhc5vlB6pnfCVXaYeQsWs2PHFrLzDXTrl0bF1lWsPniAAxtyaXKXsOUQwsdlHmosYsHKxfhj+5IYbBQe6ObYnoUkDJhB9wg0OcQWHEdr3SpyrQOwZb1ItmkwqVEWqg5uZ8PyElKGdqVu/3oWzl3FlsP7Zd6xy3wayY4Nq9i0Yzf79mxm1dZS0rqnUb5/Ba8uXEdpRQNhiUk0HT2EJSGKDQs+ZNG2A8LzvdQVbKYifABpkWYKty5n+7F6HMYWCqsMxMQEqcHcRsCATPB5HjEKRmsw0RE2TS48XnSU/XUxDOsTytFt+xg07QI6BVnxlmwixxhFn+6dMWiytg4dOj4Pyj7y//GIafN7+3aglO/kUefTKz4oYIDQ8fkQ4dwiSojoFJ9SlH9wSN2s9iBsys3hsyBCkrLO222fvq8ZYDTDgg4dOr4KlLHJJ8rotecPpHNZLv9em0erMHalv/x/obyfanO34B4WQVKoDacK7uxs1QyjTVUFHDC1sOBv53PbrXezq9ileY1J0cK/XRzPzia2ppPmEm43ZBAZ6qGl2UpIl2NUNFRJOqX8y4RTk8u2mjQSOkfTUhdKalySMDUnXn8o9tRNVFQqryI3zfW11NXV0NjQgNeWyunjBmEznTQ4KY+shkPr2brDwYDRfTEpg55MaJFJQzhtULJmsGxPq/iMMmI2l+ewP3cHKZOGY/MGvBR9bnmmV1/6D+qO0SXPqItGJy0VCcRauwq9nXgcYUTm51JWYyL9zPGkhtvxeQK5a8at+nwK11Uz6JLrSCncQWELqJgUyt1dGaPLc48RcbwTybFqPzDpKaGD53g+e6xGYtISpO6nTsTKY7F413Luv+5ybjr/RlaXTOScCUPlyQoqK1TmQTjzVvLKugNCqybqjzZrnpTKz/Pg6tf5cHOuVExoJXOFUapZv3knJa3QUrKXNc8voU764pNxBYxqKaDbi9uZx/GNJoZ3T6BZ+q1r9xT8zS2YzGEcd4VQWHec5hFdCGmSelgcNDZ5qaivV4Roy0ngV/komrs1zzuX0ynn9dQfL2F4/x74lCdpazN+YxKdxhvZdqyEsPiBTB7ZTVME2vvN01pL124p+JpasVgjKHXaKauoJahhFKHB0kdGK1F1tVSV1osy/q2KJzp+IKgxqwyaGT3SCLJ4qJa+jYqMorHkKBGdupHWKZKotIGkmQvILqwU8SOw8EJ59XqqjnNwyzq2rF9N5tEifMoze89q6qPO5te3j2LPirXUuNWSlEBZOv4HoDxsq/JY+PqzPPPE02ws7MroPj0w+PKodAXzs9uvZNzAWLytwscVYxF+5KwOYvKl1/O7q84gtDaLXjOu59d3nU2tq5zqejeW6Awuv/pm7vrNrXQ53szxOqcMzGxqjclceefFTBo3mrS6DRyp9dEg/NBmSiU9xqotP/f7nbibIdRh0cayBjWphMRRIXw0sE9o22V1SBqVLKrPaH5+96/5zc+nYm3K1+LXVTe5CB9wDjf/8nfc0N9D7vFa+g0fTZ+zLuaXN17B0JQQXMrr2Z7AtKnj6XvB9dx66VkMSO9L2ZaDuP2tlDd4iEntI3Oy+vDYXvLXgPpwpgVsLGD1i9tJmXA6kfL+2CwZItP7tCXTPmMBtY0NklZ/sXTo+K7xrUs6Po8IaooL6e/vV8BX++r9Q+DLvuJo3gHfZBLQoUPHp+ATgccRGkLnECNF5Q00e4Q5fys81CD82C2CZeD8JAz460vJO5rNkEv/zTXn9WTfoqcpbrZjNtvwlu9iwdYFdJl+DvEWkUYNarlc4DkMzravbEZRplvY9cY7WO0D6N8tFp/PTCCIYYA3+GkRPiEKVcseXvrdNdxzw1U89shyGs1GzTvqJAcxYHQ1sPXwCoZffRXdwyQfiwrYq4TfNu+4T9BDGYKOH5rLftPpjEwxnVyeYwh4Up26hE7xWhMmUe60bCSpimWk5iqfu81LrS1/g9FK7bHlLG0MourgHooqt/LBqjwsQkSDyYavch8LN80m+azzSbTJfOcXOpjq2fT6EmwxI+nbK0LmwVMNMcqLM7rbIC6782/cdu/t9A3ewqrtWZJfHKk9e9M1oycZvYPIzq8hevBwhqRP4/ybbmBoLwu527dx5vX/5PrbbmbixDQMbi+ho85kxlV3cP0vricjcbkoFp/YLl9BxZKhlS0LHuH4iDMYlmTTFBerKLPabaGT26eEcr8W/0Z7XP0jdf9qHgaSTkis4hucktpk12KsKeON8kBsj2egkVjKtJlV+QGCq6WVqmtVX2p2F3XZr2SIb+pJq+PHCCUrqHhwuSue57VtTUw+/2wc0s9qaaFauqveObutEbVsul33U4F8m+oOMO+lf/PqU48zf0OWjKdati+by9HKZqpr6shZPZu9hU2St260+5+B4t1hCYw84zwuvuQizr94LImhRuHncfRKS8MsjMHX5m2o4PebCQlOJljGjVv4SEqPCEIUi/GqcAEyb+GlLn8Hzz//BI/861nW5ldgtMocQQp9uiVLZsKjLGEk9Uuj/HAuFSVFhPQaIvkpr2m/jM8gbKFmSmuahKW2DU6j8K3SMtIiw4RXeTFpRuvAMia1lNlvaCFvzQJeevBh/vn8uxw5bsSq3Kkiw4mMsGlZWGJc+E1uqbRX05s8ah7SdCeVl/LydmvXFTolpxARXEF2bjlNriC6dgsnvmsf+qdHnfC8/KrQdiL1FzH7vvswTr2Yy9UyWq+TBtc2apuk/ipGWlMfEsJjJe3Xy1uHDh1fH/rspUOHDh0/JER4M3ubWbhgF2sNMdw7vRfRJqUgt93/f8DncxMV34/i7Q1UicCnbb1patuVITSOPqOuYECf7vTuM0KEzWDqW31YWwt5d8E7mIb9gYkDo6V6Pho9+6lrMGG1uXCX9CNOhDSzw0jeiifYVx/NmTecQRgmbEFlFFcVS+Y2ec4FZeOIivKIbj6UXz0zm+fen8Of/nY2IUro1GoYgIr103D4Td6Ym8Oq13/PPx98mjXzX2fR0gN4TZ8VBNmIyV/BjnnZjJ80AkubN8znwmfDFl5MZWsePr8Nk8dJc2J34sLal9+0Q4RpaxPZi/JI79TA9tVrRDi1Yd63hApfCHZnMbMWvIl74O+YMjRG6CvCfpCXrLffJ7MllfOvPY0QjwjWbbm1Qy0ZswZHkNKtO1269mPomUPZkpVNWeYy5r3/IutWLmXjloOo8GFqhxaX2tlMLdOTvIyEEmpX8a+cIqxLzkIMU4gNX2srrU43hiB56FPyskGLK7Z//X9Y1jKei84bj1X60WwN5mheKQarTYTvFlJDnCQFx2DZXkSTTRQEKTc42k5MWKiqdFtenwWloIQSEh/FniOFWswxk+onYy21W2oYmpagxZXqCNWFRnMQWXllGGx2Kb+JtFAP8VHBNFu30thow+r30ChKWExCmLT7C3tUx38NZLyKAluy9Q0ef3UTk298hDOHJBEcFoLL2YhLFGm/p56GhkhCQ0K05T+q59VS1egeZ/G391czc8ka/vKrc/AXbGTDvlaSQxsoLvXgsFWxcdVOXAa1C5yO/wkI3/GZrETEJhDXKU54n0mZfOWyUTOcB0aHSqY+Bmpn2lhR3EZdU7G5AjxdmVFk7DWVMGdPAeMu/zW/v/saenUKFr4qqSW/doOzV+au5E5d8DUfZMexEHol2zWvUQ0GuZc6kAM7V1LSYkLt8FWZtYrd1X3on2jFa4wgr65ZEhqpLsunRPizszSL/TtbueTPf+Duq88hWcV9VHkpw3dbvlrZ6lQGvLexFa9BBfaVS21GaL/wT3dzIL6LKTyelAgH+Yc2UBfThxiz+tCglo1/ivF/MaQAv7uS1W/8G866iysu6o/R5yU4MpFoRzyZO0pkDshlSVYe4bHJWD4nmLwOHTq+PXw3hhhhDidjuujQoUOHjs+GAZvBw+Z123mlyMwdZw+kV4T5WzHCaPC6MCSdxvk9D/DqWzPJyT1GbtZRyiubCEvOoFvha2zcdoS9m5ZQl+kkxlrNOy/9kyLHNMbHeMk8sI9KQyxdgvqxd9kaDmyay7ymQjp1TSF3ySPM3VhLr7Om0JC7m2NHjhI54Gzs24vZfvAg2xc8ydZuag2/AZerFZdbffVzaZ4wCkpxEhFU/lOxrJxYUqfzp9tvZfTE0xkxajDJXfvSvXssRplPlEjtE1G2nSwGi5nGAytZFzSSYamRgQDdkqNBTWkdDAg+kX7V016XkbSxYyhtKmDP/r2s/+BVaoaKwm9WwaG1KUvqJTmYjLRkLmKRbTC3//VpfvP3f/PnR36Pw1HE4UNZfPT6vzhmnsyUeCNZhw5S0lBD5nsvs2hzAwPP7U3N0f3k5JTgkvxOUQxFyG6urSHvSBZ5OdtZ+dYCukbE0ZyzkUp7fy68/tdMHp6Exdsi9bFgNOdweM8R6pushCbZWbp4oeSbTdnxRtUa7SuqgmqqR2T1ky0OwGg2krPkMZ7fYeOCgYOoztlPVm4hIRnjGFjxLlt2ZLJp/iqOlA+kz8gh9A6fx6bN+9iyeAGewkhtx7fPWjKr6KQ+0qo7PhHq+46+ksqN/2L+xn2UFh5jw7uPsCX+bEZ0doiiEHheqSBKnFeKR0KfsfQpeZutOw6zfu46cmsGkNG7JyF9w1i3diN7V89hv+k4CSlxX/tLr44fJ5S3Sunm17n3lw/iTh1Ld1sJW9fsxJo2gbD6XJYvXcrG+R9xJHwQfbtGdvB28NFYksOOVUtZv2wpe3bsYevCWXiHXsV9T77IfU+8zO9vGEfBxtlU1roI7JKj478fRuw2GxZlkVNGCY2f+zFZrYHl8m1syWx1oK2ON5ixhwS2wleB0W32ti34DSaCrcJLw+MYGWpgyZMP8PRbK7B1jSXEpvKzYVXeeZKfMno4OiURVlSIJT6VGJu2H6cG5TGY1Hci01NbePepv/P3v/6R/2yoY+qVkwg3+kjsPYWW9c/x0D/+ya7GYLp0sREUmUZkSh1PPfAP3pxXSFhassxjfuyqzDavGpMlGJsK8Buewhj28dSzL7Elv5GgMBWE1094p64kHn6Lv7+2iLJWG726R7DnkJmefdSc6OXIhqUsXF+MiuL+VUe+CkDcnL2evzy/nJcff5gLzz6T6dPO4IU1x5lx+c0cnP0bRp15N9VDpzB2YJQeqFeHju8B3/r21cr1GE8rzSroY6dkYZRtXPMb4LOYi8r+e8P3WpgOHTp+jNC2T5a/SqE3Ga0iIKrdpQICmnKfN4vU943WaguHs5h8ZO/ew983NXLDBUMZnxR0yg5XXwYtnsmXbF/tE8W++9DxGA69zKwP17Bz016c1nT6jelPgsnJomeeZFutjam/uIcu1nz2SprSokPs2ryenZvXcdTWiysuHMue1a8wb00xE6+4nbHdbBzYsZ3te/PJ3rWO7ZvWczjzCF3HXseo/i289czjHHQO4uabLyTS5Ke1oZnQ1HQi7Cf9HBR7ddW3YJX5JCY5FLM5kvjO3ejcpRuJCRFYw7oxcEhnDMpwY/DRWu4hqn9nQqwmjGY3JTsK6dJ7EKmpERhNIpR7jrN1zxa69Dqd5FAVZNGHq6Wa0MRhRFg9EJpG/8gK3nv+WfbbhnPtpecRYQms5/d7GnEbg+iU3IvGgj1EdE4ntVM87tYW/BY79lILBmszFRu3UVKgaLNOaLOebL/U3ZvNzrwsju7YwA65duhQEz0njCc+RMaNRcaLUgb8Hgr2rmHF4rXsXLeW1r4zuP6K6SQlJpO5eTHzZy3Flj6BYb36kBqfQmTncj589SPc0QOYfMY4ytc9zuyPdlDv6UKvAZE0+SPpmyRKq095zTiJThlGdKgFsypP6muRuh5duIqCI4fI3L2JHRvXsL24id6jpzM4GuY/+SRHDX256raLiQkNJ6mTg9WvPcbemlBm/PJWEoPBapN8tPzUDntCJyGUz1UrYyeWrsldMUmbHHE9GBDnZvXMl1i1ci2NidO49cYZBBsCgbOVa3trpYvwHsmEBVuwRiSRbGll3jPPUGAfzJU3zyDUbKd75zj2zXuOBfuamXDFrxjcydZmXNPx3w2D8Eo3RzevILPUhbm1hP1bN3DgQDW9z7qM0Z1bWfD682wtCOey225jWLdwzQCo+Jq/tZZjR/aQuWMze4XXlBSrGEZRDJt6Pr06h+HxGYiIieJ4cTkZfQcQEmxrU9q/OpTyXpAndfLYmJwWSXNtLcagcMKMTiqbjXSKdnA0t4QCSyhTukRq88BXgR6s95vDZ7DQJTGFpFCzxkMUVNyV4LgkEuMiMQhfV5fDE9JJCZMesYaRMigBi1piZI8kSXi4Q/iOzxzKgM4J2M0W4rv1ZvjY0Qzu25/e/boQIvpMaFIqCZHC6NQ8rnabdJexfnsZGaOGkyD5duw2tVtrXEofho0cy6AeEWTtO4LfnUBSlwhsUmb/QaMYPnw4fXr2oFuXBJETLKT2HcKYEcMZMLQXPVKTsJrNWrsSQ6RdUteg2D4kR4dJ3iY6Zwxi1JABJEWESl27E6b0Jms4fYeMZUSfNCIcZmoObuawLYnJfTtr9IhK7kJaSphm4OkI9e58XrBeJR9YotK58tqbufiCc5hx4c+46OJLGNg1FnNEDOOnncmlF17IGf0ysAh//+qSiA4dP138f4P1fqvbV5+AWpsumora3eYrZf5ZUOtE5Y9ZxRtoYzRqVacK2Ki2y/1WPn4Y1Np+4+fWU02mSlvQjEs6dOj4yUEZYYrLPybHOJSJMYlklrzGlpZ67LZxXJA0nNa6DWxzxjIpLg21/fzXgQprUHr0IP/H3lkARnV0bfhdy8bdISQQIMG9uLSlSqm7+1dvv8pfpS3U3alBBWmhuLu7hSAhxN3ds/6fM5uFQGk/qkB7Hnqb3XvnjmfuPW/OzIxfWoJR5/fB9d2DYOOpJ78BfgD8r+2rnWigN3rRyyB/pHGUPVRMNJaSoW10J0ObxltebJUX8TN6ehxjcDgobKPVrrZi12sdMDc3wcxbdBo91LbLrrGTX/J4+3/eBcqT4oTdorYg55dpFiTYdeMY25o+a9XW+nY4d5NrBT9DKK+8LWnLCco/vcC6dhNT97opgcPucEPFvs/x4VcrEDriFtx99RXwUAsZUrpk5MPWfCRd3n7e3d0dGrv5SN6cF/RqrRPeSh46o9rSnZ8LLReh43xSYK2bO/StHgcO3hUNerXIMcPCHMwlWDTxAazco6Ey2CjONrjsiacxslcUvc5zeTSwUzomE6VP4VW90m1WLpudFzvnreSN8HDXq23/zZQNXjydk+Dt981mXufF4VyHhZ5hPN2o7uAMvPvZHDpHcVOYtv0vxm0PPIAwdxvFqbJG7WF1bpNP7WP0MEJjM6vpTnyZ1w0wUr1w/njnsqKdU/DxNyvpgk71lc7n3IQbrrsSnjpeD4HyYT06FUyj4/U9KD7qz3aqD5PJfPR56qC6o3I4XOsfEBo9hef+0Sp9TofT11PfNHOZqcHkqfvPgT0OWKw+pk15m2iDAdbGGli0XtTf+fevldFIHffI4qgECxrcV/R0D78LMuwDx1sGq8H0d7yn8ei1ZeNuTKnxwMP9glFZWAGNXwBC0YTMGi06R3pg055MHPaLxIQRMfSbTvlw3vqryPbVZw68KHRj7k5MXrAFfn1H4Loh/WB0HL9D41G0Bg1qDh9CWqU3ug9sByP10ZPpE78PXujejL3Lv8GGdAMuvvx6dG7n3cpr7OfwO8Evbl8tCMKfzh/dvvqvEWL+IAaDFmlL3sZTX9TgjW8mID5ISy+PepTun4Zx96zATdM/w8hYL3oZPH4w0tKLr0bNq/+f8FtjYykO5tUhNrY9vWC2fsDyS78D+6Z8jcqel2Bk97ZU3pOIUxCEfw4aeuFvPogl+enoH3MJjFXzsaTGGxfF9EZW/mzUeFyB0SEarE2fgeCIh9HbB7D8hjcyNhssZHzX2zQI9HLuyPBbX+hOXoj5B0MGmK2pEpU1FngHhsPLjY2+lmunAnqJb6guQX2TyhoZkHr4BgfBg1dM/kvypYHdVIeKqlr1Nws2WA0e3vAL8FeG5m+G67OxGhXV9fxFxefm5Qd/Px/+5gwjCL8F6lPH/kGL+lHLeMeGMPXgI0LdEU50Dweh/tg6JO+y1Fqw+S2wqJh1+DC+3VcFsxqROR41wdEpUNJ3K30b3icOl3QOUL8LJ4MIMWcSLF43orrBCl8/P7WW1v/qTrwgPXsJHrvg/F8Fe5RWw6z3gp+3uxI1fw0RYgTh7+WPCjH8vDn9oBfZZt92iAMVLD8PDg0NejRQ5hSnw8OtM7yt/Be3lhXK6VCLT9LDXGctwbbELLrm3PqV54s6txyla2qnBucAqtc7z8Fci4KiUph51KUH/pH4KCy/AFibm3624KAgCP8O2CuisPYgdMa2CHdzIL+xGLF+fRBqiES30CFk/GfRy1EE2nlGIrchA7bfuGAkv8Dp3dwQ6GlQRshf/0L3D4WMI51HIMIiwuF5qkUYRqODd2BbRLSlftOGf3K+/ioRhqEnnrsPwiJd6UUhOPB3ijAM16dnAMUVdSS+QH8RYYQ/AIsnysPFdRwd79T2/Sf6pT3RPXyu5bKL3yvCMDbq1dGx7XHHoPa4qk8Mrunbno4YXEXHtXRcTeduGtQJ57T3pdDS//+ZsKejJ42Zfmpx2pPpTvwHD/bO/3t6hAYevkHw56l3Yo8Iwj+O01OIgR1Wkyd6X9QXmw4Uqi03TQ1lKMnSoFePGPCcJZ2hCmtf/i/uu3os7nziVWSWl2PFt2/i0buuxV0PPIvN2Y1oKliKtx64BHfdcj3mbciGXmtDyoZJmPnNB3jpv3cjrcKBDIsdGo0btCUJeP7Bm3H3tRfj9U+XoJG3YdU6BR1BEP5taKC116Ok0QF/n3DoNDwFJRKB3gZ6UbOBBhM4LEWos+oR6BsCXVM+Guy/ZzjlNUrkBf8PQ3XI83JPl6rkaVqcH9fxl2erpfxHjj9aEcfnX/qo8E+E+rXDYET7Dm0wsEsbDIg/evTnn13aom+HYHgaaLyXX4F/Li3j5+naxM7niXRAQfgncpoKMRrAboJbu+EYkbIG6Y16NBduR1270WjvbYOVBk1bgxa9nnobk5ZuwBuXNWPJ7iKMufQa9HlwPD796HUMDanE/ElrcP5bqzDl06dRv3wiUmrckJ24E4mmAXjx4+/Q068aGQXlsNpsaHZrj3GfTse0ZXNxVvZuJObVqmnHgiD8G3G6qfO7D3vHOQVZy5GdYHjo1GoMzrWq2H2eXpQcDlc4QRAE4YyAhnSeYsJT2k98nD4CryAIgvDP4jSWGnjl/GC0O9cNKzZsR+LcWvQY2hHalnVhNJ52JH/yIh667jKM/2Qjmmzu0OnJENLzNCQD0JiNvStTMen/rscjj76KhVWNKKmqhl9MDPqP6AtPDT1c2YBqWeTNzZKHd568B/dedydmJOeqRSQFQfi34lCLmnoa2DuvCTZ40JhRgtIGEww6N9hNtbAaIuGjt4EXizUavKHXnb5/URMEQRAEQRAE4fThtPb5sGuAqI7nwjDpGXwX0A6dAj3I6NHA4GXH3vffRrrfuXjz++/wn4vPgpudd2WwAU2Am6c7dO4+aHvuYDw0/nO88cVUfPfBBxjaRs9/uIanlrc2bUlEo4enKROvv7EKfW5/HR9//DoGxoWq+Z9iVQnCvxUH7HBHmIcRFY01NLa4o2PgMFTWbcGOirVYV7wHwb6x8KABpbI6DY3GSHjSHTJkCIIgCIJwquCppLy0gl6vh5ubmxxyyPEXHkajUf2u/V5Oz12T9HYkrJiNNHM/3HJpAN655zo0n/s+nrs3Divu+hG+91+OqNwV+HDGaugCY9HeVoL6sx/Ek6O98P6E55Gp6Yqb7rkTnsmTMH9dHpotGkR0G4obb7gGh5a+icouT+Cynj7QFG3Fg0uKMeHaUVj3w1vYlFgC3w5d4CiowEXPPA/3JV+huPdVOK93O9k1SRD+dehgoLFlafYS+ARejOFBkaio2Yo9DYXwdB+AIYExaKjdgeXFhzGw3Q1oyzvy/s1KDL9s/et3TRIEQTiNkF2ThFMFvxOUlZVh2rRp6NixI/U/sV0E4a+Ef+fKy8vRtm1bXHTRRf+M7at5xpCpoR5mGOHrrUdNeSPg4QE/b6ChpB4aXx94upmQm5mB6lo9ImIi4ebpCV93A0xl6UgvtdK5jgjxciAv9SAqGhzw9AtCVLt2sDdVwmbwh5dRC1ibUdZoRSDFp6kvQmZ2AZo9QhET5gM3D184GmphdfOCp1GmKQnCvxIajCzmMtTDB4EGIzRaNxighQMWmO12euGuQq3DE0Fuxj++QOrvQIQYQRCE0wsRYoRTCS88XFFRASv1Q0EQ/h78/f3h6empPNJ+C6elEMNoyMDgFdKUix2v40I/edVwDX9Wq5tr1LbVGo1ztXM+x9ON1P7+FIQfhLx4pk7PYfh2NppsLfG6Fl+j6xyW4+UtrlU6ztXJOTydhIbTdQYWBOFfiIbHAZ6qdKJxgK6xLHOqxggRYgRBEE4vRIgRTjVsswmC8PfBeoXSI34jp60QIwiCIPw6IsQIgiCcXogQIwiCIJwMv0OIKUObjvLCLwiCcKrRanWoKStCdXUNgjt0lXFZEAThFMNCTEPWPhFiBEEQhF/lNwkxhQX5SEzLQXBUe3rhlwWgBEEQTiU81bKxqhz19Q3wjmgPB+8cJwiCIJwybDYrtOXZOPfsUfRZxmRBEAThxPwmISY/Px/5hYXo2LGTPFwEQRBOMWqHhNJS1NbVIlbGZUEQhFMOL5KanpqCUSNHypgsCIIg/CK/SYjJy8tDaWkJ4uPjZTVuQRCEUwwLMcXFJaitrZFxWRAE4TSAx+GDB5MwYsSI37V4oyAIgvDv4DcLMSUlIsQIgiCcDrAQw2NyTY0IMYIgCKcDPA4nJYkQIwiCIPw62pafgiAIgiAIgiAIgiAIwl+MCDGCIAiCIAiCIAiCIAh/EyLECIIgCIIgCIIgCIIg/E2IECMIgiAIgiAIgiAIgvA3IUKMIAiCIAiCIAiCIAjC34QIMYIgCIIgCIIgCP8QNBrNkUMQhNMTEWIEQRAEQRAEQTijsdusMJma0Wyy0DctTqRBaHV66P4mbcLhcLR8csLfjz1zLBqtDjrtn5E5B8zNTWhoaFCH2dpqG3XOAB+izwjCKUeEGEEQBEEQBEEQzkg0Wj0cDXlY8N3zeO/jL/DJu1/jp41pMOu0x+gNGthRWpiCwnortH+ppwjFba3CtoWfI6PWAL1WA50eSFn9OXbl1J1QbOHs1JbnI6e8kcqjhU6n+11aidZgQG3ydDxyz4W49c7/4M4778S3m7Oh1+thMNixZ+rbGP/xOjTrDFQHLTcJgnBKECFGEARBEARBEIQzFpu5ESGdeuH+J5/Ccy9cA7eUPUjNbYBWr4NOp4VWy6KMAzU1hahqtkGnxA7neRY9+Lvrs7ZFodBonOe0fL1FuFEiCZ+j7yq86zz95PNHccBiaoTN5QJDwayURwuf4LAtaWu1lJ5Oo0SXproKlDeY4bA2IT81D2bKu0pH5ckZnsM586Vi/Rl83dxQhaE3/xc/zZmBOXPm4MFzY2G12WBtrENFeTryTNUor2hWeRYE4dShGzdu3Mstn38V/uWvra1VLm7BwcGw21u5uQmCIAh/O/wSxWOyyWSScVkQBOE0gMfhsrIyREdH/2xqivDXwMKErakcReXFCIvuBU8DULE1BdqO7WDKSkfaoQRMWb4Tfm3bw6e5DGbPGHhU7cPyrQnYtnQG1u1Nh7u7DYtmTsWixGyERHVEpJ8b8hIW4bvps7B6dRocETGIDdfi8OZ9SE3bjWlr96MhfydqA7ohyt8Ndfn7sW3nfgTFxMFda4fD3oTcw4nwjh2GEA96NmuB0sPbYQodgBhNHpbsTELSmpn4acVm5GnaoU+MP6oqi5Cr9YB52U/46qel2JNchvB24Ti4eh6mzVuEzftz4RPVAUHaJlQ3aeDhrm+pgaOwaNNYtBM702vgZQxBZVkFtJ4+8HJ3Q2nSPEwu7YMbggpR4N0OcWG+sEsfFYRThnjECIIgCIIgCIJwxqLT6VGZl4YVi1Zg4bylSO4QjdgO/mhK3oVt5UF44r6b0DPMHdWVRag1O9BQUYKkiiDc/Ng4XBTrhXVbq3DDI8/hvrMMyE07gGabDb4dR+Ohp17Ciw8MwI6sNDRCg9p9W3HA3hnP3nMdBnTvgn1bkmGFA2W5hahHHLzd7PhVbYO9UCz12H2wBoNueBLP3H89wpI3IL9ZB1NDBQqqdehy8bkYHXcVHvq/WxDWlIGSci888OyLGPfQTegb4YH8Q/uwL7UK0Ds9aY5HpzcgedMifPrx+/joox9xqLgZWo0Vh5ZuxKBh5+CckW2wf2U66ulm8YkRhFOHCDGCIAiCIAiCIJyx8DK4OoMRPt7e8A3vjMtGDkSgxg47YjCiSwcYWkQL9p7R8KK5Hh4I6hIDI530D4jD4LD28CCryN3THUYjB3RDQ/YGfP3JO/jg24UorrFCR7FpdXEYEd9WKRiB4R3QSZON1LJ6VFc3otPAdtBbbZQTF5QntrSUMsPpOj866LNHt44I99BB7+6PgA7lMDVTlGr6EeVTLdqr4zvg064bBg72wewvJuLHRSlo1OkRO+gcjD4rArDYW6V1FKvZhGHXP4jPv5qIr756EcNi/YGGQ5i1LgtTX7wHtzz9NZbP+AwHq7TQiyUoCKcM+fUTBEEQBEEQBOGMxcEeLGHtMGTUUIwa3Bshnlo49ygyQHMia4cFEZtzOq/DYYPFflRA0ej0qE7fgE1pdbjyridw++VD4e8BOGWPlvgcDui8AhHWPgyl+9YhUxuH9r6aI2vCaHVe8PLxQFl5MzR6A7TmPGTmhyOYznG+OL92DsuikP3YDHJ+bDaLMtIMRj906H0e7r3rBoQYs7HpQNnJLbLbKgyvJ5O+eg163HM/Jn/5Ed77+Gs89WBXLFmVxq5ELaEEQfi7OdHQJAiCIPxbYDdpOeSQ4887BEE4BThgt1pgtoB+Wo+sfeJggUUpHk4cjhYvEvppawnjFENcH+1qnR9vv3DYqgsxa/qP2JBYAH+dXhlNHJ8zbgesDiM6xYQjJ6kI/p3bweiKm/6v0bujY9w5SFrzI76YNAmfTl2GpiH9ERfmRnFQGq60CXuLCORM2wG9VwDsxj2Y9PVCJKUlY+nXkzF52mzklerQOdwbWXs2Yd3uYsDgXLz3eHiHpC0/fYn/PvIUHn3sv5izcRsWH7QiJGYYosKCERoeiQFd+8B33xIU2XjB4ZYbBUH4W9GYzeajI8GvwKuI5+XloaSkBPHx8bDSICcIgiCcOngRdR6Ta2pqfve4rDHboGn5q6AgCH8QrYYMqJ8voCn8e+BxOCkpCSNGjJAF1P82NHDYTWhuboabhx90PAeIz9JPU20THEYjjEYdKx0wNzXAbvCGwd6EeocBAe56WJqaYbZq4eHrDrupFs02Pbw9PFBVXozyqkb4BATDy9sDXu5aNFc3Q+vlDjfejcmgh6ZwLz5YXYDrrrwQ4e4Op5eLgndGAsVRhLKKemi8AtA2IhTuPF3K0oxKMxDoaWRlB81NNdC5BwKWBjTBiAAPPeprS1BcZkVQsA8ay8rQQPF5+YYiIswHDeWl9N0bIUHspnOcGafRUhmqkZOVjepGZ/8Lbtse7kYbvLwC4U15smuovqyNqKmtgadfJIy8uLAKKQjC34kIMYIgCGcof1SIcei08E4qhLGgmgZ5cZAUhD8EGURWf0/U9G8HzfHGkfCvQYSYUwVvJ82CzLGiAq+7wmKHywFFbdnMX3itGArJnil8jk+zNwqf50lNfF5tG82iRYunCu+C5YyP77Gj8NBGbNiShLAuF2Dk8HhobZafCRquOPgem61l+hN9Zy8UW8s4wWvCwG47Nk9qnRgKY+N8OD1fnFOWnHngPLru/xkUj16vU/cwdpsVDjrHaRy5ReVBS+U6OiVLEIS/F3nzFgRB+DfDL4hyyCHHn3S0/F4JgvA341DC1/GighJmWp1kMYW/KnGl5QKfUyKM+nL0vN1mU8KazcZxtIRV8TnjcPMIQNzQCzFoSBx09p+LMIwrDqtLhGHo/tYiipo+xT9b54nOWXnhXzpn4/tVPlzX6NwviTAM3WO1WGBpOTgs5+OYW1QeRIQRhFOJCDGCIAiCIAiCIAgnicOuQXCHvhjQvTM8NLwmTcsFQRCEk0SEGEEQBEEQBEEQhN8AT/mxWK3sXCIIgvCbESFGEARBEARBEARBEAThb0KEGEEQBEEQBEEQBEEQhL8JEWIEQRAEQfhleA9W3f/Ykpl3Ejk+DH/n8yfC4OZc3NaFCkvpCIIgCIIg/AsQIUYQBEEQhKOweKJ3O/I5uzAfh3PSjwonLJqwOOOCwpRVVSCjIOeomELX0/KyUFBW4oyP4Z9uRtgddmxM3IFmUzNgdFdhU/MyUVBefKw4w+gNgIfniQ93j5+HFwRBEARBOAMQIUYQBEE4Fr0eNrsdZl6EkL//1Z4KJ4qfDWwy0C02m8qHnc+5wrFB/0cNcBYSXHHQTwcdvOiinc9pWh6NFMZM6dt4JUaXmOCCwvE2o5w318F1dgSOQ8X/B/P5d8F10PIzozAP09cudIokBiOWJmzFtA0rnGXSG7B+/05sO5So+gm3j8NmR1ldDR775gNsObRXhduStBeP0veyumq11SrXVWZRHt6b/S2azWa88OOXKK+rxXuzvoHJ1Iy350/D/pyMljQNR9p4/tY1uOPt53DfBy8dc9zz3jg89eXbqKqvVeFUzbvaTRAEQRAE4TRHN27cuJdbPv8qWnopqq2tRUNDA4KDg9Ve/YIgCMKpQ0MGKI/JJpPp943LWg3cyuqhr2tWn53ndEjJy8KN74/DzC2rseFgAoZ16QUP9j74C7aGcFCc87evh46eMUH+gc40WBSg46eNK/D8D1/gB/q5MSkB/TrEw9fXH0lZqdhA37vRd9htLTH9Bqgs09YuxvbDB9Cvay/AZsPrs77Bs9M+R0JGMkZ07wcjhZmxYRmemfopluzegm5R7RESEOTMn5sRC7atxe2fTMCiXZvwE9XT9+uWwmKzol+nbkpImLZuCR6b/D4u6jsYXp5ef0nd/ZmYrRaMnzkJcZFR0Ov0eGf+NFTXVqM/1UVi6kE0mZsxsucArE/cgSe/+wj9YuPRJiCYPn+CKRuWYnNyohJFdqUlY96O9Vi8azNMVjO2pRxU9XMwNxOjew9EdkkhGqkq9mWmwGQxI4LqNMDLB9M2Lld1XEdxFJSXwI3y4OXpje/XLkJxTQVG9zwLoX4BiAwMVgff99PWNbhi4Cj4uHvio8U/wsvDC2FBodQnTtH7CZXL7m6AKdIPmtO7uYW/EB6Hy8rKEB0drcY3QRAEQTgR8ucjQRAEwQkZv5nFeXhu2kS8eetDWP76VzinZ3889f3HTiHB5anA8JQR9kBgzxJe74O/85QVDuO6pqfv/JnPadjThA5XWP7JHid2GyatWUDBOd6jYtD8beucnhhPvIJlr32Bi/oNwdNTPoHV1IT1SQlIys9RgohKn+G4OX3+6YLjPN7bhs4tJQP+oS/fRn1zE+XFDQt3bkQuGf9b35qMYB9/zNu6FtmFuZhDefjxqddxzbDz8Nmy2XBYrc44KI3qhnolDix5+WMsfvFDrH51Iu45/3KqJztgNmPutrXw8fDA9tQklcZpDbXPkoRt6BQRhTYhEWgT1gaTHnlJiUwHkxOpGQ3woLrelXIAX62ch68fGofLh58PH29fPHH5jejXIQ4dw9tiVPe+6BXTEXeNHotlVC8PX3wNZj/9Jm47ZwyevOJm7M9KQ25ZMdbs3oy9GSnIKStCRW0ttedeahYNErPT8Nrsb6m/fYKiqnJqKw0M1L61jQ3IKy9GfkXpkSOPDhv1HW5tnacXurXriOUUL2zURq37gCAIgiAIwmlIyxu1IAiC8K9Hq8XcbeuU50m/+J6AqRnn9xuqvFVSCrLx0bxp2J2apP7i+9z3H2F3WhKmrV2Chya+jv/75n1MWbMQ/zf5fdz7yQQUkqH8+eKZuPDFB3Dbey+gyWRCUm4mnv32IzxA4S8Y9wD2Z6Zg0c5N2E4G/ttzp6C2vkYJJ2ZKd/6ODbjrwqvh5+MPNDfh8iHnol1IBKauX6auTVm7CJ+R0T57y2rAaFTeGB8tmE7plqk4WKBZvHMjpq5d7BRsGL0eqfnZ+HrVAlzcbwj0LOJQWbJKCtCzfRw0vv4Y1bM/iqrKcDAvE50j28Hfywcju/RGeW01mizmFiPfAS39NLDQxIKS62Dhh+I8RHXVJigUN464AMv3bgUsptNXHKB82c0mrE7cgWHxvdWpkrJiqvJGPH3lrbDZ7GrtlvzyUqoqGx4dez3C/PxRVVmuypqQfhg70w7hgt4DcXHfIfBy98CPm1airqEeny+fi/qGBny1cj7yKM74NtHoEdMRmaWFyKU41+zfjSAfX3yxYg56tOuI1x8ehyuGnY+bR1yIXtz/9AaEBQQrr4ICatfiqopWRznC/YLgSe3D9T40rgdSi3KRV15CZZJXG0EQBEEQTm/kbUUQBEFwCgVWC+oaG9CJDGb13W5HsKcXvnzgWXQIa4Ok/ExUNdSptUSScrNQ3ViP9OJ8LNmzBWP6DcPhghxlhPN0nEmrFyC/skx51Vwz9Fw89PXbqKXwX6+aj94xnXDHOWPwxpzvcflZIzCYjOhHxlwHXy9f5VHC02Qazc3oGt5G5YnRanVoGxSMakr/2mGjccuoi3Hj8Aswf/sG5a2TUVyA4uoKhKvpQ3Y13ehCysf1w88DzCYVB6xW5bkx79l3MLBTNwpiUx4U1Q0NCPPxAywWBHp6o6y2mgz/UionlVSnh7eHByrqalDf3OiMh+DpunsykvHVgh/w5cIfMGnRTGQU5CrxYHXiTvRp3xnn9h+OJlMzssuKnCLN6YhOh+T8bBgNBgT7+VM+dZi+cbnySvlu7WJ8sOgH1a4V9bX4fPkcJarc/vEE3DPxddiaGuHu5oZmixmphXlIKcxFAbW5VqNVnio8dY4PTzcj9BRvCsWzMzUJ9465FpcMGI6bRlyAdUkJ1K6hyCwpgLW8FLuT9yHUPwAl1J7fLv5J3XvloFFKFOsRHYs+HTqja1R7+twRN468APO2rMLiDSvg7R9EaWpwIDvN2XcFQRAEQRBOY0SIEQRBEH6dlmUODDo9eAoJm7lGvUEZ2cxTl9+MkWRU+3h64Y5zxuKKC65EUXUlNiUl4ta3n8V3a5Ygp7RYGemjuvfBvWOvR/uwSDSamtW6KuyZ4sbeJa0MaPXJ9ZWnHLUIGZymgYx6vifALwBd2sbgQHqyMuQ7t2kHbau1bNj45zy3hgUU9pjgaS0txfrldRyOBGj5eSI4j3xQtOwlw15EO9OSMGn1Qjz2+ZtYkbgTqTyN6nQVB6guKupqYbXZ4EZ1ysLX41feih+ffA3fPPISvnv0ZUx7/BU6JqjPk+nnG7c+BF9qaxsLXhwFle3ooU6dEF7Y967Rl2LTvp04u1sf3H/BFbh11Bh89/irMFks2JF2EJUNdegS1UHF5dA4lBi09fAB5WmTlJeFSWsWHVkUmYW8zJIi6PXs2WRDTGikKsuvN5ggCIIgCMKpR4QYQRAEwSle6A1KTEnlbYj5OxnDzWT0Tpg5GXszU+BG19nbwabXo9lqVrfxGh5GnpZDRrbD7lAGM3ueWMigv/eCy/HGTffjtZvvxys33YdAbz8K65wmxMa0y3jnHXWOQJ893NyUl0RiXraa8pOSm47S6kqkFxUgIiBY3avEEy9vtcDrjtQk7Ek/jAt7DyJr35mvk4byr9NpUcLTogwGVDbWI9Q3AEE+fmqBWi4XryXD373dPVtuci7I2S+2C+699Eb8Z+yNuHvMdWjfNkYtRlvT2IAv73sGH9z5GJ658lbM2rrWWZ+nKVwWlT1WUag+thzYg0te/S8ufe3xnx2Xj38UD331tvKM4ilrfJ+fhxc6RrRBp/C2iAwIcbYNwT+VVxHBAlhhZTmueusZzNi0UrXZ2S8+iKV7NsOT+tyFfQbhqe8+ga+HJ2JDIxAaFII7L78Zg+N7qulGB3LSkV9RojyMkvOzcDAnA95Gd9w15lpcOOw8lQbnR5VBEARBEAThNEeEGEEQBMEJGeRXDT4bezMPY8/h/Wp3Id4diBdO7d0+DiazGRVkgM/esAIbkvYqEYZFEV47xIXauclmQ5/2nbDxUCLaRHeksImYsXml8nqx8WKqLbikCSVwKCPa+V3n5o5zevTHV0t/QmN9LRIyU/HIxNdxIDcDl5810inecEAy9DtFRiElPxuNlmZEhESoMhyBjXKO9wSw+KMEIK1OTZXi9WoctdVYv383wgOC0T+2Cxn+ZahuqMWG5L0I9vWHBwtOSmRwike83bUSflwHwbsERYeEo0enLggJCsHlg0YiKS8DFdWVp6dIQOXgdVrYM4m9Urj+hlLdLx7/GRa+/OnPjvmvfo7PHngeQd6+qu3ZCyinvBhLErZi6d5t2J2RrNqR2/Te8y+Hl4enEmR4GhivI1PX3ITHxl6PH555C2d16oZBnbtzJnBen0HYkXoQcdGx0PsGUBxazFm5ACv2bkeQrx/CA4MRQGnyVKUw/0BEBgWjpqkRb/34JYpYOKTzWWVF8PXwoPhOw3oWBEEQBEFohQgxgiAIghMyxttHtFOLtD713ce46Ln/YGXiDrx0/T1w8/LG1UPOxfvzp2P6xmW4hj6zd4yfp7dTSCGj3IeMbj54cdq7zr0Meq0WF/zf7diYtAev3nCf8qhhzxI2/nlqEwsA7gY35UnxzrypqK3lxXrpsUT54DVErh58Dq5/93lM27gCB3MzkFtajF1ph9R22jM3rcSWXZvQrX2cWoNlBC80q0SSFnQ6tRDwlNaL9R7BQQa7l/K+gNWMsWeNUOLJkKfvQnldNa4Ycg5iItspUeqGd57DrM2r8eBFV0PD06fU7Q4EUH2s2b8LY15+BJdMeAznjXsAExf9iG0p+9VCwLBTXiwWtcBwz+hOqh7VblGnGzYb4trEoKy2CpV1VP/UjlkFOTiccRgpmSk/OzLpfFZ+lhJuWBDj9WH6d+yCN+54DP932c1qwV72jHKnuh3TbygyCvPUWkI8lYy3/5722Ms4nJ+DYU/eBk+jUQluhRRmwoxJuHnkhVi6fQNS0g/BZG6GUafHY5dcr9YfivAPUuKPntqAvaWigsLw8nV3Y0h8T9Q21MNUVa68ZXpQXR/TDwRBEARBEE5DNGaz+aTeWHT0EpWXl4eSkhLEx8fD6trGUxAEQTgl8HQPHpNramp+17js0GnhfagIxoJqntfRcpYgA9hGBjZ7t7Dhq6Hxnw129h6xWS0qXQ195nU5fhGNFg4N6xxmZxwssFB8yivEZSi3fHbQTzvFr+J1XnFeo+98P6N3d8f+9GRklxbh0kGjYLdYKU4NNAY3PPDZq3jy8lvQIbztMXlSU27op5qycjwcP8N5UZ81sFKZtQYDVC54/RMqt4XS53zxM1Dl3wXnmb6rBX9bYO8QLYVjgeKYMhIOCqvOn45QHU5bs0gtvMtCCk9FK6gqU2vsHA/XJU8V4rV3Zv/fG0jJz1G7FV1E901cPgd7M1Nx66iLcNFZI/DNirlYtW8n4tpE4+VbHsSSbWvVltgNzc146opblOdVYlYq0osLcMPw83HjeZdhydY1+HrlfIzpNwQJmSnK84haWaXNnjV2ahddq3zxWj8923dCp8hobD2UiPE33Hts/f+d2B2w+nugpl87aFiIE/6V8DiclJSEESNGqDFCEARBEE6ECDGCIAhnKH+ZEHO6wgY4iyq8kxIZ22aLGbd9PEF5yDw45lplCFOpnGGFk4fqsr6pEeNnTlLThtq0jfllIYPqv6amGpm5GejeLhYGo/vRNnFzo36kB1g84+88lYu9gFgco7biLbLd6PqI/kOdO1nRtZTsNFQ1NmBQt74A70pF9+w6vF9NaeraqZvz3l+D8m41mfDe7G8wvHt/DOna+8g0sb8dEWIEQoQYQRAE4WQQIUYQBOEM5V8nxBwHe0iU1lTC18cPHnpev0WMnt+NRoOGpka4GQw/22nqZ2ior7CHkOpvv0FwYGGGaS2UcFrswcLCjQsWb1gIarWe0K/BXjPNFhM8jUd3zDoliBAjECLECIIgCCfDmffmLQiCIAgET0EJCwiBhzLcxeD5QzgcygvFcDLr2HBdK+HkN4oNLMAc763CYktrEYbh7ycpwjA8JeyUizCCIAiCIAi/ARFiBEEQhDMXFgXEAP9z4Ho8U+tS+oAgCIIgCGcQIsQIgiAIgiAIgiD8aWig46merkOv+3WjS6OF/k+bIqyBXn803dN0mXhB+NcjQowgCIIgCIIgCMKfgoYMrEZsnfUh3nr7Xbzz1hv4ZuZilJv10GlPIItodHBUpeOnxFxoNFr62moHwd+MDnpDDVa//gyuu3QsJny5EI0OA06UrCAIpxYRYgRBEARBEARBEP4kbBYTLOZgjLn1Xtx//70YEFiDOVOXo7xZo9Yn1+j0Ld4yOrXemcNUjdTyeuj0OjSX18Gm10Ov1SphxuVV8789ZjQUDkia+S02Gbvhw28+Q1zuLszelEHpHd32XxCE0wMRYgRBEARBOMoxuyaRxcDbhv9h53ZXPCeAz7NlciL4PG+PzbAh8UvhGNcOTCfi19IQBEH409FA7+YBH18feHkFoMf5V6G7IQUphbVq2lB58np8PvEzfLNkN5oorEajg9GoRdm+jZj89tv48NPvsDmpBM1VWVj0+UR88tU3WHmwBFq9czw84bJYPMbZqrAjyw0xfUYiIrgdLr+tL7aXFMNmawkjCMJpgwgxgiAIgiAorPS2nlucTy/59JZPL/VWOFBQXgSz1XyskMHChrsH4OH5vw8K22xuRl5ZERzHiSG8vW9xRSldN/1cKKHvjRYzSqrKVL7ySgrRZLH8PFwL2UW5aDI1/+y63WFHYQUZNCdKQxAE4S+Ex1KHwwabwxORnSwob2iCpWAPFmXqcNGV16C7RyJm786BXqeB3aaBX4c2iPbojqHnjEB8lC+NwEZ0veByXHneQJhzlyK90o6sbauwfGsBwN40LekcwWxFdTsveEZ4q686vTcKMwrRQDHJ6CcIpxcixAiCIAjHwsaqmxsdRufh8khg/pdXAsPXT8YNmsMZKJ2/wjjWUJ55K2aOW9/i4eH6ebL5Yzh/rcv/S3AYV5213gKaPx9/zgWfM7ofrWe+v/VEfk77RPf92XBdsDcJHSXVFbjpw5dg4T+fUvoLtq/Hx0t+gp2vu1FeOb90PrekAO/OnIxXp36G16dNxDs/foU3pn+ujndmfI03pn2uzr8y5VMlpLCA8tBX7yCvrNhZV1w2dw/UUTrP/fA5DhXlA55kOLQur8GA71cvwsRlc6Gnupnw02R8vWLusWFYEOI8UVzfrlmMr1cvdIo/rjqnPDeYTHhs8vs4lJflDPtX9DdBEIRfgYcdq8kBdzc98lK2oT73MPbu2I6MHAtq9pWgkcZFjZ2GKJ9ABPmGoV37dgjx94SbQYuivduwfVciCso0MFk16DzsfFw8rA1ooMbPHGMoIY3JAgtdc36nYdLTHS1PP0EQTiNO4u1SEARB+NdARnltUyPu+fBljH35YVz/xlNIKchWRrrZasGavdtRVVdLL3e/8Pig89X1dVi/bxeazcd5UbSG0mGj/MlJ76Cmoe6Xw/0eyDjfl5WCt2ZNRlpBLj5Z+IMy/hdtX0dGeROq6muwcs/WlsC/znPffoi9GYedQsUvQekVlpfgPx9PwIXj7seXS35SQgC9U+PNnybjnGfvxlfLZithQUFlZQ+PN2dOxgXP/wdXvPIYLhv/CG555zkk52bBKRg58Ow3H+LTRT/+tWIM5WnzwQRMXbMIDY31VBQ9ZU9DzaPHih0bMH7m19iSvB+3vz+O+sITGPbkbfh66SwEePsiJjQcoX4B8DJ6YtqG5WhsNsFsseK7tYthNLghzC8IcZHtoKM+wb1lQMeumLpuGRXNTvX6EcZQXd38zrNYu383npz8Hi565i58MG9KS77csPvwASzevQl3nXcpfTfiPxddjR83rUBKXqa6znlfv38XrpjwKG5+62lsPrwfnyyZiVuoz175yn/x0fxpeOPHL6i/1pDxY0Q19bPJi39CbWOj6g+CIAh/JTzdyOBG4x+N4ZrmPKQcaIv2Eb50IQxBNDbGREcjrtcwjD2vM3RWp6jioCeH1WalR6kOsJdh67S5MIV0RMeYcHiraUkUiq5pf2n1XXd3RBc1ojG7Qn2tLSlEfHQY3GlcP9FsJkEQTh3yJiIIgiA4IeO0vqEej3z1DkZ174dZT72OJy67EY9Neh/pRXlILyvBzM2roTUalRHshF7t+LPLw4QM5G0ZyZi7Yx3Zzux9QI8ZnsLi6dUiMLRAL4UNzU3YkZoEMxvFfJ1fPF24pr20vscFx8vXOAzDIgkb5q5zFHdlXS12pSejU7v2ePiS61FaXaE8Jhx07/xdW7CHxRX2mqCw6j4+XGVwnaO4dlJZKmprnOdccFqusIzdhldmfYMBHbtg5hOvIiHrMHYmJWDZnq3IpJfg6Y+Nx/aUA1ixa7PzXmhgc9iRlJ+J+y+8EjMefwVTHn0Jn937FDpFRKm09udkYGd6Ehbv2gTHr0zH+UNQnA3U3uspr/0p749/8yHleQvcqD6nb1iKaRuX47ZRF+Or+5/FxP/8H7pGtUewjx8GduoKH/9ArDuQgDlb12JPZjLqqS0P5KZTvlPRaGpGYlYKvl+/BKmFebA7HHj0m/fpegY+XTYLny2djeLqcjw65jpMevA5DO/aG6/e+B/0i41HXVMj4OuPlMJcPDflU/zfVbehXXhboLkR/Tt3x4MXX4s7PxqPvIoS6gceatqRzWbDkLgeiAgIRueIdio+3rK1sr4WuzNTYLJa1PSAEN8AKrQDSxOoHVr3NUEQhD8ZfvTVV2Vi2/qN2LxhHRb+sBzN3bqjvZ87Ijp1hsNuRnVDA42XTTD5GGGw22FmT0QY4RVYiPXLNyMtrxZmkxHVdgrToIG2zg6HxoEKGl+Ts+i5pDvuucDjocMX517VEfVZ0zFlykR8ODkVozvF0uNdZBhBON3QjRs37uWWz7+Kll6Ua2tr6aWtAcHBwWpetyAIgnDqYM8FHpNNJtPvG5e1GriV1UNf16w+s+fFpJXzVLyPXXGr2rGhDRnBjWSsJ+Wk41BuJn7augb1jfWoratBh/A20Ll7Yu7mVWhoakBkSDgcFjPenT8VK/ZuR7vgUISRwf7y9ImYtGwOfN3d0ZGMecooP1RQWVuN5RQuuygf36+aj/jIdgihe6xkOD808Q3M2LAUgZ7eiGFxgl4wnXnW4e3Z3+DLpbOw41AiRvc6C7vSDmL13m14b+4UrKP4Lh4wHLmlhThIee7XPg6Ldm1EGqUxac1ClJABvy8rVYkP8eFRSlh45Iu3MGvDMkQHhyMiNBLlVRV4+Is3VfxZFM/oXgMQw2JAS/3O2LgcFqsZERSe88VCg7+nj8qLb0Aw9qcnw2KzooDSGhTfE/36DkFBSQEKyosxJL4XxeCAnV64uY4G0PWOHeLgbnCD0c3dOTNJp8c8qudw/2C46fXw8/JxihF/9nOX6vJQTgZ2pR/CjaMvRd+YjsinPO9IS8LFfYfi5rPH4ADV4cTls5FEbR8dHIYnrroDHdvGANRGi3ZswD0XXIFHL7sZe6nM42+6H+dRWZNzMzD18dfg7eFFfSYD1ww/H5ePvBgj4nvgQHYq7hw9Vglwg+J6oh31mcW7N2NI5x7oFBmF4V37oLqyDA9+/hbuOf9yXDx0tBK6nMKXBj07d4eW6u4D6mNtfPwxqkd/GOhaRX2tEmfYqOE4u7Ztj0upH6zetxPnUbtsSNqLYV16UxrtsHDHJgyN6w63I2LinwTZOXZ3A0yRfiBbSfiXwuNwWVkZoqOjnWstCf9K2KNFozWjuqoejU1WhHYZgnOHdYaWxk69XwRifU1IyyxSnoRugRFoG+ADXx9fhHr7ITDGA8X5ZfAKjkXn3n4ozM6HVRuJvqP7IMjDHebKYlTbvBEW4kkd7tg+5qD+5xHaFdGGeuxNLkKPy67A6H48ZrdMVRIE4bRBPGIEQRAE5R0BmxXF1RXoEd1RCSXK8Cejd1BcDxTR+S5to9GvQxyuOGsE9vJf5Apz6OXOirX7d8God3p6aAxuZOT2xIBO3ZSHyIs/fInokAj83+U3470FPyA1J1MJACpJ+ldWW0XpdcCVA0fhpZlfw2oy4dHJ72NEtz54/7ZH8PnyOdienKjECRaKVuzZgoM5GXj9pvvg5+mNVWRoJ+dn49Nls/HQhVcjwMsH78z+VgkYOkqnoLIUK/buRO/2nZVxfvfoy9C/QzzO7tZPTZv577cfUNojMe6aO/HGnO+QnpeJ8T9NRl8q57k9+6OspoqMKZXdI5zdox86sjjEAgGhpbob3msAfCjt2spypBbmon1oJNVlJUJ9/ACzGRG+AWhobobDZlH3MCzg7EtPxs7EndhE5diTckAZcc0N9cgqLsDFQ87ByB4DlFfMCT2D/ihaDVbv34lBnburtm5DeT6//zAlCjVZmnHrBy8ioygfr9x4H1687h74UBlmrl/iLDcLaZTPJ7/9CFe+9jjWH9xD4cfhsS/fRkFFGa54/QlM+PEr6hcsdmhgb2zAC1M+Q/foWGxN3o+0wnxc/+5zGP3SQ8gqKcIT33+M12Z/hxBff3y0eCZuGH4+IgNCsIPqZheF37x/Nx27sDlhK0Z07Y2XKD/vLZiOtQf2wN3ogeS8bBRR3ZfX1uBQbhZsVB4fqvvWhrCV8h0bGYUU6relNZXOPi8IgvAX4IAbYvuNxtixY3HZZWMwqGdbaCwW1mtpCLXCs01PjL30Ulx2ycU4q60PbO7B6NMmAA67FcbAOFxy2YXo0T4AgZE9cOmll+H883uibWAoAty1CIvrjb5xQTyoORM7DhulE9l3LB55/CmMOasrNOwV2HJNEITTBxFiBEEQBCdktLI4omfRg2E7lQ4dizJEoI+/WhukKxnTbeiFMJ2M6cP5WQj3DzwqTFDYYP8AhPkFwGS1qt12rhh8Dvr1OgujevTDxqSEIwawjcJ3i+pAL4ojceWoixBE8c/dtpbizUNiVhq+XLmAjOsKrN63S4kw7H0SGRiMnWmH8ObcafAwGnFerwH0gunANUPOwcCe/fGfi69RHh01ZPhrtBqVd3c3N4rbFwFe3mSIt0Ogrx/aBIeipLYSWSWF2HgoETO2rFZi09T1S9FkMeO20Zfh3H5DMKRLTzX9pTVhAcHw8fBS9XUEetHl/L044yuE+gViUFx3lQdti+jE+TBRvC5hgOuZ491wKAFzqMxztq/Dyn07lBBTUVeFOTvWY/rK+ViyaxP2ZKSgjvKmxLE/FQ3Si/MRSG3KeWevk32ZKSioKMUlA0dh1ZuTMPHRl3BWt34IahOtPJiqG+qhpqJptLj9nDFY+MIH+OGp19CnQxy+evhFLH1rErZ99CMWvfE1ZjzzFi7sMxhWmwVT1y3G5sP78PnyeTBQW/Zq3wk9qB+x4LL5w+n47D9Pw4O9giju9+9/FnFR7TFr62q8NW8K/vPFG1iwayPm79yA6RuX4/I3nqIsuGH+hIloHxqOQ7npiAmNoDb2gx+1cfuwCFTW1ShhS99qChn/pZinnAVSX8goLjjSDwVBEP58HEoQsbQcvC5YazHEYbO2ukZXaAy22pzPGhZj1Hkas1i0cYazqmmY7ABjpzHVFfaXsNHzV91H4VqnKwjC6YMIMYIgCAK9+dGrGhm3vPhqVonTSG0ymWCjI6+iDHZ6+zNodUo84ZfB4d36oKSqHDtTDyDELxAe3j7OODgqfnmkz2azGe4Gd3jxbkBWC8L8g2Cml0MXHIaFFYOOHkUUr6fRqNb1CA8IwrAuPTGwczc8c+UtSmSBxay8c+LbxuCHxyfg6sFn47u1S/DJktnKgyMqKIzfPJV3Cn/nhYVZ7HDBAgevy8Lp8GfOY1NzM9oGh2EopcVeIS9de7eavqLnxWX5ViozrzvyM+jeY0QYSpO3ZX5h2kTklZdg/A33QqfTwWjQo665UXnzVDbWw9/LB7wYLsOvxnqqz0euuA1vPfwiPnzwBTx7433QG92xPmkvRnTto6bWXEtl58Ub92WlKaHkT4XKyOv0KChfxSWFmDDja5TX1WDy8rk45+m7cOHz/8GVEx7Flc/di6/p3PSNK/CfD17G41+9g2/WLMQT37yPC156GCkFuXhx6me4ctwDuOzFBzDogavx0tSJmLxmAV6hOLmtLx84El2p/fIrSsmIsFK7nouth/cDpmb8sGEZLqPrWmo7Xg9mUHwPfPDEqzi/90BcO/Q8vPPoeLx7/3N4696nERYQ6GwD6hP+Hl6Ii4xGm8AQeFDdGagc7EkT1yYaob4BaKT+e4znPn32dvc4pm8IgiAIgiD83YgQIwiCIDix2TCm/zDsSjuE5MxU5FZV4P+mfIKvV87FsK694efppXbDsWm16EIGNS9EuzczTS2OygKHC54SxGJICBnH5XXVyKBwPLVm3f6dylvBBXuJHMzJRElNFeobG5CYmYLhXXorb4bO7WJx3uCzsXDXJrpeSU8rMpwpzhmbVmHOjo0YdfbF+O8VNyvvDYanKPH19MJctUsPix5HPVkcKk/s6eOgMAbKC3+OCm+D2vo69OnUHWf3G4Ip65YiwNsHVQ21KKgsUzssrT+w++dGO8VxjChCn6etW6IWo53y9FvwpHJr3dwRFxmDXalJrEwhOTcTof6BSvBgMeBojCzqtByMRoPViTtx48gLMWLAUFxM5RzF05N2b6GgrRWFPwGKrm1QqCqnrbkRj0x6VwkfvdvH4dazx+Dl6+5Ch9BIfHz345j73Lu4jfJy1aCz8em9T+KNmx/A94+8pKahFVeV0/f7sXDcB5jxxGvKMyUqOAxTH3sZkx8ah+evvgN3nH+F+uvuTVQuFvt4IeXrhp2Pbu064LYPXkQp9YFLB45QfVDVDtVDdvohrKX6v+wsOk/9CE2NaKK+UNPQAB9eTJn6XADlfwH1kR83r1SLDEcEBGHu9nV0rFdr2fD0Mhb4lCcSxckCTjH1a3W/IAiCIAjCKUKEGEEQBMGJzYqYyHa47+Kr8dS3H+Lt2d9i4c5NWL1/F0rIeA0hA5pFks8W/qh2LooOjUBFfY3ycnAa0AQZxzEh4UjKy1QL6N44/HxMmDkJlzx7LwK8fHFOr4EqjBMN7PTv8UnvY8z4R5Xx3y2uO247dyzu+PAljH3hfrVgrRJ62JPGalFGeWFFCW567j+YuWE57rvoSrKtHcgozse1Ex7Da7O+wXPX3AG1tWeL1wqvFxIZFKLEj5enTkTH8LZYlrAVh3MycMWQc3Dzu8/h4nEPoE9sHPp374f7LrgSd340AbdTHlj7cE3NcjF9zSLsSUtyiioE72r05pzvUVJdiUc/fRXXvvwINuzdjmuGjca+nHRc+H93qkVkrx5yrqpjVkBY3OE1S8ZP/Ry3v/YEbnrzadz30XjMXLcEhVXlOKtjF6CpCWhsxDnd+2J3RjIq/+x1Tah+eO2cLSkHoKEy8uK4d1LdN5tNaqFm9g7q2b6T2jIaPj7U5B5KxDK4udNnd7h7eqIv1dlL192NtQd347JXH8c1VJe8g9Ln9z8NLx9feHl5w02tE8NNaEVoQBAigkIxML4H3H39VVtMWb9Uranj4+ntrFNKm9eEueGd53HJgBHoEtMJzVQP7Gq/7sAeNX0p0OWBRW3L3jVPXX4Lvn3iVXz35Ot4/po7Vf59Kb//vZ76nX8Qa07QarSorSxVImGHCF782Nk/BEEQBEEQ/m40ZrP5pN5E2M06Ly8PJSUliI+PVy9UgiAIwqmDd7PjMbmmpuZ3jcsOnRbeh4pgLKhmtaHlLEGGanF5MRqaGuFl9ECDuRlzt63DAxdepbYC5ulF4WTIzlq/DOVV5bh/7A3OqUMtsPcBL8Kr0+oR5BeghJMmUzPCg8PgxVtG87QSgoUInv5U29SgphK1DWsLA5nMDipXfmkRLHQuKiTSOXWpRVRhI72usUFtR+1FhnY4GfLfL5uNtKI83HPe5cpjJzw4FObmJrXWiyelx2n4sqdLXQ0a6TxPfSqprlL3+3n7qh2WeLpVVHgk9JSMQ29AXnG+Ss7f0xvuFAcv/uuiguLhc3y/K1/sZcE7JZlZaKFzvOisr48fqutrUVFThZCAYPjyFt0uwYrgNWSq6mvA03YYFgp4AWJe24bTdcH1yZ5FvD4PT2f606C6LKV8vzJrMt6+/TF4+PohPy8LN7w/DmvGfwo3KiPnNjHtEOW1Ht+sWYShXXqp9q6mdt+Xna7WYKluqFOLKrOH1IQb7qFwi+FuMGJofE81vYp3Q+J1ZR75/E0luGxLPYj7LrgCKxJ3IDErFT899RrenjtNbXt97/mXY1PyXmw7nISHx1yDvl174WBKEl6Z/S3qmxvRbDbj0UuuxaWDz3GKc5THK155TK31Ex0STrnVoKiqTIl+S8a9j6ScTGSU5GPW1rV497aHkZidpvL93FW3qbBUu3T8SdgdsPp7oKZfO2hE5PnXwuNwUlISRowYQUOdyytPEARBEI5FhBhBEIQzlL9MiGEobqeh2gJ7mHD8LULA4p0b1XSQt299CG14fZYj04Ba4Pv56cLnXeKBmoJz3CNHpcNQ/Mpoabn+a/do6B7lGULndXpMXj6bjO0CvH7bYwDvSsTxuDxH+F5OQ53j++gcf+b4j0wHasnDEU8dQqXfki7H0ToPKvxx51z5deHKtyuvv1qOVnA4Pne8Aecqw58NPdunrl1M6QK3jB6LurpazNm2DreMusjpCWRww4rdm7FszxaE+wfhtnPGICIkHFn5OcqThb1feKHmey66GloWq1Qf0dIPCyYunonIwBBcNWgUNHRtbeIOtSYNT13id4q0wlzcMGqMMx061u3dRufylEcUe9yo8rJwxfVB4RVcZ+p8S1+n8/Mpv707dFbeXExBaRES0g7hvN4DMW3DMiTlZandvsb0G4p3F0zHNcPOQ+/YLpTXoztY/SmIECMQIsQIgiAIJ4MIMYIgCGcof6kQ8z9gg5kXv+XFc38mMPydkJFeUVutPHXY6D+leTkToT7ECyTXN9ajXXC4U/RwM6oFdJ1QffKaOHxw3fJ5Fqy0egpH51yi0ZHwrWCPIRZSXN5SHAcrYUoAo7hYvDKb1CUFT2FiwcXE535DO3J+ue+7hDQWdjgujttI13i6E+XD3FCPkuoKRLHnzF/RT0SIEQgRYgRBEIST4be9eQuCIAgC0SkqBvHRsX+NQftboPR5+lNkMHvliPH7myFDMdDLF+1C2zi/u8SWI2gAiwVobFCL5SrRRXkv2YDmJue5E4kwDF9vNWVNfbaYnJ4oLJy0FmEYPq/i+o3tyPG09mbiPLriZlGH807xuhkMiAqLlH4iCIIgCMIpR4QYQRAE4bfDng6ni2ckG96t1l4RfiPsodJayPinwgKM9BNBEARBEE4DRIgRBEEQBEEQBEEQBEH4mxAhRhAEQRAEQRAEQRAE4W9ChBhBEARBEARBEARBEIS/CRFiBEEQBEFwwjsb8a5Dx8NbU7u2kP4ZGud99EPtUMQ7Fv0Sv3ZdpUGHC96RqfXB+eIdkozuzuNE+RQEQRAEQTgDkLcYQRAE4eewYc1Gr4EONoJdsPHb+vtvgQ1wjo+3Ldb8xscPp6kM+JNImw36v9pId6XBP1sLBScDCxpct3yvC75XnTtBGV3XWh+tBQu+7toa+vegymGAyWLBu7O+RWp+jjOPrny6e2LGhmVYf3AP4Ol9bFrUjg2mJrw+4ys0mUwq3NS1i5xCiQuuG97q2tMLy3ZtxLcr5x8VUwxUXi4LHTPWL8PiHetVWKvNhpqGOlTW1aijur4OuaVFePzLt3HF+Edx5YTHsCv1oPN+7k+CIAiCIAhnELpx48a93PL5V9HSi1ptbS0aGhoQHBwMu9rCUhAEQThVaMjA5THZRAbw7xqXtRq4ldVDX9esPh+BDOH1+3Zg1+EDyC0pQIfwNvQMYPEEqKitho6Mb31rEeFkoPD7MlORkHYQAV7eZGhbYVQG/UnA5WxupPtTEOrnD90vemYAdoddpaOlzHqR4f+nb1VMebFYrTiclwk3nR7J9NPDYISD6qea6sbLg9L8te2X9QakF+dh9Z4tlDU7QgNDVN2X1lRh5e7NaGxqRGQQnXNBz97iynJsPLAb+zNScDg3AweofHaqv7CAIJWfsppKHMhKQ7h/oLOdfgsUvri6EgVlRQiLao/U3HTsSDuE4X0GISsvG5sO7sHhnHRM27hcCSF26msVlF6YfwC1AwsoOrwz93vUNzfhwkFnw2614PlpE3FOtz4IpPxw/TebTdiclID96ck4XJCDaRuWwY36UnZRHhqaGlDXWKf+KrR0z1Y0mpsxqHt/PP/dx3hpxtfYnLwPC3ZuVMe8HRtw57ljcN8FV+BCyp+bzg0NjfUUfzPVu6ezPKcSana7uwGmSD9oZIfsfy08DpeVlSE6Opq6v3QEQRAE4cSIECMIgnCG8pcIMUZ3TF4+G7M2r4a7wQ27M5KxI+UghnfrjaLqCny5fC56x8bDkw1fV3rsUXE8fI4FE3VNA7PZjAe+eBM+dN/+nAyUkPHfvUNnp1Di8i5xGS18H5VNHXyOrqUX5uHhSe/iyiGj4eHldTRtDnPkfqcRdCg/S6Xj7xvgDOOKT8VPP5WAQOGVV05Lmi5a5/tI+JbvKh4tquqq8ey0iejSNgY1jXUI8vXDvO1rUV5fh/iYjke3SOY0+Z5W5SqpKMXLP36J0ppqJSz0pvA+Rg88N+0zlNRUYemeLfCn8sW2iaH7qIxuRszevBKfLp2FAG9fVNTVqLoL8vFDh4i26vqbP32DV36ahEsGDEOgH4sfv6EfUB5nbV6Fcop3xfb12HQoEUt2b4GfmxvWHkjA4l2b4OvhhYN5mVQTGlTU12DqhuW4/ZxLoKU6nrluKVbt34UP7/gv3KiOwgJDlLgyadV8XDt0NDTUh7KK8nD/F2/DaDCgjMqYW16MCP8g7EhLwsJdm5GUm6WusZjDP8/q0htzNq3ETedegvF3PY7rKJ7rRl6Im88Zg/YhkXCnMntz+/oHIqMwF1+smIuzew6Ajuv7VML9T4SYfz0ixAiCIAgngwgxgiAIZyh/uhBDRvO6hK1kfG/GR/c8idFDzsEFvQbip00rlEFR19iIWVvXoG/7znDX6+HB01bo2VBRUw2rlT1c6Duj06O0tgqHczKUaBHkF4gdh/djzb5duP/Cq7B87zZU1ddhSFxPaHVa5eFRWF6KgMBg6KlMRRWlyouitqEOPuzVQufKa6vJaN+Eszp2RU1tDfy9faDTGdBss6p0iukeX29fuJEhH+ztB38vb9Q3NqDJ3IzU/Gw11cWX7rHTPzbe80qLYLVY1LPNzeWZo9WhgvJ1KDsNlZQeh+dyV9ZUIa+sGEWVZQj08VMeMWv27cTwrr3RM6YzLBYrPlw8AwGe3uhPdaNh0YbyXNtQj6KqMsqLjzN+SmdVwjY6V46PnnodZcUFyKd815uacDg/Bx889DyCePrO7q04r0d/1b7Kkyj9MKXrixduewjDe/bHqN4DlZcSCzx1dTWYuGIOhnXpjcr6WgygPIHq5KSgfBZVlKk2fXTsDcrbaDjFw4KbyWpBINXngPheuJ/SLSzIxghKt39cd3BtjTxrONZQe3yw8Ed8cveTCAsOJQuUBSgHBsf1wNbk/ZixaSXO7d4XEcHhVBe1VMZsqt9aKnMZvN09UNfUgOuHn4/Smkp0DG+LcuorBuo7Z3XphfWJ2/HtqgVYvmM9pq1bgh/WL3UeG5fTsQJT1y/D8t2bceXgs5FRUgAbtUH7yChVJ6cMEWIEQoQYQRAE4WQQIUYQBOEM5U8XYii+79cuRlybdhhORjeaGqE1uMHXwxObk/aimAx0XifEoDdgW8pBdGkbDR//QLww9VN4Gd3RIbIdxQHUNdRh3PTPsTXlgDKarVYziirLsXjPFtQ1N+IACycUV//YeHxPRvaqxJ1YnrgNJZVlGBTfA1e99Qym03155SUYTka5wWBEdX2N8gphAWcJxVNC9w+O74kvls7GjM2rsDvjMFILc9CrXUc8M3Wi8pqYvnEZJsz8BnsyDytPk3O798OWQ/vUlJec8mK88OMXiA1vgy4d4pWIYLNZ8cHCH7CYDPxV+3ahgNIP8wvAha88hnzK2yI6zwJN7/adsHLfTvSM7oh3FkxBbVMD1h1MUGLReT0HwJOnJ9EzM70oj+rpAHrHdFJ1yx4xPNUrMSsVl/YbgsU7NiAyMETVic1hx4ieZ0FntWFpwhZcTNf17LmjhJhkVFGdjqK4qZGdYgOLLXR9y6G9sNG50X0HY8muTTifymjg9VhOxgCkPC7dvQkeRg8M7t4XwZQXbpe1+3bgwQuvVoLcgexUFOVlYT7lNT0/G156N9x7/uVYsWMjPqP2eO+eJxDfsaszPvb+4YPyfNHgc1BXV41XZ30DH3cPjKT466g/sSDGgkv/jl2oHjvjsoGjsP7AbtUO7JWjhBhq13WJO3DX6Evx4i0P4qah5+GmERcec9w88iJcOWgUfLx80dzchHk7N+DiwWeDOpszL6cCEWIEQoQYQRAE4WRgv2xBEATh3w4LBXabMhxCeG0PF3QuxNsXFrsVo3qdhXN7DsBT19wBHw8PHC7IRlVFqVojpQeLDTwlRm/AhqS9CPULxDfjP8UDl16vpqCc328oRnTtg3fvexojeg1QU1tMZLAcyM7A6zffj6/uexazt65FQvphlezFfQfj/664BTr2LiEL10b54Ok4L93yAD5/4DnlXbF8z2YlsHx013/xFhnsa/btxvbUg/Bwc1P3sWHfr2McZj73DsIDgrApeR+WJmzFM9fdhY8fG49h8b2Ud4tCo1XTfuZtW4crBo7ExHufwgV9BsFK6QZTuuNvexhfPvKiElbyykuh5WlNVGVMzw7xVC/98Z+Lr0FwSLiqMxZKusV0xG3nX+4MxAaZ1aKEpYiAYJz99N0oqCxTQkROWTG83D2UGOZOeWcvGRZXXPEbdDpVN1eMfwRXTHgU177+JLYe2qdEj5WJ29XUoXYBIcojJo/udU65OgkoXEJGKuJaPElqq8oxfvoXOJCboUQnO50rrCxXU6ievfJW3HHuJfhm7UJklxYpse6VG+/F+B++wJUvPoALX7hP5e3KVx5TP8e+8B/Et43B69ReEdSfGpub4OvpqfqNm16vPJY8jEY638j6xXE4C66MWLMJ5TWVKKG8uY5SOliYU9epz3WObIfUwlw0U/uddNkFQRAEQRBOIfLGIgiCIDiFAq0ORr0BDU1Nzu/s3WAgY9ligt3ugMZuUzvr6O129Gkfj5zSYuzJSFZGdWjLwqywmHF+n4HKA2Lq7G8xc/0ytR4KL+JqYS8Ojps/W63KAya5IAsPfPU2He+oNVfslAavEzL2rOEICQpxThuieG02O6LDIhEV1gZ+Hp4I9PHHobxs5FeW4tHJ7+PBr99BgLePMu5ZxOC/SvPUmkvOGgmjzqAW1jVR3qob6tAtvC3/2Ro9OsQpDw0FpRsaGoGXb7wPk9cswuiXH1JrpfDCxOy5EenpjXBvPyVONDQ3OacNKegnxcHlsZlNKt4jcNxmc8sXguKavnE5mujc4uffQ6+YTpi0ah483YwwU71yOTmeEJ8Ap9BD1cmwGHRR38H49uEX8c1D4/Dlfc9gYOeuqK+uRGpBLpYlbMW4H75AemE+NicnOm86GagMBZUlTrGL8vr58rlKsKqnNmJRp2dMR4zq1hexVO+Dew1Ep+iOGNSpOzrQ9zi61qtDPCbd/xzGX3+vqu/JD76g8vfDYxOUZ0tyXha6x/VEx3bt1fSnhIwUZBQXKq8mnoq1JXk/Fu3aRBlpKaiLljVuOI7np32OS15/Ao99875aI+iRye/hfuov3R+9EVmlhaqPuhvdEejlq3ZtcolXgiAIgiAIpzMixAiCIAhOyKjtFRuHnWkHlUfHwZwMLNq4HOv370aIr7/Ta4MMXavDgYGduipPjp2ph5zeMHqDEhJ4ugt7lXyzZoESOUZ264MALx9lqLdGp9VBT/dc2HsQfnzhQ/w0/lP07dgFbQJDnEIKixg2uofjZChdXvCXRZxGqxXV9bXw8/RC75jOmDbuQ/zw3Hu4Zsg5CPUPcoYneHFZ5Z1Chr2D/vEUW3eDEXUsmNDnhoa6o4IKfS8uKVDeFktf/RJTHhuvFq7lKUnNFjPMlA8WRLQUXscL/R4jHtBnLjoLV0cEGoI/8zkXVKel1VUY2LUXvMLbYniP/iim9HgNGd6imSmhnyF+/tCr+5xpcBV4ubvDPyAIAS2Hzt1TTX1iYWjhSx9j+osf4cN7n8Sc7euP3Pc/oXt9PbxVmfjzxf2HYlCXXrhi4Ch1jr1iRvXoR/kJwALqB7PXL0Nf6h9e3r4Ar69DUfgFh2JP1mH0pD4QSJ957R4Pyj+3ti+v72NqpvL54sJ+Q5XAppLitOlnVHAYrh52viofe7ccqTmqbxb+XGvrPHXVHfjx5U/x0/PvY+YLH2DG02+jb4c4NLeIXNy3qpvqj7alIAiC4ITGRZ1WQ484PrTQyTApCKcNIsQIgiAITswmjOk/XIkVL03/ApW1VXh7/jS8Rcfg+B7Kw4S3nT6Ukw7fgCDl4cJTQgZ16qoEEgW99KUXFyDUL0iJMGmFeWoqCxvfzRaTmmIU7OuPtKJcdAxvg6T8LMxaPR+fzpyExIwUZXyzuHCsbOP0jkjMTsU3y+dg1sbldN2BKwedrYzxL2Z/i1lrFmH2trUI8PBCk0rHjmarWYknDIdjb58BlNevKY6dCduwZM9WtbivC0+ju5p6NH3lXBzKzUSP6I4I9vHHugO7sYDi/mblfJX3yIBgNJqcaTRZzKpsPG1qf1YabM1NTgFGo1ViEa+rcgS9Hp3atMPczauwdfs6fL9mgZrCxVOgssuKsXjjSkxeNU+JGnpe56UFTietMB/bD+7BNjq27N+FvMIczN+5EYM6d3d6DVFagzp2QXlNFXanJh0rAP0iDsRGONsABj16xPeEleqJhbPHL70BFmrTrjEd8cgVt+DZqZ9hY9JeXH/OWKfXD7WHg/I4Z+1iTFu/DM9edZsqMzyp/hsbUEH58PNkIYVqh/Ki1rJx2PHhXY9j8+tf4j/nX4GdaUkoqyrHGzc/oOqgifofiym8Dk9VQ61aN4ZFFiWwkAHhOngx5COiC/0sqCiFH7U776Kk8iYIgvBXQGOcnp4Zhpbjd+/UxvEoQf+vhcdKS2URlm5JwNJNiVhEx77iZiXM/C9YtHGV02DQ8VCr0NHYr85R/tUpCnekTlzn6P96et4de44fgS3n6HlzNAdH09G3VIlGqztyjg+VX3qUaPm8K1BrNHxex7N7W3Cmr2tRnTRU363j44M3BtDRs8nQqi70lK9j6ubIfXoK33KO4HrlsMc2P8dH4Y65n/LhSvNEddOqXl246pf7hyu8jsIfSZ/L2pKn424VzkBksV5BEIQzFDZG/9TFehUOnN9vCHaRkbwj9ZAyhntEx2JfVhrG9B+qFlzl7ZP7deqGmrpaVJDBfOnQ0Ti6SKoGXdtGIzk/G+sPJuDCvoPUFJd4Oudl9EDXqA4I9w9S65B0a9eBDPDBWLhjExpMTXjxhnvJePeG2WJW04F4PREX7NHC9/MWx7wF8rNX347goFC1cO6KPVvVdJfnrrkTkUEhVA82xLWJVtNVOkZEKfHEQXXTKTJKiUHF1VVILciBxWZR04PiozsqIclIxnwnCr88YRtKKY37Lr6aXqp0aiFgrlvegenRS29EiK+fennisrAA0C2qPSICgrA9NQl9KN/eVAZ+Oc0qLlD38qK+6gaKoxulZ6W05m3nras7457zr0SAf6ASpeZuW4deFPbWc8Ye84KvpbKz9xG3waG8LCRmp9FLmkF5yZzXeyCC2UPF4YCR6ofXi2HBKYbi4/R+HQ283YxqN6pLzxqhzuxNP6R2M+L1dXhXrAGde+CpSe9RPccpr6i8kkIM7NobKXkZeH/uVKw7sAdv3voQwqhNv1kxB4u2rsX09UtVez429nq1BToLUHtSD2AD9Yca6q970lOwh+qFxbgrBo1CBNW5jtLanpyo2p+3t26gPn3J0POwaNtabKL70qnsa6hdNiTuwJq927GW0r3t7IsRFBiCOZtXqXVi+rIg2CK8nRLIUJDFegUeK2Sx3n8eLA7YGwqxbcMybNm1HwcOlMG3TSQCvHTKq++kYcG6oQTbC5vQxs+r5eRJQM+E32J48yNEo9ehIT0Vnx5sRt82QSjPyMUuXRBGRnupPKswLUdrdAYdmspK8M3aVMxJKsKagnp0DfNDAD2Ssw/S2L8xEzlNesRH+MG9vhLfbUzG9L3FaNS7o3OQFwz6ZiRuS8PH23NQZndH11AvegxYkbw7DR/RuXX5DegbHQAPHdWFtQKzlqRgWkoJAmg8j/LWorowF++sz8Kq5EKsSCmD1tMDnYLcUZyVhXWZFrQP9zriScAii62uGEv3VMAvOAC+BhY/mrF7WyZy4YmYADc015Rj5poU/JhUjA0pxdiYTm0X6ANzbh7yLO4I9TWAbsO2XSlItRvR0d9Iw7kWmuYyfL8iBTOTyxAWHoQId3oaUz9wkD08c1cOAkL94afXUFgWS0w4vDcTBfBFOJXBwWJNQw2mb0rG9wlFqNcaER/irepm3440fLY9F2tLTegT6QtPXUscOgvSD2bhkw05KHHoERfuDTd7I3YkZKHWwxehnnqYqgsxaUU6lhQ0oHtbP3ipe4UzFY3ZbD6p9mPVMC8vDyUlJYiPj1dblQqCIAinDhbIeUyuqan5XeOyg16CvA8VwVhQTYP8cX9lUtOQWt7OKN7M/CxEBYfDwNNNiIaaary38AeM6t4HI3r0V2uMHIFfNI1G5/2cJ/7Ja6AYDGraibrOHh88tYSTICNc0dxMmbI7v7OHTWshgeNwhePPvB6Ig9LU6p1p8Vula40WNv7ZIKf6UdOb+DPfa7Pi/s9eR+8OnXH5wJF4/JuP8PQVt6Bnxy7O9Bj2JHGlQ/cdSE1Suyx99+Tr8PXxozw20nlKi/PP9+gofYr3SP5cZWA4Lj5aptAcge/lqVxcZ1wOfo3iePg8n1PhWz2aXdda46pXTrt13XMeuA5c5fk16H6edvXxohm4oPcg9OraGzNXLcDerBQ1rewcatc529ZiYFx33HHRNaiorcKsdUtxMC8Tt589RnlH9e7UDT6e3lQt9Upcqaqvpa6kQ9eo9ogOjXTWhdEdXy2egT3ph3HFoJEqXQ63YMdGvHHLA2ox58mrFqnpUK/ddB++Xr0Ar914H4L9AvDC9M9VP+eFns1UJhYfeT2dDynPkx96Qe1q9fCk9/D2rQ9TeH9nPzhVUL+w+nugpl87aLiPCP9KeBxOSkrCiBEjlCgj/DPQ6gxoyF2LpdsPoU3s2XCrSMWOmkDccvkwMv5pWHNoKIyGhmQrHPSMY7uJTWSeZmtT4wEb6+y1oYG9aDde2afHc6N7UjgKY2UfT35ksZeDMzx7f6hpsDSm8T9eZ01jMKq12qz8XPsfaGjstdOzo3rfHnxWHojx53dE1uaNmIFYPDsoBGZKgx+/nDUeVzlfzjzoUJufhJcXlqBbr/Zo66eHhdI9u1MgKlOTMWl7PXr1aoO2If4YHO6G2dv2IUsTjH6ezZi6rQg33jAU8QXJ+HiXBcP7+mL3rnwMvnAEBlrzsOCwGUHRAcjbl4yEoHaYfFEkls/aik36KAwKqcSmw3o8eNNZaN63Hg+leOPpfmGop0dc13ZB8KlMx8Q5KciLisPHV3eDp4ZrRQODXoPNS9bg00MOPHnXBejvV4dVa3dj0c4yRIweRWUNQnN9PfZlVqHYzuvg0bNnQRauuWcQzKt2oCB2IO4a5IHNyxPx2Z5iDBraH4+OiqZ6r8Tc6duRFNAVfYwFmJZjwHu3D0BIQzGmzU7AjHwN3n1gFLoHuFGLaWFoLMLb327ExvD+WHxtLD3Hm7Fg+34csgVikI8F07fl4/Krh6J/bTZWpdkREOOLwwkpaIyMwwvnRKnHuMFQizmTNmJrQBxuGhyJHpE+0JXm4pVvNqJ2wDl475xwKkstElNz8NmmEjx96wh09TO09C/hTESEGEEQhDOUv1SIOQZ6XWNBgY1+/kz/fbdmkdqh5/mr7zzqTHO6Q2XILy3ChJ8mq0V7bx01BpcMGvXLogW9kOaVFqopTzyVxtPd0yks/JMwGLAjeR9ySgpx7bDzlOcQTw1zvpBrYbKY4MFTjLiOyLjg801N9TAaPaFziVFsbNJLPHu+KJGNYfGrVX+0U71pyCjQsADFUBp2i1l5jrBnkslqhhsZOkaDm5ryZlBiGhknFE7dw/3vCHSv2QwtpbflYIISk87l7dZbC1KnAnoZFiFGECHmn4mGhZicddhdYMLgIRfCU1uJta8uRsi91yDG1gCzphrJ+6rQflBvhGjLsG/vAVTY/RDfoxfakbGugRW5BxKRUmxHTIgd82r98cSQaBQW1SMoPBDuOg2qyvNRrQ9FxyAP1JZkY//+NFi8/REdEYhD6xagKqg7+nTvifgOkdA5TizIKM+dqiLM25WOZrselpJKrKp3w+WdfVCaVYrdGh+MjTairtkGM42rfho7mtx8MLx/F3TypzFca8biqRuQ3+Ms3N+Hd1BsGcsa6/DZigRE9RuMS9u5qzGeBXszZUFNldE2YPH3W4B+3VG2/wBs3frh7l4hqNy3Ay8WBuCj0e1hoVpwN+hhytyLyzbZsfgyfzwyOQuPPHIO4vUWLFmyEUUdBmBUcxLeqIvC5JHtKGF6DlA5kxPS0Ky3Y0m+FQ+d1w0+Oge0Bg1qk5Px4oFG9LE1o/v5I9Gb2mV3VhVsVQXY6ROHx/sHwUp51Ol5qo8W5swUPL2rDuOujcOumVtQEjsAt8ZbsTi9DvrqAhRqY3DHyGhoClJxyYI8fHbnKES727F89nqY+o3AeYY8rKuyIWt/IUacdxa6Bxl5thAydx7AkpJGaIqAC24djE46K5roOaCnZ5mbthHLp29GVdd+uLqHnxKQePfA+gO7cXuyHjOu6qFeLQyGOsz/bitsZw3DVV29qeqt2LE5AVvLG9BY64O7b+xHfUsLraMEH/6QjPPHDEI8CzGn8g8Qwh/i1968BUEQBIGgh7wSYVo+00P/9guuwLib7j9zRBiGXhrbBofjq8fG46cXPsAl7J3xSyIMQy+aUSER+O+Vt8HTnV48/2kiDGOxYGBcD1w78iLVrvyXUd5FSc8ve3TZw43KzV5M/KJH9cF/jWVBSsf9oPUuUXydvZ74HB/HiYJaelPVcFjXdYqT42f9xk1vgI+HN4wtnkgGFl5a4lVrwXDfc92nDrqXz1MaQ7v1wbm9B516EUYQhH88zuHIjCYahppKcpAS6INAXz1ydi/AjPUHYCLD29ZYgm3rFyGnxg5rZToWbl6FcpsWFYnrsHVzMsz0L3PXPjRUN0Nvr8KObcmoszjUIrqZhzZiXU4d0JyP7bMWoqDeoYQ9m70JtZXNNPyZYSfjPGP7eqzcXkiDJXvdHAc9lG01tdhRCsR26ID4CMpjcBC6x8agY4gHQsLC0Is+6+rqUOwWigEd2qC6uAypdTS+a3VcMOwv02FgR184LFYa1llwcaCuoR5+dZT3hAO44fNNmHygDA5K343SU3moq8cWux7t/fUoMurh6+UU3b28jUgrrUYzP1fUGTMOZ9Sgf/u20DdakBPmhXAe7+0Uj5sGaRVUforTaqZxn57P9U0WmCn9LgO6oKsPla3lkcN5dTTUYsauElzbuwP8DBp6bDhg8PPF4L6xCNTalLcPZ44FfauFbrQ1YWFSPjpHt0EgPZP4Mj/Xbd6huKRPNMVB2aCTXJ4myltMqD+oFug+ypK7A7tKKuHZtiPGxPvDSgHV/dQpNOZmrMkqRkB0HPp2tmJFag00VDeGlucoGhqw1aJFm1CjWpPGOXW1GQezazA6Kkz1q9ZYrc4/iKDJjMTsakT16I1zAhuwvaAZWi2dp7JYVRzCmY4IMYIgCMJvx2V0n2mwmGJqpncg3kb7WLHghHB4JUS0fP8nwiLGLwlS/DJ4PCc69z/5H/dwnK54TyZ+VxjO+xGRUBAE4a9Dp3dD+u7V+PTdN/DerIMYcOk5aOOuI2O8Hu3jB+Dci86Cb30BCou74aKxF+GSKy/HWZVASUoudpU2I/CcMbjkgpEYMiwWBjf2MOSFW4+KKWqhVp0WdQVZOBA1HNdceSHOGzEUnWLj0bVTVwy/cAx6xrZBm/ge6NcliMZt55Smn0EnvXy80TkmGJ1CPODvR5/bB6NDsBHBwX6Iax+EmCB3REYEolP7QES0XufG7lCeK+yE2DpuHUzYmdMMr/Zt8N7Ydji0+wA2FjSqHf70jjosWXMIYbGd0C3MHTaNc5cmhuNwsLBAP7msJclpeL9Yj7v7hjjHcbqfRSjGQWmzmGKk5+6azUkY+/l63P5jAhIrOEeUNWcwhVZjRcrBVHhS3QyN9QXLPm680AulyOvEcd22RkP5aagoQFq+HoO6hNOZVuI9P+ft7IHZ8p3gj17UFq5Y2OukySX4244G5D8WNNWWIDPbgVp6L8puNCNtTw6qrDzdi8WnBqxYlwS/qFj0b+NJjyz2ktEhe38GFtZ5YUz3YOcfKY6D762tzcbeHAdMJguSmhuxYWcemtjr9NiiCWcwIsQIgiAIgiAIgiD8CjaLGZ0HXognnn0Wzz94E/pGeMMOKxnj0QgL9CRDnr7ZydD29G3x/jCA/QetzWaY3TxgcHd6/Rl9fdSCuGz5O7UIMse0ZPS7xAs6aff1IyPNQYa7DXa7FRarDVY6WKxw9wtAoJ+buv9n0CmNuxu8a4oxa8kWzDtQjubcXExftBUL91dgf+IhTFm8HauSq7FrRyKmLNmDjHodgoyUNsfn5YtoNxMO5jVDa9CqXYRYKLE7jOgXG4pz4yIR2TYIF7jrYGm0Ub7N2L02AYcNUbhjeDtlWQbUm1Db6BT3bSYrosL84KPTob4gEy9tLcW95/dBjDcFdNMiqKQOZS0uIXqNFu0CvWF2aHDBqJ5Y9PBozL59APoFG2BtXVaeC9RUjGmr8rEqrxTPzd6LyYcr8MHmdFSZHVAek8fB59IP5cHUpg26+7Wc/AU4JQ+jDkml1Wjgb9Q23nYtBgQH0MVWognXNcVbmV+MfG8f5OcU4lCNO5LrK5BcboJOb0Hi+j3Yb4/EnaM6wJMFHL0edVkZeHVvBS45ryeifKiVqbzHwjnQoCSlHMXhQTiYko/UZm+kV5chrZrq/ATlE85MRIgRBEEQBEEQBEH4Bdj0VUKL1QIr2cIskLgWSbXb+Jxz8VjPgEBoTdtwMKsURekJ2GasRkCnKMTbKlG+azcKyqqQevggmuvqydr3QVB5MZLTC1FanIXDW7PUeiZegUFos3cN9lMcZWXlaFbeFXnIzS5ATUMTmniL/1pe7P7nBrmD8qULjsRdlwzCJYO74+ILB+HJK/rhvME9MTTWDx07x+KS4b1xVowP4rt0xgXD++COMX3QK0iv1nyxO/wwanggtq7eh41ZDcgsq0NWVTO8fPxgMzZgwf4Cykc5Flab4eUH7N6wHfPyfTGqXzjKiquQVaPF6Lhw5KUUIKWoAN9tK8M5HSLhKM7EvfNTMfCsLmirtSK5qBrl7pG4sQ2weHcx0jIOY2OmHmdH+8FsscLOlQw7LKpeW7DbYea5SdQOdl0AbrphKG7tEYpRnULQ1c8N/dsGwsOpb1EQGywt7QONFg5LMdbsa8KwAVEwcCXzaf7fkcipTfmeFm8XTWQ4bvSxYPXBWqQdTMIXBUb0jXFXy5/xTSyM2dmMtpViweYa3HzlQLxxZT+8dsMA3BdqwaHcSiRs3YWfMr0wakAkKqjdM6gea7LScd/ydIzqH4comKkealFmslL7qmSdsNDUkI9piSa8dH1/irc/3r6lHy5xq0Fifg2rSi0BhTMd2b5aEAThDIX/EvPnb18tCMLvgt7fZftqQbav/ofCxry1CVadF4ICI6BvmSjDWoilqRnGoDD4ueuh9w5GmxANtq9YgC1pTeg78mJ0j/BBSFQb1KXtwfJ1e2Fs2ws92scgIigYEW2AFSuW4sBBC7qe2w8BAcFoH9kWwZ71WLdkBQ7klyKkfQ/Ehnlh5dKlMHmGQFOajeQyd7SPprHGJTa0RquDp6cH/Hw84OvtDh8vd/j7eMFakodEmy9GtHNHXk4RrG1jMaKDH7xp3CLTX2kS7J0RFBmOGH01Jm3MwdK0YqTU2NG3QxiGRHphfUIqJu2vw4hh3XBFtCd2HC7GuloLEtKLsCalBHsKGnHuqK5oU1aE17YUIDi+G+7qF4TSvBK10PHhkiqsSS7CqrRyGPz8ceXgSOzffBhfpZtw+XlnYUiYDo1Un80e/ugf7KHWbGF4JRqH1ay2ge4c5gu93oCwIB/EhvqiY5An/LRAn/goBLk5VMtYeCEf3wB05q2oqe3MxRXY7B6A6+MC6bsOOq0V+/dmwxLeFj0jPLjgaG42w+jlj3Yh7soDqEdnL2xfm4JJOSbcfUlfDPDTgyfC8kLJtY0ORLUNgX9TPdaY3DG2awjceEqU1oBQNy2KG61orG3A2hoL9mZQ3Rwuwd7iGgS5A7lFVhykeljN9ZBRAb2fH/pQWaGh+knMg659B8Trm7BN64UxMf5q6hKviROitaNBE4BOYXbsPFiK2E7UT9xb1roRzkhk1yRBEIQzlL9v1yRBEP4nZDHIrkkCj8Oya9I/Ew0Z9PTYhd127NosWp2eT9IQ4DyroUDO7av5NC+2y+d5+2q9+psHTy+iK1C7HpGBzevCsAyiugsZ+c7tq/UUB8fgAG+Jbdc4w7GnB3tiaF33nyRayk/x/j34OqEKkd461DQBvUYMwPnRnke8QFrj3D675Q80yhOI0qLyO3cf4mza1DQsV5mOQHVgs9qgadmqmwtloXzy+4qagtUK59beUGumOOO0Ko8grj+thqdlHZcvOk/JO/NyHLz+DMfnGno1VF6uoyNxuO5lj5b6Arw7OxmHHf549uo+6Oyrbalzzgfd44qEYjAYnHl2UBscXSCX25Jip/TUOj9ULi7zkbvou2pnbqdj6oarh+447g9fvKaNzaZRuyYtmroZb2W749oLu+LBAZFwWCxH4uW6Npdn4rU5aVhcpcMPDwxDnJfsmnQmI0KMIAjCGYoIMYJwGkEv7yLECCLECKcrLOKYzXa13gqLBUbDcSLKvwW7BaXVZui9PBDEHiWni5ChccDSbEFZgwVu7kYEe+mVeNMa9goqqbXC4WZAqLfTk0k4c5E3b0EQBEEQBEEQhH8wGp0e7h5u8PY0wtNIRvy/1QrUuiE82BvBHrxQ7mkkmjs0SoCJoryF8vbfJ8iaRm9EZLAX2vq4iQjzD0CEGEEQBEEQBEEQhH8yDt6lqfXRcv5fh3Ob7NPRYY3bhadGuaa5/Rxn3mU60j8DEWIEQRAEQRAEQRAEQRD+JkSIEQRBEARBEARBEARB+JsQIUYQBEEQBEEQBEEQBOFvQoQYQRAEQRAEQRAEQRCEvwkRYgRBEARBEARBEARBEP4mRIgRBEEQBEEQBEEQBEH4mxAhRhAEQRAEQRAEQRAE4W9ChBhBEARBEARBEARBEIS/CRFiBEEQBEEQBEEQBEEQ/iZEiBEEQRAEQRAEQRAEQfibECFGEARBEARBEARBEAThb0KEGEEQBEEQBEEQBEEQhL8JEWIEQRAEQRAEQRAEQRD+JkSIEQRBEARBEARBEARB+JsQIUYQBEH4Y2jpUWJ0b/lyAvQGwOAGaDQUzthy8iTQ6gA3uu/3wPdyvvj4vXGcKri+PDwA3R98RLvK/7/gMNw+oPb5GXTOjdrsZOLR6ynfnpRv+qmj+v+tcB86mXQ4r5zWX4kqM5WB0+LycN/9PWUSBEEQBEE4ASfxxiMIgiAIv4BGi8LyEny3fI7TWD0eMqx3H96PFbs2obK2Gt8snX1yxjaFySrOw5Jt604c769B4YsqSlFaVY78smIs2rIGDvp3RkDG/9aDezDh+0+RWZD3+41/qgNuFz5+tb4pPQ4zd9MKmCymY+uaPpusZnWthOryV+PR6bEn9SBemfIJ9mcmIyUvCza7veXi/8Zmt2H6qgWUl9JfT4fgvpSQmvTXiDFUZs7L4q1rkFOSjzV7tiAxIxmNJhNScjNFjBEEQRAE4U9BhBhBEAThWNgLwN3T6aHAhjkbn2z08nd3j6PGOp/z8kJ+dSW+Wjn/WCOeYU8UT29sTjmAWVtXI9DXDwM7dwccDqfHAcfl8pDhNAyGlnOUDhn2qQW5mLFp1dHrfI0PNtT5e2uj2OVxw3h44a2F05FSmIuc8hJM37gSDlWmlnsZDnskvlbxMByGw3P+W9/DP90pb+z1wV4rjKoXKoM6R5/5PuUVQnFyOV33tI6nNRwPX+M4OE+U5tsLfkBUcCiC/fwBe4uAxPXlyg+nc3zeWtcPfTbZbHhvwY8orq9xXuN7OF8cD8P3cRxU577evugZ0wl6Dtc6v5Q3k9mM79ctQWElCzGt6um49Pi+T5fMRkRAMNIKC/DTltXQcHtymVz9hsNxnXAdueq3BSvld+Ly2cirqaA+5e3ML6PqhPLM/bGlzuPbRKNtUKjzGqfB8bvqj3HVDZ9zxePCVT5XezH8s1Ubcl5+3LwSqYV56N4uFtGhEVi4cwMWJGx1xisIgiAIgvAH0Y0bN+7lls+/ipZeXmpra9HQ0IDg4GDYf8NfugRBEIQ/Hw0Znjwmm0ym3zcuazVwK6uHvq5ZfVaQ0bt+/y4s3rYWeSWF6EhGb35pkfIuWbF7M/alJyM2sh0Fc0d6fg7mrF+GXLqelJ+FO0df6jS0GTJoN+zbiZU7NiK/vJii12B0z7OQXpSHdnT/oq1rsXrPFpRVlKNzVHtkkdGbWZiLRdvXI6soF92iOyKnOB+HC3Jx6eBRKg8zNyxHQupBdAiNVB4aVfW1CPD2Vb4um5MSEOTtQ/nyQGlZEd6aM4Wy4kAgncssKYKnTo91idvp3jZkh7ujnozt75fPVfG1Cw6Dl6eXM++Uz/LaKhzITFEeEJsP7FbXPeh6RW0N5m1aiU37dsFI9RTuH4Sk7FTsSN6HVbu3wNvTF/vpvhU7NiAsIBh+/oHKC2jW+uXYlXIAkWTQe7Oxf6SODEhIO4T5W1ap8nE9bKX0Pl8+B6O69UXvDnHQU76tNivW7d+JnKJ8rNyzGYEe3nRfMtYn7kDboBDKuw8Kyooxfc0iHKT0IwKDkV1ciI+XzIC3mzuGdOpG+UzHjPVLUVFdiU5tY1BRU4296YeQnJMOllcampsQHhCCUjo/d+NKbE3ai1AfX/hQfpclbMWIrn0QRvFSJ1Ntm0F5mbtxBXYd3o92YZHUF7Lx4aIf0T06FgdzMrAzPQndqTyRVHc/rl2CjdSnwnwD4E/1soPiLq4oxeHcLESHhEND7xfsPTOP2t6dyptEfczH3RNBFNZssWDZzk1YRX3FaKQ6DwpDAdWVTqdFTX0d9ZU8FXcm9ZMOlA+dTodNB/Zgxa7NKKkoo7qzIIQFLUarQwmVfy614eb9u6m9vBBIZTxEdcPlXbNnK/yoP4X4+mMZfe7dvjM8qJ/XNNQpMSqJyjUqrgd8vXyOtmFr6JTd3QBTpB80J7gs/DvgcbisrAzR0dFqDBIEQRCEE9HypzRBEAThXw8Z2AfTDuGrZbPhZjBg2oblmLFhGXakHsSY1x7HkoQtmLtjHWZvXoX6+lo89d3HaLZayOg+pEQRnqakIGOYBZs353xP8eix+sBu2MggySotxOtzvsNBCj9762r4eXrj+w1LsYEM6XUH9+COT19Fs8WEH8nAX7RtrRIhdBRnY0M9np76mbp2ICedPn+KYjKop1He2NCpoesfLp6h/mBwPDoyvjcd2otPl83CbsrTewumK7Hp1emfI6esmO7R4BmKu7yqkv/ioI60wnxc/OrjZHwvxToy6j9aPFMZ3l8um4PE7DRUN9bj5elfIKe0AM//8CUW7d6Msrpq3PXRSzhA1xNz0vD9moWor63GG7O+RVVDLSrqavDGj1/BbGp2em5QXafkZuAtqiMWIhbs3IjpaxcrrxQ23cw2q1NYo7Ami1nlcdX+nSiqqsAdn72KA7np2JNxGB8v+UmV8+UZX6OM0kstzMG4aZ+jydQEA9WfnsqfkJmCdxZMg6fRiFX7dmLK2kUoqCzF2NeewJcr5mEGtSfXTyWV4f0FU5FdVoS88hI8PeVT1DU1UhZa1SvltbqmCu/OnarqYW9WKt6YOUmJRSwMWqg/MNxuGvr3/ryp2Ed1YqDyjvvxS1RVleOz5bNx04cvYf6O9VQ3dSpOPR35FaXYl5Ohzo2nuqqldL5bvQCbkvfC3eCGj+dPRxpdn0rtvpbaZR31q9EvP4wtKQfw1aoFVLZdSMxMxTvzp8Fqt+HNeVMwhdoQGp2zzuncFKrj1MJcNJqb8OG8aUpEfOr7TzCf6r+4phJvzpqsxDMd5YeZvHqhqjNPo4cqnyAIvw0tjWkGep7w4fq9+u1oaJj4vfcei1bnzAsfer3uhCtjnenwM0XfUkZVTh2VksYvvf7oOZ3rjy80Vh85d4LK0BxpP/2Rv9c4oTbR8zhPdUrjuwrzC/WpoeeQM45jr3Pf4D/SOD8749D/ytpoHEZ/bCaOwHk4UiaC60B3ogIxrcrMx9H7NNC1lIXFfucpqrefhTsxnD9XeRgu95F4/mSO1mmrclBax5zn9qDs8Lkj9ab6AdW78xt9pXpS4Y6Ws/Xvhc7VZ6heWhXtKHS/nq4dXzVH+oQrHy3nhWP5a3qHIAiCcEaSkHkYN42+FPfe8iAGdOyCNDJa+QHdMbwtvn9sAq4beRHSivKwev8udI/ugIevuQMPjb1eiSpwtHjkkNHMIs6doy/D7VfcilvOHqMe0lp6YPNRWl2FjYcSEeDtg/+cdwWGd+0Nu8OBS/oNw6PX3InXb3sY361ZrB7c/GLB6Y3s1gcPU54uG3E+9pHx36d9Z2STEc2eHBuT9uKCXgPhyXmwWREa2Q6do2JwXu+BCPEPhK+HF6b891X85+JrkJidirTMFOwlg/3cHv0RF9GO4ikgY3uHc7oMwWuEdIqIwif3PoVHLr1BiT/lVRVwOGx49Z4ncMeFV6K2sR4FleUI9vXDXRdciQcuvZHqwAuXDj4bj195G6rqarA5eR8O5GagZ3Qnlf+d6cnYevgAVQQ9eunlZvbWNegbG4f7rr4Dz193lxJ++neIR2dKe0z/YfBQ3jN2Jcx4uBlx9wVX4D4qg9lsxo1Up49feSuS87ORSml0oHtefPAFjB10tqqXyNBwNa3m/P5DsebAHvh5eaN/bBfEhrdR04bYM6RjRFt8ff+zuKjvYCV6FVaVo21QGJ67/VHcdP7lyCwuQH0zCzGqWpzQC11WSSF6xMTiyTsexXUjLkBSXhY6R0Yjjur9GsrXyF4DMCS+J/z9/LGJ6mBAp67oE9OZ6qwBc7eto5dZHW6ncB/e+V/4s3eJ3Q6rzY4wv0DcP+ZaPHnjfQgNCMTyxO2Yu2MDtXUc+sXGw0rhfqI6c+MXQ8pvM9XDeb3OwkdUhnN79seejEPUL3fi1nPG4AGK4/4Lr4InT1tSXgm89osdhwuykUn5H9S5Bx6lfuvt7qE8YP572U145YHnqJ7dVbu5DEY3SifYLwBnURmGdu+LNlHtnV5BgiD8T7Swo7IwG3sTErBnTwLyKmqV8f3b0EDjMKGyvIbGgD/mYcRjWVXRYSTuTUDCnj04lFkAi9bwMyPyj6BhseBkje8WI/ZPTJ7KqIO1oQQJW1dh+YoVWEHHwfw66O1NSNqzBcuXL8eKlatR2GAl45wMaHsNdq9egeWrdqLSqjlGjNHS9frSdCxftgxrNm5FrYP/OOK8ptFZUXmwBCYaj+tz9mHlsiXYfrgQDip/6/JoKA5bYzG2Ll+G1esOo8HBEj2d1wMN2WWoqm6Gjoz1xoKDWLVsMXYfyoIVPzfc9Vo7irIykVHcQHEee5X7WTH1s/xqM+WZ4qeGNtWVIa28kdr2+Jjou7kGBzevxwqqi5VrNyCvxqreTQwGO9IP7cTi5WuQVMB9lcprq8GhHcuxZO1WZDXQa8IvNC3djtrCPFQ1WlT6nMfmqjKUUr91/CwPvwK1nxI2Wr6eEErMXJmNtdRuq9ZswIZ1a6ldlyEppwxNFfnYtnqlarNN+9JgpjLUFxUiv4AyT/1Sa63H4aQSNNKvEoswNlMVivIzYLI0I2nVSixdvgI79hRTQVlcsSF7P51buhwbd+1FE+h3pSULCtV/m5Cx/wCqWv7GRP+nWw2oy9mq+try5SuxbW8OTHTnb6iFfw0nOVIIgiAI/3jIwLxi8LnIIMP6ybeeVl4qjWaT8i7oxWuIuBmhozD8l5GKumoEefsBpmZ0Co1UBq3T4CXoaVxZX4twMmBBxnfv6FhlfFMA5d1xzuCz8dIN92JD0l7c+/nrlE6CMnxZOIDJhMiAYJisFtQ01qv1Onp16QV3owf+++5z+HbZHNRTmiyWDI7rjoSMw9iZlkSGepej6dM9DjrMlJad72/fiQx+L9gtFvWyxd4p/MKwZv8uLNu7nYz4AejWroMScRj2RAkPDIFfaASdsiqRKIiM9fP7DMazX76Nl6Z8qrxPLHTNaHCDkSKzNTWqKUFe/BKq8t6oRKJKSmt9UgIW796CyweORFRwGFcDQGHKKY54LjOFiw1vq/7iywIJp2+iej9SHoJfJt2pDi1UdnejEf5UH5zfeko3KrwNuraNxhPvPIOvl8+hOrbA1NSk2s1mNitPl4raWszdvl7l+5oho5XnTfuwSAQFBqmXJvZoYQGoW1R7PP7JeLw782uU19MLpEq91esTlblPxy5KNHmU2uPrFXOUR5KVznNbcftxPfPnWio719H2lCQs2LURAzp2RX86HA67mvaj5f7EggclYqdzvCZO+8BQVTc+1J9Y7OL625+djtnb1ikRiQUtLhcvvsxl6EZ9i9eIsdmcYk5tUwMi/IOoThtVm7EIpwRCOnTUVuNvekCJOp8um0197w3qC7VqDZgQH196OTcj1D9QeQEdrXmCjD8uh4PKxX1LEISTgMZanb0Ba7euw8qdB5GevAurZq1BdgUZy2TNs7GqZcOwZXjR0vjGUwvZkD4CjQ/soaB3VGLj+n2oNjta7m25znG4vqj4WuLgzxQfjxE8xhwJ7rDg0KavsG5PKtLSD2Hn8nmYteYgrJRXFYbu4/uVZ4G6g0854+TDmRSl3/Jdp060lKUlvYqsBGw8XEJh2DvBed6VpyP3UpnY0wC1eVhDdVNPwwpdOS5eDt4Sd8v5n4sKP4e9VGpTZmHS1E+xfstubNmyBWnlJmhqDuOZr6Zi9cbt2LJyOr54awnKtSbs+3wq5i3djC3L5+O7T3aiwSUMUZ046jMx94elWL99O1b/9DW+m7wDDSze6OiZUbwFb3y7DZXFm/HDnMnYuHUbFkx9B1vSy1R+FdwHzAWY+9bXWLhmC3buykYjn2axwVqKKdNnIKHQiuaCLfh+6pdYs3ELkjILYGPztFVRWcxBYwm+feFZfL81ld00jl6mNLSWGsx8/QV8t+WQusbvG8WHVuKVDTn09VhTl71DrJWJ+PTN76hc27Bt524UN9DzgZLIWLcc701chA27diOzrIHisWPHqqn4eOZCrF35I7744QeUmw3Ku4RFDBZMlHcJtYtOZ8e+2dOwLbda9WFur4Kdq7FiYyKsrfKrRBrXvdxH+F4VD3+mvDZkY8nk5Sg0U9219B8O29qzRgkodQXYvWsPlnz/PF78bDI2b96G7JIKpG1fgi++mIcde7dh3sS3sXLdYRTs2YbFi3bBzH2xbDcevvt+bMi3qLyXJqzD9K/WIm3/Dmzdshk76Jj63bdYnNsAR/EeLNtM53ZsxuJvvsOSZXlwuLyaKA8GezUWT56DNyfch12lVCbKr57FrEXT8OIX32Mb9ZutGzZiy4a9KKc2p8vCcRzbOwVBEIR/J/yCZ7dj/MyvlIDw8MXX4uwe/eiFkB4TZJWqHXBahAEWCkJ8A1BSUwm4ueNwcb4SBFQcDIUL9vFDPu+04+mFPZmpTiOdHt/s2TFr1Xzo6aH89lOv44krb8WqvTtUOskF2WrB1NyyYrgbDMqLw93NDQs2LKcw23DzyItx68iL1LolnJ9R3fth+sYVKkxsRFtlMLvgnLjxoq30Eq6m+LRcU6KKjz/F4YVX73kSL9OhXpRbynkENt5byswv8gdzM/Dij1/hykFn465zL0VkYLASFHhqlPM2jfrsgs+ySMPCxnN3/hcv3/mYWnvGSOXiONkjJsQvAEnZaWoBWJ4uw/HxmiWcxxNxTPb4G4VjEYXX1Zm1ZQ3uHn0Zbh5xEdzopY3hlzgd1QG31dBufTDhiVcxduho1VbsUaLalA+Cp6JtSz2I9xf9iBuHX4A7qYzBVE8qzBGoVinunzavwtwd61U9XDf0PPh4elKenZ47LaHUS6gv3R/g5YMnb7gHrz78olpXx0DnuXgspKkPLfCLLK/FUlRfrb4XVJTB39NbrSFz96U34tVHX1LeR/XUNzkOVXwO2NJG/I9ffll44SlOvLgvTzFiYYZfGLkfNFD8k1fMwSXUh6Y8/z68KD/c11j8quBwVAclleXwpT7b0pNb4XAuPuwyMARB+N+waBoaiwuuugHX3fwfjOpSTM+DPNjNDtgtTSjNK6HfURsZpBrUVxUjNzeffm9NZMiTcc1jd30tCuhcRbVJeU1oNQ6Y602wWOm3n35J7RYT3W9Wv+NahxWVBfnILShEZWMzKtK2Yv6WJBSUV8NMwwQbvCzQewVF4OJrrsd1192CW2+7Cr77F2BPRounjq0RBXl5KCyu4wFUGe22xlLk07n8ggLUNbPBrkFjaTHyOFxNIz0qLLDarairKKTxowYG72Aa2z1U2S2Ut5rKIuTmF6LOxMOnDYV7E7B5407klVbDqvdGWLA/PQ/J4CZDvLGkSMVbXG9xGt42i5qSW1WcR+UqRi2Vm41ZFkJ+zeuGhemhV92K8ROex4QJE3BF33DAYoHPkCvxwviXMeHdz9HNZwY2rN+KL2yRePytV/DKe8+ha8A2LEuup3xSIjSu2vT+OPea2/Hm+PEY9+z90GT8gPwGeq5Q0snLl6HN2DYon5cFv6i78corr+Kle8dgz7ydqHU2D5VJh4xVX6K+54V4451X8dz/XYxQXkCLylqVshe1xnp0j/XA4q3b4X7BU3jzjTdw+9hhcIel9eOBgtuwd+sS2GJ7ooe/A9z8rstaepeoKN6LZo9YGBpzUFpPYzUlzm3n1tq9h3LkFDTYW6YB5pufxBsvj8dLzzyBAW2MMNcWYOuWdNz5zAS8M+5pXNqnLczV6UjYkogbnpiI9958Ab1N1difWkbp26kfViE9LRnJKUVotCgZDVqDER4ebuqdgr/zH5DcDNojedVw/zVbKf1ypB4+hLTSWurLDchKPoTUDJ4eTfk1eCMqti089ZyGmX4vipB06BCy86rUc4xxUH/ziBmK/3v2OTxz1wice/0dmPDqBIwd1AlW90BccNvjeOm5CXj9vvMxc18ifDr6oMq4H9VWIOfAfgzs7YbDOSyJ2ZBXVoiyDoPRuUsf3PbSeIx/ZTwuH2zG+p150IfE4fq76dz4V3HnJX2QsWE3Gls8W1gQrcjIRZMuEueNiaTfP/ol0+rRmLkO723YhPNu/wDjX6a+9sYrePQhaneHBbZWbSo4+eXfYkEQBOHfBT3k2fjOqyhR3jD7c9LVOiAsoph57Q96u2HPCfYYOLt7PwpXind//AofL/gBNS6Dl7GYccuoizCLDPbPZ0zC92sXKw8XFip47ZOBnbph8a5N+PibD7EtaR/GnjVcxb1g5wZMnPUtXpk5Cfecf4XycGgym9XaJrz2yJ70Q8q7hNPnl1M20gsqy5Sg4c8eDfwiwNBP9vbgBVfz6YXZ0uLFwGKBhdLvFBuPMP8A3P3Os3ju8zdQRHHEtY1WL84Mr2fTGrvdAaOeXq4oj1wnGw4lqB2ZzFarqhcWerhszVRu/snhOY/secF/uZrw9bt4/NNX4eXugcjAEPWCyy/F1w4djf3Zafjwhy/w6oyvcce5Y+klUa9EhdY5cH13ij70j39yHPQ6xEIJL1jMAsX21ANYvW+nqmMm0NsP87asxqgefbFk50a88uHLeP2HL9E1KkaJWZxPhvPP03x4yg97DPG6LxuonkuqK+i8SXkxcd258KKXSw6/i9pj06FEtdaOK28cF3v98IK9pdQ/ukV3wP998Sae/ehl7MtMQVeqExZhjheb+C+Y6cUFeIva/w3KI4tfF/UdgmFdemHc5PfxxhdvYXf6YTWVi/sE90M+uA0YTpvzPrb/cMzbsR4fTfkUM6nsjc0t/tKUnpeXN/y9fPER9a+3pnyC+LYxiGvTTvWhj+ZPw/MTX1fG37AuvdV21Vy3HL9rqtqK3VuQS+VyvQwLgnAyHP1db6gl49TdDUUJGzF32VKsXLAB6UVNKM/bh1kLFmDh/HmYPmU1DpXQWGwrwpYF0zDnp8VYvXobcuvqoPcwI3nGNqQX1IM9SupyduGrNWls/yFnz3zMnjIHC5atQEJWPvZsW4+NKxZiPhnS1fT4YhuXxwIHjXsWM40YNgs03m3Qb1gIksuryCBqwv7FazFj0ULM/n4O1mRWQmeqwKJlP2LeokVYtGQ5MqpsaCjcigXfz8ACyu/K5GKgJgPLFi7CKkpr+/40VFUWYGNBI/R2eo5+/xOWrVuDeXNmYdratShrqsGhlSuwfNEqrFybiKamSkqnGDYaUqqTN2Hl9LlYtHAevps7C1k1dmjKk/D9T8uwbs0izJo1HXOXJsOu06I4ZR/2plQoQeNEcN3sW7UYn33yJT755AccLDI5K8A1jttqUVvlCXdfL/jV1qNJLe1lRVlJKRIKK1ue5TSmGv0Q1cabxnWgvrEJ9ZEDEeJFl0xU5kMR6B8TD3c/Exod9eCYbbomlK1JRzl91kJH/0qQsK0zwrwKMfHTj/DNljQl5uvYMykpE1bvixGEQugq8hGQnYTP3p+MzYmV0BqOCt4sgFckTse6vFhcNrgj7Gbnc9qJBhqdCYnTZyH6hpvQuawKeXSoMf8Y2LOkHnvnzcG+AnpO15fgwOop+PyzT/Hd9D0w0fOnqeQw9nm3Q13CZ/jk62lIraYaMNUA6QPRPpLj8ENMgxdq88uRunk+Jr72Pj756gtM+O/jmLIxia67QeMoxpIpX2LixIn4/MuJ+GbuBpQ2udbeYSHIgaRF0zDxnU/wyRfv4b+Pv0Bx/IDvP/4QE555Bz+mVMFgqMW+Lw6g0WjDxi/fxEvff4eP330Xz497A8vyTTC0iEssKnKdN1vovcbUTM9DPkm/a87/FPXVNfCwOBAW3QVNxf4opfehxMOBiBtyDTwObkaN3YLinJUYMLAzPH29kbpxNj768BsUmINx+1D2Ng1A86H1+OajD7GqQoNetw2GL5zp2ilBn9juuObWcxFB3cX5OmFB+pZ8xAddi/PivWCjPDqo3AaDEW7HN4mgkF2TBEEQzlD4L3x/2q5J/OJCRxdeA4Me5vzXthuGXaCmk/B2wTx1J9TXHwGePujSJgZRYW0wpHN3FFWVKUP/sgEjEB0S5oyX7g8NCkXnyHYoq6lSogzvAsRbMvO5HhRnh9AINe1keLdeOLvfMOxOOaDWWImiOEZ174vz+w2Bt5uRDOVoDInrqQzo6sY6XErpnN/zLIorHG7unkjLz0aP6I7oyPluEVz4ZbNjeBvlOdE1qoNao4Snq3gZ3dG1bXtEBYVgVNc+yqBnz5YHL7oG7pSWeokheFoMh2tL1zz0bujSNlpt79yVDHf2auH02BskhsrQjeLvQHXh6+GpjHUWh7w9PJSB34nyPrRrb9Q31aMD5efGsy9RHkHOlyU7AilPXD6uh8FxPXDpoHPAf4jk9Xg6RUbBTcfbNTs9cnjaEK/pwmWIp/pvHxahFrDldVmGUX0FenkrMea83mfh4r5D0I7qR013ohfqoV16oU+HOFV/Y/oPxajeg+BGcXah8vA20J5u7qpd+lIYLgO3GefnlpEXqe2oe1J52ePInV7ulcgVGqmELPZguaDvYNX2nF5nynMs1QVP0WJvJhaIrhp8tiouT117ZMy18KR6ahcYotJW09lcULlZoON6Y2+aO0ZfhiCqn17tO8OHysx1cOu5Y9E2JAKRfoHqfi5fV2r3YC8fhPr4qTbjNXl4nZfu1F+bzM0wurlhVM8BR0Q2nqbG/YK7+7UjLkQQ3bcz9aBq02gqw41nX6zKHB0cpuqE64PbqCN9Zi8tLqc/lcvVV46BTsmuSQKPw7JrEkG/ZDqNFSk712PVqvU4sHMP6ox9ce6IHjAXrEWquQNuvnUMonxN2L5iHsJH3odrLhyKEMdhpFU2wFBSiozGdrj5nsvRPdiMtWQZ9+7dAXV7C6DrEIHQQA80lWdjb6UXBkWZsHZuLoY/ei8uGtiXxoZghHs2wd75Itx2dk94aO3KUNQ4bCjO3gV9xFCEetA56GCqzsO2hjD0sm7H2pwA3HbHtegR1YTdi8vRoacDOzcCV95zA0YNHoC2fo3Y8uMOBNFYdu1Fo9CnXRDQUILF+wox6vLbaLyPQmNZOpKbA3FWqA3Jq0sx4O4bcdGw7qjbswfl+k7o3TECwb59MfaavvAylWJzoQWD2xiweFUCYsdeh8vPG4mO2lxsTzWgU1gTVud54I6br8bw7jGoS14PfYf+MDZVwqT1QVCAaw2so7BnT2PBDuzOrEF4eCd6ZngjunMnBOsqMP3ziVg8dx4WzdqKiCH34YqL+6Fj9kY88vaHWL04E83aIsQOGIt+kUbqxy3xagzQ2guw7LWF8LrsOgyO9ELl4f3Y32TFyOEDERMH7Jw8Ee9/OwdpeTnI9+mOSy/sDncWP2w1WL98CpJtNKYG+SH38ExU+w4mQ92Cbas2osO1VyGO4v5h+nLUB8Qi2r0RSxOyERLXEW19DLBrdDCYSjBpdSIGj70YIaWZKNIHoWtsG/5Fo8Ia6P1lH96eXYfzx56NiOoN+CrPD5d0b4Oq/APYWBeOy7qEqLJoqC9W5xdDFx6NUH9fROrZy9GIwh1rsbEkFH3C8vD+nJXo2qkHtLVZSElLQ0R0BxRsaEKXq7rCG1bkb9iEYr8ohNcXIKehO5599WFcPxiYuK8eF/bthMKd65CjDUbbYH+4exphrqiEW2Rn9O3ejurQTm0DFK7chtLAUXj5xYfQp2Y+duiH4bUX/4thHfLwUZIXrunhhj0zc9Hhum4o2LgIXuc9jpfuuxEdfHKxK8MbQ7uHHXnX47auyVyNvQ3tMLJ7Z3pOalCRtBafv/c5Fm1YhO1pTbjjhjsRExUI+5bNqPPyQL4lDx3OGg3vso2oCGiLcqq73jeOQgjVT1VZASrqHairzEO9d0f0jPJDQ0UJSqsaYKkpR3mDH7p3i4K+RdDj5yiTs28WrNFXo1OgDZlb96NY2x4DB0WiIWMpxo97Gj9uykZs76GI8Na0CDaCCxFiBEEQzlD+VCFG/bXMAU8yjrvFdkH3mM70suhPL7tOozqUPTlsNviSERoaxJ+t8Pb0Ru+47ugQHoXocHoxcgkhDOUlgozWPnS9HRnuvPgqL3zajgxb9piJCHFei42MpoIA2w/tRZPVjP9eezc68DQji0VtKR1BBrGGLNzYqBj0i+uppqdEkQEOeqFembAVaUX5uJkMaiNPx3G9kNJPPzKw42Po5ZPKEBEUSvmxwZ3Kpu61WmEgA71n527o0SFeiRKtX2ZZLGjL5aH8eBg91GcN3R8REkF57oGYsDZqe2r2Kgmn/LEgwi7PkXSdd/9xo+9tqMwaqgMvd0/06NQVXaM7wV2l06qN6HoY1WWfzt3VltI6qj9u02gy+t34ja3l71ospvA5A93PU5H4M8fN6URRfWopbx2jO6JPp24Ip3zx+jZcHyH0meuAYwoNDFX1FxMWSeWytJSLPlOa7kZ31R68LkFbKlu/+J70IhmGcKo3Fku4XE4RxpkfFkrat4lR+eb02oZyuTWqbt3oGi/825nyw4IMCxJdY+NU3jx5qhjVfSSle8yaQgSXuy3d35HqoVfHLkp84T7Gokkniqs31WEA9Qc+x33Rz9tHCSLB/oGqPCzaBFN+ebcu9prq076T8uq5dsi5aMdt3iLE8PpGnLe+1I5B7ElUX6s8aG4691KcN2gU/OjFnMNyW7PoFULx+lI/53z0YkGQ8/BLv2dUHBFiBBFiWqDfaZ21EQfKGtFz4GhcMLQfuveOhT/9aldml8I9ogPahvjTr289ClPy0K5Pf/jREGG0pSOjsgHuDm843Nsgtr0fdGQ05+ea0DE+BDUJxdDHRtD45gFTVR72lntgUJQNSZne6HtWOLQWGxxkwDeVpiDLHIzOYRRPSzscL8SwIVu8ay0Q0Q8RzbuxYe9e7N2WgN0HcuERFIH4Af3RL1aH9bO/xvy0KnRtG4zsLDNiu8fA152NSp4+VYQyMtO7RUfBXWdHbXkOUkxBoKwgL1GD9sPbwIOeYpa0epgNnvDWN6CiSo+ILsHQN5Vja5EFA0ON2FID9IyNhr+bFhqbBSk76xHdVYv9Jn+MbBek6qm4ch88wwfRuB+M4AA3egz+vH9xmerytqIqqDduuuZa9Osdh0BPHTQ1OZhfE4IX77sbl4w5D0OHxMJIQ1lgz944e9gwjB7dD9qMtWgz5DrEeLHXItUXrwdjL8XS119CXb+bcdPoDvS9Gfv2bIbJdwiGxZOB///t3QWAHsX9//HP4+duOUvu4kKMJCQBgru7FWhpqdOWX1uq/Nvfr6Wl7kJdKBQoXrxokAghxD13Fz13efz5z+xzF6EUkhAeCnm/yHL77LM7Mzu7z93N92ZnPGU6bPbROurEUzWrol9Peqt08WHm3jdl8bh7tPyFPs275BKddswM1fha9YvNBTqvYJ3uX1uhy08co3BXi3Zua9KpH/qkjjpiotwPrVB/UblqR+SanytxrbjnDj3yaK/Kh5v155/Tqh3dqhw3RSXmnOzjXDufe0D3PnW/nnvqGT376jo1v9qvYy49Vq4dK/TsrkCM7bXqV+lo83tNhjmvzGJNmDRFkyebZXyWNj2xRIWTirVBM/XVK8/UtPFVWrdhmRK5FWpZ9JyGnXacCr1hbVq8TWljapTT26ewu1xjZ5TJ29+uWzcmdO70EdqxeKWqzrxS5x07W5MnTVa5Of/WWEBjxo6Q15TB7Ylq24Lt8pbXaPSEIvU0P2V+Xhypw6rL1L1zvZ7uKtX5E3xaetc21V4yXl0LVmmYqdvqHJfat21Rc0eupk42N9bgz6B/C8S4otpaVydv7Sn61Ccu1/Enn6xR1bnmhH3m8/Qv/Wpho8b1lenIc+ZooG6nNr+wWM9WTtdlR9bIZ37PKKw0P6unTVJRZ70W3bNd40839VxUqQnTpmlMXpMee/lR1Yw/WcXpiV0BFfuze8vyfwwGYnzq3/aKVm4d0JRjJprf4Uo1beo0DbQsU6z8KI0ptI+KJ49D0uv3aQMAHBrsT9M9F9u/dWBAso902MFJw2HzNZr86rz/mnW7byiUXPZMxy52v6H3w3agU/MTeGi/ofdsPmb9KPOL1RlT5ziD+zrb7D62LHY/e1zQHDfQn0zHpBEJhZ3Hji6Ze6Ky7cw7dt8987Zl3vMchtIbyn/oPO3y2mN37WfqxwaXXltm+9qu2/2c8pmvtoxDZR1ad9IarKOgWex+e+bjpGnKN1QP9jcUu82mb9PYc7+hbXYZKs+e6/Z4m47Nd6gc9tztdrtut9n623WsPa/BMtr1oWPs+/12P/PaLrvO0bxn990z36H87PrQNvvVLjbfoWs+MFg2m5Y5fFe6Q+kNLfb4ofOw9TaU19A2e03tNntedt3uY9fNpqFzvXDO8Tpv5jw9s3yJLjryJB01eVYy3aE8htKz52jKnulP09XHnKGKzBypr3d3vva8bBltunabcx7mmKH3/9Ni/gEYYhpsHr+y8wtVUJSvNK/5mNgPScI+VmkfKJS8noAS3m6tauiQS1GtXxOUKzBCJTkRtexcrR6zU6StThs7dyimDAXyt6uzf8A0YBJqrF/rPLbqTs9TWu9SbWqNOuPNmLahaXjHtLPP7GdfDEmYPJ1guH2kxaOOtc/q0RV5mjK8UOlZFSqtOkMfv+Fz+uKXbtAH3z9POfGoAsUjdf61X9ZVwxv1/JaYSt11Wru9zfkDdTJpU0Dz/WFXzM2s2G8FcsXU3bdajV1mPdyt1f1rFC3OkTcWNN8S+50fL5YNEsTMz7DhO9Zo+/Yu56mg7XWvyjepTJkm3aj5PuQkbf43FHhJxGPmuKEMX4c5x0jYPr5p0jff3528zLZ4Wq6GlVeovLxQPvvaLkpTRWWV+jbeqX9uP1IT7d9Z7MxG9g8H8W4997fvqf+oD+jii6Y4vTpiwW7t2LhNw6clB7i36QcKi1VVFNc9ty/QzOphTs8MOx5KwlOmSQVbtXLLNlsANaxeocqcgDa+uEzDZo1RwJxCZk6+lBPW8jrzPT7RqlWJZiWyA8l5k0zBM0dVqXJCRGsWvKw1mxtUX7dJzT1hUz6P3OEduv+VkD5w4126+++36a577tGHT96qB5d2yW+H/LFpmDvFuVYmf/uoTNyc20Bvn6L2Z4ixbf0r2uQepvKqEZre9IzqzI+HUGu9Wla0q2RYrbJm9GnB6m6pe6OWhDeoYEy5PObngh2g3rkC5h6x19DmZMduCQXD5nVyQPmwM9mBfThnN3vt7DW14iaNiA0c2u3mWiQfi7aPzdlPifmMmPqN2J89dl+znnzQZ8/U7HF73gvm3jPnm1VQqgo7GH92pvMIUSyaUMXU09X73GJtzhqrQpPGiJKAFjz0a40YV6tMV6c2bGo3+9m8YqZ+W9Uzokw9WxrUN/hHjI4dPXL1VCnLjn+/62ZPsueU3OZW9ZxJCjfdq7ufbpA3PVfF5VUqsmMmOWeJ13KFw+F9qhn7FzA7gFRTU5PGjRvn3IAAgHeO/eXCfk/u6uo64O/LbvPLmsv54fvOsoPH2r+sOGPR7AO7b4Y/4Iz5MjROCGDvC/v4l529xN5L9vGzvX9t3ZvdP+D1OffQnuPgHKiEaYDYXjE4dNnvw6tWrdK8efOcBtohy+WWL9qpB19Zq+G10zS52K+IaTB6fG5tW/S8mrJrNHVMpfP5tFPxPvDPB7VuS6+KKufonIuPU0V2l5befY8ef3WriicNV0nmJB15wlRl9q/R3X96WJsHsjVxaqU8GWN0+vHj1LHuKd176/PamZOlyadfpfNG9unv3/+L1ldP1TXnnqryTJNTIqqFD3xLj6zMULo3orzi4Trq9PM1oSxdbtOIXvXik7r7+aXyuH2qmXeRLp2U0G/+fK/auwfkH364rjj/ZBXFN+qfv7xPqyNh5cw+Tx+Z4tUzG3s1a+p05foTaty8SP/qrdFV4yN65DvPaOeYXm3d2KXqo0/RxcdMU6Bts+668y5tjU/SBy4er/vXduviIw5ToGeDnvjTQ1oW7JNGzdBHzz1NWR3L9IfNmfrInJGK9rVo+dJHVDb9/epd8rDWJybotGOr5RpsyA9x+3zqWvU3ffnbv9b23lJ5FNXxn/yBPjW1R5/6V6u+fvaxyvElg2B2LJk1j3xFN/76ZZUcfqY+9slrNaUwTRue+JP+tmqc/ufSqK684rOK5tYqwx2SHWj2yLNPU47J+33XzlOaaaN7ezfrG9+8WfPrIjr5ks/o4xdOlXfHi7rpx+t12deu0ij3Bv3xO/9r7oMuuWefrz996nQ99vf5mnzWaRpTnG6+B3vUvvFFfetHP9Xq9W7NuPDj+tLH5mjd33+iVxIzdeVl8xRInpq2PPOw1gYqdfycyXKZe2lg20u69eFndPwVX9boDPO7g8eltY/fqyc2jtRFx27WxZ/5o0qzfBoIDNOl139UhY/epdgFX9S86CP6xLduU28wroypZ+lr//M+jc31auNjt+iHP3hE2wqydOm1N+nyE0aqe+sruvm739eCHXGd8uEv6gunTNG6ex7Thr4KnXSluW47FugTz4X0/UvmasVf/qC+OefpmJGFtjuQGp79p7mexTr5pNnym99VvL6oXv3942ouHa8TzhytrU//r15Ov0Dnz56k5hUP6rtbRuuHp6bprk++orm/Ok2bb/m9fGd+QLMrAlq34DEtaRqhS86ZoEQkGQSy13rH89/Rna0zdN2ZJ8hvZ8Gab8o2ME7nnzpascFgk/kwmnZ8t+74+qcUvujnuvqwPKl3tT573V907Oe/oLMmBPTYz7+kW56oU8xcj6IjL9X/fupiDTz1Y33+N8+YunYpr+RoXffVj2lKlV/xPXpi2UDn4nuvU3DmT3Rslfn5Z47v3r5At1z/E70Ui8gdC8pVOkaf+9r3Nadc5ne2fQo7HDIIxADAu9TBCMSY34IGVwAcFK/5ayEOLQRi9mYbavav5Xt+KmwA1Nr1yJDLLddgjwA7Y5J9tM/WnO2278ywZhp3tpeF0/PAdhlxenPYmdJsvwnbAyXh9JBwemgkUzSvXU6vGdvzZig/yx7v/AXfrptj7AxAdpYh80ZyPer02bHvmk2m3EMFNz9vnflvbP6mHMkBx+0+dtl9LvaF7X8RGdiq+b/aoqk3HKn8sCm3SdyZac8eY/6fHLfE7GuWXeUf7N3gPBLkDIpq0zLZDabtlN0JGCfLted57WWoPgfvP6d+zb7O+Zn09+LUpTk9OxOTO66obSibxO1eTvo2T1OvQ0fZtOw1snUwtC1h182+Pp/X7Js8B6d8tmeMvUbmvOzg+26vTx6bn9nXlm+oKPZ3GXtN7GWwj/naekiWPVm/u9jjzJc9e2TYY4fOYddre33MvnYmH9sjxUr28LGFsmkm699ye7zymtf271H2vOKRiDnWTi/tcc4leZwpf8IOtpvcZtOwBbEDP9uVoXpN7ru7Xl6vvM4+tn7N4lwXs7dzfc2+9jFiW/12RqK4qYw907P1YLPd3fslaa80nNdOjk79783Ux+B1S+Znp8c252N79DhlsT2Gkge5zTUw7zh52c+c3eqy9WTPc7CHzp6G7t2hPO3xLnPPDPXmGfqc/luR4Hy+AQCHKvuTk4WF5eAtAHaxjbzXfipsI3TPxqkNLjjNbtOItI1bp6FolmQDcbChaRqEQ/vaI519nQZ4Mh0nuOI0VpMN1uTxyf325AQyBvezDfhdDUuzv9MQHXwvedjQulnM+zYrJ+hg39m1z97n4uQ7uOr2mn2cNGz71xxndxtMx8nf2Kv8Q9ttQGZw36H3rWQQxrJpJo9/XYN1ZIMSdhkq578FYSxTv8lghg2WDL5vDtiVvknLBgT2TGuoDoY475s3YtHBctvj3cnj7XnZbU4eNthizscev2dRko19l9nHBtuS+w8Fj/Zij92jPix77GvTcmrJ1p2T5mC5zSYnMOQkuXu7Pb9ksMbsb4MsdrvZx67brcn0zP57bHPu312Z7q7X19bL65XX2Wdw2573r9136NEkG4RxNu2Rnj3mtUEYa680DKds/76bkTy/3fnZez+y63UisUedmHztOdl3hq69E9h7nSCMNXTvDrGPXDkBpaH0TEp7vI092NoBAAAAALxVptHqSSvXkR+dpZyIafwObgaAPRGIAQAAAICDxiWv3xlyFgBeF4EYAAAAADiIXvtYCgDsiUAMAAAAAABAihCIAQAAAAAASBECMQAAAAAAAClCIAYAAAAAACBFCMQAAAAAAACkCIEYAAAAAACAFCEQAwAAAAAAkCIEYgAAAAAAAFKEQAwAAAAAAECKEIgBAAAAAABIEQIxAAAAAAAAKUIgBgAAAAAAIEUIxAAAAAAAAKQIgRgAAAAAAIAUIRADAAAAAACQIgRiAAAAAAAAUoRADAAAAAAAQIoQiAEAAADw9nG5zL/BZXDTgdiVhlneyH7l4aQ3uL5fdpdl3443+w2u/Td6bZ2+WR0DeGsIxAAAAAB4G7jl9bgV6etVT2+vevv6FY0PvrVfXHK7pPCASaenR739QcUSg2/9m4TJI27+b3L3eOS2B/4HLpdbiVCfevpDiv/H9F5fIhZR/+B5DYQSTj42PY/X8/oBl0RMsdecu8vtkecNynew2eCKx9SJXfaUSCQUDod3BV/s10gkoripRwBvDwIxAAAAAA4yl7wKae2r/9JdP/utfvObW/TH2+/R5q64vPsZfPC43WpqWKS/3voz/faWW/Sr+5/Ujv7XScflka9/h/78/CtqC0bVXtegxrYBs9kGPPZu9tigSaSnXnfc+lPd8o+n1RyMv2HQZk9uj0+bn/+Rvv/TX+l3t/xGv/ntI9rQH1W8r01163YqbJpYe6bkcnvVue4JPba2bVeZbf7dzeu0rqVH7hT0PrHBFbvMnz9fL7zwwl5BFrt+zz33aPny5fL5fE6w689//rN27txp6oTmIvB24JMFAAAA4KBye73q2visnnu1Ucd9+vP6wg1f0PUfvVpjC9yK7up94trV0HeZr0MBCRuk2B2bcCkR7ta69Us1+bwbdcMXv6gvve8sVWe5FbPHDx1jj3eCHHGFozHzNaGBnh4FwwmF2rarfscOxVx79ARxe9RVv0yhqR/QF685S+WZ3sE3bP6vSXdXWQYlzAmY48+85rP6/Bdu0LmzPVr6yGoNxKPq7eozJXDtfZxJK27ei8YTu8/TLJFghzqDkWR+ZvtgjrsCQnbfXUkMrtu6ebOAkU1rz14vNn37+plnntG3vvWtXYEYu93y+/2aMWOGVq5c6fSMWbFihSoqKlRVVeW8b9k0h5ah4wAcOM+NN9749cH1N2Q/dN3d3err61NRURFd1QDgHWZ/EbLfk0OhEN+XAeC/gP0+3NLSouHDhzuPexy6XPK6+7T48bUqmnqsJldnKhKJJhv/Ho8aVzyqW/5yj16Y/6xiuRNVU+HXuiee0XPrX9Z9dzygV9d1qmLSOBV4E05Qw+NKaMeOTdrW5Va5+XmX7nfLHQtpw+rFev6l5/XEQ/dp4ZomVdaMV663R4u39mjiyGEKrWxWJC2qJY/cotsfWqjN25tVPW6a8tPd6qpfqLvvfkArlq5UrytLo4fl66n779Bt9z2oFas2q2jEVBX72rV86QK9uuhZzX+1TlVjJivba37Wutzq2PKiIkWzVZ7tUaRlu7ZviatybK5al/apZHKpwk2r9PfbfqkHH1mm9vAwVRW0amdiuMbmNunB3/1DWwrHqDa+Q9vjlRqRqNO9L67Q6mfu0t1PvKCtiWpNH1mg9o3P6++/vE2PL3pR/3rkAXUGqlSR61NXv5SR4bOxptfV3Nzs3If5+fnOa9uOe/bZZ3XzzTdr8uTJ+vjHP66cnJy97tG8vDytX79evb29qqur09y5c5Wdna2HH35YP/nJT5wgzWGHHabOzk799Kc/1e233676+npNmjRJgUDgEL/fgf1HIAYA3qUIxADAfxcCMYNcbnkivXphy07lDB+p4Xl+UzfJ+rDVksgo00knnaS50yq0/LYNKj26SvULH1Z44nn6yIXHyz2wUZt68jWuIss5LuH1qyQnR9teeUKLVqxVb8yn6vISrXl5kXZkzdLHrrxAVd0r9OimsKYPz9bi7d2aWFOqzkUbFR42XGOqilU88nCdc/bJyvVEFDPXKZA/XCPyIvJMOlcXHjlG6+b/Tat0lK7/8Hmq8XRr0ZoW1dQW6Zl/PSP/pPN02ckzleaKOrEPO7ZL66an9OwrTdqxea2WtQyoZt5sVSbatH5xr6qOyNfLj92jwIyP6NqLjtWY2gKFmtarvl/qWPWC8uecp6NGFqijYYk2xKs1Lq1Zf3+xWxe//xqdNK1SbS/Ml3/sYap/+U/KO/2ruvKk8QrE6zRm5rkKbVqsDR2ZGl6VLddrBraxvxfY++6uu+7S7373O40cOVKVlZV68skn9d3vflfTp0/X5z73OZWUlCgWs72GdrOPJKWlpemBBx5wjrM9ZF5++WXnMSV7jN3fBl7s40r2d44bbrhBs2bNktfrJQgDHAAeTQIAAABwcPl9KumKytUTVmKPR1ns6sDWRfre976r7//iDm0Ox50GSWagShOG5do9VJhdpKxgyHn0yErE4vLnj9CZl3/KCZqsf26pFq5pk6u8RMNqip19Kg87TE1+l6LOY0lJzuM8NkOzvOHjNPGEItFtmjpjhNwJl8pGVqonrVNt3UGVjK7RmOoiG2Ub3HmQy62CknINK6/UEbOP19zhuYrFkoP2RuMheaLZmlhToPjgCL3uRFQv3HGLXmws1JjhxebMEk4atlgJ8zVjfK2K/OZ4X7ayh7cpHPOotmaGVv32O7rpZ39VXe7xKs+Ia/jhx+i4GWVSJDkg8Z5sQMT+8fz44493erjY4MuvfvUr/fCHP3R6s3z2s591gijRaHTwiN1soMU+ilRaWqrx48c727Zv3+4EdT7/+c/r1ltvdYIws2fPdoIvX/nKV/Tqq686+QHYf3xyAAAAABw8iYTi7iyNrQhq/ZLl6o67nR4XdoltfVF/WO3SNdd9Vh+57EQVelxKhhTiig328IgnzJa9AidRk2Sy2ZI/aromDsuXBkJST5+62/ud7d3btiorFP23GYFsYCcR71csEZHXJPG6w6vYQE0iV3Wb2+3u6uvoUlYkQxkBrwLmveQ8SHuEPcz5uTw+jZ0+W7PnzNHEqlxF95gSyeP2KJLo1I62qNxen5Nv3JT/yMs+oxPzE3psQcNrAkMm7VjMJmvWzH+mvtxmvUdZqjr7an35M5/SpXOnyuc29fImvU/s+7ZHy5e+9CUVFxc7PWOmTJmiL3zhC04Q5rU9YYYMBXHs40xDjxrZYM4FF1ygm266Sb/4xS90xRVXOO+fddZZuv76653HlexjUP9e5wDeDIEYAAAAAAdRQrGIVDXvDI3Oa9PPf/JL/fqXv9Cfbr9XrZlVGtG8Wrf/9td65OV6ecu8yTCHafjvCjHYYINdDJf9L96rBff/Tr/45a/0i1/9WSuz8zR6XKE8JpMdrz6qP//+p/rzs/U6dvw4uT0JZypq52ibZlwqLMvXhlee1B//dp+agt49gjHm/cFMRx12pgZWPaKf/Opn+vN9C1Q94jAVBOJOL5dk8GPPwIlhEo5GIs401nsGYRImc5dyNXbKVC158Hv66c9+r0fmb1PM65LbX6BpZx+jyLZ/6rE1LfJ4TJqD+e9+ysis2HKbtUxfXPWL7tAtt/xGv77jn6rrDmvLy8/qyUU7JV9y8N7XY6eetr1bbA+Ya6+9Vp/61KdUWFj4uj1hXss+Xpc8X2nixInq6OhwBvj9wQ9+4IwhYx9X+upXv6qf//znys3Ndcaa4dFoYP+5wuHwro/9G7GRzq1bt6qpqUnjxo3bpw8yAODtY/9yZb8nd3V18X0ZAP4L2O/Dq1at0rx582icWi6P3IkBbd/e7MwY5PEFVFxWKrU3q7F3QGm5hSpI88uV5lW0f0DutAz5XDaQEFI04VVawDMYqIiru22nuvpNnbq9yisZpoJARM8uflHt6TWak+9SNL1ApQU5csfC6grFlJnmU7wvrITfpzS/W+1tLeozzZ6iklIF3DbQ4VI80q+Q/Er3mXKatk5/d6uaW3sUyMpRSUmR3NGQBsIReX1pTq+W3Ux+oS7Fvdny22DKoEQsqrApoz/H7K+oOlt3qKPPpcycIuVlJRSO+5RhzjfS16yeRLZy/TGFEgGle2LqDruUY+rBBnjC4aBcoUY9fOcmHX7BTGW7Y2pYukRtgRGaNblc4Zhf+bkBJ2DzRmz7zd6HtvfNvt6P/f39To8Ye6xd7OC9jY2Nznt2bBmbju0FY38HKSsrU2ZmJvc6cAAIxADAuxSBGAD470Ig5nXYR3t2jSOSUCwWdwa7tb1SnF4wg4vzqI5dN3slH9ux252DHG5zzNDTPAlTt55ESE8tnK+e4tk6Z2ye4rGYMwivZaeHjtuDTSYuJ/3kz0x7vM1/F7PBjtUylM/Q1NK2PEPXb89y7clOI20DREPHJpn0zGbbK8auD+WZSMRMeXbn5UzPbdZtDs42u69Zd8pst7m9UrBRTz4yX63muDRXQqH2DI2fN1eTx+Wbk7AzUDm7vilb/qEeLvvClnnomgy9totlH2uy6e35en/SBrBb8lMEAAAAAAebaajbBntySUYPEvHkaxvsGGrIO41/Z21w/TXt+/jgMc5xNk35NGXC4ZpTnqZYNDkT0pChgIZZ2ZWOzWuvIIz1mnxsgGeoXEP2LNeeEnYcm397w+y76xkjG8wZOk/7cnde9linjEPbzP92ldlIxKNSWqnmzpuh0SNGqKq6VtNPnKWJY/KUcKYBH9xxH+xvoGTPa2LZ1zbAaBe7/bWvARwYAjEAAAAA3lXicikvt0CF6R4bb3nPscGq9MIazZo5U7NmzdDYmiK5Y7HXDQoBePchEAMAAADgXcf2zngvBmGG2J4xduBdu9hpuQnCAO8dBGIAAAAAAABShEAMAAAAAABAihCIAQAAAAAASBECMQAAAAAAAClCIAYAAAAAACBFCMQAAAAAAACkCIEYAAAAAACAFCEQAwAAAAAAkCIEYgAAAAAAAFKEQAwAAAAAAECKEIgBAAAAAABIEQIxAAAAAAAAKUIgBgAAAAAAIEUIxAAAAAAAAKQIgRgAAAAAAIAUIRADAAAAAACQIgRiAAAAAAAAUoRADAAAAAAAQIoQiAEAAAAAAEgRAjEAAAAAAAApQiAGAAAAAAAgRQjEAAAAAAAApAiBGAAAAAAAgBQhEAMAAAAAAJAiBGIAAAAAAABShEAMAAAAAABAihCIAQAAAAAASBECMQAAAAAAAClCIAYAAAAAACBFCMQAAAAAAACkCIEYAAAAAACAFCEQAwAAAAAAkCIEYgAAAAAAAFKEQAwAAAAAAECKEIgBAAAAAABIEQIxAAAAAAAAKUIgBgAAAAAAIEUIxAAAAAAAAKQIgRgAAAAAAIAUIRADAAAAAACQIgRiAAAAAAAAUoRADAAAAAAAQIoQiAEAAAAAAEgRAjEAAAAAAAApQiAGAAAAAAAgRQjEAAAAAAAApAiBGAAAAAAAgBQhEAMAAAAAAJAiBGIAAAAAAABShEAMAAAAAABAihCIAQAAAAAASBECMQAAAAAAAClCIAYAAAAAACBFCMQAAAAAAACkCIEYAAAAAACAFCEQAwAAAAAAkCIEYgAAAAAAAFKEQAwAAAAAAECKEIgBAAAAAABIEQIxAAAAAAAAKUIgBgAAAAAAIEUIxAAAAAAAAKQIgRgAAAAAAIAUIRADAAAAAACQIgRiAAAAAAAAUoRADAAAAAAAQIoQiAEAAAAAAEgRAjEAAAAAAAApQiAGAAAAAAAgRQjEAAAAAAAApAiBGAAAAAAAgBQhEAMAAAAAAJAiBGIAAAAAAABShEAMAAAAAABAihCIAQAAAAAASBECMQAAAAAAAClCIAYAAAAAACBFCMQAAAAAAACkCIEYAAAAAACAFCEQAwAAAAAAkCIEYgAAAAAAAFKEQAwAAAAAAECKEIgBAAAAAABIEQIxAAAAAAAAKUIgBgAAAAAAIEUIxAAAAAAAAKQIgRgAAAAAAIAUIRADAAAAAACQIgRiAAAAAAAAUoRADAAAAAAAQIoQiAEAAAAAAEgRAjEAAAAAAAApQiAGAAAAAAAgRQjEAAAAAAAApAiBGAAAAAAAgBQhEAMAAAAAAJAiBGIAAAAAAABShEAMAAAAAABAihCIAQAAAAAASBECMQAAAAAAAClCIAYAAAAAACBFCMQAAAAAAACkCIEYAAAAAACAFCEQAwAAAAAAkCIEYgAAAAAAAFKEQAwAAAAAAECKEIgBAAAAAABIEQIxAAAAAAAAKUIgBgAAAAAAIEUIxAAAAAAAAKQIgRgAAAAAAIAUIRADAAAAAACQIgRiAAAAAAAAUoRADAAAAAAAQIoQiAEAAAAAAEgRAjEAAAAAAAApQiAGAAAAAAAgRQjEAAAAAAAApAiBGAAAAAAAgBQhEAMAAAAAAJAiBGIAAAAAAABShEAMAAAAAABAihCIAQAAAAAASBECMQAAAAAAAClCIAYAAAAAACBFCMQAAAAAAACkCIEYAAAAAACAFCEQAwAAAAAAkCIEYgAAAAAAAFKEQAwAAAAAAECKEIgBAAAAAABIEQIxAAAAAAAAKUIgBgAAAAAAIEUIxAAAAAAAAKQIgRgAAAAAAIAUIRADAAAAAACQIgRiAAAAAAAAUoRADAAAAAAAQIoQiAEAAAAAAEgRAjEAAAAAAAApQiAGAAAAAAAgRQjEAAAAAAAApAiBGAAAAAAAgBQhEAMAAAAAAJAiBGIAAAAAAABShEAMAAAAAABAihCIAQAAAAAASBECMQAAAAAAAClCIAYAAAAAACBFCMQAAAAAAACkCIEYAAAAAACAFCEQAwAAAAAAkCIEYgAAAAAAAFKEQAwAAAAAAECKEIgBAAAAAABIEQIxAAAAAAAAKUIgBgAAAAAAIEUIxAAAAAAAAKQIgRgAAAAAAIAUIRADAAAAAACQIgRiAAAAAAAAUoRADAAAAAAAQIoQiAEAAAAAAEgRAjEAAAAAAAApQiAGAAAAAAAgRQjEAAAAAAAApAiBGAAAAAAAgBQhEAMAAAAAAJAiBGIAAAAAAABShEAMAAAAAABAihCIAQAAAAAASBECMQAAAAAAAClCIAYAAAAAACBFCMQAAAAAAACkCIEYAAAAAACAFCEQAwAAAAAAkCIEYgAAAAAAAFKEQAwAAAAAAECKEIgBAAAAAABIEQIxAAAAAAAAKUIgBgAAAAAAIEVc4XA4Mbj+hjwej7Zu3arW1laNHz9e0Wh08B0AwDvBfl/esWOHurq6NGHCBL4vA8A7zH4fXrZsmebNm6d4PD64FQCAve1XIGbbtm1asWKFysrK+OECAO8wl8ulnp4eBYNBlZSU8H0ZAN5hsVhM3d3dOvHEE511AABezz4HYuwv/GZfp0dMIrFPhwAA3mb2e7NdCMIAwDvP/o6ckZGhgoICfl8GAPxH+xyIsewv+243w8oAAAAAr8cGYAiOAwDeyH4FYgAAAAAAAHDg6N4CAAAAAACQIgRiAAAAAAAAUoRADAAAAAAAQIrsGiPGDizmVVyuRFwJ8x8AHAwu+5+ddU1u85XYLwAAAIBD2+7BemMRfWP+dm3qCMnjcrYAwFtmAzH237eOrVRpbgZhXgAAAACHtN09YiIhHfmX9Xp554C8RGIAHEQJ811m5QdHa3Rpru13N7gVAAAAAA49uwIx8XBQJ9y2UUuagvITiAFwENlAzMIrazWmLI9ADAAAAIBDGgM2AAAAAAAApAiBGAAAAAAAgBQhEAMAAAAAAJAiBGIA7L9EQtH44LqV0N6vAQAAAACvi0AMgP2TSMhbkKGJeVI4npDicYUz/JpU4pOXyakBAAAA4A0RiAGwX2zsJS87W9cfW62TC6Rub5reN7da14xId2ZHIhQDAAAAAP8ZgRgA+8XtdqmxvlnfWhPThXOH6xsnVGpWX6tuXtqlsFxMTg0AAAAAb4BADID95lVcK+vatCktTx8bHdD8de1qCEkeojAAAAAA8IYIxADYP3ag3vR0fWRepSq2Nei0xzt02lEjdH6ZRzGeSwIAAACAN0QgBsB+sWPEDKvI09j+Vn375Q4tWduomzdHNWN4ltJdCcaIAQAAAIA34AqHw067KR4O6oTbNmpJU1D+fXi+IBaLKxiNOoNzOswhHo9HAa/nbYvuhCIxuT1u+d2ug9/Yi8c1EE3I7/fIY14mzIkFI1HFbKtzkMvlVsDnlfcgnWDc5Bk055Qw6ab5TL7781iHqf/+aMw0ihOmXC75A1753mR0joS9ZnGZc3Dv1zWKmnxiJu3AwTrxQTbdUCyhQMAj72DZk/dVTD6vVwFTIW93oz5u8oqYvNPMub3deb2X+MznxGU+H/1xl3yuhDM2TLa5r0KR+OvWo/0+sfDKWo0py1P8Te5TAAAAAHgvO6BATDTm0qiSHJ1a65fHNqZNYyw94Fbnjh7ds7FLrV6f0g9yo906emSOWpq7tbIrIa/7zRtzNpgi1z4MHmr2S2Sl6Ywyr17d0K0tcisv068zxuar1GMDHnEnwOSKDuihDZ3a0PvWgzE2CJOf7dfpYwtUEOnXP9d3alPQpLsvbdRYTAOmvFeMyVOVzxQ/GtaTi5v1isevwH+ol4TJL60oSydnxfVcXb86PPsWjLHXelJ5tipd3XpiZ9xscdsqfctsuuPLsnVUSULzX23XOp9PrlhcpYUZOq06TSu3tGhRu+9169leVxt82jcJJ4DnNdfP85pj4vGEiqpyNcFc16d3hOQzdYJ943y2zCdrzyq1Mcv/9LEkEAMAAAAASQfU8nS5EuoPhbWueUBp6WX6zDS/2jp6tLErqONnVOn6yenq7g9pIBxV1LTObLPLNtxC5rXdFjLbnOjPINurIzj43oBpNNsGndMjZXBbxDTQXaakl80q19wSj0LRuKJmv37zXtCs2/CAzSNqAxSDxwTDEflccSUiEbOPzS2hSHTwfftXe7PJ9rcI220DYfXnZOnjs0o0Jh5TzCQWNXk2tPepNRzXdUeWKxANam17SF3mdWQwn3A8rpgpx1Ce9lwtm6bt6ZLMK+acq8tkGB7czy69ptDHzh2hy90RrWnqV3/MHDd4jD0ny5bBKZ/ZFrYFtkyeobSAPnz6SF1TYa5BY7caigr0k7OrdWROWAP2GHN+tu5sOrambSCiPxiRZ1iBPj05X6URU6eJ+K6yRAYH9oiY/ZPljg1uM2WOuDRndLk+OMqtiNnX67bnFjHnblPefY3CZv/kNRhKw+RvvoZNmk4+Zn2wegybrjSztkw3n1ajc2vsNbLHuXX02Ap99+ThOqUsbNI05zqYlj3e1qS9hn5zxaMhUwaTZ8IkuqsMgxnY65Csy4gi8Wx9/YQKHVts7jtbNnNuTtlMflFTl8PGl+iiURnOPYV9ZwNhr42F7UNsFAAAAAAOeZ4bb7zx63YlEYvqLyvatbMvKs+btKjs2z3BsFbs6FfCl68j89v1jWdbtLQnoaOnVujUAvO+16eZhX7TgA6rJRhXhs+tuSPzNHdYQFnm2OaBhOImIduQDnh8OnFMtmaWZWhCvkutPUFFlaaTx+ZoZrFP4YGQmsPSKeMLtWN7uxa2RjVyRJ7OqM5QpSuqlq6wehIuVeRk6ZRRWZpSEFB1YUD/e2qtZmbaBntImzqk8eW5OmlEhkYEQmroiZgGudfp7XHi8HRzbJpm57k0f1WHGjxexU3DfENzn7YNxHT66Bz97sUGPbolrvLCLI3J9mtuTaaye02hSrN1ZnWmJhV61dMfVlfUpcNKMjSxNE2zyjM1JlMmr7B6fR4dUZ2rY8rTzb4+leZl6ZyJBcpo69Kjjf1a1uHRcaNzdZR5v9Ddr41dbo026dRm+nVkbabye0LaHpUiMWn6yJH6VkWbPnT/Vj3VHNOKuk6NPHy4Dgv2a2GjOc/KgKaWZWmSyXtrc9zsn6t5FQGV56Rruj+ih9d2qcuXqTPHZetwU+5oqFeNQbfGlaRrXIFPsyozlRbrd7bFY25Nrc7TsES7Xsks0x9OqVR2IqqMcFRNfW4dOy5Hc8rS5IuG1dAX15iSTE021/3w6izV+KPKTPfqSHOtJuSYsph6iCSSPWqitp6q8lQTcJtWfVz/WtujRGGGrjw8T1mJuFY27NTzLek6blSu5pSnaWSG1N4U0dQxVfr1iaWqjEY1EA+qK+E1++RrVqlfvr6gKbM0Ij9dleYeOL4qUznmXmsKhVTfHjT7Z+oUU96Z5tqUe2Jqag8rd1SRJof79FBDUP63oRcXdrt2Sr4Ks9KUDNkBAAAAwKHJnfzLdnLZH263WwG/xzReTTvaWffKZ76G49L43GwdaRrgU2fW6FsTc5QeimrmkdX6/Ih0jS5I0w9OHa6ajITTc8H2hnn/0TW6eny2Mk1DuDDNjgET1yfmVeuc4QFV55XrR6cUqSbNNuKTY4gUjSnTN6cVaJzPrU+dPEofKfGqyJerH5w+QnPK/CrK8JglXxWZPhVk+JTrTWhsWZm+fXSWinIDuvqEkfp4jUtjS0v101PKVZGdrouq8zU8Lfm4imXrw44HY8duMafljKuiuF8XzKjVb06o1BGmnHlpXp01Kl9jPC4dVl6lm47MVkkgpuvPGKubRmSqyKR77ckjdXnArWk11br5qEyVBlymTKa86T5lmTwyswMqCAR00vgqfWm6V5nFefp/pw3XKXkJnTm9Rr89sUJHpLuVaaNfpq4Sphg5Y91q2hBSS79fGWl++eIuPbwirDmVfh2WV6zfXThax1SkKd3lcdK9+ZgiFaRn6f01uco2dRuLBnTdUZW6cHhcZaMr9eMTijXSH9LFx4zW744v1IRcl0wRnV5DQ+xqRo5XpZlelWX5lO2K631HVOqacZnKTyvS908dpqnZAzrnqFr94vBCTTJ1c/1p43XLCTmqMud64ZRafXaiV4lYLJmgYW+5zpZGlRRlaGpORJUZOZqc6NbWvqDzZsCTpzPHm3oy98X7jx6hq2ozFfD6VWbKUGQKGEj36PRjhzvXf1J5jn58UqXSY26dNKFGvz6jwuznUq4vy5xrhWZlx5RRka9Tq9zKCXj15RNrdHKZZ7C3FFJhz+81LCwsLCwsLCwsLCwsh+zS0dHhtETtGDFn3rtdS1vC+zRYrxUKxzVvzGh9e1qLLrmvRVuCHl176hgdG2nWxQ/s1MjRo/XXoyP6wuNBfeWyYVr0zBrd2ZGlr503WtsfXK0v74gobvI64aTR+mR7m763plUruiIKjazWi8fk6Jb71+rljDzdcnal/u/BtTp2zhitWLxONYdP0OjWHfr6wg6dO3eSTu5r0DdVrJtyenTRg1tV5/XJp3zdcWWx7nl8mW5tydHHLp+kK7fV6ROvdOrcY8bq6ECT7oxX6dzNdTrrxTZlzRqth2cE9I2/rtfTvoA5Phn0Kc1P023nD9f/u3+NHt/q11fPHqvZ8VU6/58hxdN8GlGQpoJoRMPLh+sLk3v1sUeb9D/nTNIT/1qlP6xN6BPnTNCR3Zv1155h+uqMqL78xA5taw5pkwL6xAVjNe6ltbquK6DfvW+sAs+t0s2NcX3t7HFqXbFBmwvG6hjXal3wUEjKTFOauWCheFzHnTten9+yTVe91KnOdJ+ikbhmjR6lH01q1Q3z0/WD09z66N/Xa6EK9KPLRiv98RX66MaQJp46QX8ydfThtdJvj8/Tn+9bo8WZufrt6cP0rfuXa/LcmUrfUqfPzO9QID1dAU9CA/aaHjdSx0fW6cLNmfrLiSW64dbVaiwbpufOLtdz5jreFQ3oZxeO1t1PrlLmuNEq3dagT7/QpfddOk2Xbq/T2U926dKTJ+vq3Hpd/OSAEh6vSdelDxw9Usem1+uV7BEKrtmgnaUjNL57i3KrqxWqX6OvLsnQjEqXYqGY5hw3VhNbtul/zPk9dHZAN/5trTYOH62HLkvXX/+5QfNdBfrhmVW697drFZ05VhcENuqUR7rlTS/RXZeX6N4nV+gvLdmaVWgfb0roS2eM1fML1+nxYSN0XaxNH3+2Q1kBb/LGxkFng3rPXDjMGVuKMWIAAAAAHMpcmzdv3hWIufzJbi3vSMi/j09ovG4g5pTROiLcoqv/1a5JlcP182PD+vrjYX3jogptbWjV1pBXbldMy5e06L4+O/aLS/390pGji3TlpEIVxhp1486A/np4vl5d16EW2yMlEtGtq9v00ZNG69VF6zRxxlhNiHdoYavXKevWnc1aZfL66kCb3v90sxozfPIn8vS3S4t0z5Mr9ce2LH3ikvE6vbtLKzqjzoC4Gzv75BpdoXlLNuoja3rUP7FKjx2RqR/etlFP+fyvH4jZ5tdXzxqlmrY1+tjiuLJHFemm6UXKaexWf16BpgUade0TrfrcmRN033PrdecGl64z9TEvsdHUbZ8OG12mS6YUaEIkqB8906SJp43WxEUb9LH+gH5zfq3cde3qiNoHN+J6fn2Pxk6o0siOtfrkUts7JHlR7Fgmc6aP1S8rm3X2Azu11ZXm9DL5yIWHaeamBn1/U45+Mjumz/5zq14pKdBPzq1W/72r9P/aoiqcM0p3F/Xruga3fnxUgV5c2ymf161YOKw7V7XqouPHqGd9vb61IqQsvzN31O5ATHS9Lm7I1t+OL9IXb1urnRUVevLUEm1fY66pHQg3HtM9q5p1wtzRCmzdoi8vGdDFZ43TBVu26AML+3Tx8eN0fma9rnw6uCsQc828kTomvkl/ax+mb81IqEte/cKUddopUxRct07PBWv0xTkBLd3ao/JRxWpbVacbl2TogdMD+todG7StapTuuyhLizd0qDXqlSsR0ZPPtGv0vFGaWb9Jn9wakstbqFsvKdBdj29Uony0rhrfp6WNbp0wJk9/fmqNnqqsIRCTAjYQ88DJGaopzCIQAwAAAOCQ5orFkiO1xkMDOvbW9Xq5KWga/fvWUAqG4zpu7Fj9YEazzr27WQ0Dbn30jHE6MtysSx9t02HVNfrdcWFd/1CjPnTmePUtXK+bNw0o4fOoO24azi63aTxLOWkueaIhZaZn6ZZzi/Tdpzv14Tnleuj5tbpje0QBt1shl1c/uXSiFr60Vqtra3RDf6NueK5VzWleBUMuVQ4frr8fl6YbH9us5b0J9YZydMsVw/Tq4pX68RqfTp0+VleUNujTj3coKJ96wy6dOHOs/rdmQJc9WK8pM0bqpnF+feJ3pnHuC8hvzs8OPDusIF13XzRCX7xntR7d4tfXzxutUe1r9IEXIqo9eYIezOrW+/6xSdmnTtevStp02SPN+tI5E3XvM+v0t3XS9aeP1bzYBl37Qkw53qja0jP0vXNrtP7hzYrNG6VJL2/Qhze59LUzRim/Y4W+sSgqr9etzr6AvnDOONW0rdaHF2nX+CV2CmpPTo5uuqhSOSvX6WuvhJUxsVJ/m5yh/3t4jV6JjdLfjwjrE/dv1cuBDH32xFE629Wk9z3VpMvPmKT3q0uX/3NAN15UpAdeXK4Ht/rlM9e7L+rSty45TB1rN+vrSwd2BWL6gx59/ITROjG2TuduyNQ/zqzUU6Yu7gpm6ydnVWrdq+v14/UDzixZPRHpqxdNlqeuXp9b1K8rzpugixu26LKXenXZieN1cUbdYI8Yj5Puh48brdNd63T52nTde8kk5W7drONv26pvv3+SWpdtksZO0pTe5brycY++c9UEuepNugvS9PRVufrVP9fo+ViufnB2lV55bK1+1RSRx+vRjr40ffbk0ZpVv0kfqhuQ21ukO68o0N8e3qFzTx+pTYsX6ua1pXrg2hrd/fQqPVFVq+tjrfrQU+0EYt5GdvDtxVeP1thh+QRiAAAAABzSPF/96le/bhtJ8WhknwfrHWL/yp0Z8CnTNaD52yIKyq2CLL+CPQN6uSWiDL9fBf6Inm/o1lPbw5o1pUoXjC/SqSMytbyxT+0hk4DJ6szDK/WxKcU63mx/cFmL/r62W8ta3TpvdoXOG1OsY8tdWtvSL/nTtLWpT4+t6VBsRLk+Oa1UJ4/OV0l/SE9u7NTmaKYum1GsU6uytLm9XQ/2+3T5qGEaE+jUbxZ2Kqe4TB+aUWaOKVBlolt/faVHKsjTVdOLVREMaUlLrxZtC6rVvXtqZ6/XpZI0rxZt7VVL2Kxne9XV1aOlnS7Fd0ZUPDxPp0wsVm2iT89sHdCKlrAyMvxat7NXW0yRi7N96unqUyyjVJ89plRnD89R9+Zt+llDUJmZAfW19GlNX0gvbAxqzqQqXWrSOrkmR5HuHjW77LG9Tl7uwWtiexDFBkwdNEY1d+QwnTOqQEflSH+6b6Pu6/EoOxBQgTesRU0hDXjiemXjgKpGFenSCUXKbO/RgtagFte16Ymdfl19VJXOGlOko0u92mzOPWaObWrt07ru+OD04C7nGhdkehUyeS7aFJHPm6bTpxaqoLNTv3ylX8fNrtRFY4t0QnWadrR3q8+Trvb2Pr3amVBBtl+J9l693BlTjlmPB/u0sMVec7eTbr5JNxrq07Mb4rJj9m7YuV3PtXlUnmvKYa7fn1pdOqaqTOeOy9NAU48WmXtgeUunPHmmzscWyt3epN9sjOqkw6t1zrginViVpue39isj3asBU2+vDCRMVl4Ny3Zp9fYmrQgHdPTICp04KqAVdb0mrX5tS3iV1RvUq60ReZm++m3k0ocm55l7KeCMC2W/57CwsLCwsLCwsLCwsByKiyscDpsmcfLRpBNu26glTcF9HiPGisXstMEuZ1Bbe1Q0GlVMbqV53abBFXemCbaD3rridurgqOyEyrYhnu63jygl87HTOkfiyUFcvV6fMzBuLBZzpru2hXO7PGabx5me2u3xyI6bGwonp1B2mf+8Jn376E4karY50xCb/M3+MmkGYwnTwDbHe13OlMYRU45d+Zhd7PTIdhpjp3eOWfx+t5JnkpSw5xCJy2/Ss8GJcMScg9nP5ue8Z8/JVKTbHu82x9tymHLaPL2mHpP7mzKaM7HTOVtut0fpJj07FXPc7G97/GgwrZi9KGZ/v9ccYcoVN+8NPZa0F5OHMyW0Sdepg4BXflMGe4w9Z1tfyaPM69BQum5nkGW/7e1ijrf5OfVr8zD52fp1mbLZ6+/cFIOS19Rl9nE752OntrZ17lyHUMTkYC6prROzLW7SSAyWOWr2jTppD66bNNK8tqdNkk03uc3UU9ge53HWbT3ZOvImYup3rmeyfj0mHZuuLbcd6NlnrqHXZa+Pndg6eX4Zph6i5piYqcNkvdnprc31sPmasoXMYoMCNrDlM9fIY+o9PFiuPc8ZB5e5/bTwylqNKcujRwwAAACAQ9pbDsQAwJshEAMAAAAASa/T1QIAAAAAAABvBwIxAAAAAAAAKfKWAzF2TJD+YEh9drHjhSSSDx5EIhFnW3/IjqFih0CJayAYTm6zY5OYbXYkknB4937OoDV2WySaTM/sH7EHWybdoeOHxlpJRGOD+yUXOx6NzTwWjSbTe+2oH7aspox2fJGkhDPWjE3PltmO+TKUx9ASMnnYsUyctJ1DzDEmjaDZvit1pw4Gyza0nxE352zzs2PZ7JZw6saOOzPEqZvQ7rqxuyfrIVk3th7ie6WRZMscNeXvHSyr3S/0Ovvts306dPc1G7o+thzxmDlXs82WJWzqxqnPwWtut+1VX7sk699Ja2DoHCKK2B3tWDeDdWLzCZvXuyXrZiCcvA+sofswmX/yHnQ51yqZ/9A9t7/idpwhOxaPOc+hMXz2cgBp7htTdpOvUxdvWx4AAAAAgFR7S2PE2Ibi2NIiXTcnV2mxhHyxsL6/YKeWNiV0/oxynTcyTf0drfruwlaFs/L0yRmlqghIbc3N+tGidm3pz9LVc8t0QrVffW2NunlBm7YOZOmK2aU6YZhPXpPe3U9v0wO9cWV6C3TjqYUq9UqrN23U95fFlDOhXN8Zky23aaR7zfY1a5r1sxW9mjCqSteMDelrz7WoK+ZODgocjcpdWqhvTQvowVe26qlmnznpgD5q8s/ob9YPlvWrJDtf/3NMgUpcccVMu9/jkZavb9DS6DAdmdWqHy0Lyjb9P3bccGXtaNOv1vap1yTtKcnXN2flq8iUYcWaev10bTLoYKe+/sycUr0wf6se6DP7uaVgyKvzpw3TOM8WfefVhNxyqbQoQx+ZUaZqUzcdLS368eI21QezdeVMUw9VXnlCQd30/HZtNJntObNPyBx79JRh+mCFzxlA1+eN69knG/RXm5ct/Gsk4glFzVff4AxMe0nYstihf91KDA6i/G9sEMJkf8Wcah2d51EsOqC7Fjbo4WaPakoydd3sClV6Ynpo9U79YU2vKkuzdd2sctWmx7V6dZN+vqZP/XaQ5mRi5pKk6+NHF2tavkvxhMnTST6i+57aorsDmfryEcM0yZxTzBPXc+a8bu1NmPOyg/V6dbm5v8b62vWNxT1OuaqLM/XJI8pV4Y7p3pU7dNv6fnmyM3Xt7GGal+dWc2Ozfri4Q03mmu9Rha/PpGfH9k1EExpeUqzzK/v057VBXTKtVI8tb9Rqk6VTh4N1FpfZ+T9U2YFJ1s1HZuVq09Ltetblkd9sC0VdTmDGTjf+bmNvHcaIAQAAAPCeZtrSts1qG4iJePIP+q/nzZqk/5Gd7nrkpEr9+cwiLVy1TV97ul7feKFR67pimjt1hD45waufPbtZ313cpe0xvyZPKNT6jTt1/bM7FBs1Ql+pSNNxUyv0mdq4vv1sg1pLqvStwzM1vjJds3K6dfMTG/RIl0efO71S2abx/KUzq1TZ0aQvLu3QybPG6urKuHxF2SpSn/7fk3X65jNb9Ze6Pk2cO1w/PqVAx5ZnKs1tp4ZK9ozoNY3Xa2YU6fwx+arJiCjs9epT5wzXx6bmaWaRz5n5qC/Uo1/N36KbnqnXTc82y5OeJV+TRyOL83XCMCno9utTp4zT5RPyNbfIr0A0ql53pr58ZJUq2ur0hRWdOmn2SF2RHpbyivXdM0fp5JosjQuYi2DST0Tj8hd6deLMEl01YZjywjFFvG6NHV+khrpGXf/0dvXWDtf/VmVocrkpV3aXvv1YnV7qzdSvTiuXzwkDDTLpRc1FHjMiRxn1zbrpsY362/aYPnH2SJ1oLrjtldLr9EYJJ2dXikUVzfCYc4+reyDslMf2bOkZ3Ccaz9EvzqvVqXl96u4Lm7qwvT8G8xpkAzkZI4tV6+rXlx/fqNvC2frGrHJNMnX7udNqVbxjh360oE9XHjtcp5X7dPoJtZrU3KIfP7dT846o0fElyRmNkuwNGtTdS7bqq690KLc8S70L6s19tE3PxzP01bNqNTe6U998apO+vr5fV104TtcMT6jbHH7laTX6/CxzDUoC5j60s3IF9NXTa5TdsE0/XjygDx0/XEfneXXsuBG6trBD//dCg4Ijq/T1Kr/tOuPkHjP1E7TRNsP2UOoPD61H1Z1w6ajDq3TdWJ+KszN1QpVPWX6X5o3MVXHA9pKxcb2ERhSX62/m/i9N9Kq739TzYHo2kBJ0eiqZerQ9cQa3Wnb2MNv7KXltzH2YiDuzVQ2Ekvv3mq8Rc21iMZ/mDs/RiLBXZ06s1AdGmetmPq0j81xO7yHbq4twBgAAAAD8l3C5ZSdv3rboYf3tvufVHrQz9b5+yOUAAzH20ZCAPjI6R0tWbtTv1vSraUCq67HTMXt0zlS3/vj8er20fUANZpuNHzz1bIP+uqFPjTvC2rgxqkCRT8MnpatuaYvqtnTrNys7lF1Rpk3b2vSZJ7q0uTuhvzaHTOPTo7xh6aotimr+gg41bG7Wb5tcGlmWo5hpNHcMRFTfFdHmrqiaIi5ldnbqloX1qo8MnpxprYbCCU0wDfFjI91a0mJ7tbiUZd7ctmaL/rSxQwPmtd3XPnayszemjV0xZeRnaYSvQ3/qiDjbg6bh7U1PaGnDTn1pdZ/MS9NYjqu4wq/phRHdsiRm0mvSs+0uTZiYrrg/qN++vE23N8fkdSWb4mFTlukjCzW+fofqwwFdMCyquElo/nMN+uPaXjU2mrpZH1VOgUfrt2/XZ57p1JrusBa1dsnt8dl+F3uxDfFYNK62nqDq2ge0ujOsLrPTDtPY91fn65sn1eiHpwzXh8cGVJCXrhvPmaA7Lhyt7x5dojRfQrMOq9CPTq3RD44v0+Rcl1z+dJ01dbi+d+oI/b+ZOarymQa/OfchLnMT9a9v1o3PNGtnX0IbFg8olG6uj79QE3xB3bu9VfPNcme99P7cAr0vPaxbW9r0fIP5uj6mi6u98msoWGHSMyfQ0h9Tvanz9lBMbb0RbeqOKreyXFeE2/R/T7drbb9HDSt26ic7EjplRLGqYjF11m3Xb1Y3q8v2ojHppXuLNM7bp3t2tOvZLa26b6tblxb5dcJEjx5cOqCVdb16cmWXyqfkyGv2t+dUO7ZYVw4LKBGJadqkCn1uikfxcEyzR5bqmlqXmuq7tWpr1NSv7YmSnOvdPqbmRDRNtvaxN3vPZObm6zNHmzo8rVofKDBbwhGFgh5dcHilfmjq8cYZOfLEBoMx5roE0wK6dHaVfnjyCP3g5Aqdaup0Slm+3j+7XDefOELfP65Us1wRp4whc23jrqi2dPZoh6mHa08Zq39cMlY/PbFCk/M9r3lcCwAAAADwTnC7vfKpXy/c+zvd8tByNa16Qr/8za1a3RyUz+d12u57cmIV+800RhMlWSozjfctK4IKBHzyuF3OIx9Znmwd5kvT+6aP1v3XHKbfzinSaNMQjXs9cpvWaHF5us4YntBfGqLmdUyPx0yD0xRsm0kzkObXkSYdl9elkGmyX1uer9bm7drgcysWDOsRj0cBs6yLuzTV7DvM9tAweY8vCmhioV9l6W79a027nu/w7Hr8xo5Tkp4d0HcOz9Y/lzeqxTSqbVntGDK3r+7WzohX3j0exbGH2aDHtMMLtXNtmzoG7Da70SV/X0iPruhUj8nfHmF7jJSZk04fGNA6c+5ec47BhFvZWXkKbe3QI5tN3TiPkSR7xPhcHl08Nkf3bdymL29JaPy4AnlN3bhs3Zi9CkrTdHat9Ne6iMIecyFN2vGEX3NLC7SjsUWRf7tcCUUSHh13zCj9/aqp+susTP32hS1aHndrdq5XjWt26NalYV0ws0onZPQo3BXS1pZO3buuQ+VFVfrhEX6tqd+p+9Z3m4Z+QnnpPnUOhPXAhnbNnVato015bM+PvbjdCnjdipr6uHhuhl5t6NXKiE+xjoi6Gr12B0W63KoYna14LKS+vpjMiSuacKmw2lbj3um5TToeU79OLQ2uB2o96miKmLr3yW/y8nq9WrYspOrKgKozY7rbXIONQVM/g9fNbQNELVH1tJj8TT6Rbo9qRrtUY+p2dTRq8vcqFJcyM/Kc4I/ZrGJPnj4xO13VGdIH51Trc+Z6+2IeHTu+WHP63ZpSXaZLivxyxezjWq/PdoApNffWK9s6tcDk/5FTR+kjhdNTAAAlGUlEQVSs9JhOmF6sayvj+suCNo2sqdZXpsvpoWQfLTp2ZKW+ODGqB5Zv012r2rRswGXyqtBnxwf0yKqd6s/O0Y0nlSsQSQZvIlFbpgqdXBxTX2uf+nv69OD6djUOxExdHdjHFwAAAABwMLjk9fkUbluv237+PT1el6bLPnG9PnfD9Tq5Nqg//fhHenjpdiW8PifWMOTAW3LhuB2j1uklsmdLNZHwKSddWrKsQRfdvlHrK8t1XVW63LanQFaGPnxCtTpX1et503B1m0Z2nmkZ2wCNLZN93KLbfI2FYzrtiGF6f8GA/u+5AdNAd5vGtkt5g1nZgWz7zL595sXIsgJ9ek6lrptZqulFHrOvZ68xbmIRr046olJt6zfojo39st1K7GDAtqNHutdjGrODOw6yA/ZmFhXrY7lB3b6hQ/1ubzJ4YP+Zsvr9yaDJEBtgcZvyJUMJdoPt+BBPBlfM+ZmXSSZdb06hji5wa9LIHJ3oydS544o0PS+ebKRnpOuaE0YotL5BzzZG5DHH2oFsL5ldqhOL+vXFl/oU+7eGt0s+V0zPPb9ZH7hzhT75fI+umTNCF2RF9fRW02gvzdERFT5l+L2mYR/S5t6ImrsH9NKOkAqmZahhdYduW9WvlxqDao+YRv9Ar5Zs3Kn59X36W3Ncx6T5lWnKvescLHO+A2bLEbNH6vSMLv1lYZviAa+5+Vzy+O37ph7Mv8iA+WKv7VCRzXH2ftknMVuntpeS7XeS5E43iYaTaXh8Hnn3vG5mJ4/J3+2zL8zdYa5XpN9cEZu/LcxgIkPP57lNnTW2N6o3I0PVI0pV3tKt9V2ZunqiT9XFMT3ZGlPEXMPkwMd7ZrQ3j7l5WluatXBLu+5a0KmnOj2aNT1Th08sVnZXXDMqzf0YcGnasBInb487rpbWJj3Wm6PJ1QWq8kS0xZxQ3B3Vsvk7tMBcs2++2CN/XpZOlbkvbCb2XMz90TMQ0+aukDoGQpq/bUCtIXNu/7loAAAAAIC3mY0V7FjxL/30Z39Re+nxuv66qzWx2K+oO0dzzvmQrrv0CC2/8xf6/X0vqCti23DJRtyBBWJMC9DVGVFrn0fjDstRJBzSQCTqzAQUU69ae3v1cl+Pwt0JdTbFlOlJKBz06ZoZVZraslmfXtapPtPAHYi4dYzfFCEc1jgb4AgG9YppmOaNL9UnR/j0g/s3aH2faYwPxE0jO6DjTerhaFRz/C6tDdrHcFxaVrdTH713na75Z70e3hZN9kAZar2bxnSsMFtX1WZrzKhy/fTSSZpblKtrjxip2mz3HrMn7RYOx3TWlGy1NXbpuXaf3Hu1+PfmNUWvjyTUnpamuYo6AZ48X1w9PZ1O8GhPMVM3R07IUvOOdj28xaUNvU16MpGtU7P9ivS79b7pVZrbVafrlrSrydRvJBzR3ImlurzGr089sEkbenYHJfZiLrxppysYd+vV9SH1uH0aMSNLnz9lhI4NhrQzGDO1Zo60QSRTYCdgZIMrcfPaYw9POD17kqnbXk1mo89cC6ca/z3PUCiu8WUV+urwAX3ziTo9b26haDQs5fpUWBgxScSVV2LqZUu7wp50Fab7zEExZQdcatyUUDzxJrecKefAuqiyq9JUmR/RQDCqfnNPnDQ1TWt2DmhN/2uCMEY0HpW7wKf8fFMOd1z5xQmt2xLX0oRXR6Ul7y87xkuwt80ZKNZrrs2WvrhWxnJ05eFF2tTQoD81JnTFrFJVdbbr+VDUPt73pmzdOIE8u2IWr6k0Z9Bhc0GaImF1huN6cGGdvrGoy6l7n6nX1ds69fmH6rU54tWFx4/Ux7M8zvWzvYFssMbttVXgch6f25P9vNo0bI8h+6icDQACAAAAAN4ZLtP2jjav0F8fWaxRp1+ray8+RtnuqGnfmfa2aXNHInFVTD1J133yMqXVPaSHXt5s2qvJhuY+NDdfj0sBX7++vbRZeaOq9d2jsnVaba7OHZkprwb0xzavrp00UtfMztclNQm93B7VVceN1421fXpsW1yza4t13og0dS/bJtfkcp0/t0o3TMvRmnU7lDuiQneeWqHGNS0KVeTpvMlFOi7WrSdX9uvoU6t09tyRujx/QIsaupQW8CnLLN60gLLS/E5PGBs6cJmv6T63M6ZJoLdLH7p1mS59cIu++Uy9Nvb265+rt2qbaYjbR5S8pnGbZlr2tllre7JkZxfq0vKAHt3YrHYbkDBvJGxD2WlxJ9meLulmcXs86t/eq/tXxHT18Xk6yzSs52WFNH95JDmzjWk0B/xuZ8abcHq+rqrN0tJXG3TH6nbdsbBFj6+M6OTpOfrQMWP1jbFBPb4lphk1xTq7JkvnTSzTLSdX6pm1bRozLFeXTsjT9EKPYqaMQ2yZ7WNUY6pzdPrIXH3l7BJVd3ZrwbqAZpgGvn3MqLvAlDXDK7+54E3tcQ0vL9AZI7PVtqRHBeMK9LGZuTq7NlPl6R75TJ2Zfw67nmaO2TMcYKdyrimv1B3n5Kl+c5vceYW6aFyhpua36YdbE7pyfK0+Pb1K5xaE9JOWTn2zLqILRlbo03ML9IERMf12W0Th10Y4bP2aekozde13AkEuNTRu1f92Zukbp1Xr8lEZOv+EWl3mGdDd61rV70vOumRHok4zZXSb9NrDzfrJDo8+aPK//vAqnZIT1O9bgnp4frcmTc7X5UdX6JIp2VqyqNd5RMoGyYIdQS3fEdf5w3za3tKiv20JqryqVD1b+9XZa4NWXnP+pjwmnwybj1lPN2W05XMq3rAdpYpLy3TCmBJ95PhCHZNprv3ioJau7ldWeZYzZXaf+fD1hYLmVnA7AZeKwhydPSyggbawgn1SwJtQPOrSpHkVOnNcnr5zVK66m7r0sMujXJOfL5EM4Nj7ra0rpvTsXF04NlflGcmADAAAAADgnRBT1DdMV1zzUZ07e4S8iagdxWUvsUhEacMm64qPXa+jR+QrPjjBi+fGG2/8ul1JxKL6y4p27eyLJhubb8I2Zvvbu/Vca0Kjc7M0LMuv4oBbG9uCWlPfo2hetkZku/Xckh26qzWswkKX6jsSysnKUFm2X2WZXq3c1KYn2z2aVRJQw+bt+vHqsEr8aYr3D6jTjgGTHVBplk++UET3LOtSKDdTk/wxPfDqFt3f6HMCHO1tA6rviTkNZadcplFvZ/dp6QlpdZsd9FT2KSr1x1zqjSTUGYxq6c6gmsNepwdDOBJTg0ljc6+tMZcK8zwK9vTotg1hZ+yYoEn26Gklqmls0z92moTsuC3hmBo7+rWuz/ZgiOvV+l65cvI0wRvVg0u26aE+O0aNx6QWV7g/og0tA9qZ7pZCA5q/PqRuvzknr9Qb7Fdb1K2OWEib2+PKzMww52zqMd2ncG9Yy9v7lWHqodzUQ1mmTwMDpm5N/TrTTCfiTm+WSDCmRJpPZXlpcoeD+uNz2/VsZ9ycf0x5FdkaHh5wxoBZaa7BwvqwPBlejc326MmGZi3s8GlCobkeaR41dA5oU6dNP6xWU6a4qfMtbX3a1B8zN1NMdrYhe9MMK3SrqyesXneGKnICKjHl9ZvzeHJVpwbMNa/OCOkPixq1uDWmrS29as/O0Lgctx5YvEMvtJob023q0KRlp/Ky4/c4j52Z6zjQZ66XqacdLlN3ZvurDV3q9GRqQl66Sk39/PWprXqsz6c0U/+2V4+NMm5vH9D6bjt5dELbt3crmp+tirSgfruwUcu64mrt7FddKF3Ti/xat2q7frvT3A/u5EBJ9vGk/lBYG3f26Mn1YbWb82zu7tN9W3rUEDE5xKNq6B7QhoGodvQGtdpcn9a+iNa0hNQbdw3eb1Gtbu1XQUaaivwJPfDidj3aH9f6xl61uPw6fFimU0eRUJ8pp9k/4dawvEzNqc7UiDyv6rbv1K+3xDRleIHK+/oU9AfU292rP7zUrBYbLIqEtLYrqK3mw1vXEdTCBnNtzKWYbM5nc7u5h4MJp4fMu8W1U/JVmJVmrta7p8wAAAAA8LpMe9yTnqmctIDTaeE//Zncabt70pWbk77ryQZXOBx21uKmEX/CbRu1pCm41xgrb8bOXLRr2l6XW+l+r9wmcfuoUsyOi+H8Nd+j8OC0vLvY3iI+r9MgD0dNwUwDPCPgMW30mDPd8p48tneC16WgM6WySdPjU7rPpYTZN5RwOb0F9jxp28APxhJOL4vXnknQpO3xeGSfiLLHRKMx05x2mfSTPTVsrxg7Q1K67SVTlKebjyrTeG+HvvPoNs3v8Ts9XeLmmNDgMcn046ZRbwMWpmymrLY8lg2U2JlvZM7fXBpzXnF5Tf3YIW0tO+tSyJTTY7stvaZubDDMBj6GttpHao6eNUJfHJWmyOCAwy1tHfr4v3YqbB+HcbjkC5i6Mi/teUac65J8FMdeB5/LlDMYVdxcp0y/R1GzT8jpYWPOxb62ZTFl9Zvjw6bxn3Dl67tnlWqE3z5SZJ9YiuuRZxr0y21BJUw9DOXqXB9TnqC55na2H7+5rk59moOC4agpn71mHhWmF+nbpxeoyGXTM+VyRXT3k1t1V6e5B0w53OY4m7flTPPspOe8cs4rsEfQwdadvXOH6toG3wbCEdk7J+DzOY+o2d5RocF6sGMH2R4tTvxkkA3mhMwScK5J8hr6zLn4zbW34/bYMXl8Zns4Zu5VZ1vcvL97XCF7r9htMfuolzkf51732PIkz3vo0Tev1+fcv5bN09aTZYNQiVhAHz9ulE7YvkEXrepVLGD29ftMPdjPUNykafYxX+Nm33SPzDlGZV46nzM7IPXQ/fHfzt7eC6+s1ZiyPOdeBgAAAIBD1VsOxLynOb1O7KDEpknvNMCTjf53jNMzZTDoZdjHXRK2TG9XrwjTenaZPHePR2LysWPIHGh+g/W5Kwpo/ku8lfTeA8IRl+aOLNKY3nbd3hox9fEO32NvEwIxAAAAAJD03mz1HSw20GFnTfL53vkgjOXySB7fruVtD2KYtO35787TGUl28M0DMFifu8r/VtN7Dwj4Enppc6P+0Bp9zwZhAAAAAAC70fID3kG2b5B93Mk+2gUAAAAAeO8jEAMAAAAAAJAiBGIAAAAAAABSxBWNJuelsYP1Hnfrer3cFHRmnAGAg8UO1rv46lEM1gsAAADgkOdatWrVYCBmQB94PqxVXS756CcD4CCygZg757k1oiCTQAwAAACAQ5qru7t7V4+Y0+/eoleaw0xfDeCgsoGY+ZdUaFRJLoEYAAAAAIc0V19fnxOIccUiOvH2zVrcNLBPjybZhpXL5dK+TPYSMzvT9AIOXc6jSVfVqrYo23w/GNwIAAAAAIegXYGYeDymnV1BDYQjzhtvxOd2aWVbSF94rkVNfVF53yAaEzatrovGZuuGmQWK0wADDkkej1vlOekK+H2DWwAAAADg0LQrEGM58RT7p+t9EY/p2y826nuL2uT7Dz1oIvGEanJ8+uuZVTqsLFOxBP1igEOR7T1HTxgAAAAAeE0gZn/EY1E1d/Xp2sd26sWdoX8bV8b2frGD/n5zboHeN7lIHl/AaYwBAAAAAAAcqg58fiSXWyXZAV0/PU+FaW7F4oPbB9neMKcMT9cFY3PMrl77J/HBdwAAAAAAAA5NBxyIcbvNoW6fZldm6eoJ2c62oa410bhUm+PVp6blKz0QkNvjYbBeAAAAAABwyDvgR5OsRCKhWDSi9p5+feDRRi1oDDkD99qnlG6am68rDyuUyxeQx+MZPAIAAAAAgHeO7STg93nk2ZcpgN/DItG4Iq99tAUp8ZYCMVY8HlciGtYzdZ36+FMtau6P66Ixmfr20cXKy8qUx+sd3BMAAAAA8FbZ8MGhHkQYYueaie3rhDOG2+XSQCSmR1bt1PIdHfs8V817iT3ndJ9Hx40p1RE1Bc6jLftaDc6953HLY+rxUL4D46bG4nH7NNCBBbLeciDGisdiioQG9N2Frbprfa9uP6NM40qy5fb5GaAXAAAAAA4S27yKxhK659Vt+te6RvUGY4fscJzVBRl638wRmlyRaxrEb96stUGYcCyumx9bLZfbpeNGlxySdWfPuS8U0z9e3arTxg/T+VMr96n+LBv/e2DFDv1xQZ0au4KH7L1XW5Sl644ZrTk1hftcd3s6KIEY+4hSIhZVfVuvtnSFdURVtvx+HkkCAAAAgIPJDgVx28sNWlDXpi+cPF5FmQHFD8VuHcaLpg5uXVivG0+fqNrCzDdtEPu9br20uU33LNuq/z3jMGX5vU7PhkOR7dGyrrlH33l8jX504TT5PW8+fKzP7PPI6p26/I8vKRSJH7JBGMvea8MLMvSPDx2pyRV5+/2I10EJxFj2wx+LhO2zSnJ5ffLySBIAAAAAHFQ2EPPBWxfp/846TBW56Qf01/j3AhsDSPN59PNnNyjD79EH59aqPxxLvvkf2P3/uWKHlm7r0NfOmKT+UHTwnUOTDUxd+vsX9evLZirT1OGb3Um2nq/880Ld/vIWpfsOfALm94r+SFw3nTVJXzxlwn7fSwet9mw3L6/PLw89YQAAAADgbdMbjjo9YQ7VIIxlz9z2yMhN96nHaQQfwt0zUsVUeEd/WIkEA/xa8WhM3cEDC+Yd1DCWHQ/GTmvNuDAAAAAA8Paww6Qeqo8jvZaNRdH6TBFb11T2Xg60Og5eIMZcEa/XLZ9Z7AjeXB8AAAAAAIC9veVAjO394ve55A0OqGFLp1Zu6tDWtgHnUaWAh4AMAAAAAADAkLcQiHHJ63Ep0t2lO5+o0yX31OuyB+p1hVkuubdO5969WXes6lTU9pQhGgMAAAAAMO1DnqDYfx6PW6b5jfeIAw7EeD1xtdQ36qN/r9eHX+nUfTtCcmWk6exRuTo626tNDZ364CMN+shjO9QUMftz0wAAAADAfyE78YpXGYHkkuY9qEOJ7mbahLFIUK1dA4ok3iMNRPskiN/7hkESl9uzq26d+vV59isQ5XLF1LitVTv7E3K/B9vV0WhMfaGIeoPJJRh7749/dECfMI+5y7p2tugrjzXp7h6TiMftPIp0xIRi3XzBGN18XJmmZLhkxw++a0WzbniuSX3m/ffgPQMAAAAA715ut7zxAS15cZluuHWRPmqWXy3YpohpC7td5j3T1vPZ3hiDLUeX207Q4nJ6aNjtth04xL5ntyW3J7fZyVzsazvttses97Vs14PP1Kk95nnX9/BweTxy9Xbot48s0+re2OsGSWxd9TU36H9NvV7j1O9i/f7Feg3EEzaGY6Mse9Tx3nWZ3O4xS0gvPP6KXtiZkNfsb+v+9fJ690k499m0qWP1o8vn6g/vP1K/v3KWrh6Tpkg0plg8rkgsrmgiYfZMKGrW7euIqbuhUE1saJtZbPwmYfYdej20X9x8Hdpm0/pvsP+BGHvhQ0H94/kW3dWdkN9jNpnNWT6XNqxt0udvW60v/mu71obd8pvU082n658rzL5r+5xHmQAAAAAA/w1MYz/aq1vvfFF/N4388+fW6poZJZqQ73feDfX3ae2WNi1s6FB7MOEEY4K9QfUPBFW/1Wzf0qnOcMwJqNiAQ7i3V8vr2/Tyti51h+PymTf6Oru0uK5NG9uDNrKjeDSqjp6oaRA7Wbx7uUx719TdfY+9ooZIhirSvbuCA3uyY6p2tjRqa0dC7ztujD58RLE6l6/WX17pdIJUseCANm4zdVnfoe09EaeObRAmNtCn1Q1tWmTquC0Yk9+X7HXj9sTV0dptrkf8XR+MiUZcOnLeLP3lgnHK7GzVnxbUa11/Qr5+jwoLslScl63JI4o0PjsgV8Kr2vICHWFej8sPyK24velUVZqvGTVFOrwyV/m27jIL9PlLj9Xv547Q4WWZynLFlJ6VqSnDizSzKk/FflPndqqtd9h+B2LsxW9tbtHft0QUNy9sAjbSVFOdp1+eVK73mxvrqom5qvQlnIiUjfKFozHdtqZDzVHXuz7qCQAAAADvBbZHR+vaDXoymKcvnTdVM6sLNG1UteaOLlGaN6rGhjo9vKBOtz29XDc/ul497rjWvbBUX79jke5fVK8/P7VEv3hondpNIznSsV233r1If3p+k25fUq+dfXH1bKvTbx54Vbct2qTfPPSyntnUI7fJ0wZt3t1sz5+gXnxmidan1ehzp49Srieh/9TZImFazcMKczS7ukTTx5VobK5f/eGwXG63Bpq26pGFdbr9xRX65QMrtHXALVd/q+66d6H+8Nwm3bZ4szZ12ACNaUt73eqo26gf3r9cW/tsAOxdXI+JmGLZZfqfOWV69l/P66MPbdSCTY36yX1L9OuOhC695iTd/7Gj9fWTanVsUZbOnHe4/n71DH38xMm69SNzdXVVuvyBNH3y7Bm64egxuunKY/XLUypUMaJYp00dpuOmDNclhxWqcFihbnr/MfrxaeP1xQuP1J8uGKPq9MQ7Hgjc70CMvdTbtob0asKlZJw0KWFuouKibI0dXqBRpZnKcCVsjMrhdSe0ozOoLR1RJ8IHAAAAAHgn2UdcwtrU0K2yqlIVmdZbaPDxDftISDzhVfmokfrwWVP1rbNqFW3YoQ39UblccXX4ivWRi47Qby8/XIUdjVrWHNKyZRv1anGNfvKBOfrpuYdpQr5bzy/crOiosbrpoum6cLhHjy9uUFf0ABqh/1VsQCSujS+v1P1NOfrQKSOVZYMKb9CwD/hcWrBys87/5ZM64ycv6nFXgS6bVqKEqeecimpddephuumcqaqJtumFHabdvGajHvUN03ffP0e/uGiqZpalK6aEurfW6w8vNOvkU6bp8BK/0yHiXctWWG2uSgNhrXy5Q66AR37nUazBu8PvU17DBn30d/P1o21+XXNUseY/s1Afu3OJbu/K06ePrFBmsEc/e2CRrrtrsX74fL2mT6tW1/btun9nrxY88qo+ffd6VYwfqyMDXfrk3xfpSw+uUM3UUTqiOlvh6FC04p1xQIGYvv6YIsmXDp/bpdUb23TjUlOBthuVOSd7SwzF5+zoML2RqHoiEZPhuz36CQAAAADvAabRZjtVJFx7N+jt4zQyjdynnlqir/3tJX3o/o16sT2huNN6TGhmTZnSElEFExnKzHCpLxxRh3l/em2x3NGo+qNus1ev6raF9OiyOl3750X6wQbTSCzMlDfxzjaADxY7TqpLcUX3IRgSjiY0ZXSVfnHVbP3pfYfrjPQe/XbRDike0ssvLte3b1+gj92+Unc02XBLXM1NEU0dWapAPKb+iLkW5l88EtZdT63Utpxhmludrci7/tkuI3lqg//bg7n/PKZuFi/vUGvQo4AN2GQEdMSkw3TLRVM0I96hp1t7VTSyVj+/6mj949q5+tSMMmXKI3m8Crhd8ga88vjcmpLnVWFenj573ix9/dgR2rihVdv7k0/6vJMOKBjp9bqcQMuebDesoXvh9c7JZ5+hc9sPJAAAAADgnZVQLO7XiIpsba5vUnPC7cyW5DeLz+dS05Z6vbg1Tddfc5z+cfUknV7sViyWPDJuB0+1DbuE7TljG7Uu+QIJ1XUP2Ol1TRq2TZim/MI0ffDEqbrzo8fo3k8cqx+cVqsM0wJ9N3fkcOot6lbt1Ik6v7xfv390g7rkecNZgm1dBXxelWQFVJxfpBm1eXppW4v6d27Xd9cG9aFLj9Ltn5ilD5f7nPFL0tNd2tTVL5dzPVxOsCwin46ZN07lLfW6d2Wnc53e1WwkZHOvOqNpmjqzSArFFIrGFY4P9uowXC63PB6z0hhWX9+Abn3seV38syd1/k+f0Icf2qlTjp+oRGO9Tv/xv/SlR3aox9x19qk3J7jo9OxKaEc4oeaG7br+F0/qgl88pZN/8YJe2NqrwDtcf/udu62T8hKfhpuVwc/hLva9ofvPrg/Wn1MBxeamK8sOOCMWAwAAAADeWYlYTCUTR+nUQKe+d99SPbOhRc+t3apVjaZJ6/fIGwtr+YadembBZq1pipjGs2nbmcZyxGkIJlt+dnabcMKlqROKFF26Xg8ua9TT63doe59Lc6YVauXzr+qR5Tv0zCvrtbSh3fnjfcSkkTDHD7Ud330SisQDOmLe4Zoc36rvPrhOrbFkEOD12J4z29u69ezGFs1fvUl/f7lRJ9ZWKMPnVXoiomVbWvX8Cyv1XOOASVcaO6lU+Ws36R9LdupZU5eb2vvkM3mOrBmjT5xYqQVPL9VzzWFnJqp3LZdHnu7t+r8FO3TcCbP1u/PG6ugJFXr/ieN1Yo5fMZ+5/+zEQGa/RFu97q8L6+MXz9UVs6r1iXNm6HMTipXoDqsqN1vHHD5Onz5jjEp95q6KRNXVFdf440botInFenntdrWXVutXl07U6dPG6eYLx2l6cVzh1wYzUszzla985euD6/sk4XIpM92t7Ru79FJQuyN/5gN1zPAcHTc8U6Gufj27tkNroslpteLmg3n+YcW6YFS6bIALAAAAALD/7HTR/1i6TedOqdhruuMDlfAENH1iqfK6u/Xghg6tbhlQVnaeDq8pU567T/9c0660YaU6Z2ypKkqzlOl2K7sgVxV53mQCpjylJfkaWV6iEelh/WtNq1b1mobwsHyNH16mal9Qj61u1YrOqIYPKzANZ7+8/nRVlWYq4N49DfGBsOOJvLqtU6FoTLNripzxbd6InQ56fXOPGruDOnZMyZvu/8YSirkDGluVp+a2buUU56vI/+9PgNjeGXbYk63tQS3Z3qk1jQMqqanWNUcMkz8nU4enSY+ublFHWqEunVGigrwc1ZSVaFx+XM+Z7Uvaoxo1LE/lGQHlFuequrxIpf6wGuMBjS5Md6ZrPlD2/vnH0q0687AKZ3yWN2Pr+/aXG7TB1OGusVzeArcnoS11O7WoI67q4hwdVpqjEk9cy+va1ByMqHFLm1b3ReUy+y1d16b+zExNr8g3+0S1qq5F969ukzc/W1ML/VqxcYse3tCp1fUtqtvZrUBhvsZkxbV0xWY9uCWimvJ8TSrLUKirUy9t6VZX+D8HzvaVHWfm6NElOmFc6X7fS66+vr79vnI+84FZtaxB73/S3EgJt+xEXbW1hXr69AoVZHoVj8TUtG67jnmiVfUD0tiyLP3jwlrVprvecBAjAAAAAMB/ZntBXPqHl/THK2cdlMZwkks+n8ekl3wVi9rHRBLy+rymgS7FzXrMZZZI3JlpyU4dHBls2NnjbM8a25PD6/UqYOMz8YRCZkM0YdIY2mZETDsxGrczDg31inlrMkzh7JTHXQNhffq4seoPRwffeX1pJuN/rtihpds69LUzJqk/9Mb77xOXSwGTbjQS/Y9tXZfbo3T/7lZ/3OwYMnVhd/d4PaZ+XKYObS8bs28iprD5OrTdDt8Ttl2Q3OZa23o2r32mTt12v7fYuLaPN136+xf168tmKtPU5ZulluH36qxfP6eHV+5w1g8W26vKPpaUZOrT3nRmW8zUQdpgtMQGnILm+g6dstfk7zclHggn69FOBW6lm2PjsbiCtn7NtnR7s8VjGrCVa9hrkeZzH5QxYnoHIvryaRN10zmT9/teOqBPbiTh1sTJ5frhEdmqTcTVb848YSpuw84ePbu2XfPrelTXa07WfGCHF2bqR6dVa3SmmyAMAAAAAPzXSSgSiao/mFxsEMaywQX7OmgaxRHTkLVN2ZgNBuzRsEsGV2zz2QZwBtMwjeOYaTjvtc0s9riEaT/angTvmaahOc/QHgGC15Owg+4O1oFdnCDB4Hs26GW3Ddh6HAxo2XqLm+0Ddn/TwLcDAkfNa3tZ7HtRU6dvNQjz38Tn9SgrzTe4eJ3JgHx+764gjGUHkE4PDO3jc96zwZfMwdc2KGcXe4THM7jdvLYBF49nd/qZ/oMThHmrDiyEam62iAKaN6davz+pUJfnubWzoUMX3LVJV9y7We+7Z6MufrZTx48q0G3nVOu4Yv976kYBAAAAAAA4EAfely2RUNjl16wplfr1FeP0woUV+t6cIn1pWqG+f1KVHnv/OP3y9GodXhzQu3p+cwAAAAAAgIPkwAMxlg3G2Gf80vyqGVGsi46u1kdPGq4LpxZrTEFAPpM6PWEAAAAAAP8NbOv0v+DJlP8KyXmrqI13wlsLxAyy88jbKaqjsYTz3J9d7DOBdIQBAAAAgIPLzjVkZ0+CadCaatjXZqdpojqDHdsxV6xDuQbt/ROJx5362+dbydY1bfy9HGh1HJRADAAAAAAgNXICPjX1BOXz7O7TcMgt5n82ntLRH1Zums9sefMmcSwe15iSbO3oGtD8jS1K93ud2X8OuSXgdaau/tOCOo0sznJmFtqngEIiocLMgDNw7qHO1pfb61Fuur339t8BTV8NAAAAAEg926Pjzle26ukNzbrhxHEqygo4Tygcil7c3KY7l2zR18+YpOEFGbt6urwRG4B4cl2T7l+23Zmp6FBlYylFmQF96MiRqi3KdJ5weTN2uvR/mbq79A8vqi8ck+sQ7h5jZ7AaVZyluz44VxOG5SoaG5p+e98QiAEAAACAdwnbF8G2mR9csV2Prm5UTyi674+WvMfUFGTqyiNGaFxp9j4FYYZ4PS519kfUHYwMbjn02EeSCrMCSvN69ikIM8QGsh5f0+T0pmnsHjhke8fUFmbpE8eM0rTKfHPv7V8QxiIQAwAAAADvMj7TIHbZZfD1och2yLBBBDs+6f5ijJ3k4zWJ/aw7W2u2V5bH4z7E772EE/zbnwDgngjEAAAAAAAApAiD9QIAAAAAAKQIgRgAAAAAAIAUccXjB/hQEwAAAAAAAPaD9P8BORbtE4W5SGgAAAAASUVORK5CYII=;" vertex="1" parent="1">
          <mxGeometry x="10" y="20" width="1053.61" height="570" as="geometry" />
        </mxCell>
        <mxCell id="0lMjlkx2c2jUyEddDLRM-3" value="" style="rounded=0;whiteSpace=wrap;html=1;align=left;" vertex="1" parent="1">
          <mxGeometry x="20" y="660" width="810" height="350" as="geometry" />
        </mxCell>
        <mxCell id="0lMjlkx2c2jUyEddDLRM-5" value="" style="edgeStyle=elbowEdgeStyle;elbow=vertical;endArrow=classic;html=1;curved=0;rounded=0;endSize=8;startSize=8;" edge="1" parent="1">
          <mxGeometry width="50" height="50" relative="1" as="geometry">
            <mxPoint x="1020" y="590" as="sourcePoint" />
            <mxPoint x="510" y="660" as="targetPoint" />
          </mxGeometry>
        </mxCell>
        <mxCell id="0lMjlkx2c2jUyEddDLRM-6" value="Transfer Order Document For Picking Material" style="text;html=1;align=center;verticalAlign=middle;resizable=0;points=[];autosize=1;strokeColor=#666666;fillColor=#f5f5f5;fontColor=#333333;fontSize=21;" vertex="1" parent="1">
          <mxGeometry x="150" y="670" width="450" height="40" as="geometry" />
        </mxCell>
        <mxCell id="0lMjlkx2c2jUyEddDLRM-8" value="Text" style="text;html=1;align=center;verticalAlign=middle;resizable=0;points=[];autosize=1;strokeColor=#6c8ebf;fillColor=#dae8fc;" vertex="1" parent="1">
          <mxGeometry x="50" y="730" width="50" height="30" as="geometry" />
        </mxCell>
        <mxCell id="0lMjlkx2c2jUyEddDLRM-9" value="" style="shape=image;verticalLabelPosition=bottom;labelBackgroundColor=default;verticalAlign=top;aspect=fixed;imageAspect=0;image=data:image/png,iVBORw0KGgoAAAANSUhEUgAAAZAAAAGQCAIAAAAP3aGbAAAACXBIWXMAAA7EAAAOxAGVKw4bAAAL4ElEQVR4nO3dy44jOQwEQPdi/v+XZy97G9fChEQOszvibMhVfiQEVIL6+v379wsgwT9/+wIAPiWwgBgCC4ghsIAYAguIIbCAGAILiCGwgBgCC4ghsIAYAguIIbCAGAILiCGwgBi/Sq/++vpquo5zT3Nynq757euv3GBp5dJ4n9LlXVn5fPpQ30c6/45XPv+3i7R+WYl/2yd2WEAMgQXEEFhADIEFxBBYQAyBBcSo1Rremj93p+/p/hWlyzu/l80PrV9/4/N/Uvr0zj/V+T5NyfL/xRM7LCCGwAJiCCwghsACYggsIIbAAmIILCDGhR7Wk/PaxXxVpG9Ax5VhI+eTSZ4WueL8Xp70/RKurHz+veyZDLP8b2uHBcQQWEAMgQXEEFhADIEFxBBYQIzGWsMSV6Z89B2EMz9sZPggnL7zePYYvpfv9NFV2WEBMQQWEENgATEEFhBDYAExBBYQQ2ABMb5/D+vKlI/Si/taVFfqYH1DYEqWjzEZ/hKvvPgnsMMCYggsIIbAAmIILCCGwAJiCCwgRmOtIfGJ7JXxMiXz42Xemj/DZsk9Pt1L30ChJccF7XnHEjssIIbAAmIILCCGwAJiCCwghsACYggsIMaFHtZ8oaZk/pipJdWqkivjZUpFp77LKC3e9/Po6/TN18H2sMMCYggsIIbAAmIILCCGwAJiCCwgxtfyaRLD5p/1Dj8+ry5yvnLfO/Z1HZabb+rsYYcFxBBYQAyBBcQQWEAMgQXEEFhADIEFxGjsYZWGjZx3aqorf5shMNVr3jyEZM8BYonHfC0ZlVNapHptdlhADIEFxBBYQAyBBcQQWEAMgQXEEFhAjAs9rOXTeZZUq5YX0Ermq23zragl/4sr3aXPV35S+o1defETOywghsACYggsIIbAAmIILCCGwAJi/PrbF/CfvuejS54B9z1Frj4+7/uo+57Bv3WlKTJfvplvKpQWP//1thaJ7LCAGAILiCGwgBgCC4ghsIAYAguIIbCAGNPjZfZM8+hriwyfo7WnwnO+cl9bbd6eatvwb6x13pQdFhBDYAExBBYQQ2ABMQQWEENgATGmx8vMHx5z5fXn4zXOR3w8rVz96PoGqgz3CeZvvK/B01oF6DvNqMSpOcDPIrCAGAILiCGwgBgCC4ghsIAYAguIcaGH1VdoGp7TUn3Hn3DMVF8/bvlcndI7Ljk5bX5G0Dw7LCCGwAJiCCwghsACYggsIIbAAmJcODXncenABsP849vzG99zhsqeh9/nNs+iqb5jSd+onM9X+B92WEAMgQXEEFhADIEFxBBYQAyBBcQQWECMWg9ryRiNz1eovmPJfEfm/DJWXcmf9tSRhoVW2+ZbhHZYQAyBBcQQWEAMgQXEEFhADIEFxLhwak7Jlce0V56PvlV6ujx/4MrnK7SaPyfpyjeeeHjMd5r+dOVe7LCAGAILiCGwgBgCC4ghsIAYAguIIbCAGI09rPMjgFoLHX3HfPV1Z+bfbriAdsX8QKG+e1nyg9xTprPDAmIILCCGwAJiCCwghsACYggsIMaFWsP8nIrz83iuuPL4dvjUoid9l1d9xyVKrZe+F3++wi3LRxvZYQExBBYQQ2ABMQQWEENgATEEFhBDYAExaj2svpEsS3oorWeFfa6vwnPlSuYrVPPvuKTrd+Xt3l52X4uw9dOwwwJiCCwghsACYggsIIbAAmIILCCGwAJi1HpYw32T1klP5weOXWmyzI+4Kq08POnpij2lobfOq23V4+/O77H1wL0SOywghsACYggsIIbAAmIILCCGwAJiXDjmq6Tv8XnV+UPuK0/El/QGrrQuSiufa20knF/2fJ+mdCXLuylP7LCAGAILiCGwgBgCC4ghsIAYAguIIbCAGF/zAyLe2jOE5K3zyxt+u1BXfo3zs1CGD6nb82cZ/l+87LCAIAILiCGwgBgCC4ghsIAYAguIMV1rGH4AXH3H1is51/c8u2+8zJPzX8KVw2Pm6ybzM4JK+r6Xz1f4H3ZYQAyBBcQQWEAMgQXEEFhADIEFxBBYQIzaMV9Lxp70lYNK71hypRzUV0e68s0uKW313Uuf1jrY/P+ljx0WEENgATEEFhBDYAExBBYQQ2ABMWq1hr7JGOeX0brI5mNR+k40qTq/8StfypU+x/mV7OkNDH8vrYvYYQExBBYQQ2ABMQQWEENgATEEFhBDYAExasd8lfom5y+e1zcLZclxUrcWbzJ/zUt+vfM/j5IlN/6ywwKCCCwghsACYggsIIbAAmIILCDGlvEyfSNZ5k9tWTLNo7R436dXWnn+t9T6s1mycl/PZr6NYYcFxBBYQAyBBcQQWEAMgQXEEFhADIEFxGgcL9PnymUMl1OWDEh5ev1w0az6jlcMH792xfzBen1/5yt/WzssIIbAAmIILCCGwAJiCCwghsACYtTGy5y7Mqdi/llvafG+8seVexx+Nj9fmOi7kvkGT8lwI+HpHVsn9thhATEEFhBDYAExBBYQQ2ABMQQWEENgATGmj/m6chJR32FQffcyf5zUk/kW2/BlPH2kfZOUNo9duuK8JvkyXgb4aQQWEENgATEEFhBDYAExBBYQQ2ABMWrHfNWWnm2FtFZ43lpSe7nS8OoroPXZM53q/Mb3DAJ7a/4H+cQOC4ghsIAYAguIIbCAGAILiCGwgBi1WkPfkU3z42XOfafywZJ2y3cayfLk/B4Tr/llvAzw0wgsIIbAAmIILCCGwAJiCCwghsACYkyPl1nS93ky3/zqO22sZM8pZOeW3Mue5t35ylfe8Qo7LCCGwAJiCCwghsACYggsIIbAAmJcqDWUHt9eefHnK9x6x83lg/kDV66UP+anrCz5Et/q++FdsaSK8bLDAoIILCCGwAJiCCwghsACYggsIIbAAmL86lv6vMJzpfZSWmT50VhL5of8hAJayfKf+vkvofSDbJ3RZIcFxBBYQAyBBcQQWEAMgQXEEFhAjNp4mfm5FsP6nsjOP4NfPjhlub7pQ8Mvfnp962FLb115RzssIIbAAmIILCCGwAJiCCwghsACYggsIMaFY76uOK+KXDn0qbT4kmpV9TLOuzN97Zu+kTitloyXeTL/5/qcY76Ab0tgATEEFhBDYAExBBYQQ2ABMS7UGq4c8VJauaTv8W3ogI7hR9R9JwAtaeQ8uTIx5vMVqotcMX+okh0WEENgATEEFhBDYAExBBYQQ2ABMQQWEONX39LndYyfMJnkvMnypK8AdUXfzJMrNaXhTlnpMlqVbny++WWHBcQQWEAMgQXEEFhADIEFxBBYQIzaeJnzp5h7BqT0jTcZPkNl/rigUEuaChve7pb5GUF2WEAMgQXEEFhADIEFxBBYQAyBBcQQWECM2niZJQcrLRk7M1+HOW94lVZ+suR8s+rnf/59XTm5q+9P1Pe9LPnjv+ywgCACC4ghsIAYAguIIbCAGAILiCGwgBi1HtaeQTx/eqqKzB/B9HaR4fOyXsUb7ytz9V3Gntlq80PNSpZ/eiV2WEAMgQXEEFhADIEFxBBYQAyBBcSo1Rremh89MT845bypcOUh954n5W8tGZzSd+PzX+IVS76XK+ywgBgCC4ghsIAYAguIIbCAGAILiCGwgBgXelhPzuswew4XGrb8xudH5VxxflbY8lk0S0YYtR4ZZ4cFxBBYQAyBBcQQWEAMgQXEEFhAjMZawxJXKgKlx7d9L75iSWfi/OH3lU9p/myh+VE5w7+xK5/SEzssIIbAAmIILCCGwAJiCCwghsACYggsIMb372H1taWuFJpKw0bOX1y6jCdXLq+0csmSotl8AbDPko/0ZYcFBBFYQAyBBcQQWEAMgQXEEFhAjMZaw5JHoX0Vgb4Xl9oVV8zPPCm5UtEYPuJl/kvs09cNqrLDAmIILCCGwAJiCCwghsACYggsIIbAAmJc6GHNt3KuOG+FLCkHVZ0v3ldHaj25a8nBYm9d6S4tH85zPn3oZYcFBBFYQAyBBcQQWEAMgQXEEFhAjK/EYRfAz2SHBcQQWEAMgQXEEFhADIEFxBBYQAyBBcQQWEAMgQXEEFhADIEFxBBYQAyBBcQQWEAMgQXE+Bd7/YFCXSETrgAAAABJRU5ErkJggg==;" vertex="1" parent="1">
          <mxGeometry x="650" y="670" width="130" height="130" as="geometry" />
        </mxCell>
        <mxCell id="0lMjlkx2c2jUyEddDLRM-10" value="For Scanning&amp;nbsp;" style="verticalAlign=bottom;html=1;endArrow=none;edgeStyle=none;labelBackgroundColor=none;fontSize=10;strokeWidth=2;rounded=0;" edge="1" parent="1">
          <mxGeometry relative="1" as="geometry">
            <mxPoint x="788" y="730" as="sourcePoint" />
            <mxPoint x="948" y="730" as="targetPoint" />
            <mxPoint as="offset" />
          </mxGeometry>
        </mxCell>
        <mxCell id="0lMjlkx2c2jUyEddDLRM-11" value="Jump into Transfer Order Page" style="resizable=0;html=1;align=left;verticalAlign=top;labelBackgroundColor=none;fontSize=10;" connectable="0" vertex="1" parent="0lMjlkx2c2jUyEddDLRM-10">
          <mxGeometry x="-1" relative="1" as="geometry">
            <mxPoint x="50" as="offset" />
          </mxGeometry>
        </mxCell>
      </root>
    </mxGraphModel>
  </diagram>
</mxfile>
